<?xml version="1.0" encoding="UTF-8" standalone="no"?>
<!-- Created with Inkscape (http://www.inkscape.org/) -->
<svg
   xmlns:dc="http://purl.org/dc/elements/1.1/"
   xmlns:cc="http://creativecommons.org/ns#"
   xmlns:rdf="http://www.w3.org/1999/02/22-rdf-syntax-ns#"
   xmlns:svg="http://www.w3.org/2000/svg"
   xmlns="http://www.w3.org/2000/svg"
   xmlns:sodipodi="http://sodipodi.sourceforge.net/DTD/sodipodi-0.dtd"
   xmlns:inkscape="http://www.inkscape.org/namespaces/inkscape"
   id="svg2"
   sodipodi:version="0.32"
   inkscape:version="0.46"
   width="713.68347"
   height="379.17706"
   xml:space="preserve"
   sodipodi:docname="P2PU-shirt-original.svg"
   inkscape:output_extension="org.inkscape.output.svg.inkscape"
   version="1.0"><metadata
     id="metadata7"><rdf:RDF><cc:Work
         rdf:about=""><dc:format>image/svg+xml</dc:format><dc:type
           rdf:resource="http://purl.org/dc/dcmitype/StillImage" /></cc:Work></rdf:RDF></metadata><defs
     id="defs5"><inkscape:perspective
       sodipodi:type="inkscape:persp3d"
       inkscape:vp_x="0 : 526.18109 : 1"
       inkscape:vp_y="0 : 1000 : 0"
       inkscape:vp_z="744.09448 : 526.18109 : 1"
       inkscape:persp3d-origin="372.04724 : 350.78739 : 1"
       id="perspective9" /><clipPath
       clipPathUnits="userSpaceOnUse"
       id="clipPath19"><path
         d="M 18,41.12002 L 576.96,41.12002 L 576.96,824.00002 L 18,824.00002 L 18,41.12002 z"
         id="path21" /></clipPath></defs><sodipodi:namedview
     inkscape:window-height="726"
     inkscape:window-width="1231"
     inkscape:pageshadow="2"
     inkscape:pageopacity="0"
     guidetolerance="10.0"
     gridtolerance="10.0"
     objecttolerance="10.0"
     borderopacity="1.0"
     bordercolor="#666666"
     pagecolor="#ffffff"
     id="base"
     showgrid="false"
     inkscape:zoom="0.41053452"
     inkscape:cx="295.9204"
     inkscape:cy="191.04277"
     inkscape:window-x="16"
     inkscape:window-y="25"
     inkscape:current-layer="g11"
     showborder="false"
     inkscape:showpageshadow="false"
     units="cm" /><g
     id="g11"
     inkscape:groupmode="layer"
     inkscape:label="P2PU-shirt-original"
     transform="matrix(1.25,0,0,-1.25,-12.897039,918.2171)">






<path
   style="fill:#470047;fill-opacity:1;fill-rule:evenodd;stroke:#000000;stroke-width:0.80000001px;stroke-linecap:butt;stroke-linejoin:miter;stroke-opacity:1"
   d="M 457.25522,683.53124 L 464.04874,676.73774 L 440.53275,600.44143 L 455.6875,567.51906 L 500.62915,553.40947 L 530.93864,570.13194 L 554.45462,649.56371 L 566.4739,650.08629 L 572.74483,673.0797 L 527.2806,686.6667 L 518.91936,665.24103 L 525.71286,660.53783 L 501.15173,585.80926 L 485.99698,585.80926 L 471.88739,595.73824 L 493.83565,669.42165 L 500.10658,669.94423 L 506.3775,693.46021 L 463.00358,706.52465 L 457.25522,683.53124 z"
   id="path2435" /><text
   xml:space="preserve"
   style="font-size:36.98830413999999678px;font-style:normal;font-variant:normal;font-weight:normal;font-stretch:normal;text-align:start;line-height:125%;writing-mode:lr-tb;text-anchor:start;fill:#e6e6e6;fill-opacity:1;stroke:none;stroke-width:1px;stroke-linecap:butt;stroke-linejoin:miter;stroke-opacity:1;font-family:Princetown LET;-inkscape-font-specification:Princetown LET"
   x="225.0863"
   y="-669.65796"
   id="text2431"
   sodipodi:linespacing="125%"
   transform="matrix(0.9563048,-0.2923717,-0.2923717,-0.9563048,0,0)"><tspan
     sodipodi:role="line"
     id="tspan2433"
     x="225.0863"
     y="-669.65796"
     style="font-size:221.92996216000000231px;fill:#e6e6e6;fill-opacity:1">U</tspan></text>

<path
   style="fill:#470047;fill-opacity:1;fill-rule:evenodd;stroke:#000000;stroke-width:0.80000001px;stroke-linecap:butt;stroke-linejoin:miter;stroke-opacity:1"
   d="M 270.6951,594.1705 L 181.33436,583.19638 L 178.1989,611.93814 L 232.02437,673.0797 L 232.02437,696.0731 L 204.32776,693.98279 L 200.14714,679.35062 L 172.45054,676.21516 L 168.7925,696.0731 L 190.21818,722.72454 L 236.72756,726.38258 L 262.85643,704.43434 L 265.46932,668.89907 L 222.61798,616.11876 L 269.64994,619.25422 L 270.6951,594.1705 z"
   id="path2429" /><text
   xml:space="preserve"
   style="font-size:40.28429412999999926px;font-style:normal;font-variant:normal;font-weight:normal;font-stretch:normal;text-align:start;line-height:125%;writing-mode:lr-tb;text-anchor:start;fill:#e6e6e6;fill-opacity:1;stroke:none;stroke-width:1px;stroke-linecap:butt;stroke-linejoin:miter;stroke-opacity:1;font-family:Princetown LET;-inkscape-font-specification:Princetown LET"
   x="227.32236"
   y="-554.95007"
   id="text2425"
   sodipodi:linespacing="125%"
   transform="matrix(0.9945219,0.1045284,0.1045284,-0.9945219,0,0)"><tspan
     sodipodi:role="line"
     id="tspan2427"
     x="227.32236"
     y="-554.95007"
     style="font-size:221.56359862999997290px;fill:#e6e6e6;fill-opacity:1">2</tspan></text>

<path
   style="fill:#470047;fill-opacity:1;fill-rule:evenodd;stroke:#000000;stroke-width:0.80000013px;stroke-linecap:butt;stroke-linejoin:miter;stroke-opacity:1"
   d="M 26.985522,674.85583 L 30.817376,656.067 L 40.212694,656.57619 L 65.093357,574.68933 L 57.071737,570.79841 L 62.678049,557.26358 L 100.57506,569.57855 L 95.948384,583.49211 L 86.638092,581.34043 L 77.551188,611.50951 L 117.56615,624.13351 L 129.42157,646.01068 L 118.9034,682.37893 L 95.05161,696.25771 L 26.985522,674.85583 z M 98.253936,672.12088 L 104.26986,648.03823 L 102.23443,639.27531 L 74.938965,627.38958 L 63.512544,664.526 L 98.253936,672.12088 z"
   id="path2415"
   sodipodi:nodetypes="ccccccccccccccccccccc" /><path
   style="font-size:32px;font-style:normal;font-weight:normal;fill:#e6e6e6;fill-opacity:1;stroke:none;stroke-width:1px;stroke-linecap:butt;stroke-linejoin:miter;stroke-opacity:1;font-family:Bitstream Vera Sans"
   d="M 143.1272,645.5406 L 126.61254,612.99054 L 91.489694,602.31941 L 93.592535,595.39812 L 104.2327,598.63085 L 115.68846,560.92547 L 53.190464,541.93713 L 41.734692,579.64254 L 51.755037,582.68691 L 31.856524,648.1807 L 21.836149,645.13629 L 10.317631,683.0483 L 97.298311,709.47503 L 129.25474,691.20029 L 143.1272,645.5406 M 129.07142,646.12214 L 117.89811,682.89783 L 95.144979,695.39307 L 26.758736,674.61577 L 30.807485,661.28972 L 40.827812,664.33414 L 68.196117,574.25439 L 58.175785,571.20996 L 62.161794,558.09054 L 99.247359,569.358 L 95.261383,582.47745 L 85.034424,579.37025 L 75.461813,610.8775 L 116.98941,623.49454 L 129.07142,646.12214 M 111.21962,643.97069 L 105.83502,634.21036 L 71.331975,623.72753 L 57.45951,669.38723 L 91.962543,679.87005 L 101.83531,674.85808 L 111.21962,643.97069 M 96.975524,645.17206 L 90.635626,666.03916 L 74.107241,661.01745 L 80.447132,640.15037 L 96.975524,645.17206"
   id="path2417" /><path
   d="M -24.244492,453.08173 L -24.244492,447.66445 L -24.244492,453.08173"
   style="fill:#ffffff;fill-opacity:1;fill-rule:evenodd;stroke:none"
   id="path575" /><path
   d="M -24.244492,453.08173 L -24.244492,447.66445 L -24.244492,453.08173"
   style="fill:#ffffff;fill-opacity:1;fill-rule:evenodd;stroke:none"
   id="path577" /><path
   d="M -24.244492,453.08173 L -24.244492,447.66445 L -24.244492,453.08173"
   style="fill:#d7d7d7;fill-opacity:1;fill-rule:evenodd;stroke:none"
   id="path919" /><path
   d="M -24.244492,453.08173 L -24.244492,447.66445 L -24.244492,453.08173"
   style="fill:#d7d7d7;fill-opacity:1;fill-rule:evenodd;stroke:none"
   id="path921" /><path
   d="M 477.75677,464.6386 L 477.75677,464.00658 C 477.75677,445.90572 461.82996,431.23204 442.1833,431.23204 C 442.1833,431.23204 442.1833,431.23204 442.1833,431.23204 L 150.01133,431.23204 C 130.36459,431.23204 114.43786,445.90572 114.43786,464.00658 C 114.43786,464.00658 114.43786,464.00658 114.43786,464.00658 L 114.43786,465.27069 C 114.43786,483.37155 130.36467,498.04516 150.01133,498.04516 L 442.1833,498.04516 C 461.82996,498.04516 477.75677,483.37155 477.75677,465.27061 C 477.75677,465.27061 477.75677,465.27061 477.75677,465.27061"
   style="fill:#470047;fill-opacity:1;fill-rule:nonzero;stroke:none"
   id="path963" /><path
   d="M 612.28589,646.65921 L 612.28589,622.82317 L 612.28589,626.61527 L 612.28589,619.39223 L 612.28589,618.30877 L 612.28589,578.76263 L 612.28589,585.62452 L 612.28589,625.17066 L 612.28589,624.08721 L 612.28589,692.70609 L 612.28589,693.78954 L 612.28589,733.51626 L 612.28589,723.94573 L 612.28589,694.51185 L 612.28589,646.65921"
   style="fill:#d7d7d7;fill-opacity:1;fill-rule:evenodd;stroke:none"
   id="path1221" /><path
   d="M 612.28589,652.61821 L 612.28589,691.26148 L 612.28589,711.66657 L 612.28589,719.25076 L 612.28589,705.34641 L 612.28589,704.26295 L 612.28589,609.8217 L 612.28589,610.90516 L 612.28589,597.18138 L 612.28589,593.02813 L 612.28589,606.75191 L 612.28589,607.83537 L 612.28589,640.88077 L 612.28589,636.36637 L 612.28589,652.61821"
   style="fill:#470047;fill-opacity:1;fill-rule:evenodd;stroke:none"
   id="path1223" /><path
   d="M 612.28589,657.67434 L 612.28589,650.63188 L 612.28589,654.42397 L 612.28589,702.27661 L 612.28589,698.48452 L 612.28589,689.99745 L 612.28589,657.67434"
   style="fill:#d7d7d7;fill-opacity:1;fill-rule:evenodd;stroke:none"
   id="path1281" /><path
   d="M 612.28589,645.39517 L 612.28589,612.53034 L 612.28589,601.87636 L 612.28589,594.83389 L 612.28589,598.08426 L 612.28589,560.1633 L 612.28589,540.84167 L 612.28589,578.76263 L 612.28589,581.83242 L 612.28589,647.92324 L 612.28589,644.85345 L 612.28589,683.13556 L 612.28589,709.86081 L 612.28589,691.44205 L 612.28589,645.39517"
   style="fill:#d7d7d7;fill-opacity:1;fill-rule:evenodd;stroke:none"
   id="path1307" /><path
   d="M 612.28589,646.11748 L 612.28589,683.13556 L 612.28589,695.5953 L 612.28589,674.64849 L 612.28589,661.10529 L 612.28589,664.17508 L 612.28589,573.52593 L 612.28589,570.27556 L 612.28589,557.09351 L 612.28589,568.4698 L 612.28589,581.83242 L 612.28589,578.58205 L 612.28589,610.36343 L 612.28589,623.18433 L 612.28589,646.11748"
   style="fill:#470047;fill-opacity:1;fill-rule:evenodd;stroke:none"
   id="path1309" /><path
   d="M 612.28589,643.76999 L 612.28589,634.01889 L 612.28589,623.3649 L 612.28589,669.41178 L 612.28589,680.06577 L 612.28589,675.00964 L 612.28589,643.76999"
   style="fill:#d7d7d7;fill-opacity:1;fill-rule:evenodd;stroke:none"
   id="path1367" /><path
   d="M 612.28589,645.03402 L 612.28589,665.98084 L 612.28589,660.92471 L 612.28589,639.97789 L 612.28589,645.03402"
   style="fill:#4f8c00;fill-opacity:1;fill-rule:evenodd;stroke:none"
   id="path1395" /><path
   d="M 612.28589,665.07796 L 612.28589,621.19799 L 612.28589,625.71239 L 612.28589,586.16625 L 612.28589,574.97053 L 612.28589,614.51668 L 612.28589,675.91252 L 612.28589,689.81687 L 612.28589,687.83053 L 612.28589,671.39812 L 612.28589,666.70314 L 612.28589,696.13703 L 612.28589,725.75149 L 612.28589,731.52993 L 612.28589,707.33274 L 612.28589,665.07796"
   style="fill:#d7d7d7;fill-opacity:1;fill-rule:evenodd;stroke:none"
   id="path1397" /><path
   d="M 612.28589,639.97789 L 612.28589,643.40884 L 612.28589,565.03885 L 612.28589,546.98125 L 612.28589,563.05252 L 612.28589,596.09793 L 612.28589,674.64849 L 612.28589,677.71828 L 612.28589,715.81981 L 612.28589,698.30394 L 612.28589,662.54989 L 612.28589,664.35565 L 612.28589,595.91735 L 612.28589,590.68065 L 612.28589,659.11895 L 612.28589,660.74413 L 612.28589,696.67876 L 612.28589,678.07943 L 612.28589,639.97789"
   style="fill:#d7d7d7;fill-opacity:1;fill-rule:evenodd;stroke:none"
   id="path1399" /><path
   d="M 612.28589,656.22973 L 612.28589,669.77293 L 612.28589,680.42692 L 612.28589,667.06429 L 612.28589,665.07796 L 612.28589,581.65185 L 612.28589,576.59572 L 612.28589,585.08279 L 612.28589,594.83389 L 612.28589,678.26001 L 612.28589,676.45425 L 612.28589,689.81687 L 612.28589,699.92913 L 612.28589,686.5665 L 612.28589,683.49671 L 612.28589,597.00081 L 612.28589,574.06765 L 612.28589,561.06618 L 612.28589,573.16477 L 612.28589,659.66068 L 612.28589,656.22973"
   style="fill:#470047;fill-opacity:1;fill-rule:evenodd;stroke:none"
   id="path1401" /><path
   d="M 612.28589,453.08173 L 612.28589,447.66445 L 612.28589,453.08173"
   style="fill:#d7d7d7;fill-opacity:1;fill-rule:evenodd;stroke:none"
   id="path1553" /><path
   d="M 612.28589,453.08173 L 612.28589,447.66445 L 612.28589,453.08173"
   style="fill:#d7d7d7;fill-opacity:1;fill-rule:evenodd;stroke:none"
   id="path1555" /><path
   d="M 612.28589,664.89738 L 612.28589,686.74708 L 612.28589,688.37226 L 612.28589,666.34199 L 612.28589,664.89738"
   style="fill:#4f8c00;fill-opacity:1;fill-rule:evenodd;stroke:none"
   id="path1557" /><text
   xml:space="preserve"
   style="font-size:32px;font-style:normal;font-variant:normal;font-weight:normal;font-stretch:normal;fill:#000000;fill-opacity:1;stroke:none;stroke-width:1px;stroke-linecap:butt;stroke-linejoin:miter;stroke-opacity:1;font-family:Princetown LET;-inkscape-font-specification:Princetown LET"
   x="190.6713"
   y="-563.14545"
   id="text2417"
   transform="scale(1,-1)"><tspan
     sodipodi:role="line"
     id="tspan2419"
     x="190.6713"
     y="-563.14545"
     style="font-size:64px;font-style:normal;font-variant:normal;font-weight:normal;font-stretch:normal;font-family:Princetown LET;-inkscape-font-specification:Princetown LET" /><tspan
     sodipodi:role="line"
     x="190.6713"
     y="-483.14545"
     style="font-size:64px;font-style:normal;font-variant:normal;font-weight:normal;font-stretch:normal;font-family:Princetown LET;-inkscape-font-specification:Princetown LET"
     id="tspan2421" /></text>

<path
   style="fill:#470047;fill-opacity:1;fill-rule:evenodd;stroke:#000000;stroke-width:0.80000001px;stroke-linecap:butt;stroke-linejoin:miter;stroke-opacity:1"
   d="M 318.77264,718.54886 L 315.12264,699.72386 L 323.99764,696.59886 L 315.64764,611.42386 L 306.74764,610.89886 L 306.74764,596.24886 L 346.47264,593.12386 L 347.52264,607.74886 L 338.09764,609.32386 L 341.24764,640.67386 L 383.04764,637.02386 L 402.37264,652.69886 L 406.57264,690.32386 L 389.84764,712.27386 L 318.77264,718.54886 z M 383.56944,688.74886 L 379.9114,664.19721 L 374.67749,656.88025 L 344.9113,656.34479 L 348.56615,695.02706 L 383.56944,688.74886 z"
   id="path3198"
   sodipodi:nodetypes="ccccccccccccccccccccc" /><path
   style="font-size:32px;font-style:normal;font-weight:normal;fill:#e6e6e6;fill-opacity:1;stroke:none;stroke-width:1px;stroke-linecap:butt;stroke-linejoin:miter;stroke-opacity:1;font-family:Bitstream Vera Sans"
   d="M 414.8551,647.01964 L 387.14118,623.2672 L 350.60824,626.84928 L 349.90235,619.65012 L 360.96969,618.56497 L 357.12422,579.34581 L 292.11708,585.71981 L 295.96256,624.939 L 306.38518,623.91701 L 313.06473,692.0402 L 302.64207,693.06217 L 306.50864,732.49624 L 396.98137,723.6253 L 419.51182,694.51245 L 414.8551,647.01964 M 402.0918,652.93583 L 405.84245,691.18797 L 389.60302,711.43931 L 318.47125,718.41386 L 317.11215,704.55281 L 327.53477,703.53087 L 318.34777,609.83465 L 307.92514,610.85658 L 306.58715,597.21044 L 345.16161,593.42819 L 346.49964,607.07434 L 335.86209,608.11735 L 339.07545,640.88953 L 382.27027,636.65424 L 402.0918,652.93583 M 384.77556,657.77973 L 376.06573,650.82296 L 340.17747,654.34183 L 344.83419,701.83465 L 380.72243,698.31577 L 387.92568,689.90718 L 384.77556,657.77973 M 372.07548,664.34063 L 374.20367,686.04549 L 357.01171,687.73117 L 354.88352,666.02633 L 372.07548,664.34063"
   id="text2423" /><path
   style="fill:none;fill-rule:evenodd;stroke:#000000;stroke-width:0.80000001px;stroke-linecap:butt;stroke-linejoin:miter;stroke-opacity:1"
   d="M 327.13345,705.47947 L 327.13345,705.47947 L 327.13345,705.47947 z"
   id="path3202" /></g></svg>