<?xml version="1.0" encoding="UTF-8" standalone="no"?>
<!-- Created with Inkscape (http://www.inkscape.org/) -->

<svg
   xmlns:dc="http://purl.org/dc/elements/1.1/"
   xmlns:cc="http://creativecommons.org/ns#"
   xmlns:rdf="http://www.w3.org/1999/02/22-rdf-syntax-ns#"
   xmlns:svg="http://www.w3.org/2000/svg"
   xmlns="http://www.w3.org/2000/svg"
   xmlns:sodipodi="http://sodipodi.sourceforge.net/DTD/sodipodi-0.dtd"
   xmlns:inkscape="http://www.inkscape.org/namespaces/inkscape"
   id="svg2"
   sodipodi:version="0.32"
   inkscape:version="0.48.0 r9654"
   width="1052.3622"
   height="744.09448"
   xml:space="preserve"
   sodipodi:docname="P2PU-shirt-class-2011.svg"
   inkscape:output_extension="org.inkscape.output.svg.inkscape"
   version="1.0"><metadata
     id="metadata7"><rdf:RDF><cc:Work
         rdf:about=""><dc:format>image/svg+xml</dc:format><dc:type
           rdf:resource="http://purl.org/dc/dcmitype/StillImage" /><dc:title></dc:title></cc:Work></rdf:RDF></metadata><defs
     id="defs5"><inkscape:perspective
       sodipodi:type="inkscape:persp3d"
       inkscape:vp_x="0 : 526.18109 : 1"
       inkscape:vp_y="0 : 1000 : 0"
       inkscape:vp_z="744.09448 : 526.18109 : 1"
       inkscape:persp3d-origin="372.04724 : 350.78739 : 1"
       id="perspective9" /><clipPath
       clipPathUnits="userSpaceOnUse"
       id="clipPath19"><path
         d="m 18,41.12002 558.96,0 0,782.88 -558.96,0 0,-782.88 z"
         id="path21" /></clipPath></defs><sodipodi:namedview
     inkscape:window-height="752"
     inkscape:window-width="1280"
     inkscape:pageshadow="2"
     inkscape:pageopacity="0"
     guidetolerance="10.0"
     gridtolerance="10.0"
     objecttolerance="10.0"
     borderopacity="1.0"
     bordercolor="#666666"
     pagecolor="#ffffff"
     id="base"
     showgrid="false"
     inkscape:zoom="0.85338625"
     inkscape:cx="526.18109"
     inkscape:cy="435.635"
     inkscape:window-x="0"
     inkscape:window-y="0"
     inkscape:current-layer="g11"
     showborder="true"
     inkscape:showpageshadow="false"
     units="cm"
     inkscape:window-maximized="0" /><g
     id="g11"
     inkscape:groupmode="layer"
     inkscape:label="P2PU-shirt-original"
     transform="matrix(1.25,0,0,-1.25,-12.897039,1283.1345)">









<path
   style="fill:#470047;fill-opacity:1;fill-rule:evenodd;stroke:#000000;stroke-width:1.12187183px;stroke-linecap:butt;stroke-linejoin:miter;stroke-opacity:1"
   d="m 392.90879,803.09652 -125.31412,-15.38945 -4.39698,40.30571 75.4816,85.74124 0,32.24456 -38.84006,-2.93132 -5.86265,-20.51928 -38.84004,-4.39698 -5.12982,27.84758 30.04609,37.37437 65.22195,5.12982 36.64155,-30.77889 3.66416,-49.83252 -60.09214,-74.01593 65.95479,4.39698 1.46567,-35.17589 z"
   id="path2429" /><text
   xml:space="preserve"
   style="font-size:56.49226761px;font-style:normal;font-variant:normal;font-weight:normal;font-stretch:normal;text-align:start;line-height:125%;writing-mode:lr-tb;text-anchor:start;fill:#e6e6e6;fill-opacity:1;stroke:none;font-family:Princetown LET;-inkscape-font-specification:Princetown LET"
   x="327.43893"
   y="-748.62915"
   id="text2425"
   sodipodi:linespacing="125%"
   transform="matrix(0.9945219,0.1045284,0.1045284,-0.9945219,0,0)"><tspan
     sodipodi:role="line"
     id="tspan2427"
     x="327.43893"
     y="-748.62915"
     style="font-size:310.70742798px;fill:#e6e6e6;fill-opacity:1">2</tspan></text>




<path
   style="fill:#470047;fill-opacity:1;fill-rule:evenodd;stroke:#000000;stroke-width:1.12187195px;stroke-linecap:butt;stroke-linejoin:miter;stroke-opacity:1"
   d="m 51.145164,922.64476 5.373555,-26.34832 13.175431,0.71405 34.89114,-114.83319 -11.249043,-5.45639 7.861973,-18.98043 53.14448,17.26977 -6.48818,19.51154 -13.05619,-3.01739 -12.74293,42.3073 56.11458,17.70314 16.62532,30.67922 -14.75004,51.00064 -33.44832,19.46277 -95.451776,-30.01271 z m 99.942516,-3.83533 8.43638,-33.77206 -2.85436,-12.28859 -38.27752,-16.66783 -16.02372,52.07788 48.71922,10.6506 z"
   id="path2415"
   sodipodi:nodetypes="ccccccccccccccccccccc" /><path
   style="font-size:32px;font-style:normal;font-weight:normal;fill:#e6e6e6;fill-opacity:1;stroke:none;font-family:Bitstream Vera Sans"
   d="m 214.01525,881.53485 -23.15916,-45.64624 -49.25417,-14.96455 2.9489,-9.706 14.92113,4.53338 16.06487,-52.87575 -87.643423,-26.6281 -16.064886,52.87579 14.051916,4.26924 -27.904466,91.84455 -14.051963,-4.2693 -16.152879,53.16552 121.976461,37.05925 44.81377,-25.62739 19.4539,-64.0304 m -19.71097,0.81551 -15.66878,51.57202 -31.90762,17.52257 -95.900753,-29.13684 5.677723,-18.68764 14.051907,4.26931 38.379653,-126.32242 -14.0519,-4.26932 5.58974,-18.39789 52.00656,15.80081 -5.5897,18.39793 -14.34167,-4.35735 -13.42405,44.18387 58.2358,17.69337 16.94309,31.73158 m -25.03429,-3.01706 -7.55104,-13.6873 -48.38499,-14.70049 -19.45391,64.03042 48.38497,14.70047 13.84498,-7.02848 13.15999,-43.31462 m -19.97507,1.68473 -8.89069,29.26276 -23.1784,-7.04214 8.89068,-29.26274 23.17841,7.04212"
   id="path2417" /><path
   d="m -20.696728,605.24213 0,-7.59687 0,7.59687"
   style="fill:#ffffff;fill-opacity:1;fill-rule:evenodd;stroke:none"
   id="path575" /><path
   d="m -20.696728,605.24213 0,-7.59687 0,7.59687"
   style="fill:#ffffff;fill-opacity:1;fill-rule:evenodd;stroke:none"
   id="path577" /><path
   d="m -20.696728,605.24213 0,-7.59687 0,7.59687"
   style="fill:#d7d7d7;fill-opacity:1;fill-rule:evenodd;stroke:none"
   id="path919" /><path
   d="m -20.696728,605.24213 0,-7.59687 0,7.59687"
   style="fill:#d7d7d7;fill-opacity:1;fill-rule:evenodd;stroke:none"
   id="path921" /><path
   d="m 703.56249,644.32647 0,-0.75026 c 0,-21.48744 -13.90249,-39.15618 -44.50035,-39.15618 l -469.0479,0.24969 c -30.59801,0 -52.28755,17.41905 -52.28755,38.90649 0,0 0,0 0,0 l 0,1.50063 c 0,21.4874 18.57479,38.90638 49.17265,38.90638 l 469.04793,-2.6924 c 30.59787,0 47.61522,-14.72658 47.61522,-36.2141 0,0 0,0 0,0"
   style="fill:#470047;fill-opacity:1;fill-rule:nonzero;stroke:none"
   id="path963"
   sodipodi:nodetypes="ccccccccccc" /><path
   d="m 807.06121,624.05397 0,-6.55591 0,6.55591"
   style="fill:#d7d7d7;fill-opacity:1;fill-rule:evenodd;stroke:none"
   id="path1553" /><path
   d="m 807.06121,624.05397 0,-6.55591 0,6.55591"
   style="fill:#d7d7d7;fill-opacity:1;fill-rule:evenodd;stroke:none"
   id="path1555" /><g
   id="g2876"
   transform="matrix(0.99996192,0.00872653,-0.00872653,0.99996192,6.036073,-8.0000019)"><path
   id="path2435"
   d="m 656.12946,938.01063 9.52682,-9.52679 -32.9774,-106.99335 21.2521,-46.16835 63.02347,-19.78644 42.5042,23.45059 32.97739,111.39033 16.85511,0.73283 8.79398,32.24457 -63.7563,19.05359 -11.7253,-30.04607 9.5268,-6.59548 -34.44305,-104.79484 -21.25211,0 -19.78644,13.9238 30.77892,103.32917 8.79397,0.73284 8.79396,32.97739 -60.82497,18.32079 -8.06115,-32.24458 z"
   style="fill:#470047;fill-opacity:1;fill-rule:evenodd;stroke:#000000;stroke-width:1.12187183px;stroke-linecap:butt;stroke-linejoin:miter;stroke-opacity:1" /><text
   transform="matrix(0.9612617,-0.27563733,-0.27563733,-0.9612617,0,0)"
   sodipodi:linespacing="125%"
   id="text2431"
   y="-919.62921"
   x="354.42599"
   style="font-size:51.87017059px;font-style:normal;font-variant:normal;font-weight:normal;font-stretch:normal;text-align:start;line-height:125%;writing-mode:lr-tb;text-anchor:start;fill:#e6e6e6;fill-opacity:1;stroke:none;font-family:Princetown LET;-inkscape-font-specification:Princetown LET"
   xml:space="preserve"><tspan
     style="font-size:311.22122192px;fill:#e6e6e6;fill-opacity:1"
     y="-919.62921"
     x="354.42599"
     id="tspan2433"
     sodipodi:role="line">U</tspan></text>

<path
   id="path1221"
   style="fill:#d7d7d7;fill-opacity:1;fill-rule:evenodd;stroke:none"
   d="m 873.53513,886.30352 0,-33.42623 0,5.31782 0,-10.12916 0,-1.51938 0,-55.45712 0,9.6227 0,55.45712 0,-1.51936 0,96.22698 0,1.51936 0,55.71035 0,-13.42112 0,-41.2763 0,-67.10566" /><path
   id="path1223"
   style="fill:#470047;fill-opacity:1;fill-rule:evenodd;stroke:none"
   d="m 873.53513,894.66006 0,54.191 0,28.61486 0,10.63561 0,-19.49862 0,-1.51938 0,-132.43871 0,1.51937 0,-19.2454 0,-5.82427 0,19.24541 0,1.51938 0,46.34087 0,-6.33072 0,22.7906" /><path
   id="path1281"
   style="fill:#d7d7d7;fill-opacity:1;fill-rule:evenodd;stroke:none"
   d="m 873.53513,901.75047 0,-9.87592 0,5.3178 0,67.10566 0,-5.3178 0,-11.90175 0,-45.32799" /><path
   id="path1307"
   style="fill:#d7d7d7;fill-opacity:1;fill-rule:evenodd;stroke:none"
   d="m 873.53513,884.53091 0,-46.08766 0,-14.9405 0,-9.87594 0,4.55813 0,-53.17807 0,-27.09549 0,53.17807 0,4.30489 0,92.68178 0,-4.30489 0,53.68452 0,37.47788 0,-25.82935 0,-64.57337" /><path
   id="path1309"
   style="fill:#470047;fill-opacity:1;fill-rule:evenodd;stroke:none"
   d="m 873.53513,885.54383 0,51.91192 0,17.47279 0,-29.37454 0,-18.99217 0,4.30489 0,-127.12091 0,-4.55812 0,-18.48571 0,15.95342 0,18.73894 0,-4.55813 0,44.56829 0,17.97926 0,32.16007" /><path
   id="path1367"
   style="fill:#d7d7d7;fill-opacity:1;fill-rule:evenodd;stroke:none"
   d="m 873.53513,882.25185 0,-13.67435 0,-14.94052 0,64.57337 0,14.94052 0,-7.09042 0,-43.8086" /><path
   id="path1395"
   style="fill:#4f8c00;fill-opacity:1;fill-rule:evenodd;stroke:none"
   d="m 873.53513,884.02445 0,29.37456 0,-7.09041 0,-29.37456 0,7.09041" /><path
   id="path1397"
   style="fill:#d7d7d7;fill-opacity:1;fill-rule:evenodd;stroke:none"
   d="m 873.53513,912.13286 0,-61.53462 0,6.33072 0,-55.45712 0,-15.70021 0,55.45714 0,86.09783 0,19.49862 0,-2.78552 0,-23.04382 0,-6.58396 0,41.27631 0,41.52954 0,8.10333 0,-33.93268 0,-59.25556" /><path
   id="path1399"
   style="fill:#d7d7d7;fill-opacity:1;fill-rule:evenodd;stroke:none"
   d="m 873.53513,876.93404 0,4.81136 0,-109.90135 0,-25.32289 0,22.53738 0,46.34089 0,110.15457 0,4.30489 0,53.43129 0,-24.5632 0,-50.13933 0,2.53229 0,-95.97375 0,-7.34363 0,95.97375 0,2.27905 0,50.39256 0,-26.08258 0,-53.4313" /><path
   id="path1401"
   style="fill:#470047;fill-opacity:1;fill-rule:evenodd;stroke:none"
   d="m 873.53513,899.72464 0,18.99217 0,14.94051 0,-18.73895 0,-2.78551 0,-116.99174 0,-7.09042 0,11.90176 0,13.67435 0,116.99177 0,-2.53229 0,18.73893 0,14.18083 0,-18.73895 0,-4.30489 0,-121.29664 0,-32.16008 0,-18.23248 0,16.96634 0,121.29665 0,-4.81136" /><path
   id="path1557"
   style="fill:#4f8c00;fill-opacity:1;fill-rule:evenodd;stroke:none"
   d="m 873.53513,911.87963 0,30.6407 0,2.27906 0,-30.89393 0,-2.02583" /></g><text
   xml:space="preserve"
   style="font-size:32px;font-style:normal;font-variant:normal;font-weight:normal;font-stretch:normal;fill:#000000;fill-opacity:1;stroke:none;font-family:Princetown LET;-inkscape-font-specification:Princetown LET"
   x="190.6713"
   y="-563.14545"
   id="text2417"
   transform="scale(1,-1)"><tspan
     sodipodi:role="line"
     id="tspan2419"
     x="190.6713"
     y="-563.14545"
     style="font-size:64px;font-style:normal;font-variant:normal;font-weight:normal;font-stretch:normal;font-family:Princetown LET;-inkscape-font-specification:Princetown LET" /><tspan
     sodipodi:role="line"
     x="190.6713"
     y="-483.14545"
     style="font-size:64px;font-style:normal;font-variant:normal;font-weight:normal;font-stretch:normal;font-family:Princetown LET;-inkscape-font-specification:Princetown LET"
     id="tspan2421" /></text>




<g
   id="g2871"
   transform="matrix(0.99880615,0.04884976,-0.04884976,0.99880615,49.472296,-30.840659)"><path
     sodipodi:nodetypes="ccccccccccccccccccccc"
     id="path3198"
     d="m 469.92983,990.31723 -5.11854,-26.39904 12.44577,-4.38231 -11.70954,-119.44429 -12.48082,-0.73623 0,-20.54428 55.70795,-4.38231 1.47245,20.50922 -13.21705,2.20868 4.41737,43.96336 58.6178,-5.11854 27.10022,21.98167 5.88982,52.76303 -23.45413,30.78136 -99.6713,8.79968 z m 90.86713,-41.78972 -5.12981,-34.42976 -7.33972,-10.26086 -41.74231,-0.7509 5.12534,54.24569 49.0865,-8.80417 z"
     style="fill:#470047;fill-opacity:1;fill-rule:evenodd;stroke:#000000;stroke-width:1.12187183px;stroke-linecap:butt;stroke-linejoin:miter;stroke-opacity:1" /><path
     id="text2423"
     d="m 604.67009,890.00896 -38.86433,-33.30899 -51.2316,5.0233 -0.9899,-10.09567 15.52017,-1.52175 -5.39265,-54.99859 -91.1621,8.93852 5.39267,54.99863 14.61606,-1.43318 9.367,95.53186 -14.61611,1.43314 5.42224,55.29997 126.8735,-12.44007 31.59535,-40.82611 -6.5303,-66.60106 m -17.89849,8.29651 5.25969,53.6425 -22.7732,28.39926 -99.75091,9.78069 -1.90592,-19.4379 14.61606,-1.43311 -12.8833,-131.39393 -14.61607,1.43309 -1.87631,-19.13653 54.0945,-5.304 1.87637,19.13654 -14.91746,1.46266 4.50622,45.95773 60.57381,-5.93932 27.79652,22.83232 m -24.28325,6.7928 -12.21414,-9.75576 -50.32753,4.93465 6.5303,66.60107 50.32751,-4.93466 10.1014,-11.7917 -4.41754,-45.0536 m -17.80982,9.20061 2.98444,30.43759 -24.10897,2.36389 -2.98444,-30.43756 24.10897,-2.36392"
     style="font-size:32px;font-style:normal;font-weight:normal;fill:#e6e6e6;fill-opacity:1;stroke:none;font-family:Bitstream Vera Sans" /><path
     id="path3202"
     d="m 481.65453,971.98951 0,0 0,0 z"
     style="fill:none;stroke:#000000;stroke-width:1.12187183px;stroke-linecap:butt;stroke-linejoin:miter;stroke-opacity:1" /></g><flowRoot
   xml:space="preserve"
   id="flowRoot2413"
   style="font-size:40px;font-style:normal;font-variant:normal;font-weight:normal;font-stretch:normal;text-align:start;line-height:125%;writing-mode:lr-tb;text-anchor:start;fill:#e6e6e6;fill-opacity:1;stroke:none;font-family:Bitstream Vera Sans Mono;-inkscape-font-specification:Bitstream Vera Sans Mono"
   transform="matrix(1.5987216,0,0,-1.5987216,-118.81582,1119.6142)"><flowRegion
     id="flowRegion2415"><rect
       id="rect2417"
       width="386.02005"
       height="63.10453"
       x="180.14003"
       y="272.94064"
       style="font-style:normal;font-variant:normal;font-weight:normal;font-stretch:normal;fill:#e6e6e6;font-family:Bitstream Vera Sans Mono;-inkscape-font-specification:Bitstream Vera Sans Mono" /></flowRegion><flowPara
     id="flowPara2419"
     style="font-style:normal;font-variant:normal;font-weight:normal;font-stretch:normal;font-family:Bitstream Vera Sans Mono;-inkscape-font-specification:Bitstream Vera Sans Mono">CLASS OF 2011</flowPara></flowRoot></g></svg>