<?xml version="1.0" encoding="utf-8"?>
<!-- Generator: Adobe Illustrator 16.0.0, SVG Export Plug-In . SVG Version: 6.00 Build 0)  -->
<!DOCTYPE svg PUBLIC "-//W3C//DTD SVG 1.1//EN" "http://www.w3.org/Graphics/SVG/1.1/DTD/svg11.dtd">
<svg version="1.1" id="Layer_1" xmlns="http://www.w3.org/2000/svg" xmlns:xlink="http://www.w3.org/1999/xlink" x="0px" y="0px"
	 width="1024px" height="768px" viewBox="0 0 1024 768" enable-background="new 0 0 1024 768" xml:space="preserve">
<g>
	<path fill-rule="evenodd" clip-rule="evenodd" fill="#00AC3B" d="M365.096,822.188c0,2.439-0.086,4.883,0.022,7.318
		c0.129,2.886,0.426,5.764,0.668,8.879c0.21-0.285,0.477-0.479,0.489-0.689c0.112-1.9,0.177-3.805,0.263-5.707
		c0.013-0.293,0.061-0.584,0.381-0.896c0.052,0.7,0.104,1.401,0.156,2.103c0.107,0,0.215-0.002,0.322-0.002
		c0-3.411,0-6.822,0-10.232c0.163-0.002,0.325-0.005,0.487-0.007c0,3.968,0,7.937,0,11.905c0.147,0.019,0.295,0.037,0.442,0.056
		c0.838-1.109,0.441-2.544,0.943-3.804c0,2.801,0,5.602,0,8.452c0.543,0.099,0.908,0.165,1.321,0.241
		c-0.142,4.918-0.282,9.789-0.425,14.749c0.859,0,1.645,0,2.431,0c-0.043,0.081-0.086,0.161-0.13,0.242
		c0.412,0.334,0.823,0.668,1.388,1.126c0,5.944,0,12.191,0,18.53c0.614,0.034,1.27,0.07,1.816,0.101c0,2.839,0.001,5.611,0,8.384
		c-0.002,2.239-0.068,4.481,0.035,6.717c0.021,0.476,0.693,0.898,0.989,1.392c0.268,0.445,0.543,0.936,0.62,1.436
		c0.316,2.062,0.56,4.133,0.826,6.202c0.09,0.699,0.165,1.4,0.254,2.164c1.199,0.129,2.406,0.259,3.654,0.394
		c0.068,0.348,0.139,0.709,0.209,1.07c0.086,0.001,0.173,0.003,0.259,0.004c0-1.221,0-2.441,0-3.807
		c0.684,0,1.209-0.093,1.689,0.017c1.806,0.41,2.536-0.905,3.38-2.037c0.185-0.248,0.276-0.565,0.41-0.851
		c0.229,0.272,0.458,0.544,0.799,0.95c0.321-0.403,0.641-0.805,1.083-1.36c0.11,0.447,0.178,0.725,0.282,1.148
		c1.395,0.092,2.843,0.187,4.347,0.285c0.082-0.586,0.144-1.034,0.206-1.482c0.117-0.061,0.234-0.121,0.351-0.182
		c0.263,1.648,0.531,3.293,2.43,3.986c0-1.958-0.1-3.862,0.021-5.752c0.25-3.904,0.641-7.799,0.92-11.701
		c0.091-1.273-0.02-2.561,0.042-3.838c0.018-0.369,0.319-0.726,0.469-1.042c0.505,0.365,0.842,0.608,1.429,1.032
		c0-0.816-0.051-1.257,0.015-1.68c0.064-0.415,0.202-1.139,0.386-1.164c1.467-0.205,0.996-1.293,1.026-2.112
		c0.045-1.238,0.003-2.479,0.017-3.72c0.004-0.36,0.072-0.721,0.11-1.081c0.12,0.004,0.239,0.009,0.358,0.014
		c0,2.173,0,4.346,0,6.519c0.149,0.004,0.298,0.008,0.447,0.011c0-2.052,0-4.104,0-6.156c0.151,0.001,0.303,0.003,0.454,0.004
		c0,2.027,0,4.055,0,6.072c0.882,0.292,1.937-0.282,2.307,0.947c0.055,0.182,0.944,0.113,1.679,0.182
		c0.197-2.533,0.385-4.96,0.574-7.387c0.095,0.011,0.191,0.021,0.286,0.031c0,2.012,0,4.024,0,6.036
		c0.056,0.002,0.112,0.004,0.168,0.006c0.104-1.848,0.209-3.696,0.313-5.544c0.088-0.016,0.175-0.031,0.263-0.047
		c0.079,0.283,0.218,0.565,0.225,0.851c0.026,1.16,0.03,2.32,0.004,3.479c-0.017,0.771,0.034,1.378,0.74,1.985
		c0.471,0.405,0.46,1.369,0.725,2.293c0.391-0.256,0.812-0.533,1.4-0.919c0,4.194,0,8.212,0,12.296c1.056,0,2,0,2.943,0
		c-0.033-0.096-0.066-0.191-0.099-0.287c0.458-0.201,0.907-0.549,1.375-0.575c1.355-0.078,2.723-0.099,4.077-0.004
		c0.955,0.066,2.035-0.484,2.861,0.638c0.246,0.334,1.109,0.237,1.694,0.293c0.971,0.092,1.945,0.147,2.994,0.225
		c0,1.157,0,2.186,0,3.203c1.89,0.241,3.426,1.527,5.417,1.212c0.664-0.105,1.562,0.454,1.34,1.586
		c-0.046,0.236,0.163,0.521,0.254,0.784c0.103-0.018,0.206-0.035,0.308-0.054c0.123-0.95,0.246-1.901,0.368-2.853
		c0.146,0.009,0.291,0.018,0.437,0.026c0,1.177,0,2.354,0,3.53c0.04-0.006,0.081-0.011,0.121-0.016
		c0.312-2.018,0.624-4.035,0.954-6.175c1.125,0,2.265,0,3.636,0c0-4.525,0-8.931,0-13.303c0.756-0.166,1.29-0.398,1.813-0.378
		c1.76,0.071,3.418-0.386,5.127-0.678c2.103-0.36,4.318-0.09,6.483-0.019c0.208,0.007,0.397,0.534,0.613,0.845
		c3.208,0.273,6.469,0.551,9.855,0.84c0,3.887,0,7.743,0,11.771c0.954,0,1.785,0,2.616,0c0.002,0.092,0.004,0.183,0.007,0.274
		c-0.38,0.09-0.76,0.18-1.14,0.269c-0.008,0.122-0.016,0.244-0.023,0.366c1.32,0.117,2.641,0.234,4.07,0.361
		c0-2.537,0-5.087,0-7.637c0-2-0.014-4,0.004-6c0.017-1.875,0.257-2.037,2.122-2.11c2.69-0.105,5.379-0.28,8.064-0.479
		c1.255-0.093,2.514-0.252,3.747-0.499c0.482-0.098,0.892-0.532,1.348-0.79c0.332-0.188,0.686-0.337,1.292-0.63
		c-0.117,0.561-0.166,0.795-0.238,1.142c0.835,0.141,1.664,0.28,2.582,0.435c0,2.351,0,4.737,0,6.848
		c0.543,0.53,0.906,0.884,1.432,1.396c1.145-0.288,2.095,0.289,2.876,1.494c0.596,0.92,1.536,1.611,2.17,2.513
		c0.399,0.567,0.721,1.331,0.728,2.01c0.059,5.279,0.033,10.56,0.033,15.839c0,0.393,0,0.785,0,1.177
		c0.05,0.002,0.1,0.004,0.15,0.006c0.301-3.334,0.602-6.667,0.902-10c0.104-0.004,0.208-0.008,0.312-0.012
		c0.137,1.686,0.275,3.372,0.42,5.153c0.753,0,1.566,0,2.512,0c0-4.875,0-9.77,0-14.698c3-0.194,5.874-0.381,8.747-0.566
		c-0.032-0.134-0.065-0.267-0.097-0.4c0.457-0.188,0.92-0.552,1.368-0.533c2.609,0.105,5.215,0.302,7.911,0.473
		c0.052,0.43,0.103,0.847,0.156,1.29c1.121,0.118,2.247,0.285,3.377,0.324c0.294,0.01,0.602-0.381,0.947-0.617
		c0.135,0.265,0.291,0.572,0.448,0.879c0.159-0.25,0.298-0.517,0.485-0.743c0.083-0.1,0.37-0.185,0.385-0.162
		c0.169,0.27,0.305,0.56,0.45,0.846c1.882,0.097,3.779,0.193,5.728,0.293c0.225,2.013,0.441,3.957,0.671,6.018
		c0.917,0,1.817,0,2.679,0c0,3.611,0,7.104,0,10.791c0.803,0.316,1.75,0.659,2.664,1.077c0.182,0.083,0.311,0.445,0.33,0.69
		c0.109,1.302,0.188,2.606,0.251,3.911c0.052,1.036,0.751,1.42,1.657,0.884c0.15-0.089,0.295-0.191,0.441-0.287
		c0.593,0.906,1.379,0.288,2.001,0.168c0.429,0.439-0.154,1.629,1.11,1.154c0.203-0.637-0.123-1.8,1.156-1.548
		c0.65,0.128,1.24,0.562,1.967,0.911c0.023-0.385,0.067-0.757,0.068-1.13c0.004-4.28,0.006-8.56-0.004-12.84
		c-0.001-0.388-0.095-0.774-0.139-1.162c-0.021-0.19-0.105-0.508-0.029-0.555c1.138-0.705,2.253-1.844,3.46-1.956
		c2.553-0.239,5.155,0.081,7.738,0.135c1.815,0.038,2.655,0.843,2.656,2.641c0,0.718,0,1.435,0,2.025
		c0.567-0.039,1.091-0.046,1.606-0.117c0.541-0.075,1.072-0.212,1.641-0.328c0-1.574,0-3.183,0-4.77
		c4.385-0.785,8.827-0.285,13.215,0.22c0,3.816,0,7.621,0,11.582c1.387,0,2.638,0,3.701,0c-0.215,2.125-0.416,4.113-0.646,6.391
		c0.554-0.196,1.044-0.256,1.068-0.396c0.232-1.363,0.822-0.515,1.378-0.213c0.042-0.242,0.079-0.462,0.118-0.682
		c0.168,0.153,0.312,0.394,0.508,0.444c0.572,0.147,1.164,0.221,1.891,0.349c0-0.902-0.02-1.612,0.004-2.32
		c0.069-1.984,0.131-3.971,0.265-5.951c0.021-0.318,0.405-0.613,0.622-0.919c0.095,0.035,0.189,0.071,0.283,0.106
		c0-0.548,0-1.096,0-1.728c1.145-0.277,2.225-0.677,3.328-0.762c0.832-0.063,1.69,0.329,2.548,0.421
		c1.218,0.13,2.446,0.254,3.667,0.225c1.199-0.027,1.385,0.787,1.627,1.664c0.48,0,0.951,0,1.436,0
		c0.533-0.804-0.75-2.852,1.588-2.324c1.24-2.031,2.443-4.001,3.646-5.971c-0.084-0.074-0.168-0.148-0.252-0.224
		c0.42,0,0.84,0,1.393,0c0,1.237,0,2.49,0,3.743c0.086,0.001,0.174,0.002,0.262,0.002c0-1.252,0-2.504,0-3.883
		c1.277,1.369,2.434,2.605,3.805,4.074c0-1.518,0-2.696,0-3.969c0.855-0.102,1.623-0.211,2.395-0.279
		c0.553-0.049,0.984-0.35,1.436-0.547c0.865-0.377,2.426-0.525,2.955-0.008c0.936,0.918,1.947,0.477,2.861,0.719
		c1.576,0.416,3.262,0.409,5.125,0.604c0,3.489,0,6.938,0,10.442c0.889,0,1.547,0,2.209,0c0-4.28,0-8.516,0-12.875
		c1.033-0.097,1.922-0.205,2.811-0.255c1.783-0.1,3.676,0.164,5.316-0.363c1.117-0.36,2.184-0.568,3.58-0.632
		c0-6.317,0-12.597,0-18.876c0.152-0.014,0.305-0.027,0.459-0.042c0.051,0.252,0.143,0.503,0.148,0.756
		c0.088,4.664,0.152,9.328,0.254,13.992c0.031,1.465,0.09,2.936,0.256,4.391c0.115,1.007,0.438,1.989,0.682,3.053
		c1.314,0.135,2.783,0.285,4.428,0.453c-0.105-1.411-0.287-2.866-0.312-4.324c-0.049-2.999-0.088-6.002,0.027-8.997
		c0.033-0.883,0.596-1.747,0.924-2.616c0.039-0.099,0.209-0.185,0.197-0.257c-0.404-2.456,1.33-3.97,2.643-5.549
		c1.641-1.974,1.957-4.193,1.949-6.579c0-0.279,0.016-0.559,0.041-0.836c0.004-0.055,0.088-0.103,0.283-0.315
		c0.148,0.552,0.396,1.01,0.373,1.455c-0.135,2.584,0.729,4.75,2.543,6.574c0.414,0.417,0.764,0.901,1.129,1.366
		c0.588,0.747,0.879,1.537,0.979,2.548c0.121,1.224,0.75,2.398,1.168,3.591c0.131,0.373,0.418,0.732,0.424,1.102
		c0.107,6.383,0.18,12.768,0.258,19.151c0.01,0.758,0.002,1.516,0.002,2.278c1.141,0.475,2.246,0.933,3.59,1.491
		c-0.086-0.878-0.217-1.615-0.221-2.354c-0.02-4.079,0.021-8.159-0.018-12.239c-0.047-5.145-0.15-10.288-0.232-15.432
		c-0.076-4.704-0.146-9.409-0.244-14.112c-0.051-2.465-0.139-4.93-0.244-7.393c-0.035-0.797,0.189-1.18,1.068-1.152
		c0.701,0.022,1.414-0.102,2.105-0.243c0.248-0.052,0.605-0.316,0.643-0.529c0.154-0.927,0.852-1.079,1.551-1.106
		c1.074-0.045,2.152,0.055,3.229,0.039c0.318-0.005,0.65-0.313,0.943-0.271c0.719,0.104,1.428,0.3,2.123,0.519
		c2.049,0.646,4.074,1.365,6.137,1.965c0.77,0.225,0.941,0.604,0.945,1.348c0.059,12.583,0.131,25.167,0.23,37.75
		c0.041,4.984,0.154,9.969,0.236,14.952c0.004,0.178,0.047,0.354,0.23,0.525c0-2.345,0-4.688,0-7.11
		c0.426-0.038,0.764-0.068,1.107-0.1c0-1.797,0-3.53,0-5.309c1.268-0.597,2.424-1.805,4.178-1.382
		c1.416,0.34,2.859,0.558,4.449,0.859c-1.047,1.452-0.375,2.788-0.664,4.097c4.947,0,9.74,0,14.656,0c0,0.877,0,1.615,0,2.53
		c0.939-0.085,1.74-0.157,2.75-0.249c0,1.354,0,2.688,0,4.023c0.105-0.009,0.211-0.018,0.316-0.026
		c-0.039-0.341-0.078-0.683-0.117-1.021c1.381-0.121,2.715-0.3,4.049-0.31c0.316-0.002,0.639,0.561,1.201,1.097
		c1.258,0,2.932,0,4.801,0c0-0.399-0.012-0.817,0.004-1.235c0.074-2.023-0.061-4.091,0.328-6.054
		c0.199-1.005,1.332-1.831,2.076-2.71c0.078-0.092,0.438-0.069,0.568,0.029c0.814,0.618,1.662,1.214,2.363,1.947
		c0.254,0.265,0.139,0.887,0.18,1.348c0.088,1.014,0.168,2.029,0.25,3.024c1.98,0.191,2.734-0.387,2.99-2.296
		c0.455,0,0.93,0.032,1.398-0.01c0.447-0.04,1.102,0.294,1.189-0.565c0.006-0.061,0.275-0.128,0.426-0.137
		c1.504-0.089,3.006-0.2,4.512-0.222c0.32-0.004,0.645,0.329,0.934,0.487c0.191-0.689,0.344-1.612,0.705-2.445
		c0.391-0.903,1.039-0.988,1.703-0.174c0.117,0.146,0.283,0.254,0.43,0.381c0.896-1.217,0.896-1.217,2.051-0.117
		c0.471-0.276,1.146-0.847,1.299-0.73c0.537,0.411,0.895,1.057,1.48,1.821c-0.02-0.001,0.299-0.01,0.605,0.039
		c0.742,0.117,1.166,0.431,1.174,1.321c0.018,1.82,0.176,3.64,0.277,5.463c1.961,0.764,3.297-0.46,4.979-1.714
		c0-3.024-0.031-6.287,0.008-9.549c0.037-2.985,0.143-5.969,0.246-8.952c0.008-0.263,0.145-0.611,0.342-0.761
		c0.811-0.617,1.064-1.48,1.072-2.406c0.027-3.8,0.012-7.6,0.012-11.399c0-0.415,0-0.829,0-1.243
		c0.139-0.003,0.279-0.006,0.42-0.008c0.277,4.49,0.553,8.979,0.836,13.555c0.895,0,1.787,0,2.801,0
		c0.121-2.913,0.242-5.827,0.363-8.741c0.084-0.011,0.168-0.021,0.252-0.031c0.123,1.079,0.24,2.16,0.369,3.239
		c0.23,1.945,0.406,3.9,0.744,5.826c0.082,0.479,0.699,0.863,1.07,1.29c0.133-0.07,0.266-0.141,0.398-0.211
		c0.195,3.219,0.395,6.438,0.596,9.723c1.982,0,3.812,0,5.879,0c0,3.039,0,6.001,0,9.224c1.564,0,3.131,0.435,4.17-0.121
		c1.055-0.564,1.254-0.044,1.779,0.386c0.109,0.09,0.295,0.136,0.439,0.122c0.688-0.064,1.375-0.155,2.131-0.245
		c0.434-2.782-0.547-5.883,0.672-8.856c2.57,0,5.1,0,7.682,0c0-1.402,0-3.004,0-4.544c0.951-0.531,1.947-1.087,2.943-1.644
		c0.488-0.271,3.055,0.092,3.574,0.436c0.377,0.248,0.877,0.313,1.238,0.576c0.342,0.247,0.572,0.645,0.83,0.949
		c0.799-0.59,1.438-1.062,2.299-1.699c0.004-0.037,0.035-0.43,0.092-1.169c1.512-0.113,3.092-0.345,4.668-0.319
		c1.732,0.028,3.459,0.361,5.193,0.432c1.139,0.047,2.289-0.208,3.432-0.18c0.439,0.011,0.852,0.484,1.311,0.652
		c0.596,0.22,1.227,0.481,1.844,0.481c1.078,0,1.533,0.284,1.527,1.49c-0.02,2.983,0.115,5.969,0.213,8.952
		c0.045,1.306,0.129,2.611,0.24,3.913c0.17,2.022,0.379,4.043,0.57,6.064c0.145-0.01,0.289-0.02,0.434-0.029
		c-0.197-2.489-0.395-4.978-0.592-7.467c0.111,0.061,0.225,0.12,0.336,0.18c0.588-0.686,1.174-1.372,1.93-2.253
		c1.016,0.063,2.408,0.152,3.801,0.24c-0.037,0.071-0.072,0.143-0.107,0.213c0.412,0.245,0.885,0.427,1.223,0.75
		c0.479,0.461,1.178,1,1.225,1.552c0.205,2.494,0.248,5.003,0.287,7.507c0.039,2.694,0.008,5.39,0.008,8.195c2.125,0,3.91,0,5.467,0
		c0.082-0.287,0.225-0.593,0.246-0.907c0.049-0.677,0.035-1.357,0.047-2.036c0.027-1.531,1.143-2.219,2.697-1.525
		c-0.178-2.742-0.352-5.421-0.525-8.099c-0.004-0.08-0.008-0.16-0.01-0.24c-0.08-2.584-0.197-5.168-0.211-7.753
		c-0.002-0.518,0.43-1.025,0.6-1.559c0.672-2.113,2.408-1.626,3.941-1.638c0.516-0.005,1.033-0.001,1.463-0.001
		c0.223,0.467,0.301,0.98,0.598,1.191c1.025,0.731,1.062,1.724,1.068,2.841c0.018,2.745,0.125,5.489,0.223,8.233
		c0.148,4.129,0.307,8.258,0.488,12.385c0.031,0.7,0.201,1.395,0.318,2.167c0.562,0.038,1.141,0.079,1.801,0.125
		c0,0.832,0,1.618,0,2.564c0.852,0,1.619,0,2.363,0c-0.08,1.013-0.15,1.869-0.236,2.956c2.533-0.114,4.936-0.222,7.324-0.329
		c0.162-0.624,0.137-1.536,0.498-1.731c1.111-0.602,2.355-1.23,3.58-1.303c3.068-0.18,6.156-0.052,9.236-0.064
		c0.734-0.004,1.408,0.263,2.225,0.112c0.645-0.118,1.465,0.705,2.465,1.252c-0.088-1.281-0.156-2.326-0.232-3.37
		c-0.014-0.197-0.064-0.391-0.07-0.587c-0.084-2.904-0.141-5.81-0.248-8.713c-0.137-3.649-0.303-7.298-0.48-10.946
		c-0.139-2.81-0.344-5.616-0.463-8.426c-0.064-1.517,0.338-1.89,1.887-1.952c0.674-0.027,1.35-0.005,2.1-0.005
		c0.053-0.397,0.1-0.734,0.146-1.086c0.121-0.037,0.232-0.101,0.344-0.102c1.279-0.01,2.561-0.05,3.838,0.013
		c0.365,0.018,0.711,0.35,1.074,0.52c0.17,0.08,0.357,0.149,0.541,0.167c1.023,0.099,2.047,0.179,3.129,0.271
		c0.123,0.848,0.318,1.688,0.355,2.537c0.117,2.582,0.154,5.169,0.26,7.752c0.141,3.489,0.309,6.978,0.479,10.466
		c0.15,3.089,0.303,6.178,0.484,9.266c0.053,0.9,0.209,1.795,0.312,2.66c2.172,0,4.344,0.006,6.518-0.002
		c2.596-0.009,5.205-0.176,7.781,0.038c0.846,0.069,1.611,1.113,2.533,1.802c0.688-1.394,2.137-0.68,3.291-1.013
		c0.949-0.273,2.309,0.338,2.57-0.936c0.574,0.301,1.021,0.534,1.467,0.768c0,5.68,0,11.359,0,17.04c-204.48,0-408.962,0-613.442,0
		c0-11.521,0-23.04,0-34.561c0.687,0.119,1.373,0.238,2.142,0.372c0,1.093,0,2.203,0,2.958c0.59,0.624,0.952,1.007,1.398,1.479
		c0.128-4.098,0.253-8.124,0.382-12.265c3.419-0.17,6.806-0.339,10.187-0.507c0-0.502,0-0.891,0-1.327
		c-0.482-0.177-1.527,0.19-0.99-1.028c2.052,0,4.126-0.007,6.201,0.011c0.199,0.002,0.525,0.11,0.573,0.247
		c0.314,0.889,0.952,0.743,1.741,0.607c0-1.731,0-3.432,0-5.206c0.759,0.033,1.62-0.187,1.974,0.142
		c0.716,0.662,0.986,0.211,1.381-0.217c0.258-0.28,0.505-0.571,0.781-0.885c0.199,0.536,0.372,1,0.542,1.457
		c1.969-0.116,3.865-0.228,5.83-0.343c-0.007-0.039,0.038,0.228,0.089,0.538c0.36,0.033,0.703,0.065,1.176,0.108
		c-0.106,1.751-0.208,3.436-0.322,5.323c2.25,0.13,4.373,0.229,6.491,0.386c0.944,0.071,1.291-0.253,1.243-1.219
		c-0.071-1.419-0.018-2.843-0.018-4.214c1.783-0.109,3.385-0.206,4.939-0.301c0.115-1.731,0.216-3.258,0.321-4.838
		c1.539,0.192,1.446-0.814,1.451-1.663c0.021-3.875,0.009-7.75,0.009-11.664c0.348-0.082,0.636-0.149,0.905-0.213
		c0.136-2.106,0.322-2.312,2.487-2.697c0-0.558,0-1.136,0-1.561c1.57,0,3.023,0,4.588,0c-0.389,1.367-0.33,2.356,1.308,2.247
		c0.052,0.387,0.003,0.751,0.15,0.996c0.642,1.064,0.902,2.193,0.893,3.437c-0.03,3.899-0.011,7.8-0.011,11.914
		c0.893,0.09,1.971,0.199,3,0.304c0,4.179,0,8.342,0,12.384c0.399,0.215,0.977,0.342,1.034,0.588
		c0.245,1.068,0.701,0.525,1.176,0.254c0.269-0.153,0.679-0.431,0.838-0.337c0.71,0.419,1.352,0.953,2.04,1.461
		c0.039-0.254,0.094-0.618,0.167-1.098c0.7,0,1.356,0,2.037,0c0.173-3.811,0.377-7.494,0.498-11.181
		c0.126-3.862,0.172-7.728,0.257-11.592c0.002-0.114,0.045-0.228,0.076-0.378c0.839-0.146,1.674-0.291,2.797-0.486
		c0-2.265-0.028-4.525,0.006-6.784c0.057-3.745,0.144-7.488,0.247-11.232c0.013-0.489,0.192-0.974,0.307-1.519
		c0.553,0,1.019,0,1.535,0c0.125-4.729,0.249-9.379,0.372-14.037c0.444-0.151,0.879-0.3,1.571-0.536c0-2.843,0-5.74,0-8.638
		c0.19-0.005,0.381-0.01,0.571-0.016c0.096,1.412,0.192,2.824,0.29,4.271c0.178-0.021,0.46-0.028,0.462-0.056
		c0.306-4.455,0.592-8.911,0.879-13.367C364.776,822.188,364.936,822.188,365.096,822.188z M469.895,891.125
		c-0.076,0.001-0.151,0.003-0.227,0.005c0,1.963,0,3.926,0,5.889c0.076-0.003,0.151-0.006,0.227-0.009
		C469.895,895.048,469.895,893.086,469.895,891.125z M368.692,838.429c0-0.762,0.017-1.44-0.014-2.116
		c-0.007-0.146-0.162-0.325-0.298-0.405c-0.068-0.039-0.365,0.127-0.359,0.176C368.118,836.864,367.523,837.846,368.692,838.429z"/>
	<path fill-rule="evenodd" clip-rule="evenodd" fill="#FFFFFF" d="M469.895,891.125c0,1.961,0,3.923,0,5.885
		c-0.076,0.003-0.151,0.006-0.227,0.009c0-1.963,0-3.926,0-5.889C469.743,891.128,469.819,891.126,469.895,891.125z"/>
	<path fill-rule="evenodd" clip-rule="evenodd" fill="#FFFFFF" d="M368.692,838.429c-1.169-0.583-0.574-1.564-0.671-2.346
		c-0.006-0.049,0.291-0.215,0.359-0.176c0.136,0.08,0.292,0.26,0.298,0.405C368.709,836.988,368.692,837.667,368.692,838.429z"/>
</g>
<g>
	<g>
		<g>
			<path fill-rule="evenodd" clip-rule="evenodd" fill="#00AC3B" d="M882.449,542.712c-7.481-4.958-15-9.845-22.521-14.724
				c-0.047-0.031,0.407-0.964,0.656-1.568c2.764,0.909,5.463,1.797,8.161,2.684l0.859-1.969c-5.253-2.448-10.505-4.896-15.658-7.299
				c0.587-2.454,0.956-3.998,1.333-5.575c-8.34-4.171-16.666-8.335-25.132-12.569c0.691-1.552,1.315-2.949,2.056-4.611
				c-0.851-0.769-1.506-1.68-2.391-2.098c-6.776-3.209-13.587-6.351-20.436-9.394c-4.132-1.835-8.336-3.496-12.517-5.24
				c0.821-3.163,1.432-5.513,2.046-7.876c-0.248-0.192-0.415-0.387-0.626-0.476c-7.13-2.988-14.304-5.866-21.402-8.923
				c-6.775-2.917-13.478-6.002-20.463-9.06c0.636-1.514,1.128-3.016,1.658-4.617c-0.85-0.482-1.495-0.849-1.944-1.104
				c1.481-1.222,2.988-2.343,4.337-3.708c0.303-0.308,0.094-1.417,0.011-2.121c-0.121-1.242-0.906-2.62,1.309-2.563
				c0.509,0.012,1.132-1.26,1.81-2.072c7.761,2.264,15.754,4.595,23.777,6.934c0.956-2.602,1.957-5.324,2.786-7.58
				c7.966,2.062,15.531,3.96,23.062,5.999c2.4,0.65,4.761,0.474,7.268-0.885c0.576-0.312,1.25,0.006,2.037,0.04
				c0.915-4.855,2.885-4.602,5.277-2.824c0.544-2.337,1.068-4.59,1.593-6.846c0.421-2.277,0.842-4.557,1.279-6.923
				c-0.835-0.154-1.973-0.363-3.069-0.565c0.423-6.597,0.124-7.206-3.982-8.267c-0.019-0.813-0.037-1.684-0.061-2.735
				c-7.743-1.148-15.413-2.257-23.071-3.45c-1.678-0.262-3.703-0.312-2.771-4.372c-3.096-0.688-6.087-1.351-9.48-2.104
				c0.15-2.02,0.411-4.057,0.486-6.185c0.079-2.125,0.16-4.324,0.245-6.641c-2.733-0.215-5.561-0.569-8.405-0.613
				c-1.936-0.033-2.51-0.94-2.165-3.266c0.224-1.304,0.304-2.617,0.42-3.935c0.109-1.319,0.218-2.645,0.328-3.979
				c0.206-2.672,0.491-5.389,0.513-8.19c3.78,0.292,7.153,0.553,10.659,0.823c0.069-1.231,0.119-2.124,0.172-3.061
				c0.617-0.14,0.994-0.226,1.073-0.243c-0.167-2.565-0.265-5.084-0.476-7.598c-0.274-2.508-0.55-5.017-0.83-7.573
				c0.884-0.512,1.78-1.032,2.817-1.633c-0.669-0.673-1.271-1.279-1.893-1.906c-0.895-0.963-1.914-1.567-0.799-3.554
				c0.547-0.986-0.146-3.183-0.304-5.161c-3.523,0.423-6.9,0.829-10.338,1.242c-0.493-1.936-0.957-3.477,0.716-4.509
				c0.273-0.16,0.337-1.001,0.262-1.499c-0.42-2.588-0.84-5.177-1.259-7.758c-0.227-1.288-0.386-2.586-0.666-3.859
				c-0.279-1.274-0.558-2.545-0.836-3.812c-2.672-0.817-1.395,1.599-1.482,2.85c-0.855,0.171-1.618,0.323-2.603,0.52l-1.585-6.096
				c-0.523-2.033-1.016-4.072-1.698-6.069c-0.632-2.006-1.264-4.015-1.896-6.028l-0.942-3.02c-0.323-1.005-0.729-1.987-1.088-2.983
				c-8,2.18-15.778,4.299-23.695,6.456c0.587-1.24,1.064-2.247,1.841-3.888c1.434-0.473,3.543-1.168,5.618-1.853
				c-0.296-1.786-0.56-3.38-0.823-4.974l-65.159,23.065c6.929,19.699,9.907,40.186,8.826,60.652
				c-1.062,20.44-6.237,40.816-15.137,59.486c-8.914,18.663-21.496,35.506-36.715,49.19c-15.229,13.716-33.027,24.289-52.699,31.298
				c-19.699,6.929-40.187,9.906-60.652,8.827c-20.439-1.062-40.816-6.238-59.486-15.138c-18.663-8.913-35.506-21.495-49.19-36.714
				c-13.715-15.229-24.289-33.027-31.297-52.698c-6.929-19.699-9.907-40.187-8.827-60.653c1.062-20.439,6.238-40.816,15.137-59.486
				c8.914-18.663,21.496-35.506,36.715-49.19c15.229-13.716,33.027-24.29,52.698-31.297c19.699-6.929,40.186-9.907,60.653-8.827
				c20.438,1.062,40.815,6.238,59.485,15.137c18.663,8.914,35.506,21.496,49.19,36.715c13.716,15.229,24.29,33.028,31.299,52.699
				l32.126-11.373c0.117-0.98,0.234-1.964,0.386-3.229c-2.577,0.403-2.393-2.521-3.559-4.078c-0.354-0.47-0.599-1.022-0.813-1.591
				c-0.232-0.56-0.473-1.119-0.74-1.636c-0.546-1.029-1.284-1.854-2.83-1.903c0.538-2.187,1.832-4.443,1.294-6.042
				c-1.939-4.707-4.415-9.246-7.078-13.604c-2.011-3.788-4.461-7.293-6.696-10.935c1.333-1.13,2.655-2.389,4.095-3.482
				c4.943-3.742,9.867-7.47,14.792-11.197c5.558-4.231,11.113-8.461,16.657-12.682c4.114-3.127,8.326-6.13,12.405-9.303
				c1.343-1.04,2.432-2.41,3.637-3.642c-1.503-2.443-2.923-4.753-4.345-7.064c-0.247-0.421-0.429-0.904-0.587-1.349
				c-0.324-0.96-0.364-2.084-0.938-2.87c-2.021-2.732-4.135-5.412-6.33-8.012c-0.195-0.222-0.487-0.364-0.756-0.559
				c-0.62,0.357-1.217,0.702-1.917,1.105c-1.299-1.491-2.435-2.865-3.641-4.17c-2.773-3.003-4.016-3.298-6.149-1.112
				c-3.925,4.014-7.749,8.196-11.689,12.219c-5.124,5.227-10.295,10.401-15.53,15.504c-4.168,4.057-8.42,8.021-12.642,12.02
				c-0.285,0.271-0.507,0.605-0.783,0.889c-1.471,1.499-2.937,2.992-4.737,4.827c-0.223-1.096-0.289-2.227-0.427-3.188
				c-0.17-0.931-0.421-1.681-0.945-2.056c-1.334-0.943-1.862-2.263-2.864-3.304c-2.028-2.249-4.303-4.262-6.464-6.385
				c-2.122-2.167-4.527-4.029-6.915-5.876c-0.965-0.724-2.086-1.275-3.306-1.646c-1.245-0.342-2.54-0.561-3.765-0.748
				c-0.796-0.123-1.878,1.347-2.888,2.143c-1.867-1.307-3.683-2.687-5.689-3.866c-1.977-1.217-3.92-2.534-5.986-3.777
				c1.345-1.722,2.407-3.08,3.66-4.684c-1.238-0.776-2.515-1.576-3.931-2.464c1.011-1.6,1.851-2.929,2.739-4.336
				c-1.074-0.794-2.015-1.49-2.929-2.167c0.603-1.449,1.027-2.827,1.694-4.062c3.938-7.271,7.868-14.532,11.797-21.789
				c2.611-4.827,5.183-9.676,7.94-14.422c1.123-1.932,2.066-3.676,0.533-6.227c-0.445-0.738-0.107-1.728-0.142-2.821
				c-0.958-0.544-2.112-1.2-3.262-1.854c-0.863-0.471-1.7-1.058-2.581-1.525c-0.881-0.469-1.762-0.899-2.641-1.183
				c-1.757-0.566-3.503-0.54-5.203,0.967c-0.861,0.759-2.277,1.178-2.728,2.11c-2.247,4.657-4.272,9.424-6.396,14.143l-0.191,0.441
				c-2.01,4.986-4.045,9.961-6.156,15.041c-1.196-1.382-2.492-2.064-3.657-2.023c-1.188,0.081-2.221,0.836-2.894,2.212
				c-0.597,1.22-1.146,2.465-1.812,3.65c-0.307,0.552-0.838,0.985-1.234,1.438c-2.979-1.272-6.295-2.971-10.458-4.474
				c2.069-5.216,4.124-10.2,6.032-15.24c1.764-4.687,3.527-9.385,4.897-14.206c0.302-1.067-0.878-2.688-1.636-3.977
				c-0.536-0.906-1.482-1.67-2.252-2.501c0.128-0.1,0.257-0.2,0.391-0.303c-3.18-1.264-6.358-2.528-8.677-3.45
				c-1.142,0.543-2.154,1.025-3.104,1.477c-0.947,0.496-1.832,0.958-2.718,1.421l-0.677-0.565
				c-0.962,4.902-1.952,9.792-2.972,14.676l-0.96-0.209c0.724-3.999,1.45-8.018,2.17-11.991c0.477-2.571,1.009-5.134,1.631-7.672
				c1.435-5.795,2.752-11.628,4.45-17.349c0.686-2.313-0.33-3.193-3.108-3.987c-0.794-0.227-1.563-0.583-2.313-0.992
				c-0.751-0.405-1.499-0.809-2.225-1.2c-1.118-0.606-1.977-1.779-3.129-2.071c-1.496-0.379-3.029-0.622-4.558-0.869
				c-0.764-0.124-1.526-0.248-2.284-0.391c-0.763-0.116-1.524-0.233-2.274-0.396c-2.287-0.49-4.545-1.11-6.812-1.721l-3.406-0.893
				c-1.148-0.228-2.302-0.433-3.461-0.603c-2.11-0.308-4.24-0.489-6.35-0.633c-1.055-0.067-2.103-0.147-3.145-0.188
				c-1.044-0.019-2.079-0.039-3.103-0.057c-0.297,1.457-0.454,2.232-0.469,2.306c-2.387,1.076-4.157,1.874-6.37,2.872
				c-0.635-0.666-1.189-1.511-2.064-2.082c-0.923-0.637-2.251-0.756-3.23-1.304c-1.344-0.733-8.211-1.705-9.529-1.21
				c-2.684,1.086-5.333,2.285-7.831,3.367c0.053,3.08,0.107,6.282,0.155,9.086c-1.647,0.021-3.286,0.042-4.921,0.063
				c-1.633,0.062-3.258,0.201-4.884,0.295l-4.877,0.309c-1.629,0.095-3.26,0.185-4.886,0.409c-1.256,3.138-1.073,6.173-0.674,9.136
				c0.404,2.962,1.023,5.852,0.797,8.678c-1.761,0.384-3.356,0.749-4.956,1.057c-0.336,0.065-0.784,0.022-1.064-0.127
				c-1.345-0.713-1.977-1.731-4.284-0.174c-2.262,1.521-6.062,1.22-9.728,1.873c-1.224-6.328-2.348-12.145-3.502-18.112
				c-2.589,0.564-5.03,1.096-7.445,1.622c-1.208,0.261-2.409,0.52-3.619,0.781c-1.212,0.25-2.403,0.633-3.634,0.95
				c-2.131-6.229-4.262-12.321-6.42-18.405l-0.954,0.695c-1.208-0.558-3.065-0.852-3.544-1.714
				c-1.945-3.463-3.499-7.093-5.217-10.658c-0.953-1.988-1.898-3.961-2.846-5.939l-0.705,0.256l3.953,17.039
				c-2.69,0.876-5.06,1.648-7.434,2.422c-3.612-8.447-7.223-16.713-10.909-24.956c-0.408,0.139-0.815,0.278-1.218,0.415l0.807,2.352
				c2.468,7.188,4.975,14.363,7.369,21.575c0.583,1.766,0.456,3.597-1.248,5.485c-0.409,0.476-0.524,1.267-0.367,1.769
				c1.751,5.717,3.52,11.429,5.464,17.077c2.128,6.169,4.426,12.275,6.484,17.963c-1.435,1.898-2.652,3.692-4.111,5.035
				c-0.73,0.671-1.521,1.229-2.433,1.633c-0.456,0.201-0.943,0.364-1.468,0.483c-0.517,0.139-1.063,0.25-1.661,0.305
				c-1.627-3.266-3.391-6.463-4.852-9.797c-0.71-1.633-1.91-1.785-3.683-1.257c-0.733,0.217-1.446,0.551-1.401,0.534
				c-1.948-0.812-3.302-1.626-4.881-1.83c-0.447-0.052-1.532,1.636-2.322,2.695c-3.524-0.681-3.559-0.664-4.459,2.515
				c-0.44-0.062-0.909-0.069-1.303-0.197c-2.225-0.704-3.621,0.186-3.641,2.215c-0.026,1.867,0.546,3.714,0.792,5.147
				c-0.764,0.073-1.774-0.117-2.454,0.28c-1.595,0.934-3.166,1.903-4.728,2.883l-2.338,1.476l-2.258,1.6
				c-0.301,0.214-0.786,0.683-0.734,0.793c0.728,1.575-0.965,1.863-1.843,2.516c-0.917,0.683-1.927,1.248-2.863,1.84
				c0.792,1.763,0.958,3.112,0.424,4.323c-0.51,1.248-1.723,2.352-3.76,3.563c-1.312-1.509-2.648-3.045-3.989-4.586
				c-0.616-0.693-1.104-1.873-1.923-1.94c-2.261-0.181-4.716,0.048-7.101,0.283c-0.376,0.046-1.115,0.572-1.158,0.84
				c-0.41,2.564-1.603,5.605-0.735,7.478c1.694,3.661,4.54,6.683,6.926,9.955c0.493,0.675,1.037,1.312,1.536,1.936
				c-0.851,0.665-1.679,1.312-2.479,1.938c-0.807,0.617-1.511,1.301-2.225,1.905c-1.411,1.228-2.688,2.34-3.784,3.294
				c-1.692,0.048-3.017-0.295-3.573,0.19c-2.293,2.107-4.24,4.582-6.41,6.956c0.541,0.421,1.086,0.845,1.629,1.269l-0.491,0.542
				c-1.878-1.898-3.756-3.795-5.66-5.72c-1.655,1.757-2.792,3.321-4.224,5.05c-1.323-1.264-2.392-2.284-3.66-3.495
				c-1.029,1.087-2.056,2.171-3.079,3.253l-1.538,1.618c-0.503,0.547-0.969,1.126-1.456,1.687c-1.933,2.253-3.861,4.5-5.791,6.749
				c-1.863,2.303-3.642,4.68-5.485,7.02c-1.888,2.308-3.549,4.801-5.289,7.265c-1.728-2.094-4.885-2.247-5.743-6.079
				c-2.782,2.943-5.328,5.631-7.75,8.35c-1.546,1.655-2.209,3.433-2.562,5.197c-0.176,0.883-0.279,1.762-0.375,2.628
				c-0.063,0.886-0.125,1.756-0.26,2.6c3.067,1.801,6.057,3.556,9.156,5.376c-0.354,0.75-0.702,1.487-1.14,2.416
				c4.205,2.405,8.273,4.733,12.344,7.062c-0.501,0.191-0.857,0.101-1.17-0.067c-8.753-4.769-17.562-9.444-26.292-14.26
				c-22.032-12.17-44.063-24.34-66.092-36.509c-1.301-0.717-2.249-0.591-3.918,1.45c-2.29,2.707-4.364,5.514-6.544,8.284
				l-3.246,4.183c-1.07,1.407-2.195,2.795-3.178,4.261c-1.373,1.973-2.723,4.02-3.918,6.179c-0.488,0.88-0.386,2.166-0.819,3.161
				c-1.522,3.344-3.009,6.714-4.273,10.161c-0.822,2.243-1.403,4.574,0.142,5.714c0.353,0.268,0.409,1.582,0.204,2.399
				c-0.598,2.272-1.067,4.661-1.893,6.88c-1.005,2.796-0.519,3.757,1.031,4.147c4.786,1.222,9.552,2.517,14.277,3.932
				c9.017,2.7,18.001,5.507,26.983,8.314c9.821,3.072,19.65,6.119,29.425,9.329c7.754,2.542,15.443,5.278,23.179,7.869
				c1.4,0.468,2.894,0.656,4.617,1.04c-1.028,1.294-1.964,2.474-2.862,3.604c-0.91,1.137-1.784,2.231-2.57,3.383
				c-1.46-0.443-2.905-0.901-4.361-1.319c-12.268-3.529-24.541-7.049-36.847-10.44c-0.711-0.198-1.619,0.364-2.435,0.504
				c-2.606,0.442-5.354,1.51-7.805,1.181c-2.023-0.276-3.774,0.102-5.686,1.359c-1.189,0.781-2.406,1.518-3.546,2.481
				c-4.766,4.279-9.582,5.888-14.525,4.319c-0.851-0.273-1.917,0.267-3.099,0.471c0.277,0.687,0.312,0.961,0.416,0.997
				c0.523,0.199,1.057,0.368,1.602,0.491c2.331,0.511,4.522,1.251,6.477,2.559c1.98,1.312,3.612,3.167,5.114,5.946
				c2.386,4.461,4.468,9.903,9.518,9.599c0.148-0.008,0.23,0.496,0.405,0.639c1.544,1.215,2.965,3.049,4.691,3.423
				c5.854,1.283,11.802,2.136,17.744,2.983c2.89,0.405,5.846,0.421,8.678,0.627c-0.589,1.992-0.936,3.915-1.344,5.727
				c-0.396,1.817-0.77,3.532-1.123,5.152c-2.194,0.353-4.256,0.942-6.297,1.011c-2.949,0.097-5.894-0.073-8.816-0.313
				c-9.305-0.78-18.599-1.559-27.899-2.338c-0.504-0.037-1.027,0.18-1.541,0.277c-0.011,0.459-0.022,0.914-0.033,1.368
				c12.494,1.273,24.988,2.546,37.557,3.827c-0.173,3.608,0.008,6.389,0.481,9.296c0.148,1.066,0.294,2.168,0.357,3.291
				c0.064,1.123,0.063,2.267,0.036,3.421c-0.051,2.308-0.236,4.66-0.198,6.945c0.136,2.278,0.387,4.553,0.616,7.19
				c8.717-0.167,17.187-0.33,25.745-0.494c0.039,1.516-0.008,3.026,0.097,5.059c-7.003,0.294-13.894,0.583-20.866,0.876
				c-0.041,2.339,0.009,4.566-0.006,6.709c-0.007,1.072-0.03,2.123-0.088,3.159c-0.072,1.037-0.143,2.056-0.212,3.059
				c-0.216,2.34,0.949,4.766-0.608,7.341c-0.438,0.729-0.473,2.073-0.275,3.494c0.274,1.41,0.789,2.894,1.34,3.917
				c0.577,1.067,1.348,2.046,1.671,3.405c0.225,0.948,0.469,1.891,0.725,2.856c0.248,0.968,0.518,1.957,0.87,2.985
				c2.497-0.49,4.81-0.945,7.788-1.531c-2.164,3.835-3.972,7.166-5.959,10.945c2.683-0.637,5.119-1.215,7.556-1.794l0.13,0.626
				c-2.437,0.586-4.873,1.171-7.279,1.749c0.282,1.363,0.623,2.37,0.881,3.396l0.267-0.723c4.615,1.955,9.19,3.773,13.856,5.503
				c0.083,1.434,0.456,2.222,0.856,2.643c0.412,0.417,0.911,0.452,1.447,0.334c1.072-0.238,2.297-1.077,3.261-0.719
				c0.354,1.083,0.698,2.134,1.048,3.205c-1.492,1.085-2.899,2.017-1.967,4.722c0.24,0.688,0.451,1.385,0.667,2.082
				c0.246,0.687,0.477,1.379,0.699,2.075c0.444,1.392,0.848,2.799,1.246,4.203c0.577,1.969,0.52,4.21,1.424,5.996
				c1.234,2.35,3.012,4.391,4.612,6.651c1.15-0.524,2.147-0.979,3.144-1.434l0.073,0.695c0.76,0.211,1.654,0.783,2.251,0.56
				c3.713-1.392,7.364-2.954,11.016-4.504c1.303-0.554,2.57-1.2,4.203-1.969c0.445,1.523,0.92,2.711,1.207,3.95
				c0.099,0.42-0.189,0.914-0.299,1.377c0.43-0.124,0.86-0.248,1.333-0.384c-0.002,1.336-0.934,3.267,1.71,2.46
				c0.271-0.083,0.847,0.807,1.72,1.685c-4.236,1.704-7.949,3.167-11.928,4.708c0.273,0.539,0.543,1.11,0.851,1.689
				c0.327,0.568,0.666,1.158,1.016,1.769c0.697,1.222,1.439,2.523,2.219,3.893c-6.867,3.95-13.462,7.744-20.079,11.55
				c0.572,1.262,1.145,2.526,1.719,3.791c0.571,1.27,1.271,2.466,1.911,3.7c1.313,2.449,2.663,4.89,4.078,7.291
				c1.499,2.346,3.136,4.601,4.822,6.81c0.848,1.101,1.718,2.184,2.613,3.242c0.946,1.021,1.934,2.007,2.94,2.971
				c2.51-1.941,5.055-3.91,7.545-5.836c1.034,0.937,2.042,1.774,2.962,2.705c0.879,0.885,1.657,1.876,2.571,2.893
				c-0.91,0.754-2.014,1.669-3.12,2.585c-2.775,2.288-2.629,4.894,0.302,8.381c1.04,1.237,2.056,2.501,3.066,3.773
				c1.054,1.231,2.14,2.437,3.217,3.649c1.081,1.207,2.174,2.402,3.293,3.564c0.56,0.581,1.126,1.153,1.701,1.715
				c0.603,0.534,1.219,1.052,1.842,1.558c2.365,1.92,5.953,2.179,8.928,3.061c0.199,0.061,0.476-0.552,0.693-0.871
				c0.443-0.648,0.798-1.378,1.318-1.953l17.272-19.003c0.503-0.552,1.071-1.037,1.626-1.57c0.645,1.605,1.095,3.019,1.981,4.145
				c1.777,2.182,2.751-0.043,3.908-0.73c2.654,1.033,0.18,2.043,0.316,3.321c0.588,0.342,1.383,0.568,2.036,0.952
				c0.667,0.369,1.161,0.931,1.103,2.029c0.372,0.045,0.745,0.074,1.113,0.134c2.206,0.351,2.912,1.876,1.747,3.596
				c-1.474,2.16-2.919,4.342-4.301,6.565c-0.26,0.419-0.469,1.175-0.244,1.562c1.095,1.987,2.503,3.727,3.635,5.306
				c-4.278,6.008-8.329,11.697-12.519,17.58c1.769,1.245,3.62,2.548,5.501,3.872c-1.833,3.763-3.518,7.297-5.238,10.966
				c2.116,1.457,4.205,2.895,6.275,4.32c1.036,0.715,2.068,1.427,3.096,2.137c1.061,0.657,2.119,1.312,3.174,1.967
				c0.046,0.684,0.069,1.364,0.192,2.054c0.011,0.058,0.759,0.287,1.047,0.222c0.657-0.147,1.24-0.43,1.85-0.658
				c0.061,0.741,0.121,1.481,0.173,2.121c1.029,0.041,2.112-0.241,2.777,0.16c1.264,0.804,2.567,1.527,3.835,2.317
				c1.271,0.787,2.541,1.574,3.808,2.358c-0.268,0.858-0.521,1.665-0.781,2.497c1.579,0.876,3.111,1.818,4.694,2.632
				c1.589,0.807,3.167,1.607,4.74,2.406c1.578,0.794,3.149,1.584,4.718,2.374c1.561,0.811,3.2,1.431,4.802,2.143
				c1.108,0.475,2.535,0.251,3.806,0.347l0.047-0.842c1.822,0.599,3.62,1.26,5.462,1.809c1.848,0.525,3.702,1.052,5.565,1.581
				c1.859,0.53,3.729,1.062,5.613,1.601c1.908,0.446,3.832,0.897,5.775,1.353c2.723-9.474,5.426-18.883,8.119-28.253
				c2.141,0.615,3.981,1.145,5.686,1.635c-0.547,3.529-1.066,6.871-1.584,10.211l0.754,0.15c2.349-6.297,4.637-12.609,6.866-18.937
				l0.327,0.088l-0.55,2.288c-2.465,10.267-5.002,20.519-7.321,30.819c-0.299,1.324,0.164,3.001,0.937,4.348
				c1.224,2.138,3.37,4.062,4.56,6.23c1.576,2.741,3.93,4.344,7.104,4.342c1.245,1.271,2.104,2.148,3.391,3.463
				c-0.68,4.165-1.448,8.877-2.205,13.517c2.567,0.772,4.923,1.288,7.285,1.914c-0.303,0.659-0.508,1.104-0.998,2.17
				c1.841-0.345,2.901-0.504,3.908-0.748c1.383-0.336,2.664-1.042,4.069-1.052c3.611-0.142,7.267-0.184,10.894-0.055l2.908,0.097
				c0.97,0.03,1.943-0.014,2.914-0.015l5.822-0.055l5.814-0.04l5.811-0.262c5.367-0.221,6.048-0.557,5.969-4.305
				c-0.082-3.999-0.256-7.996-0.388-11.994c-0.17-5.097-0.339-10.193-0.507-15.265c0.457,0.026,0.91,0.052,1.359,0.078
				c0.449,0.001,0.895,0.003,1.336,0.005c0.885,0.004,1.756,0.008,2.618,0.012c1.729,0.011,3.424,0.021,5.118,0.03l-0.005,0.734
				l-2.889,0.72l0.052,0.547c2.14-0.147,4.283-0.245,6.735-0.447c0.727,8.022,1.422,15.704,2.123,23.445
				c4.772-0.271,9.484-0.456,14.125-0.799c4.618-0.496,9.202-0.91,13.734-1.471c0.717,0.479,1.451,1.399,2.034,1.287
				c3.047-0.559,6.129-1.123,9.189-1.684c0.762-0.154,1.526-0.296,2.277-0.482c0.747-0.202,1.489-0.414,2.226-0.639
				c1.472-0.447,2.917-0.943,4.319-1.51c2.263-0.945,4.495-1.879,6.741-2.818c2.215-1.019,4.465-1.954,6.865-2.661
				c1.429-0.422,2.725-1.333,4.653-2.312c-2.87-8.26-5.761-16.582-8.731-25.132c1.688-0.502,3.165-1.156,4.604-1.685
				c1.431-0.548,2.788-1.067,4.138-1.584c-0.761-4.291-1.514-8.322-2.302-12.339l0.265-0.134l2.632,6.552l1.045-0.342l-1.304-5.604
				c0.225-0.118,0.437-0.265,0.654-0.396c0.405,0.395,1.096,0.712,1.175,1.193c0.363,2.315,2.848,2.435,4.286,1.567
				c2.148-1.297,4.357-1.739,6.62-2.051c2.257-0.316,4.479-0.679,6.729-1.514c0.912,1.819,1.833,3.658,2.87,5.728
				c2.484-1.103,4.824-2.079,7.118-3.126c1.371-0.654,3.222-1.931,4.104-1.663c2.973,0.89,4.893-1.467,7.124-2.577
				c3.076-1.741,6.072-3.699,8.974-5.728c0.501-0.35,0.903-0.826,1.276-1.336c0.368-0.518,0.686-1.101,1.06-1.607l-0.533-0.325
				c1.995-1.416,3.99-2.832,6.224-4.417c4.797,6.611,9.516,13.115,14.441,19.905c0.901-1.589,1.549-2.729,2.148-3.783
				c1.696,1.016,2.832,2.574,4.386,2.385c2.333-0.289,3.198,0.576,4.1,1.828c1.356,1.882,2.782,3.713,4.261,5.502
				c0.362,0.44,1.037,0.628,1.569,0.93l0.563-0.562l-6.105-9.305l0.389-0.29l7.471,9.482l0.717-0.484
				c-2.567-4.156-5.157-8.294-7.885-12.595c1.734-1.199,3.666-2.862,3.99-2.717c2.376,1.192,3.939-1.687,6.237-2.912
				c2.653,3.041,5.318,6.097,7.983,9.152l1.036-0.891l-8.137-9.241l0.987-0.831l8.66,9.745l0.835-0.69
				c-0.395-0.613-0.723-1.282-1.194-1.827c-1.626-1.873-3.377-3.64-4.933-5.569c-1.04-1.28-3.486-1.989-0.611-5.1
				c0.35-0.405-0.348-1.742-0.778-2.479c-0.438-0.75-1.143-1.296-2.251-2.495c1.779-0.531,2.8-0.836,4.33-1.293
				c-0.129-0.753-0.008-1.857-0.483-2.425c-1.645-1.962-3.652-3.604-5.236-5.613c-4.855-6.157-9.547-12.45-14.567-18.453
				c-2.431-2.904-5.278-5.449-8.02-8.247c2.126-1.057,3.889-1.136,5.433-0.763c1.562,0.393,2.966,1.303,4.371,2.216l0.331-0.882
				c-0.542-0.73-1.084-1.463-1.793-2.42c2.625-2.541,5.288-4.878,7.567-7.399c0.804,0.364,1.33,0.603,2.179,0.986
				c-0.139-1.545-0.239-2.663-0.34-3.784c1.164-0.108,1.942-0.182,2.723-0.254c-0.223-0.615-0.564-1.191-0.653-1.849
				c-0.356-2.976-1.404-6.04,1.896-8.93c0.878-0.772,1.504-1.878,2.511-3.165c-2.188-1.634-4.146-3.094-6.102-4.555l0.376-0.467
				c0.682,0.3,1.364,0.602,2.021,0.891c1.896-2.236,3.729-4.399,5.552-6.548c1.382,0.689,2.644,1.333,3.925,1.943
				c3.789,1.805,7.575,3.636,11.456,5.268c0.935,0.392,2.123,0.345,3.23,0.257c1.225-0.094,2.855-1.09,3.686-0.623
				c3.903,2.192,7.586,4.759,11.35,7.187c4.664,2.999,9.328,5.997,14.104,9.067c0.895-1.3,1.967-2.857,2.972-4.317
				c10.79,6.656,21.423,13.216,31.542,19.458c1.753-1.085,3.075-1.862,4.322-2.691l0.203,0.619c1.281-2.246,2.562-4.491,3.963-6.946
				c8.399,5.297,16.628,10.535,24.915,15.859c0.863-1.217,1.626-2.291,2.761-3.891c4.987,2.764,9.887,5.479,14.786,8.193
				c-1.281-2.858-4.518-2.956-4.947-6.718c0.294-0.46,0.609-0.908,0.886-1.377l20.987,11.246l0.864-1.711l-18.086-9.576l0.542-1.068
				l3.991,1.432c-0.004-1.363-0.439-1.79-0.938-2.104c-3.231-2.037-6.505-4.002-9.7-6.104c-0.354-0.232-0.26-1.272-0.425-2.208
				c5.949,2.045,11.591,3.643,16.975,5.785c4.545,1.807,8.769,4.283,13.131,6.467L882.449,542.712z M544.252,608.184l0.549-0.023
				l0.429,11.77l-0.577,0.017L544.252,608.184z M851.868,541.529c0.097,0.027-0.144,1.135-0.335,1.314
				c-0.386,0.36-0.98,0.684-1.248,0.566c-1.241-0.551-2.401-1.256-3.738-1.986C849.644,538.29,850.318,541.092,851.868,541.529z"/>
			<polygon fill-rule="evenodd" clip-rule="evenodd" fill="#FFFFFF" points="544.652,619.946 544.252,608.184 544.801,608.16 
				545.229,619.93 			"/>
			<path fill-rule="evenodd" clip-rule="evenodd" fill="#FFFFFF" d="M846.547,541.424c3.097-3.134,3.771-0.332,5.321,0.105
				c0.097,0.027-0.144,1.135-0.335,1.314c-0.386,0.36-0.98,0.684-1.248,0.566C849.044,542.859,847.884,542.154,846.547,541.424z"/>
		</g>
	</g>
</g>
<circle fill-rule="evenodd" clip-rule="evenodd" fill="#00AC3B" cx="535.603" cy="371.594" r="184.491"/>
<g>
	<g>
		<defs>
			<rect id="SVGID_1_" x="398.218" y="339.241" width="272.066" height="99.947"/>
		</defs>
		<clipPath id="SVGID_2_">
			<use xlink:href="#SVGID_1_"  overflow="visible"/>
		</clipPath>
		<g clip-path="url(#SVGID_2_)" enable-background="new    ">
			<g>
				<defs>
					<rect id="SVGID_3_" x="414.748" y="356.65" width="241.742" height="75.761"/>
				</defs>
				<clipPath id="SVGID_4_">
					<use xlink:href="#SVGID_3_"  overflow="visible"/>
				</clipPath>
				<g clip-path="url(#SVGID_4_)">
					<defs>
						<rect id="SVGID_5_" x="414.748" y="356.65" width="241.742" height="75.761"/>
					</defs>
					<clipPath id="SVGID_6_">
						<use xlink:href="#SVGID_5_"  overflow="visible"/>
					</clipPath>
					<g clip-path="url(#SVGID_6_)">
						
							<image overflow="visible" width="1640" height="514" xlink:href="6BC9CEBF8B2E49AB.png"  transform="matrix(0.1474 0 0 0.1474 414.7476 356.6499)">
						</image>
					</g>
				</g>
			</g>
		</g>
	</g>
	<path fill="none" d="M670.815,394.529c0,74.675-60.532,135.201-135.197,135.201c-74.667,0-135.198-60.526-135.198-135.201
		c0-74.663,60.531-135.198,135.198-135.198C610.283,259.331,670.815,319.866,670.815,394.529z"/>
	<text transform="matrix(0.7786 -0.6276 0.6276 0.7786 443.2129 295.3579)"><tspan x="0" y="0" fill="#FFFFFF" font-family="'RiftSoft-Demi'" font-size="44.3196">c</tspan><tspan x="19.387" y="-0.054" fill="#FFFFFF" font-family="'RiftSoft-Demi'" font-size="44.3196" rotate="8.396">h</tspan><tspan x="39.75" y="3.267" fill="#FFFFFF" font-family="'RiftSoft-Demi'" font-size="44.3196" rotate="14.802">i</tspan><tspan x="49.086" y="5.455" fill="#FFFFFF" font-family="'RiftSoft-Demi'" font-size="44.3196" rotate="21.037">c</tspan><tspan x="67.222" y="12.45" fill="#FFFFFF" font-family="'RiftSoft-Demi'" font-size="44.3196" rotate="29.146">a</tspan><tspan x="83.523" y="21.486" fill="#FFFFFF" font-family="'RiftSoft-Demi'" font-size="44.3196" rotate="37.237">g</tspan><tspan x="99.273" y="33.431" fill="#FFFFFF" font-family="'RiftSoft-Demi'" font-size="44.3196" rotate="45.517">o</tspan><tspan x="113.15" y="48.015" fill="#FFFFFF" font-family="'RiftSoft-Demi'" font-size="44.3196" rotate="51.512">,</tspan><tspan x="118.351" y="54.599" fill="#FFFFFF" font-family="'RiftSoft-Demi'" font-size="44.3196" rotate="54.904"> </tspan><tspan x="122.774" y="60.343" fill="#FFFFFF" font-family="'RiftSoft-Demi'" font-size="44.3196" rotate="60.711">U</tspan><tspan x="132.383" y="77.553" fill="#FFFFFF" font-family="'RiftSoft-Demi'" font-size="44.3196" rotate="68.803">S</tspan><tspan x="139.049" y="94.693" fill="#FFFFFF" font-family="'RiftSoft-Demi'" font-size="44.3196" rotate="76.627">A</tspan></text>
	<ellipse fill="none" cx="534.099" cy="396.856" rx="154.708" ry="150.873"/>
	
		<text transform="matrix(0.9131 0.4666 -0.455 0.8905 456.7495 527.6924)" fill="#FFFFFF" font-family="'RiftSoft-Demi'" font-size="44.3196">j</text>
	
		<text transform="matrix(0.9651 0.3466 -0.338 0.9411 471.0474 535.0303)" fill="#FFFFFF" font-family="'RiftSoft-Demi'" font-size="44.3196">u</text>
	
		<text transform="matrix(1.0039 0.2091 -0.2039 0.979 493.749 542.7559)" fill="#FFFFFF" font-family="'RiftSoft-Demi'" font-size="44.3196">l</text>
	
		<text transform="matrix(1.0227 0.0749 -0.073 0.9973 512.9678 546.6104)" fill="#FFFFFF" font-family="'RiftSoft-Demi'" font-size="44.3196">y</text>
	
		<text transform="matrix(1.0251 -0.0259 0.0253 0.9997 534.5508 547.7656)" fill="#FFFFFF" font-family="'RiftSoft-Demi'" font-size="44.3196"> </text>
	
		<text transform="matrix(1.0179 -0.1244 0.1213 0.9926 544.6221 547.6357)" fill="#FFFFFF" font-family="'RiftSoft-Demi'" font-size="44.3196">2</text>
	
		<text transform="matrix(0.9896 -0.2686 0.262 0.9651 566.1152 544.8105)" fill="#FFFFFF" font-family="'RiftSoft-Demi'" font-size="44.3196">0</text>
	
		<text transform="matrix(0.9516 -0.3821 0.3726 0.928 588.1729 538.3438)" fill="#FFFFFF" font-family="'RiftSoft-Demi'" font-size="44.3196">1</text>
	
		<text transform="matrix(0.9026 -0.4866 0.4745 0.8802 600.6611 533.3926)" fill="#FFFFFF" font-family="'RiftSoft-Demi'" font-size="44.3196">5</text>
</g>
</svg>
