<?xml version="1.0" encoding="UTF-8"?>
<svg viewBox="0 0 1120 180" xmlns="http://www.w3.org/2000/svg">
 <g fill-rule="evenodd">
  <path d="m1120.4 142.44l-0.1647-19.225h-7.6768v18.292h-4.1875v-22.568h-7.2116v16.867h-5.8159v-13.303h-6.281v12.591h-5.8159v-16.867s-4.8854-13.303-8.8401 0v16.867h-1.1632v-28.269l-7.8228 4.612v25.202h-3.3438v-25.062h-1.861v-4.276h-5.6995v3.5634h-2.7916v25.181h-3.0244v-19.836l-1.6284-0.1188-1.7446-12.472-1.8611 12.591h-2.3262v19.836l-2.4429-0.2375v-26.369l-4.681-8.2794-4.2754 0.0837-5.0939 9.0096v26.268h-5.4908v-30.882h-8.2587v30.764h-1.9774v-28.151h-6.5137v26.963h-0.93042v-23.756l-6.1088 1.6714v22.203h-6.8025v-27.2l-2.1429-3.7903-2.2269 3.9387v26.696h-6.3314v-28.151h-6.9791v27.676h-1.3959v-30.645h-11.282v30.051h-4.5364v-16.867h-6.3974v16.035h-0.93048v-29.932h-7.5607v30.17h-2.0938v-27.676h-9.189v28.151h-4.3037v-27.889h-2.7373v-7.559h-4.8526v7.559h-3.5367v28.052h-4.6058v-18.814h-7.8137v18.898h-7.3201v-25.785s-4.2769-5.3753-9.7053-0.58794c0.082336 2.6037 0 26.625 0 26.625h-1.8094v-22.593h-5.593l-5.652 21.54h-2.9018v-9.2781l-1.2336-3.1076-1.0693 3.1076h-6.0864l-0.699-2.8242-1.0795 2.8137v9.2074h-4.102v-14.236h-5.0996v13.942h-2.3439v-24.189h-7.238v23.853h-5.0992v-27.381h-8.0606v5.8792h-2.961v-6.7192h-7.2378v28.052h-1.9739v-17.134h-4.7704v16.63h-3.29v-22.005h-5.4283v21.669h-5.4284v-26.709h-6.251l0.3291 37.459 332.86 0.1755z" fill="#ccc"/>
  <path d="m639.42 146.18l0.1645-19.225h7.6769v18.292h4.1873v-22.568h7.2116v16.867h5.8161v-13.303h6.2811v12.59h5.8158v-16.867s4.8854-13.303 8.8401 0v16.867h1.1633v-28.269l7.8226 4.6121v25.202h3.3438v-25.062h1.861v-4.276h5.6995v3.5634h2.7916v25.181h3.0244v-19.836l1.6284-0.1188 1.7447-12.472 1.8612 12.591h2.3264v19.836l2.4427-0.2375v-26.369l4.681-8.2794 4.2753 0.0837 5.0939 9.0096v26.268h5.4911v-30.882h8.2584v30.764h1.9775v-28.151h6.5138v26.963h0.93042v-23.756l6.1086 1.6714v22.203h6.8027v-27.2l2.1429-3.7903 2.2268 3.9387v26.696h6.3314v-28.151h6.9791v27.676h1.3958v-30.645h11.283v30.051h4.5365v-16.867h6.3975v16.035h0.93036v-29.932h7.5607v30.17h2.0938v-27.676h9.189v28.151h4.3037v-27.889h2.7373v-7.559h4.8525v7.559h3.5367v28.052h4.606v-18.814h7.8136v18.898h7.3201v-25.785s4.2769-5.3753 9.7054-0.58792c-0.082275 2.6037 0 26.625 0 26.625h1.8094v-22.593h5.5928l5.6523 21.541h2.9016v-9.2781l1.2336-3.1076 1.0693 3.1076h6.0864l0.6991-2.8242 1.0795 2.8137v9.2073h4.1021v-14.236h5.0996v13.942h2.3439v-24.189h7.238v23.853h5.0993v-27.381h8.0604v5.8793h2.961v-6.7191h7.238v28.052h1.9738v-17.134h4.7705v16.63h3.2899v-22.005h5.4283v21.669h5.4286v-26.709h6.2507l-0.3289 37.459-332.86 0.1755z" fill="#b3b3b3"/>
  <g fill="#ccc">
   <path d="m475.4 148.17l0.1645-19.225h7.6771v18.292h4.1872v-22.568h7.2117v16.867h5.8159v-13.303h6.2811v12.59h5.8158v-16.867s4.8854-13.303 8.84 0v16.867h1.1632v-28.269l7.8227 4.6121v25.201h3.3439v-25.062h1.861v-4.2761h5.6995v3.5634h2.7915v25.181h3.0243v-19.836l1.6284-0.1188 1.7448-12.472 1.8612 12.59h2.3263v19.836l2.4426-0.2375 2.5244-29.591 3.2084-5.0572 3.2236 0.0837 3.6914 4.9997 1.4024 30.278h5.491v-30.882h8.2586v30.764h1.9773v-28.15h6.5137v26.963h0.93054v-23.756l6.1085 1.6715v22.203h6.8028v-27.2l2.1429-3.7903 2.2267 3.9386v26.696h6.3314v-28.151h6.9791v27.676h1.3958v-30.645h11.283v30.051h4.5364v-16.867h6.3973v16.035h0.9306v-29.932h7.5607v30.17h2.0938v-27.675h9.1891v28.151h4.3036v-27.889h2.7371v-7.5591h4.8526v7.5591h3.5367v28.052h4.6061v-18.814h7.8136v18.898h7.3202v-25.785s4.2768-5.3753 9.7053-0.5879c-0.082275 2.6037 0 26.625 0 26.625h1.8096v-22.593h5.5928l5.6522 21.54h2.9016v-9.2781l1.2337-3.1076 1.0692 3.1076h6.0864l0.6992-2.8241 1.0795 2.8137v9.2073h4.102v-14.236h5.0994v13.942h2.3442v-24.189h7.2378v23.853h5.0995v-27.38h8.0602v5.8792h2.9609v-6.7192h7.2379v28.052h1.9739v-17.134h4.7705v16.63h3.29v-22.005h5.4284v21.669h5.4283v-26.709h6.251l-0.329 37.459-332.86 0.1755z"/>
   <path d="m190.42 144.71l0.1649-19.225h7.6762v18.292h4.1881v-22.567h7.2117v16.866h5.816v-13.304h6.2805v12.591h5.8161v-16.866s4.8849-13.304 8.8396 0v16.866h1.1634v-28.27l7.8232 4.6118v25.201h3.3433v-25.062h1.8612v-4.2764h5.6994v3.5638h2.7914v25.181h3.0247v-19.836l1.6279-0.1192 1.7457-12.471 1.8601 12.59h2.3269v19.836l2.4424-0.2372v-26.37l4.6818-8.2789 4.2745 0.0837 5.0946 9.0098v26.268h5.4907v-30.883h8.2584v30.764h1.9768v-28.15h6.5139v26.962h0.93121v-23.755l6.1077 1.6715v22.203h6.8033v-27.2l2.1429-3.7903 2.227 3.9386v26.696h6.331v-28.151h6.9795v27.675h1.3956v-30.645h11.282v30.051h4.537v-16.866h6.3972v16.035h0.93008v-29.932h7.5606v30.169h2.0946v-27.675h9.1886v28.15h4.3036v-27.889h2.7375v-7.559h4.8523v7.559h3.5363v28.053h4.6066v-18.814h7.813v18.898h7.3205v-25.784s4.2768-5.3754 9.7058-0.58795c-0.083008 2.6033 0 26.624 0 26.624h1.8097v-22.593h5.5928l5.6522 21.54h2.9013v-9.2776l1.2341-3.1082 1.0692 3.1082h6.0864l0.6989-2.8241 1.0793 2.8137v9.2066h4.1018v-14.236h5.0992v13.943h2.3448v-24.189h7.2375v23.853h5.0991v-27.381h8.061v5.8791h2.9608v-6.719h7.2375v28.052h1.9746v-17.133h4.7704v16.629h3.2895v-22.005h5.429v21.669h5.4279v-26.709h6.2513l-0.3287 37.46-332.86 0.1753z"/>
  </g>
  <path d="m535.05 144.83l-0.1645-19.225h-7.6771v18.292h-4.1873v-22.568h-7.2118v16.867h-5.8158v-13.303h-6.2811v12.591h-5.8158v-16.867s-4.8853-13.303-8.8401 0v16.867h-1.1632v-28.269l-7.8226 4.6121v25.201h-3.3438v-25.062h-1.861v-4.2761h-5.6995v3.5634h-2.7918v25.181h-3.0242v-19.836l-1.6284-0.1188-1.7447-12.472-1.8611 12.59h-2.3264v19.836l-2.4427-0.2375v-26.369l-4.6811-9.7034-4.2752 0.0837-5.0939 10.434v26.268h-5.4912v-30.882h-8.2584v30.764h-1.9774v-28.151h-6.5137v26.963h-0.93066v-23.756l-6.1084 1.6715v22.203h-6.8028v-27.2l-2.143-3.7903-2.2267 3.9386v26.696h-6.3314v-28.151h-6.979v27.676h-1.3958v-30.645h-11.283v30.051h-4.5364v-16.867h-6.3973v16.035h-0.93066v-29.932h-7.5606v30.17h-2.0936v-27.675h-9.1892v28.151h-4.3036v-27.889h-2.7372v-7.559h-4.8527v7.559h-3.5367v28.052h-4.606v-18.814h-7.8135v18.898h-7.3201v-25.785s-4.277-5.3753-9.7053-0.58794c0.082123 2.6037 0 26.625 0 26.625h-1.8097v-22.593h-5.5928l-5.6522 21.54h-2.9018v-9.2781l-1.2336-3.1076-1.0692 3.1076h-6.0865l-0.6991-2.8242-1.0797 2.8137v9.2073h-4.102v-14.236h-5.0994v13.942h-2.3442v-24.189h-7.2377v23.853h-5.0995v-27.38h-8.0604v5.8793h-2.961v-6.7191h-7.2377v28.052h-1.974v-17.134h-4.7705v16.63h-3.2899v-22.005h-5.4284v21.669h-5.4283v-26.709h-6.2509l0.329 37.459 332.86 0.1755z" fill="#e6e6e6"/>
  <path d="m76.514 148.53l0.1645-19.226h7.6769v18.292h4.1874v-22.569h7.2116v16.866h5.8161v-13.302h6.281v12.59h5.815v-16.867s4.886-13.302 8.84 0v16.867h1.164v-28.269l7.823 4.612v25.202h3.343v-25.063h1.861v-4.276h5.7v3.563h2.791v25.182h3.025v-19.837l1.628-0.119 1.745-12.471 1.861 12.59h2.327v19.837l2.442-0.239v-26.368l4.682-8.28 4.275 0.085 5.094 9.009v26.267h5.491v-30.881h8.258v30.763h1.977v-28.151h6.514v26.963h0.931v-23.755l6.107 1.672v22.202h6.804v-27.201l2.143-3.79 2.227 3.938v26.696h6.331v-28.15h6.979v27.675h1.397v-30.645h11.281v30.052h4.537v-16.868h6.397v16.037h0.93001v-29.933h7.561v30.169h2.094v-27.674h9.189v28.149h4.304v-27.888h2.738v-7.56h4.851v7.56h3.538v28.053h4.606v-18.814h7.813v18.897h7.32v-25.784s4.277-5.376 9.706-0.589c-0.082977 2.604 0 26.626 0 26.626h1.809v-22.594h5.594l5.652 21.54h2.901v-9.277l1.234-3.108 1.069 3.108h6.086l0.699-2.825 1.08 2.814v9.207h4.102v-14.236h5.099v13.943h2.344v-24.19h7.238v23.853h5.099v-27.38h8.061v5.879h2.961v-6.719h7.237v28.052h1.975v-17.134h4.771v16.631h3.289v-22.005h5.429v21.668h5.427v-26.708h6.252l-0.329 37.458-332.86 0.178z" fill="#b3b3b3"/>
  <path d="m-0.6756 109.89h6.6084v27.676h1.3958v-30.645h11.283v30.051h4.5364v-16.867h6.3974v16.035h0.9304v-29.932h7.5607v30.17h2.0937v-27.676h9.1891v28.15h4.3037v-27.889h2.7371v-7.559h4.8526v7.559h3.5368v28.052h4.6059v-18.814h7.8136v18.898h7.3202v-25.785c0-3.1e-5 4.2769-5.3753 9.7053-0.58795-0.082352 2.6036 0 26.625 0 26.625h1.8093v-22.593h5.593l5.6521 21.54h2.9016v-9.2781l1.2338-3.1076 1.0693 3.1076h6.0863l0.6992-2.8241 1.0795 2.8136v9.2073h4.1022v-14.236h5.0994v13.942h2.3441v-24.189h7.2378v23.853h5.0994v-27.38h8.0604v5.8792h2.9609v-6.7192h7.238v28.052h1.9739v-17.134h4.7704v16.63h3.2899v-22.005h5.4284v21.669h5.4284v-26.709h6.251l-0.3291 37.459-189.95 0.1001" fill="#4d4d4d"/>
  <path d="m206.98 109.92h-6.6084v27.676h-1.3958v-30.645h-11.283v30.051h-4.5364v-16.867h-6.3974v16.035h-0.93028v-29.932h-7.561v30.17h-2.0935v-27.676h-9.1891v28.151h-4.3038v-27.889h-2.7371v-7.559h-4.8525v7.559h-3.5368v28.052h-4.606v-18.814h-7.8136v18.898h-7.3201v-25.785c0-3.1e-5 -4.277-5.3754-9.7053-0.58794 0.08213 2.6036 0 26.625 0 26.625l-1.8094 1e-4v-22.593h-5.5929l-5.6522 21.54h-2.9016v-9.278l-1.2339-3.1076-1.0691 3.1076h-6.0864l-0.6991-2.8242-1.0795 2.8136v9.2074h-4.1022v-14.236h-5.0995v13.942h-2.344v-24.189h-7.2379v23.853h-5.0996v-27.381h-8.0603v5.8793h-2.9608v-6.7192h-7.238v28.052h-1.9739v-17.134h-4.7704v16.63h-3.2899v-22.005h-5.4284v21.669h-5.4284v-26.709h-6.251l0.3291 37.459 189.95 0.1001" fill="#b3b3b3"/>
  <path d="m887.33 141.01h1.8885v-30.882h8.2586v30.764h1.9772v-28.151h6.5139v26.963h0.93042v-23.756l6.1088 1.6714v22.203h6.8026v-27.2l2.1429-3.7903 2.2269 3.9387v26.696h6.3314v-28.151h6.9791v27.676h1.3959v-30.645h11.282v30.051h4.5365v-16.867h6.3974v16.035h0.93054v-29.932h7.5606v30.17h2.0938v-27.676h9.189v28.151h4.3037v-27.889h2.7374v-7.5591h4.8524v7.5591h3.5369v28.052h4.6056v-18.814h7.8138v18.898h7.3202v-25.785c0 3.8e-5 4.2768-5.3753 9.7053-0.5879-0.082397 2.6036 0 26.625 0 26.625h1.8093v-22.593h5.5933l5.652 21.54h2.9016v-9.2781l1.2336-3.1076 1.0695 3.1076h6.0863l0.6992-2.8242 1.0795 2.8137v9.2074h4.102v-14.236h5.0995v13.942h2.344v-24.189h7.2379v23.853h5.0992v-27.38h8.0607v5.8792h2.9609v-6.7191h7.2377v28.052h1.974v-17.134h4.7704v16.63h3.2902v-22.005h5.4284v21.669h5.4284v-26.709h6.2507l-0.329 37.459-233.5 0.1231" fill="#999"/>
 </g>
 <g fill-rule="evenodd">
  <path d="m336.71 144.05v-45.432c0-2.1274 2.8505-7.2529 6.4323-7.3419 3.7511-0.093628 6.6888 5.3392 6.7673 7.3419 0.007813 0.20689 0 45.16 0 45.16l-13.2 0.2723z" fill="#999"/>
  <g fill="#ccc">
   <path d="m457.4 72.352l3.8835 12.35v60.848l-16.961 0.1663v-61.695l3.7399-11.318 4.752-7.8571 4.5854 7.5059z"/>
   <path d="m467.23 135.99v-53.765h3.5318v3.4572h8.3559v-3.4751h3.3014v53.763l-15.189 0.0196v3.1e-5z"/>
  </g>
  <path d="m1034.4 144l0.0991-61.203-13.474 8.6315v52.572h13.374z" fill="#ececec"/>
  <path d="m1052 102.35l2.203 7.0067v34.521l-9.6224 0.0944v-35.002l2.1219-6.4212 2.6959-4.4577 2.6016 4.2584v-5.3e-5z" fill="#f2f2f2"/>
 </g>
 <rect x="1.0962" y="146.1" width="1121.9" height="23.897" fill="#333"/>
 <rect x="1.0965" y="166.44" width="1121.9" height="12.557"/>
 <g stroke="#000">
  <path d="m67.966 123.2l1.0723-0.081352s3.5238 0.50523 3.5238 0.50523c0.61594 0.17873 0.93615 0.58546 1.5322 0.77335l1.3788 0.1684c0.45808 0.1226 1.7711 1.0196 2.1127 1.3737 0.36316 0.37577 1.0741 1.6348 1.1614 2.1573 0.010765 0.51213-0.33848 1.0724 0 1.471 0.38773 0.37233 0.99132 0.13174 1.6149 0.47658 0.56533 0.31505 0.75225 0.85468 1.1445 1.3324 0.60371 0.73666 1.6532 1.3886 1.5889 2.5056-0.082787 1.4332-2.7854 0.79166-3.3064 2.1986-0.44743 1.2064 2.502 1.0231 2.0208 2.4907-0.36607 1.117-1.9886 0.89934-2.8129 1.219l-1.9916 1.1617c-0.46883 0.21536-0.9883 0.62437-1.5046 0.3116-0.9101-0.55336-0.70018-1.7151-0.88553-2.2134-0.16862-0.4537-0.57757-0.78136-0.98057-1.0139-0.30177-0.17415-0.7079-0.35861-1.0526-0.20622-0.59753 0.2612-1.4071 1.4447-1.4891 2.1126l-0.7694 4.0075c-0.11793 0.55908 0.095146 1.2156 0.093666 1.8262 0 0.34026 0.032227 0.80424-0.15616 1.0918-0.54929 0.16498-0.85143 0.27954-1.4786-0.16269-0.31874-0.6954 0.05822-1.0196 0.15166-1.8102 0.030655-0.95204 0.13789-2.4758 0.097954-3.5l-0.12711-1.0952-0.14247-0.78252c-0.04892-0.1535-0.11333-0.32193-0.19768-0.4594-0.91762-1.4997-2.1787 0.6095-2.7577 0.9257-0.28654 0.15694-0.58979 0.1581-0.90539 0.1329-0.46122-0.037827-1.14-0.15468-1.5322-0.40214-0.40142-0.25204-0.7951-0.75842-1.2257-0.85239-0.68943-0.15122-2.6736 1.518-2.9707-0.12944-0.030632-0.15697-0.009315-0.31049 0-0.46629 0.053627-0.7653 0.16851-1.6257-0.18074-2.3406-0.46268-0.9463-0.66193-0.3242-1.4954-2.3532-0.11645-0.28528-0.30181-0.63238-0.33388-0.93944-0.12117-1.1869 1.5245-1.7826 1.8247-2.517 0.22966-0.4491 0.018295-0.79166 0-1.2373-0.075172-0.46741 0.15629-1.4424 0.35228-1.8628 0.24065-0.52125 0.64051-0.68739 0.9975-1.1376 0.34936-0.43994 0.51473-1.03 1.0555-1.2648 0.47502-0.20623 1.0051-0.00116 1.6701-0.40442 0.69099-0.42162 0.9331-0.96237 1.8386-1.4527 1.1383-0.27036 2.1541 0.37692 3.0642 0.44337z" stroke-width=".137"/>
  <path d="m370.04 117.12c0.9025 0.092926 1.4002-0.41704 2.2438 0.30607 0.39594 0.34061 0.99347 1.0728 1.1986 1.5609 0.23901 0.5683 0.28195 1.5082 0.87588 1.8688 0.81332 0.49178 1.2236-1.1275 2.2616-0.80509 0.75809 0.23679 0.74206 1.2004 0.72961 1.8506-0.039276 2.0819-1.3912 3.7503-1.2164 5.0963 0.15335 1.1876 1.796 1.3788 1.7105 2.9143-0.053528 0.96353-0.91684 1.0218-1.9014 2.0236-1.1219 1.1457-1.5285 2.1985-2.1314 3.6264-0.18375 0.43895-0.41556 1.4407-0.68863 1.7122-0.54392 0.54097-1.3109 0.002289-2.0048 0.25139-0.52618 0.18759-0.77939 0.66118-1.2718 0.9635-0.92737 0.56831-2.9643 0.74678-3.5192 1.8287-0.17645 0.42619-0.030182 2.2787 0 2.8943-0.031952 0.47356 0.003387 1.346-0.26205 1.7394-0.11783 0.17665-0.27118 0.2896-0.48526 0.2896-0.80786 0-0.71164-1.3077-0.71164-1.8469v-2.55c-0.037445-1.9945-1.1273-1.8069-2.4971-2.4061l-1.6053-0.84874c-0.58154-0.31516-1.2077-0.88164-1.7838-1.0383-0.71881-0.19673-1.9158 0.11658-2.3206-0.39528-0.48523-0.6138 0.20856-2.2276-0.13025-3.1438-0.2818-0.76683-1.0558-1.2513-1.4447-2.0036-0.21051-0.40614-0.70816-2.0964-0.70999-2.55l0.16596-1.4571c-0.07666-0.70309-0.65643-1.1566-0.65283-1.8214 0.005585-0.78687 0.7171-1.0437 1.2985-2.1857 0.49951-0.98354 0.93112-2.4571 1.691-3.2403 1.154-1.1912 2.1815-1.1148 3.3514-1.6229 0.55313-0.23868 1.5092-1.1403 2.8539-1.6812 0.54413-0.21858 1.2004-0.21494 1.7837-0.30056 1.8745-0.2259 4.1951 0.8725 5.1727 0.97078z" stroke-width=".159"/>
  <path d="m1050.6 124.85l0.83923-0.063698 2.7572 0.39544c0.48193 0.13956 0.73242 0.45785 1.1988 0.60476l1.0789 0.13216c0.3584 0.095543 1.3859 0.79817 1.6532 1.0748 0.28406 0.29385 0.84045 1.2793 0.90869 1.6882 0.007935 0.40031-0.26502 0.83858 0 1.1508 0.30334 0.29138 0.77564 0.1029 1.2636 0.3734 0.44238 0.24605 0.5885 0.66838 0.89551 1.0418 0.47229 0.57661 1.2936 1.0871 1.2432 1.9612-0.064819 1.1214-2.1793 0.61942-2.5872 1.7199-0.34998 0.94391 1.9578 0.80063 1.5813 1.9489-0.28638 0.87412-1.556 0.70393-2.201 0.95366l-1.5584 0.90959c-0.36682 0.16771-0.77332 0.48842-1.1772 0.24356-0.71228-0.43332-0.54797-1.3417-0.69287-1.7322-0.13208-0.35498-0.4519-0.61086-0.76733-0.79324-0.23608-0.13591-0.55396-0.28032-0.82349-0.16161-0.46765 0.20447-1.1011 1.1303-1.1653 1.6535l-0.60205 3.1359c-0.092285 0.43707 0.074463 0.95082 0.073364 1.4282 0 0.26688 0.025146 0.62958-0.12219 0.85483-0.42981 0.12854-0.66626 0.21898-1.157-0.12766-0.24927-0.54356 0.045532-0.7977 0.11877-1.4159 0.023804-0.74558 0.10779-1.9372 0.07666-2.7391l-0.099487-0.85692-0.11157-0.61206c-0.038208-0.11996-0.088623-0.25221-0.15466-0.35992-0.71802-1.1728-1.7046 0.47742-2.1578 0.72467-0.22412 0.12247-0.46143 0.12366-0.70837 0.10413-0.36084-0.029434-0.89197-0.12122-1.1988-0.31462-0.31396-0.19708-0.62207-0.59374-0.95898-0.66718-0.53955-0.11873-2.092 1.1874-2.3247-0.10162-0.023682-0.12247-0.006714-0.24243 0-0.36482 0.042114-0.59862 0.13196-1.2719-0.14124-1.8314-0.36206-0.74063-0.51794-0.25343-1.1702-1.8412-0.091064-0.22279-0.23621-0.49457-0.26135-0.7345-0.094727-0.92918 1.193-1.3956 1.428-1.9697 0.17956-0.35136 0.014282-0.61945 0-0.96834-0.058838-0.36607 0.12219-1.1287 0.27564-1.458 0.18811-0.40761 0.5011-0.53742 0.7804-0.88999 0.27332-0.344 0.40271-0.80549 0.82581-0.98914 0.37183-0.16156 0.78662-0.001137 1.3068-0.31701 0.54089-0.32935 0.73035-0.75292 1.4387-1.136 0.89075-0.21181 1.6856 0.295 2.3976 0.34643v3.1e-5z" stroke-width=".107"/>
 </g>
 <path d="m997.01 144.21c-0.18732 0.68053-1.0029 1.6383-1.0736 1.6956-5.6466 4.5838-20.576 5.3572-28.692-0.56824-0.32092-0.23372-1.7602-2.0874-1.7602-2.1367-1.4585-12.744-10.245-90.742 14.203-120.94-0.17499-0.17942 2.6366-0.17942 2.6366-0.17942 25.772 26.518 15.939 121.98 14.686 122.12z" fill-rule="evenodd" stroke="#000" stroke-width=".164"/>
 <path d="m832.36 144.26v-2.6465l0.2883-0.2944-0.0146-8.5994s-0.41742-0.52931-0.33099-0.61752c-0.029114-0.1031-0.029114-0.66104-0.029114-0.66104h0.41846v-8.0265l-0.3893-0.2795v-0.24976l0.3893 0.0149-0.3893-0.4709v-0.44109l-0.5105-0.3002v-0.39066l0.4814-0.338v-0.5144l0.332-0.2349v-1.8823h-0.30292l-0.1672-0.2944v-0.2784l0.1773-0.181h1.5157v1.3862h0.30292v0.23486h0.61822v-0.23486h0.84924v0.29443h0.4903v0.27954h0.41742v0.17529l0.2961 0.0813v-1.0368l0.2368-0.4399 0.2009-0.2062h2.0295v0.23486h2.3762v-0.30818h2.2304v0.29328h5.816v-0.35286h2.2023v0.35286h5.8879v-0.3964h2.1597v0.3964h5.6713v-0.38151h2.577v0.33798h2.0588v-0.32307h-0.31647v-0.57398h-0.23114v-0.48463h0.63397v-3.7121h-0.41742v-1.051h0.18744v-8.8275l-0.5038-0.5145v-0.4484l0.662-0.2572v-1.154l-0.1818-0.0497v-0.2957l0.8011-0.5145 1.1802-0.3601h1.2666v-3.3516l-0.4835-0.3794v-0.6237h0.49811v-0.20268h0.20978l-0.0404-0.1533h-0.16382l-0.194-0.1988v-0.23006l0.552-0.3254v-0.73861h0.24341c0.39606-3.4175 2.3808-10.011 8.3325-12.157v-0.46869h0.25806v-0.291s-0.46112 0.04892-0.52515-0.269c0-0.083176-0.025696-0.34955 0.2727-0.47214l0.1818-0.0133v-0.99227h0.15027v-0.53663h0.18066v0.48519h0.38147v-0.85261h-0.20874v-0.51451h0.40277v-3.7338l-0.4465-0.3675v-0.29398h0.4859v-1.1709l0.4589 0.4678v0.57168h0.35559v-2.1205h-0.46783v-0.37418h0.26477v-1.1435s0.60022-0.9667 0.9671-0.9667v-0.35333l-0.3152-0.1663v-0.16635h0.34552v-0.89878h0.26703s-0.22772-0.1581-0.25244-0.30875l-0.0067-0.3454s0.09314-0.1691 0.20196-0.17643c0.12225-0.008362 0.14362-0.007332 0.14362-0.007332v-0.19144c-1.0378-0.51979-0.22327-1.5114-0.006775-1.4085l0.0281-1.8326 0.1738-0.9923 0.175 0.9923 0.0281 1.8326c0.21533-0.10288 1.031 0.8887-0.006836 1.4085v0.19144s0.021362-0.00103 0.14362 0.007332c0.10773 0.007332 0.20196 0.17643 0.20196 0.17643l-0.0067 0.3454c-0.025818 0.15065-0.25244 0.30875-0.25244 0.30875h0.26697v0.89878h0.34564v0.16635l-0.3152 0.1663v0.35333c0.36676 0 0.96704 0.9667 0.96704 0.9667v1.1435h0.26471v0.37418h-0.46893v2.1205h0.35687v-0.57168l0.4577-0.4678v1.1709h0.48578v0.29398l-0.4454 0.3675v3.7338h0.40277v0.51451h-0.20868v0.85261h0.38141v-0.48519h0.17956v0.53663h0.15149v0.99227l0.1817 0.0133c0.29846 0.12259 0.27264 0.38896 0.27264 0.47214-0.063965 0.31792-0.52502 0.269-0.52502 0.269v0.291h0.25806v0.46869c5.9518 2.1457 7.9364 8.7395 8.3325 12.157h0.24347v0.73861l0.5519 0.3254v0.23006l-0.1952 0.1988h-0.1626l-0.0405 0.1533h0.20984v0.20268h0.49805v0.6237l-0.4835 0.3794v3.3516h1.2666l1.1802 0.3601 0.801 0.5145v0.2957l-0.1816 0.0497v1.154l0.6619 0.2572v0.4484l-0.5038 0.5145v8.8275h0.18738v1.051h-0.4173v3.7121h0.63275v0.48463h-0.22998v0.57398h-0.31641v0.23027h2.8654v-0.42732h2.5759v0.42732h5.7095v-0.37234h2.2112v0.41588h5.935v-0.40556h2.2539v0.3838h5.2292v-0.36776h2.8386v0.3414h11.353v-2.1229l-0.3332-0.2566-0.0157-1.3714 0.3422-0.1547v-0.527h-0.33429v-1.7673h1.0096v-0.69749l0.497 8e-3 -0.3119-0.4274-0.1604-0.1973-0.0214-0.4383 0.3602 0.0092v-0.55806h0.1593v-4.7428l-0.2726-0.161-0.4084-0.2024v-0.67515h0.68103v-1.0306h0.19745v-0.72074h0.49592v-0.8943h-0.20422v-0.30682h0.20422v-0.38368h0.32196v0.37269h0.18176v0.31781h-0.18176v0.51508h0.25696l0.3006-0.4932v-1.5563h-0.22552v-0.50855h0.34338v-0.52162h0.258v-0.36169h-0.2467v-0.39457h0.2254v-0.37269h0.17175l-0.0371-0.1411h0.21881l-0.0192-0.6727 0.3187-0.4417v-0.85971l0.5812-0.9644h0.11786s0.053772-0.5261 0.31183-0.56997c0-0.021881 0.019104-0.38495 0.019104-0.38495-0.22778-0.030937-0.33093-0.45265-0.012329-0.59219 0.002197 6.94e-4 -0.010132-0.35551-0.007874-0.35642-0.36914-0.11789-0.3714-0.73952 0.13464-0.75683 0.50714 0.018333 0.50488 0.63986 0.13574 0.75774 0.002258 0.001038-0.010132 0.35711-0.007874 0.35642 0.31866 0.13954 0.21539 0.56126-0.012268 0.59231 0 0 0.019043 0.36295 0.019043 0.38494 0.258 0.04377 0.31189 0.56986 0.31189 0.56986h0.11774l0.5812 0.9645v0.8596l0.3186 0.4418-0.0201 0.6727h0.21985l-0.037 0.1411h0.17169v0.37258h0.22546v0.39456h-0.24683v0.36169h0.25806v0.52174h0.34326v0.50856h-0.22546v1.5563l0.3007 0.4932h0.2569v-0.5151h-0.18182v-0.31792h0.18182v-0.37257h0.32196v0.38358h0.20416v0.30692h-0.20416v0.8942h0.49591v0.72073h0.19745v1.0308h0.68097v0.67513l-0.4083 0.2023-0.2726 0.161v4.7429h0.1593v0.55794l0.3601-0.0092-0.0213 0.4384-0.1605 0.1973-0.3119 0.4275 0.497-8e-3v0.69749h1.0098v1.7674h-0.33435v0.527l0.3422 0.1547-0.0157 1.3714-0.3332 0.2555v1.7128h1.3665v-0.3964s-0.24683-0.21882-0.22546-0.3838c0 0.043533 0.005554-0.67365 0.005554-0.67365s0.053833-0.22455 0.17163-0.28527c-0.015686-0.016037 0-1.4745 0-1.4745l0.156-0.1535s-0.080811-0.29903 0.18402-0.31049c-0.014648 0 0.2793-0.009155 0.18616 0.35631 0-0.005737 0.26813 0.15695 0.26813 0.15695v0.39526h-0.11218v0.16956h0.18176l-0.0056 1.3542h-0.17169v3.3831l0.3344 0.2177v1.1548h-0.16718v0.67364h-0.18176v6.355h0.53174v1.046h0.35571v0.70573h-0.17395v0.31735h-0.53174v1.0391h0.20526v0.74353h-0.19745v0.65074h-0.18176v8.1377h0.34894v0.33339h0.18958v0.19362h0.17505v2.7668l-122.06 0.0103-0.0012-0.0011v0.001144z" fill-rule="evenodd" stroke="#000" stroke-width=".015"/>
 <g fill="#1a1a1a">
  <path d="m787.77 102.35c2.44e-4 0.40846-0.38287 0.7397-0.85547 0.7397-0.47272 0-0.8559-0.33124-0.85553-0.7397-3.66e-4 -0.40846 0.38281-0.73971 0.85553-0.73971 0.4726 0 0.85571 0.33124 0.85547 0.73971z"/>
  <g fill-rule="evenodd">
   <path d="m786.82 101.8l0.0542-2.3453 0.0865 2.3413-0.1407 4e-3z" stroke="#1a1a1a" stroke-width="2.442"/>
   <path d="m787.2 102.86c-0.096436 0.3988 0.1582 2.8469 0.19403 2.8561 2.9407 0.76542 3.3356 3.4088 3.3356 3.4088l0.7977 7e-3 -0.0012 1.4919h-0.83807l-0.046 11.345-7.4451-0.0149 0.0146-11.246h-0.79993l-0.0012-1.5877 0.7595-7e-3s0.18738-2.8056 3.1269-3.3106c0.035828-0.00631 0.39148-2.482 0.29608-2.8807l0.607-0.062z"/>
  </g>
 </g>
 <g stroke="#000">
  <path d="m775.6 98.219c3.05e-4 0.40845-0.38281 0.73971-0.85547 0.73971-0.47272 0-0.85571-0.33126-0.85547-0.73971-2.44e-4 -0.40846 0.38275-0.73971 0.85547-0.73971 0.47266 0 0.85577 0.33125 0.85547 0.73971z" stroke-width=".884"/>
  <g fill-rule="evenodd">
   <path d="m774.64 97.674l0.0543-2.3453 0.0864 2.3413-0.1407 4e-3z" stroke-width="2.442"/>
   <path d="m775.03 98.73c-0.095703 0.39877 0.15869 2.8468 0.1947 2.8562 2.9402 0.76531 3.3354 3.4088 3.3354 3.4088l0.7975 7e-3 -9e-4 1.4919h-0.83789l-0.0464 11.344-7.4457-0.0139 0.0152-11.246h-0.80005l-9e-4 -1.5877 0.7595-7e-3s0.18756-2.8056 3.1265-3.3106c0.03656-0.006279 0.39227-2.4819 0.29657-2.8807l0.6065-0.0619z" stroke-width=".828"/>
  </g>
  <path d="m820.8 98.166c3.05e-4 0.40846-0.38281 0.73972-0.85553 0.73972-0.4726 0-0.85577-0.33126-0.85547-0.73972-3.05e-4 -0.40846 0.38287-0.7397 0.85547-0.7397 0.47272 0 0.85584 0.33124 0.85553 0.7397z" stroke-width=".884"/>
  <path d="m819.84 97.621l0.0542-2.3453 0.0865 2.3413-0.1406 4e-3h-1e-4z" fill-rule="evenodd" stroke-width=".209"/>
 </g>
 <g fill="#1a1a1a">
  <path d="m810.11 102.09c2.44e-4 0.37518-0.36853 0.67942-0.82379 0.67942-0.45508 0-0.82391-0.30424-0.82367-0.67942-2.44e-4 -0.37518 0.36859-0.67942 0.82367-0.67942 0.45526 0 0.82404 0.30424 0.82379 0.67942z"/>
  <g fill-rule="evenodd">
   <path d="m809.18 101.59l0.0522-2.1542 0.0833 2.1505-0.1354 0.0037v-8e-6z" stroke="#1a1a1a" stroke-width="2.322"/>
   <path d="m809.56 102.56c-0.092163 0.36628 0.15289 2.6148 0.18744 2.6234 2.831 0.70296 3.2116 3.131 3.2116 3.131l0.7678 0.0065-8e-4 1.3703h-0.80688l-0.0446 10.42-7.169-0.0128 0.0145-10.33h-0.77026l-9e-4 -1.4583 0.7313-0.0064s0.18054-2.577 3.0102-3.0409c0.035156-0.005768 0.37769-2.2797 0.28552-2.646l0.584-0.0569z"/>
  </g>
 </g>
 <g fill-rule="evenodd" stroke="#000">
  <path d="m820.25 98.8c-0.095825 0.39878 0.15869 2.8468 0.19464 2.8562 2.9403 0.7653 3.3354 3.4088 3.3354 3.4088l0.7975 7e-3 -9e-4 1.4919h-0.83789l-0.0465 11.344-7.4457-0.0139 0.0151-11.246h-0.79999l-9e-4 -1.5877 0.7595-7e-3s0.18756-2.8056 3.1263-3.3106c0.036621-0.006302 0.3924-2.4819 0.29657-2.8807l0.6066-0.0619h6.1e-5z" stroke-width=".071"/>
  <path d="m831.22 118.27s0.003418-1.6412 0.00116-1.6362c-0.2099-0.14987-1.381-0.241-1.381-0.241v2.0403l-1.2354-0.1614-0.017-1.9266c-0.75592-0.12214-1.079-0.16186-1.79-0.18747l0.0127 1.8505-1.3311-0.1595v-1.738c-0.98322-0.029854-1.6909-0.037933-1.6909-0.037933l0.024 1.7314-1.9305-0.0109h-1.7134v-1.8386h-2.6634l0.0243 1.8599-1.6891-0.0078v-1.8387l-2.6214 0.0081-0.0057 1.8587-1.7007-0.0091v-1.8386h-2.6634l0.0114 1.8644-1.6781-0.0114v-1.8386h-2.6633l0.0228 1.8571-1.6904-0.0025v-1.8386h-2.6634l0.024 1.8624-1.6892-0.0053v-1.8387h-2.6634l0.0114 1.8571-1.6778-0.0025v-1.8386h-2.6634l0.0185 1.8613-1.6829-0.0064v-1.8387h-2.6634l0.0238 1.8599-1.6896-0.0078v-1.8386h-2.6633v1.8272h-1.6964v-1.7814h-10.145l0.0821 30.347c-0.088745 0.019104 49.3-0.16023 49.389-0.16148 0 0 10.124-0.1461 10.701-1.4063 0.033875-0.54993 0.016968-26.599 0.015808-26.637l5e-4 1e-4z" stroke-width=".07"/>
  <path d="m767.79 152.28l-0.012-3.2806s-0.63062-0.10928-0.59485-0.35234c0.035645-0.24303 0.39325-0.06691 0.4997-0.36452 0.34125-0.9547-0.16656-1.6524-1.0772-1.6674-1.0057 0.003448-1.454 0.71939-1.1127 1.6741 0.10632 0.29765 0.46399 0.12149 0.49976 0.36452 0.035645 0.24301-0.59497 0.35232-0.59497 0.35232l-0.0298 3.1045v0.18227l2.422-0.0128v4.6e-5z" stroke-width=".24"/>
 </g>
 <path d="m574.13 145.4c-2.4861 2.5849-22.873 4.4459-27.793 0.32834 0.03064 0.015366-0.96582-2.818-0.96582-2.818s-1.4422-0.24457-1.5471-0.5847c9.77e-4 0.072281-0.21906-2.0395-0.21906-2.0395s-1.8328-0.11262-2.0605-0.36954c-0.006653 0.011459-0.23383-3.6288-0.23383-3.6288s-1.2867-0.060486-1.4717-0.33824c-0.01532 0.046036-0.014771-2.1294-0.014771-2.1294 0.01947 0.012482-1.0004 0.10951-1.3404-0.26225-0.028198 0.002304-0.0672-3.0054-0.0672-3.0054s-0.72937 0.078369-1.0018-0.21658c-0.014099-0.13622-0.036926-2.9101-0.036926-2.9101-0.88562-0.060257-0.76569-0.42957-0.76569-0.42957l0.0929-2.6623c-0.2804-0.045258-0.67224-0.3735-0.62799-0.51668l0.1597-2.6723c-0.42065-0.19594-0.4809-0.65566-0.4809-0.73857l0.2648-2.4393s-0.023682 0.048569-0.26465-0.13418c-0.10681-0.094612 0.2019-2.0095 0.32733-2.0924 0.43359-0.55328 0.019409 0.11297-0.24255-0.69659-0.02887-0.17754 0.36566-2.6529 0.84845-2.8876 0.23999-0.068726 3.6485-0.69753 5.4994-0.74096-0.054382 0.021736 4.3224 0 4.3224 0s7.3385 0.81408 10.518 2.5725c-0.23956-0.17366 5.2479 2.9089 6.0754 3.495-0.021851-0.021759 6.4678 5.158 8.4387 9.1797-0.061523-0.1228 2.4329 4.513 2.864 6.355-0.019104-0.095444 0.80572 2.2222 1.2435 4.325 0.27313 1.3122 0.37677 2.1183 0.48108 2.9202 0.061646 0.061401-1.7238 1.0882-1.9324 0.9594l-0.0307 2.8705v0.28349l-0.0385 1.0236z" fill="#0e0e0e" fill-rule="evenodd"/>
 <g fill="#0d0d0d" fill-rule="evenodd">
  <path d="m511.71 152.29s-19.018 0.67056-19.876 0.10312c-0.10114 0.051544-1.7427 1.6506-2.4246 3.069 0.025269-0.077332-0.8587-0.10323-0.8587-0.10323s0.67001-1.9927 0.50928-2.5763c-0.05365 0.072983-3.2502-0.67474-4.1968-0.78416 0.071503 0.036423-0.89291 0.14587-1.2501 3.009 0.017853-0.10939-0.82147-0.018204-0.82147-0.018204s0-2.8631-0.92862-3.2643c-0.035736-0.018204-11.51-1.7319-15.452-2.626 0 0-2.71 1.1489-3.5672 2.2431l-0.42865-0.18237s2.2681-2.5531 2.1788-3.3737c-0.05365-0.018219 0.077606-0.78297-1.2673-0.6218-0.018921 0.012939-3.239 2.2373-3.6558 2.8176l-0.3535-0.2772s1.9825-3.4624 1.1996-4.2618c-0.025238-0.025787-1.8699-2.3617-3.0128-2.1611 0.071472-0.054749-4.8753 1.5683-4.8753 1.5683l-0.0357-0.3009s2.277-1.3951 2.2055-1.4863c0 0-2.4392 0.54884-2.4518 0.75516-0.037903-0.18051-0.050476-0.2321-0.050476-0.2321l4.0031-3.4688c0.37878-0.36108 5.499-4.0802 12.998-7.6354 0.74078-0.35118 10.557-6.0126 29.549-6.087-0.10712 0 21.223-1.2102 39.559 13.748 0 0 1.4395 1.599 2.6265 2.6306 0.050537 0.15471-0.17676 0.077332-0.17676 0.077332s-3.2327-1.6248-3.8135-0.51581c-0.025269 0-0.75769 1.7538-0.075806 3.0948 0.68195 1.3411 2.0458 3.3012 2.0458 3.3012l-0.1768 0.1031s-2.9044-3.3011-4.2682-2.9143c0.12622 0.051529-1.4648 0.2321 2.1467 3.8685 0.025269 0-0.2273 0.23212-0.2273 0.23212s-3.258-2.6564-4.5208-2.4759c-1.0607 0.25792-11.289 3.069-11.289 3.069s-0.88391 1.9859-0.35358 3.4043c-0.10095 0.025803-0.53033 0.18056-0.53033 0.18056s-1.3385-2.8885-1.7932-2.8885c-0.98492 0.10323-3.8136 0.8253-3.8136 0.8253s0.47986 2.089 0.90918 2.6306c-0.60614 0.025787-0.60614 0.051559-0.60614 0.051559s-2.374-2.5274-2.7781-2.5274l-1e-4 2e-4z"/>
  <path d="m469.63 132.51l-4.0916-15.268-0.1515-2.9913 1.4652 2.8882 4.3946 14.442-1.6167 0.9291z"/>
  <path d="m467.71 119.51l-0.3031-4.0749 1.4649 3.2496 3.3337 12.947-1.0607 0.3611-3.4348-12.482z"/>
  <path d="m474.63 130.08l-2.6771-13.462-0.2526-3.0948 1.1113 2.9401 3.3338 13.205-1.5154 0.4126z"/>
  <path d="m481.15 128.56l-1.2628-8.5882 0.0505-3.9201 1.2627 3.7653 1.3134 8.7171-1.3638 0.0258z"/>
  <path d="m483.91 127.78l-1.1429-11.197 0.1071-3.1731 0.9287 3.5379 1.3215 10.796-1.2144 0.0364v3.8e-5z"/>
  <path d="m495.55 126.88l0.1176-10.702 0.3929-3.1002 0.6072 2.9908 0.1429 10.796-1.2606 0.0158v3.1e-5z"/>
  <path d="m499.24 126.47l0.1786-5.8722 0.8572-4.3038 0.7143 4.5591-0.1429 5.7627-1.6072-0.1459z"/>
  <path d="m507.45 126.98l1.1072-10.322 0.8214-3.2096 0.2143 3.6838-1.0715 10.066-1.0715-0.2188z"/>
  <path d="m516.13 128.73l1.8572-8.7899 1.4287-3.9756-0.3572 4.4132-1.6073 8.8994-1.3215-0.5471z"/>
  <path d="m518.49 129.42l2.4645-12.146 0.2143-3.4285-1.1786 3.5743-2.5716 11.744 1.0715 0.2553z"/>
  <path d="m523.92 131.39l3.8217-12.875 1.4287-3.0637-0.3215 3.7932-3.3931 12.984-1.5358-0.8389z"/>
 </g>
 <g stroke="#000">
  <g fill-rule="evenodd">
   <path d="m599.89 92.534l0.5674 0.0131 0.4968-2.8148 0.2304-1.0188-0.325-0.0241-0.0306-0.2153 0.4073-0.0141 0.3207-2.0442 0.15-1.1223 0.1306 1.1481 0.3362 2.0189 0.3255 0.0122 0.034 0.2325-0.3337-0.0254 0.9323 5.8667 0.0646 40.662-12.343-0.0014v-40.663l0.9484-5.9685-0.2947 0.0278 0.024-0.1991 0.2975-0.0245 0.2952-1.5961 0.1847-1.3388 0.1053 1.3481 0.2833 1.5166 0.2964 0.0215-0.0121 0.1617-0.2462 0.0261 0.2959 1.211 0.9138 2.7982 0.5664-0.0044 2.5906-9.4166 2.788 9.4274v-7.6e-5z"/>
   <path d="m676.24 92.486h0.78467l0.4968-2.8409 0.2304-1.0188-0.325-0.0241-0.0306-0.2153 0.4072-0.0141 0.3207-2.0442 0.15-1.1223 0.1305 1.1481 0.3362 2.0189 0.3254 0.0122 0.0341 0.2325-0.3337-0.0254 0.9323 5.8667 0.0646 40.662-12.343-0.0014v-40.663l0.9484-5.9685-0.2947 0.0278 0.024-0.1991 0.2975-0.0245 0.2952-1.5962 0.1846-1.3388 0.1053 1.3481 0.2833 1.5166 0.2964 0.0215-0.0121 0.1618-0.2462 0.0261 0.2959 1.211 0.7818 2.9243 0.7282 0.0043 2.5608-9.5514 2.5707 9.4666v-6.1e-5z"/>
   <path d="m667.44 101.2l-29.278 0.0089v-0.57406s0.17883-1.1568-0.52808-1.096c0.025513-0.008682-0.63886-0.10438-0.57922 0.94808l-1.4225-0.0174-0.017-0.8959s0.97095-1.1655-0.33221-1.583c-0.66168 0.27303-0.65692 0.91787-0.27313 1.4959 0.18176 0.27366 0.069092 0.70287 0.068726 1.0004l-1.448 0.0087s0.045898-0.94069-0.35773-0.93936c0 0-0.89362-0.23108-0.68915 1.3519h-29.54v4.4617h65.842v-4.1822l-1.4455 0.0123v8e-6z"/>
  </g>
  <g fill="none">
   <g stroke-width="3.3">
    <path d="m591.81 105.67c-18.83 19.201-28.252 28.095-52.342 28.86 0 0-18.862 1.1015-29.44-7.1063v0.04921"/>
    <path d="m591.52 104.67s-26.826 25.445-52.13 28.374c0 0-13.165 1.1382-29.723-7.3509"/>
   </g>
   <path d="m584.6 110.66l-2.0103 4.3142"/>
   <path d="m581.57 112.68l4.0884-0.2783"/>
   <path d="m582.12 112.82l-1.4992 3.7575 0.1364-0.1044"/>
   <path d="m574.47 118.47l4.2247-0.3131"/>
   <path d="m573.6 118.98l-3.9181 6.3669"/>
   <path d="m568.95 122.09l5.7239 0.3131"/>
   <path d="m568.2 122.3l-3.8159 6.5756"/>
   <path d="m564.01 124.56l5.0084 1.9483"/>
   <path d="m563.12 125.19l-3.9863 6.019"/>
   <path d="m558.86 127.14l5.0764 2.2962"/>
   <path d="m558.39 127.52l-4.361 5.2535"/>
   <path d="m553.85 129.4l4.5655 2.0527"/>
   <path d="m552.29 130.09l-3.3729 3.7923"/>
   <path d="m548.54 131.24l3.9181 1.7744"/>
   <path d="m547.11 131.8c-0.13623 0-3.1345 2.505-3.1345 2.505"/>
   <path d="m543.77 132.39l3.3389 1.6352"/>
   <path d="m542.78 132.84l-2.4531 1.8091"/>
   <g stroke-width="2">
    <path d="m539.99 133.19l3.4752 1.4961"/>
    <path d="m584.28 113.15v24.424"/>
    <path d="m579.17 114.68v23.032"/>
    <path d="m574.06 117.95v19.727"/>
    <path d="m568.81 121.57v16.004"/>
    <path d="m563.5 124.56v13.012"/>
    <path d="m558.59 126.79v10.716l0.1317-0.0777 0.0046 0.0081"/>
    <path d="m553.41 129.01v8.5588"/>
    <path d="m548.44 130.82v6.8887"/>
    <path d="m543.26 132.29v5.4971"/>
   </g>
   <path d="m579.46 114.8l3.7988-0.2435"/>
   <path d="m578.01 115.78l-3.1345 5.8102"/>
   <g stroke-width="2">
    <path d="m533.41 137.48v-4.7665"/>
    <path d="m528 137.48v-5.4623"/>
    <path d="m522.88 137.37v-6.5756"/>
    <path d="m517.74 137.2v-7.9673h0.13629"/>
    <path d="m512.77 136.99v-9.846"/>
   </g>
   <path d="m533.58 134.14l4.0203-0.9394"/>
   <path d="m533.62 132.64l4.2928 1.9135"/>
   <path d="m528.2 133.72l5.5875-0.7654"/>
   <path d="m528.27 131.98l5.2468 2.6442v-0.03479"/>
   <path d="m522.95 132.95l4.9062-0.835"/>
   <path d="m523.02 130.87l4.7018 3.1313"/>
   <path d="m517.84 131.74l4.9744-0.9742"/>
   <path d="m517.88 129.16l4.9061 3.8271"/>
   <path d="m512.83 129.61l4.7699-0.4175"/>
   <path d="m512.97 127.11l4.5655 4.3837"/>
  </g>
 </g>
 <g fill="none" stroke="#000">
  <g stroke-width="3.3">
   <path d="m678.49 105.78c18.83 19.201 28.252 28.095 52.342 28.86 0 0 18.862 1.1016 29.44-7.1063"/>
   <path d="m678.79 104.78s26.826 25.445 52.13 28.374c0 0 13.165 1.1382 29.723-7.3509"/>
  </g>
  <path d="m685.7 110.78l2.0102 4.3142"/>
  <path d="m688.73 112.79l-4.0885-0.2783"/>
  <path d="m688.19 112.93l1.4991 3.7575-0.1363-0.1044"/>
  <path d="m695.84 118.59l-4.2247-0.3131"/>
  <path d="m696.7 119.09l3.9182 6.3669"/>
  <path d="m701.36 122.21l-5.7238 0.3131"/>
  <path d="m702.11 122.41l3.8159 6.5756"/>
  <path d="m706.3 124.68l-5.0084 1.9483"/>
  <path d="m707.18 125.3l3.9863 6.019"/>
  <path d="m711.44 127.25l-5.0765 2.2962"/>
  <path d="m711.92 127.63l4.361 5.2535"/>
  <path d="m716.45 129.51l-4.5655 2.0527"/>
  <path d="m718.02 130.21l3.3729 3.7923"/>
  <path d="m721.76 131.36l-3.918 1.7744"/>
  <path d="m723.19 131.91c0.13623 0 3.1345 2.505 3.1345 2.505"/>
  <path d="m726.53 132.5l-3.3388 1.6352"/>
  <path d="m727.52 132.96l2.4532 1.8092"/>
  <g stroke-width="2">
   <path d="m730.32 133.3l-3.4753 1.496"/>
   <path d="m686.02 113.26v24.424"/>
   <path d="m691.13 114.8v23.032"/>
   <path d="m696.25 118.07v19.727"/>
   <path d="m701.49 121.68v16.004"/>
   <path d="m706.81 124.68v13.012"/>
   <path d="m711.71 126.9v10.716l-0.1317-0.0777-0.0045 0.0081"/>
   <path d="m716.89 129.13v8.5587"/>
   <path d="m721.87 130.94v6.8888"/>
   <path d="m727.04 132.4v5.4971"/>
  </g>
  <path d="m690.84 114.92l-3.7989-0.2435"/>
  <path d="m692.29 115.89l3.1345 5.8102"/>
  <g stroke-width="2">
   <path d="m736.89 137.59v-4.7664"/>
   <path d="m742.31 137.59v-5.4623"/>
   <path d="m747.42 137.49v-6.5756"/>
   <path d="m752.56 137.31v-7.9673h-0.13635"/>
   <path d="m757.54 137.1v-9.846"/>
  </g>
  <path d="m736.72 134.25l-4.0203-0.9394"/>
  <path d="m736.69 132.76l-4.2929 1.9135"/>
  <path d="m742.1 133.83l-5.5875-0.7654"/>
  <path d="m742.04 132.09l-5.2469 2.6442v-0.034821"/>
  <path d="m747.35 133.07l-4.9061-0.835"/>
  <path d="m747.28 130.98l-4.7017 3.1312"/>
  <path d="m752.46 131.85l-4.9743-0.9742"/>
  <path d="m752.43 129.28l-4.9061 3.8271"/>
  <path d="m757.47 129.73l-4.7699-0.4175"/>
  <path d="m757.33 127.22l-4.5655 4.3838"/>
  <g stroke-width="2.138">
   <path d="m767.76 125.83l17.204 10.596"/>
   <path d="m767.07 126.43l16.302 10.282"/>
  </g>
 </g>
 <g stroke="#000">
  <g fill-rule="evenodd">
   <path d="m539.99 138.03l-0.0121-3.3212s-0.63837-0.1107-0.6023-0.35672c0.036194-0.24602 0.39825-0.067719 0.50592-0.36903 0.34552-0.96648-0.16858-1.6729-1.0903-1.688-1.0182 0.003403-1.4721 0.72826-1.1266 1.6947 0.10767 0.30133 0.46979 0.12302 0.50586 0.36903 0.036194 0.246-0.60223 0.3567-0.60223 0.3567l-0.0301 3.1428v0.18452l2.4518-0.0129v-1.5e-5z"/>
   <path d="m732.67 138.02l-0.0121-3.3212s-0.63837-0.11069-0.6023-0.35672c0.036133-0.24602 0.39825-0.067703 0.50598-0.36902 0.34552-0.96648-0.1687-1.6729-1.0904-1.688-1.0182 0.003387-1.4721 0.72824-1.1266 1.6948 0.10779 0.30132 0.46979 0.123 0.50598 0.369 0.036133 0.24602-0.6023 0.35672-0.6023 0.35672l-0.0302 3.1428v0.18451l2.4519-0.0129z"/>
   <g stroke-width=".904">
    <path d="m501.91 138.06l85.451 0.0124 5e-4 -0.4949c-0.007385 0-76.015-0.16435-85.456-0.17072l0.0048 0.6532h9.2e-5z"/>
    <path d="m501.91 135.06h85.598v1.6594h-85.598l-5e-4 -1.6594h6.1e-5z"/>
   </g>
   <path d="m683.09 135.16h152.69v1.7221h-152.85l0.1545-1.7221z"/>
   <path d="m835.56 137.6c-0.013611 0-153.05-0.06189-153.05-0.06189l0.0123 0.5755h153.04l9e-4 -0.5136h2.44e-4z"/>
   <path d="m663.7 135.08h20v11.551h-20.102l0.1022-11.551z"/>
   <path d="m587.07 135.08h19.999v11.551h-20.102l0.1022-11.551z"/>
  </g>
  <path d="m605.34 136.03l25.732-13.096 0.7647 1.5499-25.748 13.093-0.7487-1.5469z" fill-rule="evenodd"/>
  <g fill="none">
   <path d="m605.49 143.88c0.018738 0.003342 15.638-13.202 25.982-18.601l0.7225-0.3771" stroke-width="3"/>
   <path d="m608.23 141.47l-2.4978-4.42 4.6897 1.8668-1.5199-3.1947 4.4426 1.08-1.4874-3.0775 4.1248 1.0629-1.2241-2.6205 3.8828 0.76-1.0363-2.1251 3.2208 0.4508-0.924-1.6188 2.9408 0.2909-0.7627-1.3985 2.5532 0.1582-0.6014-1.1782 2.327 0.0808-0.8592-1.7067" stroke-width="2.9"/>
  </g>
  <path d="m665.03 135.79l-25.732-13.096-0.7646 1.55 25.748 13.093 0.7487-1.5469z" fill-rule="evenodd"/>
  <g fill="none">
   <path d="m664.88 143.64c-0.018677 0.003342-15.638-13.202-25.982-18.601l-0.7225-0.3771" stroke-width="3"/>
   <path d="m662.15 141.23l2.4979-4.42-4.6898 1.8668 1.5198-3.1947-4.4426 1.08 1.4874-3.0775-4.1248 1.0629 1.2241-2.6205-3.8829 0.76 1.0364-2.1251-3.2207 0.4508 0.924-1.6188-2.9409 0.2909 0.7628-1.3985-2.5533 0.1582 0.6016-1.1782-2.3271 0.0808 0.8593-1.7067" stroke-width="2.9"/>
  </g>
  <g fill-rule="evenodd" stroke-width=".206">
   <path d="m505.88 112.12c0.093719-0.042038 0.16779-0.15369 0.16779-0.26994 0-0.15417-0.11603-0.2793-0.25897-0.2793s-0.25894 0.12514-0.25894 0.2793c0 0.12096 0.071411 0.22403 0.1813 0.2691l-0.026 1.5649-0.4336 0.0065v0.30024h0.1622s0.035828 0.4562-0.049286 0.79156c-1.1242 2.992-2.1626 3.3558-2.1626 3.3558l-1.2669-0.0125-0.6113 1.1952-0.0125 4.0993-0.6513 0.0072-9e-3 0.9206h0.67279v9.6009l-0.7467 1.9746 0.0241 9.8733 10.267-3e-4 -0.0241-10.003-0.7708-1.9747v-9.4714h0.67279l-0.0089-0.9206-0.6513-0.0072-0.0126-4.0992-0.539-1.1432-1.1177-0.0395s-0.90244-0.56469-2.1767-3.3986c-0.032837-0.51762 0.003632-0.75079-0.002228-0.75522l0.1616 0.0022-3e-3 -0.3085h-0.43958l-0.0762-1.5575 2e-4 -2e-4z"/>
   <path d="m764.27 112.12c0.093872-0.042038 0.16791-0.15369 0.16791-0.26994 0-0.15417-0.11603-0.2793-0.25897-0.2793s-0.25897 0.12514-0.25897 0.2793c0 0.12096 0.071411 0.22403 0.1814 0.2691l-0.0259 1.5649-0.4337 0.0065v0.30024h0.16223s0.035767 0.4562-0.049255 0.79156c-1.1242 2.992-2.1625 3.3558-2.1625 3.3558l-1.2669-0.0125-0.6113 1.1952-0.0126 4.0993-0.6512 0.0072-9e-3 0.9206h0.67285v9.6009l-0.7468 1.9746 0.024 9.8733 10.266-3e-4 -0.024-10.003-0.7708-1.9747v-9.4714h0.67279l-9e-3 -0.9206-0.6512-0.0072-0.0125-4.0992-0.5391-1.1432-1.1177-0.0395s-0.9024-0.56469-2.1767-3.3986c-0.032776-0.51762 0.003784-0.75079-0.002747-0.75522l0.1616 0.0022-0.0031-0.3085h-0.43951l-0.0762-1.5575 4e-4 -2e-4z"/>
  </g>
 </g>
 <g fill-rule="evenodd" stroke="#000" stroke-width=".072">
  <path d="m458.37 151.12h12.336v-1.8029h-1.2224v-1.4794h-1.4034v-3.3748l-0.8562-0.5048v-4.9041l0.811-0.5779v-0.57788l-0.8828-0.5547v-0.50851l0.0112-0.3708s0.016052-0.31055-0.27206-0.32689c0.016052-0.016388 0.17606-0.52304-0.22412-0.7028 0.048065 0-0.27206-33.948-0.27206-33.948s-0.21869-0.17627-0.35742-0.21072c0.069336-0.034447 0.38944-2.813 1.1577-3.4668 5.49e-4 -0.058777-0.003326-0.11903-0.003326-0.11903l-0.1528-0.0116v-0.19646l0.1867-0.0809v-0.1618s-0.76395-0.063553-0.9054-0.37563c-0.005615-0.028877-0.31128-1.5776-1.0752-1.7452 0.036469-0.003891-0.53757-0.00573-0.60025-0.004463-0.062714 0.001366-0.65186 0.005844-0.60028 0.007103-0.62805 0.0905-1.0695 1.7163-1.0752 1.7452-0.14148 0.31206-0.90543 0.37562-0.90543 0.37562v0.16178l0.1867 0.0809v0.19646l-0.1528 0.0116s-0.004456 0.060242-0.003326 0.11902c0.76825 0.65379 1.0884 3.4324 1.1576 3.4668-0.13876 0.034439-0.35739 0.21071-0.35739 0.21071s-0.3201 33.948-0.2721 33.948c-0.40015 0.17975-0.24008 0.68648-0.22406 0.7028-0.28809 0.016388-0.2721 0.3269-0.2721 0.3269l0.0112 0.3708v0.50853l-0.8828 0.5547v0.57787l0.8109 0.5779v4.904l-0.8562 0.5048v3.3747h-1.4034v1.4794h-1.2224v1.803h12.336"/>
  <path d="m463.63 95.336l-1.1173-0.0103s0.32211-0.442 0.36237-0.70926c0.060364-0.26727 0.41272-0.31866 0.46304-0.51397 0 0.061668 0.30197-1.9325 0.43283-2.0147 0.13086-0.082237-0.12079-0.11308-0.12079-0.11308s-0.080566 0.21587-0.2114 0.22613c-0.12079 0.01033-0.23154-0.59618-0.23154-0.59618l-0.0101-0.6784 0.0905-0.0617 0.0202-0.2056 0.3221-0.0719s0.13089 0.020561 0.24161 0.12336c0.010071 0 0.14096-0.1542 0.26172-0.12336 0.11075 0.010307 0.040283-0.41119 0.040283-0.41119l-0.3423-0.0205s0.22147-1.0588 0.73483-1.1307c0.010101 0-0.012573-0.14067 0.020081-0.1542 0.09314-0.038536 0.16037-0.017715 0.18121 0 0.015137 0.012856 0.020081 0.21587 0.020081 0.21587s0.20136 0.14391 0.302 0.28782c-0.010101-0.061668 0.17111 0.28782 0.17111 0.28782s0.10184 0.013283 0.11072 0.020569c0.025024 0.020462-0.001129 0.20069-0.010101 0.22616-0.004486 0.014107-0.25165 0.061661-0.25165 0.061661l-0.151 0.0822-0.0705 0.0411-0.0201 0.5242 0.2416 0.1233 0.0403 0.0822s0.22089-0.024048 0.36243 0c0.030182 0.00518 0.16104 0.22616 0.12079 0.44204-0.020203 0.21585 0.090546 0.54478 0.090546 0.54478l0.1409 0.3289 0.0907 0.4009 0.2114 0.0514 0.0806 0.1542-0.0101 0.1336-0.2416 0.1028-0.5336 2.3231-0.161-0.0617 0.5838-2.3129s-0.13083 0.01033-0.19125-0.051369c-0.060333-0.061676-0.32211-0.67844-0.31204-0.81208-0.020081-0.020546-0.10062-0.030846-0.10062-0.030846v0.27754l0.0705 0.0411-0.0101 1.3055-0.151 0.6887-0.2919 0.0308s-0.090515 0.22614-0.030182 0.28782c0 0.020546 0.41275 0.041115 0.40268 0.48312-0.080566-0.020554-1.6408 0.20559-1.6408 0.18502h3.1e-5z"/>
 </g>
 <path d="m401.9 47.778c0 1.45-1.1511 2.6254-2.571 2.6254s-2.571-1.1754-2.571-2.6254 1.1511-2.6254 2.571-2.6254 2.571 1.1754 2.571 2.6254z"/>
 <path d="m392.03 49.735c0 1.45-1.1511 2.6254-2.571 2.6254s-2.571-1.1754-2.571-2.6254 1.1511-2.6254 2.571-2.6254 2.571 1.1754 2.571 2.6254z"/>
 <path d="m384.1 52.887c0 1.45-1.1511 2.6254-2.571 2.6254s-2.571-1.1754-2.571-2.6254 1.1511-2.6254 2.571-2.6254 2.571 1.1754 2.571 2.6254z"/>
 <path d="m376.72 57.708c0 1.45-1.1511 2.6254-2.571 2.6254s-2.571-1.1754-2.571-2.6254 1.1511-2.6254 2.571-2.6254 2.571 1.1754 2.571 2.6254z"/>
 <path d="m370.67 63.703c0 1.45-1.1511 2.6254-2.571 2.6254s-2.571-1.1754-2.571-2.6254 1.1511-2.6254 2.571-2.6254 2.571 1.1754 2.571 2.6254z"/>
 <path d="m365.76 70.81c0 1.45-1.1511 2.6254-2.571 2.6254s-2.5709-1.1754-2.5709-2.6254 1.1511-2.6254 2.5709-2.6254c1.42 0 2.571 1.1754 2.571 2.6254z"/>
 <path d="m362.13 78.968c0 1.45-1.1511 2.6254-2.571 2.6254s-2.571-1.1754-2.571-2.6254 1.1511-2.6254 2.571-2.6254 2.571 1.1754 2.571 2.6254z"/>
 <path d="m360.2 87.621c0 1.45-1.1511 2.6254-2.571 2.6254s-2.571-1.1754-2.571-2.6254 1.1511-2.6254 2.571-2.6254 2.571 1.1754 2.571 2.6254z"/>
 <path d="m359.59 96.397c0 1.45-1.1511 2.6254-2.571 2.6254s-2.571-1.1754-2.571-2.6254 1.1511-2.6254 2.571-2.6254 2.571 1.1754 2.571 2.6254z"/>
 <path d="m361.04 105.42c0 1.45-1.1511 2.6254-2.571 2.6254s-2.571-1.1754-2.571-2.6254 1.1511-2.6254 2.571-2.6254 2.571 1.1754 2.571 2.6254z"/>
 <path d="m363.83 113.83c0 1.45-1.1511 2.6254-2.571 2.6254s-2.571-1.1754-2.571-2.6254 1.1511-2.6254 2.571-2.6254 2.571 1.1754 2.571 2.6254z"/>
 <path d="m368.49 122.11c0 1.45-1.1511 2.6254-2.571 2.6254s-2.571-1.1754-2.571-2.6254c0-1.4499 1.1511-2.6254 2.571-2.6254s2.571 1.1754 2.571 2.6254z"/>
 <path d="m375.45 129.52c0 1.45-1.151 2.6254-2.5709 2.6254-1.42 0-2.571-1.1754-2.571-2.6254s1.1511-2.6254 2.571-2.6254 2.5709 1.1754 2.5709 2.6254z"/>
 <path d="m383.26 135.15c0 1.45-1.151 2.6254-2.5709 2.6254-1.42 0-2.571-1.1754-2.571-2.6254s1.1511-2.6254 2.571-2.6254 2.5709 1.1754 2.5709 2.6254z"/>
 <path d="m393.45 139.16c0 1.45-1.1511 2.6254-2.5709 2.6254-1.42 0-2.571-1.1754-2.571-2.6254s1.1511-2.6254 2.571-2.6254 2.5709 1.1754 2.5709 2.6254z"/>
 <path d="m405.14 140.15c0 1.45-1.1511 2.6254-2.571 2.6254s-2.571-1.1754-2.571-2.6254 1.151-2.6254 2.571-2.6254c1.4199 0 2.571 1.1754 2.571 2.6254z"/>
 <path d="m415.3 139.57c0 1.45-1.1511 2.6254-2.571 2.6254s-2.5709-1.1754-2.5709-2.6254 1.1511-2.6254 2.5709-2.6254c1.42 0 2.571 1.1754 2.571 2.6254z"/>
 <path d="m425.98 135.95c0 1.45-1.1511 2.6254-2.571 2.6254s-2.571-1.1754-2.571-2.6254c0-1.4499 1.1511-2.6254 2.571-2.6254s2.571 1.1754 2.571 2.6254z"/>
 <path d="m434.88 129.96c0 1.45-1.1511 2.6254-2.571 2.6254s-2.571-1.1754-2.571-2.6254c0-1.4499 1.1511-2.6254 2.571-2.6254s2.571 1.1755 2.571 2.6254z"/>
 <path d="m441.54 122.72c0 1.45-1.1511 2.6254-2.571 2.6254s-2.571-1.1754-2.571-2.6254 1.1511-2.6254 2.571-2.6254 2.571 1.1754 2.571 2.6254z"/>
 <path d="m446.44 114.75c0 1.45-1.1511 2.6254-2.571 2.6254s-2.571-1.1754-2.571-2.6254 1.1511-2.6254 2.571-2.6254 2.571 1.1754 2.571 2.6254z"/>
 <path d="m449.53 105.98c0 1.45-1.1511 2.6254-2.571 2.6254s-2.571-1.1754-2.571-2.6254 1.1511-2.6254 2.571-2.6254 2.571 1.1754 2.571 2.6254z"/>
 <path d="m451.04 97.2c0 1.45-1.1511 2.6254-2.571 2.6254s-2.571-1.1754-2.571-2.6254 1.1511-2.6254 2.571-2.6254 2.571 1.1754 2.571 2.6254z"/>
 <path d="m450.86 88.115c0 1.45-1.1511 2.6254-2.571 2.6254s-2.571-1.1754-2.571-2.6254 1.1511-2.6254 2.571-2.6254 2.571 1.1754 2.571 2.6254z"/>
 <path d="m448.74 78.968c0 1.45-1.1511 2.6254-2.571 2.6254s-2.571-1.1754-2.571-2.6254 1.1511-2.6254 2.571-2.6254c1.42 0 2.571 1.1754 2.571 2.6254z"/>
 <path d="m445.35 71.305c0 1.45-1.1511 2.6254-2.571 2.6254s-2.571-1.1754-2.571-2.6254 1.1511-2.6254 2.571-2.6254 2.571 1.1754 2.571 2.6254z"/>
 <path d="m440.09 63.765c0 1.45-1.1511 2.6254-2.571 2.6254s-2.571-1.1754-2.571-2.6254 1.1511-2.6254 2.571-2.6254 2.571 1.1754 2.571 2.6254z"/>
 <path d="m434.15 57.832c0 1.45-1.1511 2.6254-2.571 2.6254s-2.571-1.1754-2.571-2.6254 1.1511-2.6254 2.571-2.6254 2.571 1.1754 2.571 2.6254z"/>
 <path d="m426.77 52.949c0 1.45-1.1511 2.6254-2.571 2.6254s-2.5709-1.1754-2.5709-2.6254 1.151-2.6254 2.5709-2.6254c1.42 0 2.571 1.1754 2.571 2.6254z"/>
 <path d="m418.78 49.612c0 1.45-1.1511 2.6254-2.571 2.6254s-2.571-1.1754-2.571-2.6254 1.1511-2.6254 2.571-2.6254 2.571 1.1754 2.571 2.6254z"/>
 <path d="m410.67 47.943c0 1.45-1.1511 2.6254-2.571 2.6254s-2.571-1.1754-2.571-2.6254 1.1511-2.6254 2.571-2.6254 2.571 1.1754 2.571 2.6254z"/>
 <g stroke="#000">
  <g fill="none">
   <path d="m439.35 93.679c0 20.997-16.669 38.018-37.23 38.018-20.562 0-37.23-17.021-37.23-38.018s16.669-38.018 37.23-38.018c20.562 0 37.23 17.021 37.23 38.018z" stroke-width=".9"/>
   <path d="m445.4 93.944c0 24.081-19.117 43.603-42.699 43.603s-42.699-19.522-42.699-43.603 19.117-43.603 42.699-43.603 42.699 19.522 42.699 43.603z" stroke-width="2.828"/>
   <path d="m388.64 58.194l-3.851-3.365 0.299 5.1131-3.723-3.1465 0.299 4.8945-3.466-2.9717 0.728 4.9383-3.724-2.2288 1.241 4.3701-4.708-1.2673 2.054 3.9768-4.407-0.9177 2.226 4.0642-4.879-0.6992 2.91 3.8457h-4.622l2.996 2.6221-4.494 0.8303 3.081 2.5784-4.622 1.4421 3.381 2.7532-3.937 2.054 3.637 1.8354-4.621 2.5347 3.594 0.6992-3.765 3.365 4.193 0.5245-3.765 3.6709 4.622 0.2184-3.981 3.7144 4.623-0.087-3.638 3.496 5.092 0.087-3.381 3.584 4.622-0.524-3.167 4.719 5.05-1.66-2.91 5.419 4.879-2.186-1.798 6.337 4.836-2.884-1.412 6.38 5.008-3.19-0.9 6.293 4.408-3.583-0.385 6.599 4.366-4.459 0.813 6.425 4.023-4.545 1.155 6.424 3.466-5.2 1.755 6.03 2.611-5.681 2.824 6.031 1.798-5.987 2.867 5.594 1.626-6.337 3.68 5.244 0.771-6.249 4.193 4.763 0.172-6.424 4.45 4.371-0.342-6.818 4.664 3.846-0.983-6.249 4.365 3.408-1.199-6.598 5.05 2.534-1.797-6.425 5.178 2.098-2.739-5.768 5.435 1.748-3.68-5.681 5.692 0.524-4.152-4.457 5.094-0.262-4.28-3.934 5.392-1.4418-4.836-3.365 5.136-1.3547-4.709-2.491 4.751-1.3547-5.264-1.8792 4.665-2.9717-5.734-0.4807 4.322-3.2776h-4.751l4.665-3.3213-5.991 0.1748 3.852-4.1953-5.563 1.3985 3.765-4.3265-5.435 0.5244 2.483-5.0256-5.137 2.0539 1.969-5.7248-4.493 2.7532 1.284-5.856-4.451 3.4087 0.3-6.3804-3.788 3.8675-0.723-6.4294-4.419 3.5228-0.907-5.7477-3.39 4.388-0.725-5.3768-3.148 4.7588-1.634-5.4386-1.876 4.697-2.36-5.2533-1.573 5.2533-3.148-4.6352-0.424 4.9442-4.054-4.1408-0.243 5.1914-3.752-3.7699-0.555 5.0864v9.9e-5 -9.9e-5z" stroke-width=".306"/>
  </g>
  <path d="m405.51 92.718c0 1.6171-1.2838 2.928-2.8673 2.928-1.5836 0-2.8673-1.3109-2.8673-2.928s1.2838-2.928 2.8673-2.928 2.8673 1.3109 2.8673 2.928z" stroke-width=".9"/>
  <g fill-rule="evenodd">
   <path d="m401.38 95.222l0.9102 0.0116s-1.3386 13.124-5.3272 50.378l-4.6588-0.0923" stroke-width=".349"/>
   <path d="m403.25 95.178l-0.9319 0.0115s1.9255 15.768 5.9312 50.548l4.2924-0.2671" stroke-width=".353"/>
  </g>
 </g>
 <path d="m355.69 144.71v-40.539h0.76944v-9.9679h-1.4796v-1.6128h-0.68066l-2.0123-3.3994v-3.1016l-2.1733-7.0174-0.0145-1.3024v1.3021l-2.3582 7.0174v3.1016l-2.0124 3.3994h-0.6806v1.6128h-1.4796v9.9679h0.76941v40.545l11.353-0.0059-5e-4 -1e-4z" fill="#0f0f0f" fill-rule="evenodd" stroke="#000" stroke-width=".123"/>
 <path d="m353.17 98.968c9.16e-4 1.9411-1.5398 3.5151-3.4406 3.5151s-3.4416-1.5741-3.4406-3.5151c-9.46e-4 -1.9411 1.5398-3.5151 3.4406-3.5151s3.4415 1.574 3.4406 3.5151z" fill="#fff"/>
 <path d="m331.94 126.41l18.581-0.055v18.355l-18.62 0.055 0.0385-18.355z" fill="#0f0f0f" fill-rule="evenodd"/>
 <g fill-rule="evenodd">
  <path d="m120.4 91.03l-2.6338 4.1064-0.1199-13.507-1.6738-2.5847-2.1637 2.5014-0.0324 62.583 21.682-7.995v8.0182l0.0323-62.315-1.7898-3.0363-2.1073 2.8299v13.56l-2.5405-4.0918-2.3437-0.0068-0.0552-3.8614-2.0677-3.3925-2.0383 3.4749 0.0045 3.7189-2.1527-0.0025h5.3e-5z" fill="#0f0f0f"/>
  <g stroke="#000">
   <path d="m223.17 137.27v-17.83l-2.1566-6.1663v-4.9917s-3.6392-9.0865-3.783-15.4c-0.061249-0.22944-0.07785-0.23657-0.1344-0.008591-0.14377 6.3131-3.7673 15.406-3.7673 15.406v4.9917l-2.1566 4.8739v19.123" fill="#0e0e0e" stroke-width=".018"/>
   <g stroke-width=".206">
    <path d="m191.91 158.22h-12.447v-40.355l1.6151-3.7324 1.2639 3.7102 0.0165 3.8199h6.8123v-4.1478l1.3411-3.3683 1.3832 3.4328 0.0148 40.64z"/>
    <path d="m254.84 158.24h-12.447v-40.355l1.6151-3.7324 1.2638 3.7102 0.0165 3.8199h6.8123v-4.1478l1.3411-3.3683 1.3832 3.4328 0.0148 40.64z"/>
   </g>
   <path d="m124.38 158.22h-12.447v-40.355l1.6151-3.7326 1.2638 3.7097 0.0165 3.8208h6.8123v-4.1485l1.341-3.3683 1.3832 3.4324 0.0148 40.641z"/>
   <path d="m103.99 158.22l-12.447 0.0195v-40.374l1.6151-3.7326 1.2638 3.7097 0.0165 3.8208h6.8123v-4.1485l1.3411-3.3683 1.3832 3.4324 0.0148 40.641z"/>
   <path d="m105.96 128.54l0.0376 0.3013c0.334 0.21194 0.3699 0.73668 0.36215 0.7401l-0.0112 3.1907-0.8036 0.0046-0.0112-3.1953c-0.007751-0.003418 0.028152-0.52815 0.36215-0.7401l0.0227-0.3013h0.041519z" stroke-width=".234"/>
   <path d="m96.307 132.91h23.582l-0.542 25.212-23.222 0.0103 0.1817-25.223z" stroke-width="1.861"/>
   <path d="m110.29 128.54l0.0376 0.3011c0.33391 0.21155 0.36987 0.7368 0.36207 0.74002l-0.0112 3.1901-0.8036 0.0051-0.0112-3.1953c-0.007805-0.00322 0.028152-0.52847 0.36206-0.74002l0.0227-0.3011 0.0416 1e-4z" stroke-width=".234"/>
   <path d="m342.83 158.23h-12.447v-40.355l1.6151-3.7324 1.2639 3.7102 0.0164 3.8199h6.8123v-4.1478l1.3411-3.3683 1.3832 3.4328 0.0148 40.64h9.2e-5z"/>
   <path d="m322.44 158.23h-12.447v-40.355l1.6151-3.7324 1.2638 3.7102 0.0164 3.8199h6.8123v-4.1478l1.3411-3.3684 1.3832 3.4328 0.0148 40.64h1.22e-4z"/>
   <path d="m324.42 128.55l0.0376 0.3011c0.33392 0.21156 0.36984 0.73682 0.36206 0.74002l-0.0113 3.1901-0.8035 0.0051-0.0111-3.1953c-0.007874-0.003204 0.028137-0.52847 0.36203-0.74004l0.0226-0.3011 0.0416 1e-4z" stroke-width=".234"/>
   <path d="m315.07 132.91h22.955l-0.5276 25.218-22.605 0.0103 0.1769-25.228z" stroke-width="1.836"/>
   <path d="m328.74 128.55l0.0376 0.3011c0.33386 0.21156 0.36984 0.73682 0.36206 0.74002l-0.0111 3.1901-0.8036 0.0051-0.0113-3.1953c-0.007874-0.003204 0.028168-0.52847 0.36206-0.74004l0.0227-0.3011 0.0415 1e-4h6.1e-5z" stroke-width=".234"/>
   <g stroke-width=".234">
    <path d="m128 131.91l0.0376 0.3011c0.33389 0.21153 0.36983 0.7368 0.36204 0.74002l-0.0112 3.1901-0.8036 0.0051-0.0112-3.1953c-0.007805-0.003189 0.02816-0.52844 0.36207-0.74l0.0227-0.3011 0.0416 1e-4h2.3e-5z"/>
    <path d="m132.74 131.91l0.0376 0.3013c0.33398 0.21082 0.36989 0.73666 0.36215 0.74011l-0.0112 3.1895-0.8036 0.0057-0.0112-3.1964c-0.007736-0.002289 0.028152-0.52814 0.36215-0.73895l0.0227-0.3013h0.041504z"/>
    <path d="m137.57 131.91l0.0376 0.3013c0.33391 0.21082 0.36984 0.73666 0.36204 0.74011l-0.0112 3.1895-0.8036 0.0057-0.0112-3.1964c-0.007797-0.002289 0.028183-0.52814 0.36206-0.73895l0.0227-0.3013h0.04158z"/>
    <path d="m142.31 131.91l0.0376 0.3013c0.33392 0.21082 0.36986 0.73666 0.36208 0.74011l-0.0112 3.1895-0.8036 0.0057-0.0112-3.1964c-0.007797-0.002289 0.028168-0.52814 0.36206-0.73895l0.0227-0.3013h0.04158z"/>
    <path d="m147.12 132l0.0376 0.3011c0.33392 0.21156 0.36987 0.73683 0.36206 0.74002l-0.0112 3.1901-0.8036 0.0051-0.0112-3.1953c-0.007813-0.003189 0.028152-0.52846 0.36204-0.74002l0.0227-0.3011 0.0416 1e-4z"/>
    <path d="m151.86 132l0.0376 0.3013c0.33389 0.21196 0.36986 0.73666 0.36203 0.74011l-0.0112 3.1895-0.8036 0.0057-0.0112-3.1953c-0.007828-0.003448 0.028137-0.52931 0.36204-0.74011l0.0227-0.3013h0.04158z"/>
    <path d="m156.7 132l0.0376 0.3013c0.33392 0.21196 0.36989 0.73666 0.36208 0.74011l-0.0112 3.1895-0.8036 0.0057-0.0112-3.1953c-0.007797-0.003448 0.028152-0.52931 0.36208-0.74011l0.0227-0.3013h0.041565z"/>
    <path d="m161.44 132l0.0376 0.3011c0.33389 0.21156 0.36986 0.73683 0.36206 0.74002l-0.0112 3.1901-0.8036 0.0051-0.0112-3.1953c-0.007813-0.003189 0.028152-0.52846 0.36204-0.74002l0.0227-0.3011 0.0416 1e-4z"/>
    <path d="m166.47 131.83l0.0376 0.3011c0.33388 0.21156 0.36986 0.73683 0.36206 0.74005l-0.0112 3.1901-0.8036 0.0051-0.0112-3.1953c-0.007828-0.00322 0.028137-0.52849 0.36204-0.74002l0.0227-0.3011 0.0416 1e-4h3.1e-5z"/>
    <path d="m171.31 131.83l0.0376 0.3011c0.33391 0.21156 0.36986 0.73683 0.36208 0.74005l-0.0112 3.1901-0.8036 0.0051-0.0112-3.1953c-0.007797-0.00322 0.028152-0.52849 0.36206-0.74002l0.0227-0.3011 0.0416 1e-4z"/>
    <path d="m176.05 131.83l0.0376 0.3002c0.334 0.21194 0.36989 0.73668 0.36215 0.7401l-0.0112 3.1907-0.8036 0.0046-0.0112-3.1953c-0.007736-0.003418 0.028152-0.52815 0.36215-0.7401l0.0226-0.3013 0.0415 0.0012z"/>
   </g>
   <path d="m115.45 136.04h72.971v22.165l-73.239 0.0186 0.2676-22.183z" stroke-width="1.15"/>
   <g stroke-width=".236">
    <path d="m258.09 131.93l0.0381 0.3011c0.33807 0.21156 0.37442 0.73683 0.36658 0.74004l-0.0114 3.1901-0.8136 0.0051-0.0114-3.1953c-0.007874-0.00322 0.028564-0.5285 0.36664-0.74002l0.0229-0.3011 0.0421 1e-4z"/>
    <path d="m262.89 131.93l0.0381 0.3011c0.33807 0.21156 0.37451 0.73683 0.36658 0.74004l-0.0113 3.1901-0.8136 0.0051-0.0113-3.1953c-0.007935-0.00322 0.028473-0.5285 0.36655-0.74002l0.0229-0.3011 0.0421 1e-4z"/>
    <path d="m267.78 131.93l0.0381 0.3011c0.33807 0.21156 0.37442 0.73683 0.36655 0.74004l-0.0113 3.1901-0.8136 0.0051-0.0114-3.1953c-0.007904-0.00322 0.028534-0.5285 0.36661-0.74002l0.0229-0.3011 0.0421 1e-4z"/>
    <path d="m272.58 131.93l0.0381 0.3011c0.33804 0.21156 0.37445 0.73683 0.36658 0.74004l-0.0114 3.1901-0.8136 0.0051-0.0113-3.1953c-0.007935-0.00322 0.028503-0.5285 0.36655-0.74002l0.023-0.3011 0.0421 1e-4z"/>
    <path d="m277.45 132.02l0.0381 0.3011c0.3381 0.21156 0.37451 0.73682 0.36661 0.74004l-0.0113 3.1901-0.8136 0.0051-0.0114-3.1953c-0.007904-0.003204 0.028503-0.52849 0.36655-0.74002l0.023-0.3011 0.0421 1e-4h-3.1e-5z"/>
    <path d="m282.25 132.02l0.0381 0.3011c0.3381 0.21156 0.37448 0.73682 0.36661 0.74004l-0.0114 3.1901-0.8136 0.0051-0.0114-3.1953c-0.007874-0.003204 0.028503-0.52849 0.36661-0.74002l0.023-0.3011 0.0421 1e-4h-3.1e-5z"/>
    <path d="m287.14 132.02l0.0381 0.3011c0.33807 0.21156 0.37451 0.73682 0.36658 0.74004l-0.0113 3.1901-0.8136 0.0051-0.0113-3.1953c-0.007935-0.003204 0.028473-0.52849 0.36655-0.74002l0.023-0.3011 0.0421 1e-4z"/>
    <path d="m291.94 132.02l0.0381 0.3011c0.33807 0.21156 0.37445 0.73682 0.36661 0.74004l-0.0114 3.1901-0.8135 0.0051-0.0114-3.1953c-0.007874-0.003204 0.028534-0.52849 0.36658-0.74002l0.023-0.3011 0.0421 1e-4h-3.1e-5z"/>
    <path d="m297.04 131.85l0.038 0.3011c0.3381 0.21155 0.37448 0.73682 0.36661 0.74004l-0.0113 3.1901-0.8136 0.0051-0.0113-3.1953c-0.007904-0.003204 0.028503-0.52846 0.36661-0.74002l0.023-0.3011 0.0421 1e-4v1.5e-5z"/>
    <path d="m301.94 131.85l0.0381 0.3011c0.33807 0.21155 0.37448 0.73682 0.36655 0.74004l-0.0113 3.1901-0.8136 0.0051-0.0114-3.1953c-0.007904-0.003204 0.028503-0.52846 0.36658-0.74002l0.023-0.3011 0.0421 1e-4v1.5e-5z"/>
    <path d="m306.74 131.85l0.0381 0.3011c0.33804 0.21155 0.37448 0.73682 0.36655 0.74004l-0.0113 3.1901-0.8135 0.0051-0.0114-3.1953c-0.007843-0.003204 0.028534-0.52846 0.36658-0.74002l0.0229-0.3011 0.0421 1e-4z"/>
   </g>
   <path d="m246.47 136.06h71.71v22.168h-71.973l0.263-22.168z" stroke-width="1.14"/>
   <g stroke-width=".234">
    <path d="m194.85 128.95l0.0376 0.3011c0.33391 0.21155 0.36987 0.7368 0.36208 0.74002l-0.0112 3.1901-0.8036 0.0051-0.0112-3.1953c-0.007828-0.00322 0.028168-0.52846 0.36206-0.74005l0.0227-0.3011 0.0416 1e-4z"/>
    <path d="m199.82 128.93l0.0376 0.3011c0.33391 0.21156 0.36986 0.73682 0.36208 0.74004l-0.0112 3.1901-0.8036 0.0051-0.0112-3.1953c-0.007813-0.00322 0.028152-0.52847 0.36206-0.74004l0.0227-0.3011 0.0416 1e-4z"/>
    <path d="m204.67 128.93l0.0376 0.3011c0.33391 0.21156 0.36984 0.73682 0.36206 0.74004l-0.0112 3.1901-0.8036 0.0051-0.0112-3.1953c-0.007813-0.00322 0.028168-0.52847 0.36206-0.74004l0.0227-0.3011 0.0416 1e-4z"/>
    <path d="m209.63 128.93l0.0376 0.3011c0.33392 0.21156 0.36986 0.73682 0.36206 0.74004l-0.0112 3.1901-0.8036 0.0051-0.0112-3.1953c-0.007813-0.00322 0.028152-0.52847 0.36206-0.74004l0.0227-0.3011 0.0416 1e-4z"/>
    <path d="m214.51 128.93l0.0376 0.3011c0.33392 0.21156 0.36986 0.73682 0.36208 0.74004l-0.0112 3.1901-0.8036 0.0051-0.0112-3.1953c-0.007797-0.00322 0.028168-0.52847 0.36206-0.74004l0.0227-0.3011 0.0416 1e-4z"/>
    <path d="m219.39 128.93l0.0376 0.3011c0.33392 0.21156 0.36989 0.73682 0.36208 0.74004l-0.0112 3.1901-0.8036 0.0051-0.0112-3.1953c-0.007797-0.00322 0.028168-0.52847 0.36206-0.74004l0.0227-0.3011 0.0416 1e-4z"/>
    <path d="m224.16 128.93l0.0376 0.3011c0.33392 0.21156 0.36989 0.73682 0.36208 0.74004l-0.0112 3.1901-0.8036 0.0051-0.0112-3.1953c-0.007813-0.00322 0.028183-0.52847 0.36206-0.74004l0.0227-0.3011 0.0416 1e-4z"/>
    <path d="m229.06 128.93l0.0376 0.3011c0.33392 0.21156 0.36986 0.73682 0.36208 0.74004l-0.0112 3.1901-0.8036 0.0051-0.0112-3.1953c-0.007797-0.00322 0.028168-0.52847 0.36206-0.74004l0.0227-0.3011 0.0416 1e-4z"/>
    <path d="m234 128.93l0.0376 0.3011c0.33391 0.21156 0.36984 0.73682 0.36204 0.74004l-0.0112 3.1901-0.8036 0.0051-0.0112-3.1953c-0.007797-0.00322 0.028183-0.52847 0.36206-0.74004l0.0227-0.3011 0.0416 1e-4z"/>
    <path d="m238.96 128.93l0.0376 0.3011c0.33391 0.21156 0.36987 0.73682 0.36206 0.74004l-0.0112 3.1901-0.8036 0.0051-0.0112-3.1953c-0.007828-0.00322 0.028152-0.52847 0.36204-0.74004l0.0227-0.3011 0.0416 1e-4z"/>
   </g>
   <path d="m183.32 133.22h67.8v24.994h-68.101l0.3006-24.994z" stroke-width="1.156"/>
  </g>
 </g>
 <g stroke="#000">
  <g fill-rule="evenodd">
   <g stroke-width=".13">
    <path d="m1043.5 132.19l-0.0492-16.183s1.3555-0.18456 2.0784-1.0458v-42.876l-14.341-9e-4v42.876c0.72278 0.8612 2.0782 1.0458 2.0782 1.0458v15.963c2.3705 2.0999 7.8611 1.5858 10.234 0.22107z"/>
    <path d="m1035.5 72.11l-0.0453-22.483h5.7079l0.015 22.478-5.6777 0.0053h1.22e-4z"/>
    <path d="m1031.8 68.222v1.5877h13.162v-1.6094l-13.162 0.0217z"/>
    <path d="m1031.9 63.698v1.5877h13.162v-1.6094l-13.162 0.0217z"/>
    <path d="m1031.8 59.174v1.5877h13.162v-1.6094l-13.162 0.0217z"/>
    <path d="m1031.9 54.629v1.5876h13.162v-1.6094l-13.162 0.0218z"/>
    <path d="m1031.8 50.018v1.5877h13.162v-1.6094l-13.162 0.0217z"/>
    <path d="m1041.3 49.601s3.5779-0.13048 4.2601-0.60894c-0.022095-1.131-0.022095-1.1527-0.022095-1.1527s-0.21301-0.2175-0.85205-0.3262c-0.063232 0.021675-0.042114-0.28274-0.042114-0.28274h0.5957l0.2773-0.2827v-4.6107h0.38391s0.23816-0.13308 0.32044-0.35611v-5.9899s-0.31628-0.37685-0.72961-0.50753c0.022095-0.023132 0-4.0831 0-4.0831-0.45447-0.75921-2.5002-1.0352-3.871-1.2226l0.0084-0.3153s1.1894-0.08462 1.4003-0.3461c0.022217 0 0.43665-0.37674 0.45874-0.53056 0.015869-0.030746 0-2.8065 0-2.8065-0.15918-0.28274-1.3856-0.77693-2.5076-0.85353l-5.2186 0.0039c-1.1208 0.076702-2.3472 0.57079-2.5076 0.85353 0 0-0.014648 2.7759 0 2.8066 0.023315 0.15372 0.43774 0.53056 0.45984 0.53056 0.21082 0.26137 1.4004 0.346 1.4004 0.346l0.0084 0.3152c-1.371 0.18739-3.4176 0.46335-3.8711 1.2227 0 0-0.022095 4.06 0 4.083-0.41333 0.1307-0.72961 0.50753-0.72961 0.50753v5.99c0.082153 0.22292 0.32056 0.356 0.32056 0.356h0.38379v4.6107l0.2762 0.2827h0.59692s0.020996 0.30452-0.042236 0.28274c-0.63904 0.1088-0.85205 0.3262-0.85205 0.3262s0 0.021778-0.022095 1.1527c0.68225 0.47846 4.26 0.60894 4.26 0.60894l5.8566-0.0039z"/>
    <path d="m1032.2 68.19v-0.30756h-0.78308l-0.1355 0.4614-0.9037 0.0154-0.1807-0.8612v-0.89196l0.1656-0.5844 0.9187-0.0308 0.2258 0.3076v1.3072l1.0242 0.0308 0.015 0.5075-0.3464 0.0461z"/>
    <path d="m1032 63.62v-0.30756h-0.78308l-0.1355 0.4613-0.9037 0.0154-0.1807-0.8612v-0.89194l0.1656-0.5844 0.9187-0.0307 0.2258 0.3076v1.3072l1.0242 0.0307 0.0149 0.5075-0.3463 0.0461z"/>
    <path d="m1032.1 59.163v-0.30757h-0.7832l-0.1355 0.4613-0.9036 0.0154-0.1808-0.8612v-0.89197l0.1658-0.5844 0.9186-0.0307 0.2258 0.3076v1.3072l1.024 0.0308 0.0151 0.5075-0.3463 0.0461z"/>
    <path d="m1033.5 54.6v-0.30758h-0.78308l-0.1355 0.4614-0.9036 0.0154-0.1807-0.8612v-0.89196l0.1655-0.5844 0.9187-0.0307 0.2258 0.3076v1.3072l1.0242 0.0307 0.015 0.5075-0.3464 0.0461z"/>
    <path d="m1044.1 61.285h-1.0844s-1.3102 0.96885-0.045288 2.3068c0.030151-0.04615 1.4158 0.061527 1.4158 0.061527s1.2047-1.4302-0.28613-2.3683z"/>
    <path d="m1044.2 65.994h-1.0844s-1.3102 0.96884-0.045166 2.3068c0.030029-0.046158 1.4156 0.061493 1.4156 0.061493s1.2047-1.4302-0.28626-2.3683h1.22e-4z"/>
   </g>
   <path d="m1044.1 56.982h-0.87195s-1.0536 0.97497-0.036377 2.3213c0.024292-0.046417 1.1383 0.061901 1.1383 0.061901s0.96887-1.4392-0.22998-2.3832z" stroke-width=".117"/>
   <path d="m1042.8 53.173h-0.77991s-0.94226 0.97786-0.032471 2.3282c0.021606-0.04657 1.0181 0.062077 1.0181 0.062077s0.86646-1.4435-0.20581-2.3903h1.22e-4z" stroke-width=".11"/>
   <path d="m1034.2 57.355h-0.95496s-1.1539 0.9725-0.039795 2.3154c0.026489-0.046307 1.2467 0.061737 1.2467 0.061737s1.061-1.4356-0.25195-2.3772z" stroke-width=".122"/>
   <path d="m1034.6 61.734h-1.082s-1.3075 1.038-0.045166 2.4713c0.030151-0.049416 1.4128 0.065903 1.4128 0.065903s1.2023-1.5322-0.28564-2.5372z" stroke-width=".134"/>
   <path d="m1034.3 66.144h-1.0289s-1.2432 0.97038-0.042847 2.3105c0.028564-0.046227 1.3433 0.061607 1.3433 0.061607s1.1431-1.4325-0.27148-2.3721z" stroke-width=".126"/>
   <path d="m1036.3 13.896l4.14 0.0563-0.13 1.5586h-4.0399l0.0299-1.6149z" stroke-width=".143"/>
   <path d="m1040.2 17.135h-3.4446l0.0023 1.5645h3.415l0.027-1.5645h2.44e-4z" stroke-width=".187"/>
   <path d="m1036.9 20.48h2.9014v1.7171h-2.8934l-0.0079-1.7171z" stroke-width=".201"/>
   <path d="m1037.4 23.555h2.0902v0.94975h-2.1047l0.0145-0.9497z" stroke-width=".2"/>
  </g>
  <g fill="none">
   <path d="m1037.2 25.41l-0.9902-11.44 4.2802 0.0652-1.0006 11.386-2.2893-0.0109z" stroke-width=".324"/>
   <path d="m1038.5 13.817v-7.8513" stroke-width=".311"/>
  </g>
 </g>
</svg>
