<?xml version="1.0" encoding="UTF-8" standalone="no"?>
<!-- Created with Inkscape (http://www.inkscape.org/) -->

<svg
   xmlns:dc="http://purl.org/dc/elements/1.1/"
   xmlns:cc="http://creativecommons.org/ns#"
   xmlns:rdf="http://www.w3.org/1999/02/22-rdf-syntax-ns#"
   xmlns:svg="http://www.w3.org/2000/svg"
   xmlns="http://www.w3.org/2000/svg"
   xmlns:sodipodi="http://sodipodi.sourceforge.net/DTD/sodipodi-0.dtd"
   xmlns:inkscape="http://www.inkscape.org/namespaces/inkscape"
   id="svg2"
   version="1.1"
   inkscape:version="0.91 r13725"
   xml:space="preserve"
   width="2753.1499"
   height="1256.775"
   viewBox="0 0 2753.1499 1256.775"
   sodipodi:docname="P2PU Brandbook v2-p01.svg"><metadata
     id="metadata8"><rdf:RDF><cc:Work
         rdf:about=""><dc:format>image/svg+xml</dc:format><dc:type
           rdf:resource="http://purl.org/dc/dcmitype/StillImage" /><dc:title></dc:title></cc:Work></rdf:RDF></metadata><defs
     id="defs6"><clipPath
       clipPathUnits="userSpaceOnUse"
       id="clipPath20"><path
         d="m 0,1005.422 2202.52,0 L 2202.52,0 0,0 0,1005.422 Z"
         id="path22"
         inkscape:connector-curvature="0" /></clipPath><clipPath
       clipPathUnits="userSpaceOnUse"
       id="clipPath28"><path
         d="m 255.127,775.375 38.378,0 0,-49.521 -38.378,0 0,49.521 z"
         id="path30"
         inkscape:connector-curvature="0" /></clipPath><clipPath
       clipPathUnits="userSpaceOnUse"
       id="clipPath44"><path
         d="m 205.604,775.375 35.902,0 0,-49.521 -35.902,0 0,49.521 z"
         id="path46"
         inkscape:connector-curvature="0" /></clipPath><clipPath
       clipPathUnits="userSpaceOnUse"
       id="clipPath60"><path
         d="m 157.324,775.375 33.426,0 0,-49.521 -33.426,0 0,49.521 z"
         id="path62"
         inkscape:connector-curvature="0" /></clipPath><clipPath
       clipPathUnits="userSpaceOnUse"
       id="clipPath76"><path
         d="m 107.806,775.375 35.902,0 0,-49.521 -35.902,0 0,49.521 z"
         id="path78"
         inkscape:connector-curvature="0" /></clipPath><clipPath
       clipPathUnits="userSpaceOnUse"
       id="clipPath116"><path
         d="m 0,1005.422 2202.52,0 L 2202.52,0 0,0 0,1005.422 Z"
         id="path118"
         inkscape:connector-curvature="0" /></clipPath><clipPath
       clipPathUnits="userSpaceOnUse"
       id="clipPath148"><path
         d="m 0.001,0.352 2202.519,0 0,1005.069 -2202.519,0 0,-1005.069 z"
         id="path150"
         inkscape:connector-curvature="0" /></clipPath><clipPath
       clipPathUnits="userSpaceOnUse"
       id="clipPath156"><path
         d="m 1714.63,41.2915 432.14,0 0,-557.6395 -432.14,0 0,557.6395 z"
         id="path158"
         inkscape:connector-curvature="0" /></clipPath><clipPath
       clipPathUnits="userSpaceOnUse"
       id="clipPath172"><path
         d="m 1156.99,41.2915 404.26,0 0,-557.6395 -404.26,0 0,557.6395 z"
         id="path174"
         inkscape:connector-curvature="0" /></clipPath><clipPath
       clipPathUnits="userSpaceOnUse"
       id="clipPath188"><path
         d="m 613.337,41.2915 376.388,0 0,-557.6395 -376.388,0 0,557.6395 z"
         id="path190"
         inkscape:connector-curvature="0" /></clipPath><clipPath
       clipPathUnits="userSpaceOnUse"
       id="clipPath204"><path
         d="m 55.7524,41.2915 404.2626,0 0,-557.6395 -404.2626,0 0,557.6395 z"
         id="path206"
         inkscape:connector-curvature="0" /></clipPath></defs><sodipodi:namedview
     pagecolor="#ffffff"
     bordercolor="#666666"
     borderopacity="1"
     objecttolerance="10"
     gridtolerance="10"
     guidetolerance="10"
     inkscape:pageopacity="0"
     inkscape:pageshadow="2"
     inkscape:window-width="640"
     inkscape:window-height="480"
     id="namedview4"
     showgrid="false"
     inkscape:zoom="0.19622836"
     inkscape:cx="1287.3931"
     inkscape:cy="628.38751"
     inkscape:window-x="65"
     inkscape:window-y="24"
     inkscape:window-maximized="0"
     inkscape:current-layer="g10" /><g
     id="g10"
     inkscape:groupmode="layer"
     inkscape:label="P2PU Brandbook v2"
     transform="matrix(1.25,0,0,-1.25,0,1256.775)"><g
       id="g12"
       transform="translate(2202.5195,0.3521)"><path
         d="m 0,0 -2202.519,0 0,1005.068 L 0,1005.069 0,0 Z"
         style="fill:#4e5566;fill-opacity:1;fill-rule:nonzero;stroke:none"
         id="path14"
         inkscape:connector-curvature="0" /></g><g
       id="g16"><g
         id="g18"
         clip-path="url(#clipPath20)"><g
           id="g24"><g
             id="g26" /><g
             id="g32"><g
               clip-path="url(#clipPath28)"
               id="g34"
               style="opacity:0.14999402"><g
                 transform="translate(293.5049,775.3755)"
                 id="g36"><path
                   d="m 0,0 0,-4.97 -3.718,0 0,-38.363 -6.189,-6.189 -0.095,0 -18.377,0 -0.096,0 -6.19,6.189 0,38.363 -3.712,0 0,4.97 12.377,0 0,-4.955 -2.475,0 0,-35.898 3.714,-3.718 11.139,0 3.715,3.714 0,35.902 -2.476,0 0,4.955 L 0,0 Z"
                   style="fill:#ffffff;fill-opacity:1;fill-rule:nonzero;stroke:none"
                   id="path38"
                   inkscape:connector-curvature="0" /></g></g></g></g><g
           id="g40"><g
             id="g42" /><g
             id="g48"><g
               clip-path="url(#clipPath44)"
               id="g50"
               style="opacity:0.14999402"><g
                 transform="translate(235.3169,753.0898)"
                 id="g52"><path
                   d="m 0,0 0,13.617 -3.713,3.714 -16.093,0 0,-21.044 16.093,0 L 0,0 Z m 6.189,16.092 0,-18.567 L 0,-8.664 l -0.095,0 -19.711,0 0,-13.622 3.715,0 0,-4.95 -13.622,0 0,4.95 3.714,0 0,39.601 -3.714,0 0,4.971 29.713,0 6.189,-6.194 z"
                   style="fill:#ffffff;fill-opacity:1;fill-rule:nonzero;stroke:none"
                   id="path54"
                   inkscape:connector-curvature="0" /></g></g></g></g><g
           id="g56"><g
             id="g58" /><g
             id="g64"><g
               clip-path="url(#clipPath60)"
               id="g66"
               style="opacity:0.14999402"><g
                 transform="translate(190.7505,730.8042)"
                 id="g68"><path
                   d="m 0,0 0,-4.951 -33.427,0 0,7.431 27.238,27.234 0,6.188 -3.714,3.714 -13.62,0 -3.714,-3.714 0,-4.951 -6.19,0 0,7.427 6.19,6.193 21.048,0 L 0,38.378 0,27.237 -27.237,0 0,0 Z"
                   style="fill:#ffffff;fill-opacity:1;fill-rule:nonzero;stroke:none"
                   id="path70"
                   inkscape:connector-curvature="0" /></g></g></g></g><g
           id="g72"><g
             id="g74" /><g
             id="g80"><g
               clip-path="url(#clipPath76)"
               id="g82"
               style="opacity:0.14999402"><g
                 transform="translate(137.5186,753.0898)"
                 id="g84"><path
                   d="m 0,0 0,13.617 -3.713,3.714 -16.097,0 0,-21.044 16.092,0 L 0,0 Z m 6.189,16.092 0,-18.567 -6.193,-6.189 -0.091,0 -19.715,0 0,-13.622 3.714,0 0,-4.95 -13.616,0 0,4.95 3.713,0 0,39.601 -3.713,0 0,4.971 29.708,0 6.193,-6.194 z"
                   style="fill:#ffffff;fill-opacity:1;fill-rule:nonzero;stroke:none"
                   id="path86"
                   inkscape:connector-curvature="0" /></g></g></g></g></g></g><g
       id="g88"
       transform="translate(293.5049,770.4053)"><path
         d="m 0,0 0,4.97 -12.383,0 0,-4.955 2.476,0 0,-35.902 -3.715,-3.714 -11.139,0 -3.714,3.719 0,35.897 2.475,0 0,4.955 -12.377,0 0,-4.97 3.712,0 0,-38.363 6.19,-6.189 0.096,0 18.377,0 0.095,0 6.189,6.189 L -3.718,0 0,0 Z m 4.952,9.922 0,-14.873 -3.713,0 0,-35.888 -8.671,-8.664 -23.519,0 -8.665,8.664 0,35.888 -3.713,0 0,14.873 0.304,0 21.978,0 0,-13.621 -2.476,0 0,-29.714 1.237,-1.232 0,-0.004 6.189,0 0,0.004 1.238,1.232 0,29.714 -2.475,0 0,13.621 22.286,0 z"
         style="fill:#ffffff;fill-opacity:1;fill-rule:nonzero;stroke:none"
         id="path90"
         inkscape:connector-curvature="0" /></g><g
       id="g92"
       transform="translate(241.5059,750.6147)"><path
         d="m 0,0 0,18.567 -6.189,6.194 -29.713,0 0,-4.97 3.714,0 0,-39.602 -3.714,0 0,-4.95 13.622,0 0,4.95 -3.715,0 0,13.623 19.711,0 0.095,0 L 0,0 Z m 4.952,19.806 0,-22.282 -8.665,-8.665 -17.33,0 0,-3.717 3.714,0 0,-14.855 -23.524,0 0,14.855 3.714,0 0,29.698 -3.714,0 0,14.873 37.14,0 8.665,-8.67 0,-1.232 0,-0.005 z"
         style="fill:#ffffff;fill-opacity:1;fill-rule:nonzero;stroke:none"
         id="path94"
         inkscape:connector-curvature="0" /></g><g
       id="g96"
       transform="translate(230.3662,755.5659)"><path
         d="m 0,0 0,8.665 -1.238,1.238 -8.665,0 0,-11.14 8.665,0 L 0,0 Z m 4.951,11.141 0,-13.617 -3.713,-3.713 -16.093,0 0,21.043 16.093,0 3.713,-3.713 z"
         style="fill:#ffffff;fill-opacity:1;fill-rule:nonzero;stroke:none"
         id="path98"
         inkscape:connector-curvature="0" /></g><g
       id="g100"
       transform="translate(190.7505,725.8535)"><path
         d="m 0,0 0,4.951 -27.237,0 L 0,32.188 l 0,11.141 -6.189,6.193 -21.048,0 -6.19,-6.193 0,-7.427 6.19,0 0,4.951 3.714,3.714 13.62,0 3.714,-3.714 0,-6.188 L -33.427,7.431 -33.427,0 0,0 Z m 4.951,9.903 0,-14.855 -43.329,0 0,14.855 27.237,27.236 0,1.238 -1.238,1.238 -8.67,0 -1.237,-1.238 0,-7.427 -16.092,0 0,14.854 8.666,8.67 25.999,0 8.664,-8.67 0,-16.092 -19.81,-19.809 19.81,0 z"
         style="fill:#ffffff;fill-opacity:1;fill-rule:nonzero;stroke:none"
         id="path102"
         inkscape:connector-curvature="0" /></g><g
       id="g104"
       transform="translate(143.708,750.6147)"><path
         d="m 0,0 0,18.567 -6.194,6.194 -29.708,0 0,-4.97 3.714,0 0,-39.602 -3.714,0 0,-4.95 13.616,0 0,4.95 -3.714,0 0,13.623 19.716,0 0.09,0 L 0,0 Z m 4.951,21.043 0,-23.519 -8.664,-8.665 -17.335,0 0,-3.717 3.714,0 0,-14.855 -23.519,0 0,14.855 3.714,0 0,29.698 -3.714,0 0,14.873 37.14,0 8.664,-8.67 z"
         style="fill:#ffffff;fill-opacity:1;fill-rule:nonzero;stroke:none"
         id="path106"
         inkscape:connector-curvature="0" /></g><g
       id="g108"
       transform="translate(132.5625,755.5659)"><path
         d="m 0,0 0,8.665 -1.233,1.238 -8.67,0 0,-11.14 8.67,0 L 0,0 Z m 4.956,11.141 0,-13.617 -3.718,-3.713 -16.092,0 0,21.043 16.097,0 3.713,-3.713 z"
         style="fill:#ffffff;fill-opacity:1;fill-rule:nonzero;stroke:none"
         id="path110"
         inkscape:connector-curvature="0" /></g><g
       id="g112"><g
         id="g114"
         clip-path="url(#clipPath116)"><text
           transform="matrix(1,0,0,-0.99999062,102.5112,658.8571)"
           style="font-variant:normal;font-weight:normal;font-stretch:normal;font-size:32px;font-family:Arvo;-inkscape-font-specification:Arvo;writing-mode:lr-tb;fill:#f5f5f5;fill-opacity:1;fill-rule:nonzero;stroke:none"
           id="text120"><tspan
             x="0 20.191999 38.880001 57.568001"
             y="0"
             sodipodi:role="line"
             id="tspan122">Peer</tspan></text>
<text
           transform="matrix(1,0,0,-0.99999062,175.4072,658.8571)"
           style="font-variant:normal;font-weight:bold;font-stretch:normal;font-size:32px;font-family:Arvo;-inkscape-font-specification:Arvo-Bold;writing-mode:lr-tb;fill:#f5f5f5;fill-opacity:1;fill-rule:nonzero;stroke:none"
           id="text124"><tspan
             x="0"
             y="0"
             id="tspan126">2</tspan></text>
<text
           transform="matrix(1,0,0,-0.99999062,194.0952,658.8571)"
           style="font-variant:normal;font-weight:normal;font-stretch:normal;font-size:32px;font-family:Arvo;-inkscape-font-specification:Arvo;writing-mode:lr-tb;fill:#f5f5f5;fill-opacity:1;fill-rule:nonzero;stroke:none"
           id="text128"><tspan
             x="0 20.191999 38.880001 57.568001"
             y="0"
             sodipodi:role="line"
             id="tspan130">Peer</tspan></text>
<text
           transform="matrix(1,0,0,-0.99999062,266.9912,658.8571)"
           style="font-variant:normal;font-weight:bold;font-stretch:normal;font-size:32px;font-family:Arvo;-inkscape-font-specification:Arvo-Bold;writing-mode:lr-tb;fill:#f5f5f5;fill-opacity:1;fill-rule:nonzero;stroke:none"
           id="text132"><tspan
             x="0 24.704 47.84 60.512001 80.480003 99.328003 116.992 134.528 147.2 160.032"
             y="0"
             sodipodi:role="line"
             id="tspan134">University</tspan></text>
<text
           transform="matrix(1,0,0,-0.99999062,453.9992,658.8571)"
           style="font-variant:normal;font-weight:bold;font-stretch:normal;font-size:32px;font-family:Arvo;-inkscape-font-specification:Arvo-Bold;writing-mode:lr-tb;fill:#f5f5f5;fill-opacity:1;fill-rule:nonzero;stroke:none"
           id="text136"><tspan
             x="0 21.983999 39.647999 59.967999 83.103996 105.312 126.016 145.79201 165.56799"
             y="0"
             sodipodi:role="line"
             id="tspan138">Brandbook</tspan></text>
<text
           transform="matrix(1,0,0,-0.99999062,642.5432,658.8571)"
           style="font-variant:normal;font-weight:normal;font-stretch:normal;font-size:32px;font-family:Arvo;-inkscape-font-specification:Arvo;writing-mode:lr-tb;fill:#f5f5f5;fill-opacity:1;fill-rule:nonzero;stroke:none"
           id="text140"><tspan
             x="0"
             y="0"
             id="tspan142">.</tspan></text>
</g></g><g
       id="g144"><g
         id="g146"
         clip-path="url(#clipPath148)"><g
           id="g152"><g
             id="g154" /><g
             id="g160"><g
               clip-path="url(#clipPath156)"
               id="g162"
               style="opacity:0.14999402"><g
                 transform="translate(2146.7671,41.2915)"
                 id="g164"><path
                   d="m 0,0 0,-55.978 -41.872,0 0,-431.973 -69.688,-69.689 -1.07,0 -206.934,0 -1.071,0 -69.693,69.689 0,431.973 -41.812,0 0,55.978 139.382,0 0,-55.807 -27.877,0 0,-404.208 41.817,-41.872 125.441,0 41.817,41.811 0,404.269 -27.877,0 0,55.807 L 0,0 Z"
                   style="fill:#ffbe00;fill-opacity:1;fill-rule:nonzero;stroke:none"
                   id="path166"
                   inkscape:connector-curvature="0" /></g></g></g></g><g
           id="g168"><g
             id="g170" /><g
             id="g176"><g
               clip-path="url(#clipPath172)"
               id="g178"
               style="opacity:0.14999402"><g
                 transform="translate(1491.5571,-209.6543)"
                 id="g180"><path
                   d="m 0,0 0,153.322 -41.812,41.817 -181.198,0 0,-236.951 181.198,0 L 0,0 Z m 69.693,181.198 0,-209.074 L 0,-97.564 l -1.064,0 -221.946,0 0,-153.377 41.817,0 0,-55.753 -153.377,0 0,55.753 41.812,0 0,445.909 -41.812,0 0,55.978 334.57,0 69.693,-69.748 z"
                   style="fill:#00c8b5;fill-opacity:1;fill-rule:nonzero;stroke:none"
                   id="path182"
                   inkscape:connector-curvature="0" /></g></g></g></g><g
           id="g184"><g
             id="g186" /><g
             id="g192"><g
               clip-path="url(#clipPath188)"
               id="g194"
               style="opacity:0.14999402"><g
                 transform="translate(989.7246,-460.5957)"
                 id="g196"><path
                   d="m 0,0 0,-55.752 -376.387,0 0,83.684 306.699,306.644 0,69.688 -41.817,41.817 -153.377,0 -41.812,-41.817 0,-55.753 -69.693,0 0,83.629 69.693,69.747 237.006,0 L 0,432.14 0,306.694 -306.694,0 0,0 Z"
                   style="fill:#aad700;fill-opacity:1;fill-rule:nonzero;stroke:none"
                   id="path198"
                   inkscape:connector-curvature="0" /></g></g></g></g><g
           id="g200"><g
             id="g202" /><g
             id="g208"><g
               clip-path="url(#clipPath204)"
               id="g210"
               style="opacity:0.14999402"><g
                 transform="translate(390.3267,-209.6543)"
                 id="g212"><path
                   d="m 0,0 0,153.322 -41.817,41.817 -181.252,0 0,-236.951 181.198,0 L 0,0 Z m 69.688,181.198 0,-209.074 -69.743,-69.688 -1.015,0 -221.999,0 0,-153.377 41.817,0 0,-55.753 -153.322,0 0,55.753 41.816,0 0,445.909 -41.816,0 0,55.978 334.519,0 69.743,-69.748 z"
                   style="fill:#ff7400;fill-opacity:1;fill-rule:nonzero;stroke:none"
                   id="path214"
                   inkscape:connector-curvature="0" /></g></g></g></g></g></g><g
       id="g216"
       transform="translate(1951.5789,97.0452)"><path
         d="m 0,0 0,-96.693 55.751,0 0,40.939 139.437,0 0,-40.939 55.753,0 0,96.693 L 0,0 Z m -289.279,0 -3.424,0 0,-96.693 55.752,0 0,40.939 139.381,0 0,-40.939 55.752,0 0,96.693 -247.461,0 z"
         style="fill:#ffbe00;fill-opacity:1;fill-rule:nonzero;stroke:none"
         id="path218"
         inkscape:connector-curvature="0" /></g><g
       id="g220"
       transform="translate(1101.2346,97.0452)"><path
         d="m 0,0 0,-96.693 55.752,0 0,40.939 334.571,0 40.907,-40.939 83.607,0 L 418.198,0 0,0 Z"
         style="fill:#00c8b5;fill-opacity:1;fill-rule:nonzero;stroke:none"
         id="path222"
         inkscape:connector-curvature="0" /></g><g
       id="g224"
       transform="translate(655.1541,97.0452)"><path
         d="m 0,0 -96.638,-96.693 83.607,0 40.908,40.939 237.006,0 40.904,-40.939 83.605,0 L 292.758,0 0,0 Z"
         style="fill:#aad700;fill-opacity:1;fill-rule:nonzero;stroke:none"
         id="path226"
         inkscape:connector-curvature="0" /></g><g
       id="g228"
       transform="translate(9e-4,97.0452)"><path
         d="m 0,0 0,-96.693 55.751,0 0,40.939 334.52,0 40.937,-40.939 83.628,0 L 418.203,0 0,0 Z"
         style="fill:#ff7400;fill-opacity:1;fill-rule:nonzero;stroke:none"
         id="path230"
         inkscape:connector-curvature="0" /></g></g></svg>