<?xml version="1.0" encoding="UTF-8" standalone="no"?>
<!-- Created with Inkscape (http://www.inkscape.org/) -->

<svg
   xmlns:dc="http://purl.org/dc/elements/1.1/"
   xmlns:cc="http://creativecommons.org/ns#"
   xmlns:rdf="http://www.w3.org/1999/02/22-rdf-syntax-ns#"
   xmlns:svg="http://www.w3.org/2000/svg"
   xmlns="http://www.w3.org/2000/svg"
   xmlns:sodipodi="http://sodipodi.sourceforge.net/DTD/sodipodi-0.dtd"
   xmlns:inkscape="http://www.inkscape.org/namespaces/inkscape"
   id="svg2"
   version="1.1"
   inkscape:version="0.91 r13725"
   xml:space="preserve"
   width="2753.1499"
   height="1256.775"
   viewBox="0 0 2753.1499 1256.775"
   sodipodi:docname="P2PU Brandbook v2-p06.svg"><metadata
     id="metadata8"><rdf:RDF><cc:Work
         rdf:about=""><dc:format>image/svg+xml</dc:format><dc:type
           rdf:resource="http://purl.org/dc/dcmitype/StillImage" /><dc:title></dc:title></cc:Work></rdf:RDF></metadata><defs
     id="defs6"><clipPath
       clipPathUnits="userSpaceOnUse"
       id="clipPath16"><path
         d="m 0,1005.422 2202.52,0 L 2202.52,0 0,0 0,1005.422 Z"
         id="path18"
         inkscape:connector-curvature="0" /></clipPath><clipPath
       clipPathUnits="userSpaceOnUse"
       id="clipPath36"><path
         d="m 615.503,795.031 57.666,0 0,-76.271 -57.666,0 0,76.271 z"
         id="path38"
         inkscape:connector-curvature="0" /></clipPath><clipPath
       clipPathUnits="userSpaceOnUse"
       id="clipPath52"><path
         d="m 541.087,795.031 53.947,0 0,-76.271 -53.947,0 0,76.271 z"
         id="path54"
         inkscape:connector-curvature="0" /></clipPath><clipPath
       clipPathUnits="userSpaceOnUse"
       id="clipPath68"><path
         d="m 468.539,795.031 50.229,0 0,-76.271 -50.229,0 0,76.271 z"
         id="path70"
         inkscape:connector-curvature="0" /></clipPath><clipPath
       clipPathUnits="userSpaceOnUse"
       id="clipPath84"><path
         d="m 394.133,795.031 53.947,0 0,-76.271 -53.947,0 0,76.271 z"
         id="path86"
         inkscape:connector-curvature="0" /></clipPath><clipPath
       clipPathUnits="userSpaceOnUse"
       id="clipPath124"><path
         d="m 0,1005.422 2202.52,0 L 2202.52,0 0,0 0,1005.422 Z"
         id="path126"
         inkscape:connector-curvature="0" /></clipPath><clipPath
       clipPathUnits="userSpaceOnUse"
       id="clipPath132"><path
         d="m 1222.18,782.008 38.44,0 0,-50.848 -38.44,0 0,50.848 z"
         id="path134"
         inkscape:connector-curvature="0" /></clipPath><clipPath
       clipPathUnits="userSpaceOnUse"
       id="clipPath148"><path
         d="m 1172.56,782.008 35.97,0 0,-50.848 -35.97,0 0,50.848 z"
         id="path150"
         inkscape:connector-curvature="0" /></clipPath><clipPath
       clipPathUnits="userSpaceOnUse"
       id="clipPath164"><path
         d="m 1124.2,782.008 33.49,0 0,-50.848 -33.49,0 0,50.848 z"
         id="path166"
         inkscape:connector-curvature="0" /></clipPath><clipPath
       clipPathUnits="userSpaceOnUse"
       id="clipPath180"><path
         d="m 1074.6,782.008 35.96,0 0,-50.848 -35.96,0 0,50.848 z"
         id="path182"
         inkscape:connector-curvature="0" /></clipPath><clipPath
       clipPathUnits="userSpaceOnUse"
       id="clipPath220"><path
         d="m 0,1005.422 2202.52,0 L 2202.52,0 0,0 0,1005.422 Z"
         id="path222"
         inkscape:connector-curvature="0" /></clipPath><clipPath
       clipPathUnits="userSpaceOnUse"
       id="clipPath228"><path
         d="m 1827.14,768.988 19.22,0 0,-25.424 -19.22,0 0,25.424 z"
         id="path230"
         inkscape:connector-curvature="0" /></clipPath><clipPath
       clipPathUnits="userSpaceOnUse"
       id="clipPath244"><path
         d="m 1802.33,768.988 17.98,0 0,-25.424 -17.98,0 0,25.424 z"
         id="path246"
         inkscape:connector-curvature="0" /></clipPath><clipPath
       clipPathUnits="userSpaceOnUse"
       id="clipPath260"><path
         d="m 1778.15,768.988 16.74,0 0,-25.424 -16.74,0 0,25.424 z"
         id="path262"
         inkscape:connector-curvature="0" /></clipPath><clipPath
       clipPathUnits="userSpaceOnUse"
       id="clipPath276"><path
         d="m 1753.35,768.988 17.98,0 0,-25.424 -17.98,0 0,25.424 z"
         id="path278"
         inkscape:connector-curvature="0" /></clipPath><clipPath
       clipPathUnits="userSpaceOnUse"
       id="clipPath320"><path
         d="m 0,1005.422 2202.52,0 L 2202.52,0 0,0 0,1005.422 Z"
         id="path322"
         inkscape:connector-curvature="0" /></clipPath><clipPath
       clipPathUnits="userSpaceOnUse"
       id="clipPath328"><path
         d="m 394.132,371.557 53.948,0 0,-76.272 -53.948,0 0,76.272 z"
         id="path330"
         inkscape:connector-curvature="0" /></clipPath><clipPath
       clipPathUnits="userSpaceOnUse"
       id="clipPath352"><path
         d="m 0,1005.422 2202.52,0 L 2202.52,0 0,0 0,1005.422 Z"
         id="path354"
         inkscape:connector-curvature="0" /></clipPath><clipPath
       clipPathUnits="userSpaceOnUse"
       id="clipPath360"><path
         d="m 470.402,371.561 50.228,0 0,-76.276 -50.228,0 0,76.276 z"
         id="path362"
         inkscape:connector-curvature="0" /></clipPath><clipPath
       clipPathUnits="userSpaceOnUse"
       id="clipPath380"><path
         d="m 0,1005.422 2202.52,0 L 2202.52,0 0,0 0,1005.422 Z"
         id="path382"
         inkscape:connector-curvature="0" /></clipPath><clipPath
       clipPathUnits="userSpaceOnUse"
       id="clipPath388"><path
         d="m 470.402,272.965 57.666,0 0,-76.272 -57.666,0 0,76.272 z"
         id="path390"
         inkscape:connector-curvature="0" /></clipPath><clipPath
       clipPathUnits="userSpaceOnUse"
       id="clipPath408"><path
         d="m 0,1005.422 2202.52,0 L 2202.52,0 0,0 0,1005.422 Z"
         id="path410"
         inkscape:connector-curvature="0" /></clipPath><clipPath
       clipPathUnits="userSpaceOnUse"
       id="clipPath416"><path
         d="m 394.134,272.965 53.947,0 0,-76.272 -53.947,0 0,76.272 z"
         id="path418"
         inkscape:connector-curvature="0" /></clipPath><clipPath
       clipPathUnits="userSpaceOnUse"
       id="clipPath444"><path
         d="m 0,1005.422 2202.52,0 L 2202.52,0 0,0 0,1005.422 Z"
         id="path446"
         inkscape:connector-curvature="0" /></clipPath><clipPath
       clipPathUnits="userSpaceOnUse"
       id="clipPath452"><path
         d="m 1074.6,310.789 35.96,0 0,-50.848 -35.96,0 0,50.848 z"
         id="path454"
         inkscape:connector-curvature="0" /></clipPath><clipPath
       clipPathUnits="userSpaceOnUse"
       id="clipPath476"><path
         d="m 0,1005.422 2202.52,0 L 2202.52,0 0,0 0,1005.422 Z"
         id="path478"
         inkscape:connector-curvature="0" /></clipPath><clipPath
       clipPathUnits="userSpaceOnUse"
       id="clipPath484"><path
         d="m 1125.44,310.791 33.49,0 0,-50.85 -33.49,0 0,50.85 z"
         id="path486"
         inkscape:connector-curvature="0" /></clipPath><clipPath
       clipPathUnits="userSpaceOnUse"
       id="clipPath504"><path
         d="m 0,1005.422 2202.52,0 L 2202.52,0 0,0 0,1005.422 Z"
         id="path506"
         inkscape:connector-curvature="0" /></clipPath><clipPath
       clipPathUnits="userSpaceOnUse"
       id="clipPath512"><path
         d="m 1125.44,245.061 38.45,0 0,-50.848 -38.45,0 0,50.848 z"
         id="path514"
         inkscape:connector-curvature="0" /></clipPath><clipPath
       clipPathUnits="userSpaceOnUse"
       id="clipPath532"><path
         d="m 0,1005.422 2202.52,0 L 2202.52,0 0,0 0,1005.422 Z"
         id="path534"
         inkscape:connector-curvature="0" /></clipPath><clipPath
       clipPathUnits="userSpaceOnUse"
       id="clipPath540"><path
         d="m 1074.6,245.061 35.96,0 0,-50.848 -35.96,0 0,50.848 z"
         id="path542"
         inkscape:connector-curvature="0" /></clipPath><clipPath
       clipPathUnits="userSpaceOnUse"
       id="clipPath568"><path
         d="m 0,1005.422 2202.52,0 L 2202.52,0 0,0 0,1005.422 Z"
         id="path570"
         inkscape:connector-curvature="0" /></clipPath><clipPath
       clipPathUnits="userSpaceOnUse"
       id="clipPath576"><path
         d="m 1753.35,250.021 17.98,0 0,-25.423 -17.98,0 0,25.423 z"
         id="path578"
         inkscape:connector-curvature="0" /></clipPath><clipPath
       clipPathUnits="userSpaceOnUse"
       id="clipPath600"><path
         d="m 0,1005.422 2202.52,0 L 2202.52,0 0,0 0,1005.422 Z"
         id="path602"
         inkscape:connector-curvature="0" /></clipPath><clipPath
       clipPathUnits="userSpaceOnUse"
       id="clipPath608"><path
         d="m 1778.77,250.021 16.74,0 0,-25.423 -16.74,0 0,25.423 z"
         id="path610"
         inkscape:connector-curvature="0" /></clipPath><clipPath
       clipPathUnits="userSpaceOnUse"
       id="clipPath628"><path
         d="m 0,1005.422 2202.52,0 L 2202.52,0 0,0 0,1005.422 Z"
         id="path630"
         inkscape:connector-curvature="0" /></clipPath><clipPath
       clipPathUnits="userSpaceOnUse"
       id="clipPath636"><path
         d="m 1778.77,217.156 19.22,0 0,-25.424 -19.22,0 0,25.424 z"
         id="path638"
         inkscape:connector-curvature="0" /></clipPath><clipPath
       clipPathUnits="userSpaceOnUse"
       id="clipPath656"><path
         d="m 0,1005.422 2202.52,0 L 2202.52,0 0,0 0,1005.422 Z"
         id="path658"
         inkscape:connector-curvature="0" /></clipPath><clipPath
       clipPathUnits="userSpaceOnUse"
       id="clipPath664"><path
         d="m 1753.35,217.156 17.98,0 0,-25.424 -17.98,0 0,25.424 z"
         id="path666"
         inkscape:connector-curvature="0" /></clipPath></defs><sodipodi:namedview
     pagecolor="#ffffff"
     bordercolor="#666666"
     borderopacity="1"
     objecttolerance="10"
     gridtolerance="10"
     guidetolerance="10"
     inkscape:pageopacity="0"
     inkscape:pageshadow="2"
     inkscape:window-width="640"
     inkscape:window-height="480"
     id="namedview4"
     showgrid="false"
     inkscape:zoom="0.19622836"
     inkscape:cx="1287.3931"
     inkscape:cy="628.38751"
     inkscape:window-x="65"
     inkscape:window-y="24"
     inkscape:window-maximized="0"
     inkscape:current-layer="g10" /><g
     id="g10"
     inkscape:groupmode="layer"
     inkscape:label="P2PU Brandbook v2"
     transform="matrix(1.25,0,0,-1.25,0,1256.775)"><g
       id="g12"><g
         id="g14"
         clip-path="url(#clipPath16)"><text
           transform="matrix(1,0,0,-0.99998996,386.6924,515.4684)"
           style="font-variant:normal;font-weight:300;font-stretch:normal;font-size:9.95670033px;font-family:'Helvetica Light';-inkscape-font-specification:Helvetica-Light;writing-mode:lr-tb;fill:#000000;fill-opacity:1;fill-rule:nonzero;stroke:none"
           id="text20"><tspan
             x="0 5.5359254 11.071851 682.08374 687.61963 693.15558 1364.1675 1369.7034 1375.2393"
             y="0"
             sodipodi:role="line"
             id="tspan22">75%50%25%</tspan></text>
<text
           transform="matrix(1,0,0,-0.99999167,56.0947,925.5673)"
           style="font-variant:normal;font-weight:800;font-stretch:normal;font-size:24px;font-family:'Sense ExtraBold';-inkscape-font-specification:Sense-ExtraBold;writing-mode:lr-tb;fill:#4e5566;fill-opacity:1;fill-rule:nonzero;stroke:none"
           id="text24"><tspan
             x="0 12.24 24.48"
             y="0"
             sodipodi:role="line"
             id="tspan26">04.</tspan></text>
<text
           transform="matrix(1,0,0,-0.99999167,92.6707,925.5673)"
           style="font-variant:normal;font-weight:300;font-stretch:normal;font-size:24px;font-family:'Sense Light';-inkscape-font-specification:Sense-Light;writing-mode:lr-tb;fill:#4e5566;fill-opacity:1;fill-rule:nonzero;stroke:none"
           id="text28"><tspan
             x="0 11.976 17.256001 26.591999 38.472 44.327999 56.304001 68.975998 81.984001 99.431999 109.56 120.528 130.17599"
             y="0"
             sodipodi:role="line"
             id="tspan30">Size Showcase</tspan></text>
<g
           id="g32"><g
             id="g34" /><g
             id="g40"><g
               clip-path="url(#clipPath36)"
               id="g42"
               style="opacity:0.14999402"><g
                 transform="translate(673.1689,795.0313)"
                 id="g44"><path
                   d="m 0,0 0,-7.471 -5.587,0 0,-59.502 -9.3,-9.298 -0.142,0 -27.616,0 -0.141,0 -9.301,9.298 0,59.502 -5.579,0 0,7.471 18.599,0 0,-7.447 -3.719,0 0,-55.797 5.579,-5.588 16.74,0 5.58,5.58 0,55.805 -3.719,0 0,7.447 L 0,0 Z"
                   style="fill:#ffbe00;fill-opacity:1;fill-rule:nonzero;stroke:none"
                   id="path46"
                   inkscape:connector-curvature="0" /></g></g></g></g><g
           id="g48"><g
             id="g50" /><g
             id="g56"><g
               clip-path="url(#clipPath52)"
               id="g58"
               style="opacity:0.14999402"><g
                 transform="translate(585.7344,761.543)"
                 id="g60"><path
                   d="m 0,0 0,20.461 -5.58,5.58 -24.18,0 0,-31.619 24.18,0 L 0,0 Z m 9.3,24.182 0,-27.901 -9.3,-9.301 -0.143,0 -29.617,0 0,-22.324 5.581,0 0,-7.439 -20.468,0 0,7.439 5.58,0 0,61.362 -5.58,0 0,7.47 44.647,0 9.3,-9.306 z"
                   style="fill:#00c8b5;fill-opacity:1;fill-rule:nonzero;stroke:none"
                   id="path62"
                   inkscape:connector-curvature="0" /></g></g></g></g><g
           id="g64"><g
             id="g66" /><g
             id="g72"><g
               clip-path="url(#clipPath68)"
               id="g74"
               style="opacity:0.14999402"><g
                 transform="translate(518.7676,726.1992)"
                 id="g76"><path
                   d="m 0,0 0,-7.439 -50.229,0 0,11.168 40.928,40.919 0,11.157 -5.579,5.58 -20.469,0 -5.579,-5.58 0,-7.44 -9.301,0 0,11.16 9.301,9.307 31.627,0 L 0,59.525 0,40.928 -40.928,0 0,0 Z"
                   style="fill:#aad700;fill-opacity:1;fill-rule:nonzero;stroke:none"
                   id="path78"
                   inkscape:connector-curvature="0" /></g></g></g></g><g
           id="g80"><g
             id="g82" /><g
             id="g88"><g
               clip-path="url(#clipPath84)"
               id="g90"
               style="opacity:0.14999402"><g
                 transform="translate(438.7793,761.543)"
                 id="g92"><path
                   d="m 0,0 0,20.461 -5.579,5.58 -24.188,0 0,-31.619 24.18,0 L 0,0 Z m 9.301,24.182 0,-27.901 -9.308,-9.301 -0.135,0 -29.625,0 0,-22.324 5.579,0 0,-7.439 -20.458,0 0,7.439 5.579,0 0,61.362 -5.579,0 0,7.47 44.639,0 9.308,-9.306 z"
                   style="fill:#ff7400;fill-opacity:1;fill-rule:nonzero;stroke:none"
                   id="path94"
                   inkscape:connector-curvature="0" /></g></g></g></g></g></g><g
       id="g96"
       transform="translate(673.1689,787.5605)"><path
         d="m 0,0 0,7.471 -18.606,0 0,-7.448 3.719,0 0,-55.804 -5.58,-5.58 -16.74,0 -5.579,5.588 0,55.796 3.719,0 0,7.448 -18.599,0 0,-7.471 5.579,0 0,-59.502 9.301,-9.299 0.141,0 27.616,0 0.142,0 9.3,9.299 L -5.587,0 0,0 Z m 7.44,14.91 0,-22.349 -5.58,0 0,-55.784 -13.026,-13.019 -35.341,0 -13.019,13.019 0,55.784 -5.58,0 0,22.349 0.457,0 33.022,0 0,-20.467 -3.72,0 0,-46.504 1.861,-1.853 0,-0.008 9.298,0 0,0.008 1.861,1.853 0,46.504 -3.719,0 0,20.467 33.486,0 z"
         style="fill:#ffbe00;fill-opacity:1;fill-rule:nonzero;stroke:none"
         id="path98"
         inkscape:connector-curvature="0" /></g><g
       id="g100"
       transform="translate(595.0342,757.8242)"><path
         d="m 0,0 0,27.9 -9.3,9.307 -44.647,0 0,-7.471 5.58,0 0,-61.361 -5.58,0 0,-7.439 20.468,0 0,7.439 -5.581,0 0,22.324 29.618,0 0.142,0 L 0,0 Z m 7.44,29.76 0,-33.481 -13.019,-13.019 -26.041,0 0,-7.446 5.581,0 0,-22.32 -35.348,0 0,22.32 5.579,0 0,46.483 -5.579,0 0,22.349 55.808,0 13.019,-13.027 0,-1.851 0,-0.008 z"
         style="fill:#00c8b5;fill-opacity:1;fill-rule:nonzero;stroke:none"
         id="path102"
         inkscape:connector-curvature="0" /></g><g
       id="g104"
       transform="translate(578.2939,765.2637)"><path
         d="m 0,0 0,13.02 -1.858,1.861 -13.022,0 0,-16.74 13.022,0 L 0,0 Z m 7.44,16.74 0,-20.461 -5.58,-5.578 -24.179,0 0,31.619 24.179,0 5.58,-5.58 z"
         style="fill:#00c8b5;fill-opacity:1;fill-rule:nonzero;stroke:none"
         id="path106"
         inkscape:connector-curvature="0" /></g><g
       id="g108"
       transform="translate(518.7676,718.7598)"><path
         d="m 0,0 0,7.439 -40.928,0 L 0,48.367 l 0,18.598 -9.301,9.306 -31.627,0 -9.301,-9.306 0,-11.16 9.301,0 0,7.439 5.579,5.58 20.469,0 5.579,-5.58 0,-11.156 L -50.229,11.168 -50.229,0 0,0 Z m 7.439,14.879 0,-22.32 -65.107,0 0,22.32 40.928,40.66 0,3.984 -1.861,1.862 -13.027,0 -1.86,-1.862 0,-11.16 -24.18,0 0,22.321 13.021,13.027 39.067,0 13.019,-13.027 0,-26.038 -29.766,-29.767 29.766,0 z"
         style="fill:#aad700;fill-opacity:1;fill-rule:nonzero;stroke:none"
         id="path110"
         inkscape:connector-curvature="0" /></g><g
       id="g112"
       transform="translate(448.0801,757.8242)"><path
         d="m 0,0 0,27.9 -9.308,9.307 -44.639,0 0,-7.471 5.579,0 0,-61.361 -5.579,0 0,-7.439 20.459,0 0,7.439 -5.579,0 0,22.324 29.625,0 0.134,0 L 0,0 Z m 7.439,31.619 0,-35.34 -13.019,-13.019 -26.048,0 0,-7.446 5.58,0 0,-22.32 -35.34,0 0,22.32 5.58,0 0,46.483 -5.58,0 0,22.349 55.808,0 13.019,-13.027 z"
         style="fill:#ff7400;fill-opacity:1;fill-rule:nonzero;stroke:none"
         id="path114"
         inkscape:connector-curvature="0" /></g><g
       id="g116"
       transform="translate(431.332,765.2637)"><path
         d="m 0,0 0,13.02 -1.853,1.861 -13.027,0 0,-16.74 13.027,0 L 0,0 Z m 7.447,16.74 0,-20.461 -5.587,-5.578 -24.179,0 0,31.619 24.187,0 5.579,-5.58 z"
         style="fill:#ff7400;fill-opacity:1;fill-rule:nonzero;stroke:none"
         id="path118"
         inkscape:connector-curvature="0" /></g><g
       id="g120"><g
         id="g122"
         clip-path="url(#clipPath124)"><g
           id="g128"><g
             id="g130" /><g
             id="g136"><g
               clip-path="url(#clipPath132)"
               id="g138"
               style="opacity:0.14999402"><g
                 transform="translate(1260.6196,782.0078)"
                 id="g140"><path
                   d="m 0,0 0,-4.979 -3.725,0 0,-39.667 -6.2,-6.202 -0.095,0 -18.41,0 -0.094,0 -6.201,6.202 0,39.667 -3.719,0 0,4.979 12.399,0 0,-4.965 -2.479,0 0,-37.197 3.719,-3.725 11.16,0 3.72,3.719 0,37.203 -2.479,0 0,4.965 L 0,0 Z"
                   style="fill:#ffbe00;fill-opacity:1;fill-rule:nonzero;stroke:none"
                   id="path142"
                   inkscape:connector-curvature="0" /></g></g></g></g><g
           id="g144"><g
             id="g146" /><g
             id="g152"><g
               clip-path="url(#clipPath148)"
               id="g154"
               style="opacity:0.14999402"><g
                 transform="translate(1202.3296,759.6836)"
                 id="g156"><path
                   d="m 0,0 0,13.641 -3.72,3.718 -16.12,0 0,-21.08 16.12,0 L 0,0 Z m 6.2,16.119 0,-18.599 -6.2,-6.2 -0.095,0 -19.745,0 0,-14.883 3.721,0 0,-4.96 -13.646,0 0,4.96 3.72,0 0,40.909 -3.72,0 0,4.978 29.765,0 6.2,-6.205 z"
                   style="fill:#00c8b5;fill-opacity:1;fill-rule:nonzero;stroke:none"
                   id="path158"
                   inkscape:connector-curvature="0" /></g></g></g></g><g
           id="g160"><g
             id="g162" /><g
             id="g168"><g
               clip-path="url(#clipPath164)"
               id="g170"
               style="opacity:0.14999402"><g
                 transform="translate(1157.6851,736.1211)"
                 id="g172"><path
                   d="m 0,0 0,-4.961 -33.485,0 0,7.445 27.285,27.282 0,7.437 -3.72,3.719 -13.645,0 -3.72,-3.719 0,-4.961 -6.2,0 0,7.44 6.2,6.205 21.085,0 L 0,39.682 0,27.285 -27.285,0 0,0 Z"
                   style="fill:#aad700;fill-opacity:1;fill-rule:nonzero;stroke:none"
                   id="path174"
                   inkscape:connector-curvature="0" /></g></g></g></g><g
           id="g176"><g
             id="g178" /><g
             id="g184"><g
               clip-path="url(#clipPath180)"
               id="g186"
               style="opacity:0.14999402"><g
                 transform="translate(1104.3599,759.6836)"
                 id="g188"><path
                   d="m 0,0 0,13.641 -3.72,3.718 -16.125,0 0,-21.08 16.12,0 L 0,0 Z m 6.2,16.119 0,-18.599 -6.205,-6.2 -0.09,0 -19.75,0 0,-14.883 3.72,0 0,-4.96 -13.64,0 0,4.96 3.72,0 0,40.909 -3.72,0 0,4.978 29.76,0 6.205,-6.205 z"
                   style="fill:#ff7400;fill-opacity:1;fill-rule:nonzero;stroke:none"
                   id="path190"
                   inkscape:connector-curvature="0" /></g></g></g></g></g></g><g
       id="g192"
       transform="translate(1260.6196,777.0293)"><path
         d="m 0,0 0,4.979 -12.404,0 0,-4.965 2.479,0 0,-37.203 -3.72,-3.719 -11.16,0 -3.719,3.724 0,37.198 2.479,0 0,4.965 -12.399,0 0,-4.979 3.719,0 0,-39.668 6.201,-6.201 0.094,0 18.41,0 0.095,0 6.2,6.201 L -3.725,0 0,0 Z m 4.96,9.939 0,-14.9 -3.72,0 0,-37.187 -8.684,-8.68 -23.561,0 -8.68,8.68 0,37.187 -3.719,0 0,14.9 0.304,0 22.015,0 0,-13.644 -2.479,0 0,-31.004 1.24,-1.234 0,-0.006 6.199,0 0,0.006 1.24,1.234 0,31.004 -2.479,0 0,13.644 22.324,0 z"
         style="fill:#ffbe00;fill-opacity:1;fill-rule:nonzero;stroke:none"
         id="path194"
         inkscape:connector-curvature="0" /></g><g
       id="g196"
       transform="translate(1208.5298,757.2031)"><path
         d="m 0,0 0,18.6 -6.2,6.205 -29.765,0 0,-4.979 3.72,0 0,-40.908 -3.72,0 0,-4.961 13.646,0 0,4.961 -3.721,0 0,14.883 19.745,0 0.095,0 L 0,0 Z m 4.96,19.84 0,-22.32 -8.68,-8.68 -17.36,0 0,-4.963 3.721,0 0,-14.879 -23.566,0 0,14.879 3.72,0 0,30.988 -3.72,0 0,14.901 37.205,0 8.68,-8.686 0,-1.234 0,-0.006 z"
         style="fill:#00c8b5;fill-opacity:1;fill-rule:nonzero;stroke:none"
         id="path198"
         inkscape:connector-curvature="0" /></g><g
       id="g200"
       transform="translate(1197.3696,762.1641)"><path
         d="m 0,0 0,8.68 -1.239,1.24 -8.681,0 0,-11.16 8.681,0 L 0,0 Z m 4.96,11.16 0,-13.64 -3.72,-3.721 -16.12,0 0,21.08 16.12,0 3.72,-3.719 z"
         style="fill:#00c8b5;fill-opacity:1;fill-rule:nonzero;stroke:none"
         id="path202"
         inkscape:connector-curvature="0" /></g><g
       id="g204"
       transform="translate(1157.6851,731.1602)"><path
         d="m 0,0 0,4.961 -27.285,0 L 0,32.246 l 0,12.397 -6.2,6.205 -21.085,0 -6.2,-6.205 0,-7.44 6.2,0 0,4.961 3.72,3.719 13.645,0 3.72,-3.719 0,-7.437 L -33.485,7.445 -33.485,0 0,0 Z m 4.96,9.92 0,-14.879 -43.405,0 0,14.879 27.285,27.107 0,2.657 -1.24,1.24 -8.685,0 -1.24,-1.24 0,-7.44 -16.12,0 0,14.879 8.68,8.686 26.045,0 8.68,-8.686 0,-17.357 -19.845,-19.846 19.845,0 z"
         style="fill:#aad700;fill-opacity:1;fill-rule:nonzero;stroke:none"
         id="path206"
         inkscape:connector-curvature="0" /></g><g
       id="g208"
       transform="translate(1110.5601,757.2031)"><path
         d="m 0,0 0,18.6 -6.205,6.205 -29.76,0 0,-4.979 3.72,0 0,-40.908 -3.72,0 0,-4.961 13.64,0 0,4.961 -3.72,0 0,14.883 19.75,0 0.09,0 L 0,0 Z m 4.96,21.08 0,-23.56 -8.68,-8.68 -17.365,0 0,-4.963 3.72,0 0,-14.879 -23.56,0 0,14.879 3.72,0 0,30.988 -3.72,0 0,14.901 37.205,0 8.68,-8.686 z"
         style="fill:#ff7400;fill-opacity:1;fill-rule:nonzero;stroke:none"
         id="path210"
         inkscape:connector-curvature="0" /></g><g
       id="g212"
       transform="translate(1099.395,762.1641)"><path
         d="m 0,0 0,8.68 -1.235,1.24 -8.685,0 0,-11.16 8.685,0 L 0,0 Z m 4.965,11.16 0,-13.64 -3.725,-3.721 -16.12,0 0,21.08 16.125,0 3.72,-3.719 z"
         style="fill:#ff7400;fill-opacity:1;fill-rule:nonzero;stroke:none"
         id="path214"
         inkscape:connector-curvature="0" /></g><g
       id="g216"><g
         id="g218"
         clip-path="url(#clipPath220)"><g
           id="g224"><g
             id="g226" /><g
             id="g232"><g
               clip-path="url(#clipPath228)"
               id="g234"
               style="opacity:0.14999402"><g
                 transform="translate(1846.3579,768.9883)"
                 id="g236"><path
                   d="m 0,0 0,-2.488 -1.862,0 0,-19.834 -3.1,-3.102 -0.048,0 -9.205,0 -0.047,0 -3.1,3.102 0,19.834 -1.86,0 0,2.488 6.2,0 0,-2.482 -1.24,0 0,-18.598 1.86,-1.863 5.58,0 1.86,1.859 0,18.602 -1.24,0 0,2.482 L 0,0 Z"
                   style="fill:#ffbe00;fill-opacity:1;fill-rule:nonzero;stroke:none"
                   id="path238"
                   inkscape:connector-curvature="0" /></g></g></g></g><g
           id="g240"><g
             id="g242" /><g
             id="g248"><g
               clip-path="url(#clipPath244)"
               id="g250"
               style="opacity:0.14999402"><g
                 transform="translate(1817.2129,757.8262)"
                 id="g252"><path
                   d="m 0,0 0,6.82 -1.86,1.86 -8.06,0 0,-10.539 8.06,0 L 0,0 Z m 3.1,8.061 0,-9.301 -3.1,-3.1 -0.047,0 -9.873,0 0,-7.441 1.86,0 0,-2.481 -6.822,0 0,2.481 1.86,0 0,20.455 -1.86,0 0,2.488 14.882,0 3.1,-3.101 z"
                   style="fill:#00c8b5;fill-opacity:1;fill-rule:nonzero;stroke:none"
                   id="path254"
                   inkscape:connector-curvature="0" /></g></g></g></g><g
           id="g256"><g
             id="g258" /><g
             id="g264"><g
               clip-path="url(#clipPath260)"
               id="g266"
               style="opacity:0.14999402"><g
                 transform="translate(1794.8906,746.0449)"
                 id="g268"><path
                   d="m 0,0 0,-2.48 -16.743,0 0,3.722 13.643,13.641 0,3.719 -1.86,1.859 -6.823,0 -1.86,-1.859 0,-2.481 -3.1,0 0,3.721 3.1,3.101 10.543,0 L 0,19.842 0,13.643 -13.643,0 0,0 Z"
                   style="fill:#aad700;fill-opacity:1;fill-rule:nonzero;stroke:none"
                   id="path270"
                   inkscape:connector-curvature="0" /></g></g></g></g><g
           id="g272"><g
             id="g274" /><g
             id="g280"><g
               clip-path="url(#clipPath276)"
               id="g282"
               style="opacity:0.14999402"><g
                 transform="translate(1768.228,757.8262)"
                 id="g284"><path
                   d="m 0,0 0,6.82 -1.86,1.86 -8.062,0 0,-10.539 8.06,0 L 0,0 Z m 3.1,8.061 0,-9.301 -3.102,-3.1 -0.045,0 -9.875,0 0,-7.441 1.859,0 0,-2.481 -6.819,0 0,2.481 1.86,0 0,20.455 -1.86,0 0,2.488 14.88,0 L 3.1,8.061 Z"
                   style="fill:#ff7400;fill-opacity:1;fill-rule:nonzero;stroke:none"
                   id="path286"
                   inkscape:connector-curvature="0" /></g></g></g></g></g></g><g
       id="g288"
       transform="translate(1846.3579,766.5)"><path
         d="m 0,0 0,2.488 -6.202,0 0,-2.482 1.24,0 0,-18.602 -1.86,-1.859 -5.58,0 -1.86,1.863 0,18.598 1.24,0 0,2.482 -6.2,0 0,-2.488 1.86,0 0,-19.834 3.1,-3.102 0.047,0 9.205,0 0.048,0 3.1,3.102 L -1.862,0 0,0 Z m 2.48,4.969 0,-7.449 -1.86,0 0,-18.594 -4.342,-4.34 -11.78,0 -4.34,4.34 0,18.594 -1.86,0 0,7.449 0.152,0 11.008,0 0,-6.823 -1.24,0 0,-15.501 0.62,-0.618 0,-0.002 3.099,0 0,0.002 0.621,0.618 0,15.501 -1.24,0 0,6.823 11.162,0 z"
         style="fill:#ffbe00;fill-opacity:1;fill-rule:nonzero;stroke:none"
         id="path290"
         inkscape:connector-curvature="0" /></g><g
       id="g292"
       transform="translate(1820.313,756.5859)"><path
         d="m 0,0 0,9.301 -3.1,3.101 -14.882,0 0,-2.488 1.859,0 0,-20.455 -1.859,0 0,-2.48 6.822,0 0,2.48 -1.86,0 0,7.441 9.873,0 0.047,0 L 0,0 Z m 2.48,9.92 0,-11.16 -4.34,-4.34 -8.68,0 0,-2.481 1.86,0 0,-7.439 -11.782,0 0,7.439 1.859,0 0,15.495 -1.859,0 0,7.449 18.602,0 4.34,-4.342 0,-0.617 0,-0.004 z"
         style="fill:#00c8b5;fill-opacity:1;fill-rule:nonzero;stroke:none"
         id="path294"
         inkscape:connector-curvature="0" /></g><g
       id="g296"
       transform="translate(1814.7329,759.0664)"><path
         d="m 0,0 0,4.34 -0.62,0.621 -4.34,0 0,-5.58 4.34,0 L 0,0 Z m 2.48,5.58 0,-6.82 -1.86,-1.86 -8.06,0 0,10.539 8.06,0 1.86,-1.859 z"
         style="fill:#00c8b5;fill-opacity:1;fill-rule:nonzero;stroke:none"
         id="path298"
         inkscape:connector-curvature="0" /></g><g
       id="g300"
       transform="translate(1794.8906,743.5645)"><path
         d="m 0,0 0,2.48 -13.643,0 L 0,16.123 l 0,6.199 -3.1,3.102 -10.543,0 -3.1,-3.102 0,-3.72 3.1,0 0,2.48 1.86,1.859 6.823,0 1.86,-1.859 0,-3.719 L -16.743,3.723 -16.743,0 0,0 Z m 2.48,4.961 0,-7.44 -21.703,0 0,7.44 13.643,13.553 0,1.328 -0.62,0.621 -4.342,0 -0.621,-0.621 0,-3.719 -8.06,0 0,7.44 4.341,4.341 13.022,0 4.34,-4.341 0,-8.68 -9.922,-9.922 9.922,0 z"
         style="fill:#aad700;fill-opacity:1;fill-rule:nonzero;stroke:none"
         id="path302"
         inkscape:connector-curvature="0" /></g><g
       id="g304"
       transform="translate(1771.3281,756.5859)"><path
         d="m 0,0 0,9.301 -3.103,3.101 -14.879,0 0,-2.488 1.859,0 0,-20.455 -1.859,0 0,-2.48 6.819,0 0,2.48 -1.859,0 0,7.441 9.875,0 0.044,0 L 0,0 Z m 2.48,10.541 0,-11.781 -4.34,-4.34 -8.682,0 0,-2.481 1.859,0 0,-7.439 -11.779,0 0,7.439 1.859,0 0,15.495 -1.859,0 0,7.449 18.602,0 4.34,-4.342 z"
         style="fill:#ff7400;fill-opacity:1;fill-rule:nonzero;stroke:none"
         id="path306"
         inkscape:connector-curvature="0" /></g><g
       id="g308"
       transform="translate(1765.7456,759.0664)"><path
         d="m 0,0 0,4.34 -0.618,0.621 -4.342,0 0,-5.58 4.342,0 L 0,0 Z m 2.482,5.58 0,-6.82 -1.862,-1.86 -8.06,0 0,10.539 8.063,0 1.859,-1.859 z"
         style="fill:#ff7400;fill-opacity:1;fill-rule:nonzero;stroke:none"
         id="path310"
         inkscape:connector-curvature="0" /></g><g
       id="g312"
       transform="translate(386.6922,287.8461)"><path
         d="M 0,0 35.346,0 0,0 Z"
         style="fill:#ff7400;fill-opacity:1;fill-rule:nonzero;stroke:none"
         id="path314"
         inkscape:connector-curvature="0" /></g><g
       id="g316"><g
         id="g318"
         clip-path="url(#clipPath320)"><g
           id="g324"><g
             id="g326" /><g
             id="g332"><g
               clip-path="url(#clipPath328)"
               id="g334"
               style="opacity:0.14999402"><g
                 transform="translate(438.7793,338.0703)"
                 id="g336"><path
                   d="m 0,0 0,20.461 -5.58,5.578 -24.187,0 0,-31.619 24.18,0 L 0,0 Z m 9.3,24.18 0,-27.901 -9.307,-9.299 -0.135,0 -29.625,0 0,-22.324 5.579,0 0,-7.441 -20.459,0 0,7.441 5.58,0 0,61.362 -5.58,0 0,7.468 44.64,0 L 9.3,24.18 Z"
                   style="fill:#ff7400;fill-opacity:1;fill-rule:nonzero;stroke:none"
                   id="path338"
                   inkscape:connector-curvature="0" /></g></g></g></g></g></g><g
       id="g340"
       transform="translate(448.0796,334.3496)"><path
         d="m 0,0 0,27.9 -9.308,9.307 -44.639,0 0,-7.469 5.579,0 0,-61.361 -5.579,0 0,-7.441 20.459,0 0,7.441 -5.579,0 0,22.324 29.625,0 0.134,0 L 0,0 Z m 7.44,31.621 0,-35.342 -13.02,-13.019 -26.047,0 0,-7.444 5.579,0 0,-22.32 -35.339,0 0,22.32 5.579,0 0,46.483 -5.579,0 0,22.349 55.807,0 13.02,-13.027 z"
         style="fill:#ff7400;fill-opacity:1;fill-rule:nonzero;stroke:none"
         id="path342"
         inkscape:connector-curvature="0" /></g><g
       id="g344"
       transform="translate(431.332,341.791)"><path
         d="m 0,0 0,13.02 -1.853,1.859 -13.027,0 0,-16.74 13.027,0 L 0,0 Z m 7.447,16.74 0,-20.461 -5.587,-5.58 -24.18,0 0,31.619 24.188,0 5.579,-5.578 z"
         style="fill:#ff7400;fill-opacity:1;fill-rule:nonzero;stroke:none"
         id="path346"
         inkscape:connector-curvature="0" /></g><g
       id="g348"><g
         id="g350"
         clip-path="url(#clipPath352)"><g
           id="g356"><g
             id="g358" /><g
             id="g364"><g
               clip-path="url(#clipPath360)"
               id="g366"
               style="opacity:0.14999402"><g
                 transform="translate(520.6299,302.7266)"
                 id="g368"><path
                   d="m 0,0 0,-7.441 -50.228,0 0,11.168 40.928,40.919 0,11.161 -5.58,5.58 -20.468,0 -5.58,-5.58 0,-7.44 -9.3,0 0,11.158 9.3,9.309 31.628,0 L 0,59.525 0,40.926 -40.928,0 0,0 Z"
                   style="fill:#aad700;fill-opacity:1;fill-rule:nonzero;stroke:none"
                   id="path370"
                   inkscape:connector-curvature="0" /></g></g></g></g></g></g><g
       id="g372"
       transform="translate(520.6299,295.2852)"><path
         d="m 0,0 0,7.441 -40.928,0 L 0,48.367 l 0,18.6 -9.3,9.308 -31.628,0 -9.3,-9.308 0,-11.158 9.3,0 0,7.439 5.58,5.58 20.468,0 5.58,-5.58 0,-11.16 L -50.228,11.168 -50.228,0 0,0 Z m 7.44,14.881 0,-22.32 -65.108,0 0,22.32 40.928,40.928 0,3.718 -1.861,1.862 -13.026,0 -1.861,-1.862 0,-11.158 -24.18,0 0,22.319 13.021,13.027 39.067,0 13.02,-13.027 0,-26.04 -29.767,-29.767 29.767,0 z"
         style="fill:#aad700;fill-opacity:1;fill-rule:nonzero;stroke:none"
         id="path374"
         inkscape:connector-curvature="0" /></g><g
       id="g376"><g
         id="g378"
         clip-path="url(#clipPath380)"><g
           id="g384"><g
             id="g386" /><g
             id="g392"><g
               clip-path="url(#clipPath388)"
               id="g394"
               style="opacity:0.14999402"><g
                 transform="translate(528.0684,272.9648)"
                 id="g396"><path
                   d="m 0,0 0,-7.469 -5.587,0 0,-59.502 -9.3,-9.3 -0.142,0 -27.616,0 -0.142,0 -9.3,9.3 0,59.502 -5.58,0 0,7.469 18.6,0 0,-7.447 -3.72,0 0,-55.797 5.58,-5.588 16.74,0 5.58,5.58 0,55.805 -3.719,0 0,7.447 L 0,0 Z"
                   style="fill:#ffbe00;fill-opacity:1;fill-rule:nonzero;stroke:none"
                   id="path398"
                   inkscape:connector-curvature="0" /></g></g></g></g></g></g><g
       id="g400"
       transform="translate(528.0684,265.4961)"><path
         d="m 0,0 0,7.469 -18.606,0 0,-7.448 3.719,0 0,-55.804 -5.58,-5.58 -16.74,0 -5.58,5.588 0,55.796 3.72,0 0,7.448 -18.6,0 0,-7.469 5.58,0 0,-59.502 9.3,-9.301 0.142,0 27.616,0 0.142,0 9.3,9.301 L -5.587,0 0,0 Z m 7.44,14.908 0,-22.349 -5.58,0 0,-55.782 -13.027,-13.019 -35.34,0 -13.02,13.019 0,55.782 -5.579,0 0,22.349 0.457,0 33.022,0 0,-20.467 -3.72,0 0,-46.504 1.861,-1.853 0,-0.008 9.298,0 0,0.008 1.861,1.853 0,46.504 -3.719,0 0,20.467 33.486,0 z"
         style="fill:#ffbe00;fill-opacity:1;fill-rule:nonzero;stroke:none"
         id="path402"
         inkscape:connector-curvature="0" /></g><g
       id="g404"><g
         id="g406"
         clip-path="url(#clipPath408)"><g
           id="g412"><g
             id="g414" /><g
             id="g420"><g
               clip-path="url(#clipPath416)"
               id="g422"
               style="opacity:0.14999402"><g
                 transform="translate(438.7813,239.4766)"
                 id="g424"><path
                   d="m 0,0 0,20.461 -5.58,5.58 -24.18,0 0,-31.621 24.18,0 L 0,0 Z m 9.3,24.18 0,-27.899 -9.3,-9.301 -0.143,0 -29.617,0 0,-22.324 5.581,0 0,-7.439 -20.468,0 0,7.439 5.58,0 0,61.364 -5.58,0 0,7.468 44.647,0 9.3,-9.308 z"
                   style="fill:#00c8b5;fill-opacity:1;fill-rule:nonzero;stroke:none"
                   id="path426"
                   inkscape:connector-curvature="0" /></g></g></g></g></g></g><g
       id="g428"
       transform="translate(448.0811,235.7578)"><path
         d="m 0,0 0,27.898 -9.3,9.309 -44.647,0 0,-7.469 5.58,0 0,-61.363 -5.58,0 0,-7.439 20.468,0 0,7.439 -5.581,0 0,22.324 29.618,0 0.142,0 L 0,0 Z m 7.44,-3.721 -13.019,-13.019 -26.041,0 0,-7.446 5.581,0 0,-22.318 -35.348,0 0,22.318 5.579,0 0,46.483 -5.579,0 0,22.349 55.808,0 13.019,-13.027 0,-35.34 z"
         style="fill:#00c8b5;fill-opacity:1;fill-rule:nonzero;stroke:none"
         id="path430"
         inkscape:connector-curvature="0" /></g><g
       id="g432"
       transform="translate(431.3408,243.1973)"><path
         d="m 0,0 0,13.02 -1.858,1.861 -13.022,0 0,-16.74 13.022,0 L 0,0 Z m 7.44,16.74 0,-20.461 -5.58,-5.58 -24.179,0 0,31.621 24.179,0 5.58,-5.58 z"
         style="fill:#00c8b5;fill-opacity:1;fill-rule:nonzero;stroke:none"
         id="path434"
         inkscape:connector-curvature="0" /></g><g
       id="g436"
       transform="translate(1069.6356,254.9826)"><path
         d="M 0,0 23.563,0 0,0 Z"
         style="fill:#ff7400;fill-opacity:1;fill-rule:nonzero;stroke:none"
         id="path438"
         inkscape:connector-curvature="0" /></g><g
       id="g440"><g
         id="g442"
         clip-path="url(#clipPath444)"><g
           id="g448"><g
             id="g450" /><g
             id="g456"><g
               clip-path="url(#clipPath452)"
               id="g458"
               style="opacity:0.14999402"><g
                 transform="translate(1104.3599,288.4648)"
                 id="g460"><path
                   d="m 0,0 0,13.641 -3.72,3.718 -16.125,0 0,-21.08 16.12,0 L 0,0 Z m 6.2,16.119 0,-18.599 -6.205,-6.2 -0.09,0 -19.75,0 0,-14.883 3.72,0 0,-4.96 -13.64,0 0,4.96 3.72,0 0,40.909 -3.72,0 0,4.978 29.76,0 6.205,-6.205 z"
                   style="fill:#ff7400;fill-opacity:1;fill-rule:nonzero;stroke:none"
                   id="path462"
                   inkscape:connector-curvature="0" /></g></g></g></g></g></g><g
       id="g464"
       transform="translate(1110.5601,285.9844)"><path
         d="m 0,0 0,18.6 -6.205,6.205 -29.76,0 0,-4.979 3.72,0 0,-40.908 -3.72,0 0,-4.961 13.64,0 0,4.961 -3.72,0 0,14.883 19.75,0 0.09,0 L 0,0 Z m 4.96,21.08 0,-23.56 -8.68,-8.68 -17.365,0 0,-4.963 3.72,0 0,-14.879 -23.56,0 0,14.879 3.72,0 0,30.988 -3.72,0 0,14.901 37.205,0 8.68,-8.686 z"
         style="fill:#ff7400;fill-opacity:1;fill-rule:nonzero;stroke:none"
         id="path466"
         inkscape:connector-curvature="0" /></g><g
       id="g468"
       transform="translate(1099.395,290.9453)"><path
         d="m 0,0 0,8.68 -1.235,1.24 -8.685,0 0,-11.16 8.685,0 L 0,0 Z m 4.965,11.16 0,-13.64 -3.725,-3.721 -16.12,0 0,21.08 16.125,0 3.72,-3.719 z"
         style="fill:#ff7400;fill-opacity:1;fill-rule:nonzero;stroke:none"
         id="path470"
         inkscape:connector-curvature="0" /></g><g
       id="g472"><g
         id="g474"
         clip-path="url(#clipPath476)"><g
           id="g480"><g
             id="g482" /><g
             id="g488"><g
               clip-path="url(#clipPath484)"
               id="g490"
               style="opacity:0.14999402"><g
                 transform="translate(1158.9272,264.9023)"
                 id="g492"><path
                   d="m 0,0 0,-4.961 -33.485,0 0,7.445 27.285,27.282 0,7.439 -3.72,3.719 -13.645,0 -3.72,-3.719 0,-4.959 -6.2,0 0,7.438 6.2,6.205 21.085,0 L 0,39.684 0,27.285 -27.285,0 0,0 Z"
                   style="fill:#aad700;fill-opacity:1;fill-rule:nonzero;stroke:none"
                   id="path494"
                   inkscape:connector-curvature="0" /></g></g></g></g></g></g><g
       id="g496"
       transform="translate(1158.9272,259.9414)"><path
         d="m 0,0 0,4.961 -27.285,0 L 0,32.246 l 0,12.399 -6.2,6.205 -21.085,0 -6.2,-6.205 0,-7.438 6.2,0 0,4.959 3.72,3.719 13.645,0 3.72,-3.719 0,-7.439 L -33.485,7.445 -33.485,0 0,0 Z m 4.96,9.92 0,-14.879 -43.405,0 0,14.879 27.285,27.285 0,2.481 -1.24,1.24 -8.685,0 -1.24,-1.24 0,-7.44 -16.12,0 0,14.879 8.68,8.686 26.045,0 8.68,-8.686 0,-17.359 -19.845,-19.846 19.845,0 z"
         style="fill:#aad700;fill-opacity:1;fill-rule:nonzero;stroke:none"
         id="path498"
         inkscape:connector-curvature="0" /></g><g
       id="g500"><g
         id="g502"
         clip-path="url(#clipPath504)"><g
           id="g508"><g
             id="g510" /><g
             id="g516"><g
               clip-path="url(#clipPath512)"
               id="g518"
               style="opacity:0.14999402"><g
                 transform="translate(1163.8862,245.0605)"
                 id="g520"><path
                   d="m 0,0 0,-4.979 -3.725,0 0,-39.667 -6.2,-6.202 -0.095,0 -18.41,0 -0.094,0 -6.201,6.202 0,39.667 -3.719,0 0,4.979 12.399,0 0,-4.965 -2.479,0 0,-37.197 3.719,-3.725 11.16,0 3.72,3.719 0,37.203 -2.479,0 0,4.965 L 0,0 Z"
                   style="fill:#ffbe00;fill-opacity:1;fill-rule:nonzero;stroke:none"
                   id="path522"
                   inkscape:connector-curvature="0" /></g></g></g></g></g></g><g
       id="g524"
       transform="translate(1163.8862,240.082)"><path
         d="m 0,0 0,4.979 -12.404,0 0,-4.965 2.479,0 0,-37.203 -3.72,-3.719 -11.16,0 -3.719,3.724 0,37.198 2.479,0 0,4.965 -12.399,0 0,-4.979 3.719,0 0,-39.668 6.201,-6.201 0.094,0 18.41,0 0.095,0 6.2,6.201 L -3.725,0 0,0 Z m 4.96,9.939 0,-14.9 -3.72,0 0,-37.187 -8.684,-8.68 -23.561,0 -8.68,8.68 0,37.187 -3.719,0 0,14.9 0.304,0 22.015,0 0,-13.644 -2.479,0 0,-31.004 1.24,-1.234 0,-0.006 6.199,0 0,0.006 1.24,1.234 0,31.004 -2.479,0 0,13.644 22.324,0 z"
         style="fill:#ffbe00;fill-opacity:1;fill-rule:nonzero;stroke:none"
         id="path526"
         inkscape:connector-curvature="0" /></g><g
       id="g528"><g
         id="g530"
         clip-path="url(#clipPath532)"><g
           id="g536"><g
             id="g538" /><g
             id="g544"><g
               clip-path="url(#clipPath540)"
               id="g546"
               style="opacity:0.14999402"><g
                 transform="translate(1104.3613,222.7363)"
                 id="g548"><path
                   d="m 0,0 0,13.641 -3.72,3.718 -16.12,0 0,-21.08 16.12,0 L 0,0 Z m 6.2,16.119 0,-18.599 -6.2,-6.2 -0.095,0 -19.745,0 0,-14.883 3.721,0 0,-4.96 -13.646,0 0,4.96 3.72,0 0,40.909 -3.72,0 0,4.978 29.765,0 6.2,-6.205 z"
                   style="fill:#00c8b5;fill-opacity:1;fill-rule:nonzero;stroke:none"
                   id="path550"
                   inkscape:connector-curvature="0" /></g></g></g></g></g></g><g
       id="g552"
       transform="translate(1110.5615,220.2559)"><path
         d="m 0,0 0,18.6 -6.2,6.205 -29.765,0 0,-4.979 3.72,0 0,-40.908 -3.72,0 0,-4.961 13.646,0 0,4.961 -3.721,0 0,14.883 19.745,0 0.095,0 L 0,0 Z m 4.96,-2.48 -8.68,-8.68 -17.36,0 0,-4.963 3.721,0 0,-14.879 -23.566,0 0,14.879 3.72,0 0,30.988 -3.72,0 0,14.901 37.205,0 8.68,-8.686 0,-23.56 z"
         style="fill:#00c8b5;fill-opacity:1;fill-rule:nonzero;stroke:none"
         id="path554"
         inkscape:connector-curvature="0" /></g><g
       id="g556"
       transform="translate(1099.4014,225.2168)"><path
         d="m 0,0 0,8.68 -1.239,1.24 -8.681,0 0,-11.16 8.681,0 L 0,0 Z m 4.96,11.16 0,-13.64 -3.72,-3.721 -16.12,0 0,21.08 16.12,0 3.72,-3.719 z"
         style="fill:#00c8b5;fill-opacity:1;fill-rule:nonzero;stroke:none"
         id="path558"
         inkscape:connector-curvature="0" /></g><g
       id="g560"
       transform="translate(1750.8654,222.1173)"><path
         d="M 0,0 11.782,0 0,0 Z"
         style="fill:#ff7400;fill-opacity:1;fill-rule:nonzero;stroke:none"
         id="path562"
         inkscape:connector-curvature="0" /></g><g
       id="g564"><g
         id="g566"
         clip-path="url(#clipPath568)"><g
           id="g572"><g
             id="g574" /><g
             id="g580"><g
               clip-path="url(#clipPath576)"
               id="g582"
               style="opacity:0.14999402"><g
                 transform="translate(1768.2275,238.8594)"
                 id="g584"><path
                   d="m 0,0 0,6.82 -1.86,1.86 -8.062,0 0,-10.541 8.06,0 L 0,0 Z m 3.1,8.059 0,-9.299 -3.102,-3.1 -0.045,0 -9.875,0 0,-7.441 1.859,0 0,-2.481 -6.819,0 0,2.481 1.86,0 0,20.453 -1.86,0 0,2.49 14.88,0 L 3.1,8.059 Z"
                   style="fill:#ff7400;fill-opacity:1;fill-rule:nonzero;stroke:none"
                   id="path586"
                   inkscape:connector-curvature="0" /></g></g></g></g></g></g><g
       id="g588"
       transform="translate(1771.3276,237.6191)"><path
         d="m 0,0 0,9.299 -3.103,3.103 -14.879,0 0,-2.49 1.859,0 0,-20.453 -1.859,0 0,-2.48 6.819,0 0,2.48 -1.859,0 0,7.441 9.875,0 0.044,0 L 0,0 Z m 2.48,10.539 0,-11.779 -4.34,-4.34 -8.682,0 0,-2.483 1.859,0 0,-7.439 -11.779,0 0,7.439 1.859,0 0,15.495 -1.859,0 0,7.451 18.602,0 4.34,-4.344 z"
         style="fill:#ff7400;fill-opacity:1;fill-rule:nonzero;stroke:none"
         id="path590"
         inkscape:connector-curvature="0" /></g><g
       id="g592"
       transform="translate(1765.7451,240.0996)"><path
         d="m 0,0 0,4.34 -0.618,0.619 -4.342,0 0,-5.58 4.342,0 L 0,0 Z m 2.482,5.58 0,-6.82 -1.862,-1.862 -8.06,0 0,10.541 8.063,0 1.859,-1.859 z"
         style="fill:#ff7400;fill-opacity:1;fill-rule:nonzero;stroke:none"
         id="path594"
         inkscape:connector-curvature="0" /></g><g
       id="g596"><g
         id="g598"
         clip-path="url(#clipPath600)"><g
           id="g604"><g
             id="g606" /><g
             id="g612"><g
               clip-path="url(#clipPath608)"
               id="g614"
               style="opacity:0.14999402"><g
                 transform="translate(1795.5112,227.0781)"
                 id="g616"><path
                   d="m 0,0 0,-2.48 -16.743,0 0,3.722 13.643,13.641 0,3.719 -1.86,1.859 -6.823,0 -1.86,-1.859 0,-2.479 -3.1,0 0,3.719 3.1,3.101 10.543,0 L 0,19.842 0,13.643 -13.643,0 0,0 Z"
                   style="fill:#aad700;fill-opacity:1;fill-rule:nonzero;stroke:none"
                   id="path618"
                   inkscape:connector-curvature="0" /></g></g></g></g></g></g><g
       id="g620"
       transform="translate(1795.5112,224.5977)"><path
         d="m 0,0 0,2.48 -13.643,0 L 0,16.123 l 0,6.199 -3.1,3.102 -10.543,0 -3.1,-3.102 0,-3.718 3.1,0 0,2.478 1.86,1.859 6.823,0 1.86,-1.859 0,-3.719 L -16.743,3.723 -16.743,0 0,0 Z m 2.48,4.959 0,-7.439 -21.703,0 0,7.439 13.643,13.643 0,1.24 -0.62,0.621 -4.342,0 -0.621,-0.621 0,-3.719 -8.06,0 0,7.44 4.341,4.341 13.022,0 4.34,-4.341 0,-8.68 -9.922,-9.924 9.922,0 z"
         style="fill:#aad700;fill-opacity:1;fill-rule:nonzero;stroke:none"
         id="path622"
         inkscape:connector-curvature="0" /></g><g
       id="g624"><g
         id="g626"
         clip-path="url(#clipPath628)"><g
           id="g632"><g
             id="g634" /><g
             id="g640"><g
               clip-path="url(#clipPath636)"
               id="g642"
               style="opacity:0.14999402"><g
                 transform="translate(1797.9907,217.1563)"
                 id="g644"><path
                   d="m 0,0 0,-2.488 -1.862,0 0,-19.834 -3.1,-3.102 -0.048,0 -9.205,0 -0.047,0 -3.1,3.102 0,19.834 -1.86,0 0,2.488 6.2,0 0,-2.482 -1.24,0 0,-18.598 1.86,-1.863 5.58,0 1.86,1.859 0,18.602 -1.24,0 0,2.482 L 0,0 Z"
                   style="fill:#ffbe00;fill-opacity:1;fill-rule:nonzero;stroke:none"
                   id="path646"
                   inkscape:connector-curvature="0" /></g></g></g></g></g></g><g
       id="g648"
       transform="translate(1797.9907,214.668)"><path
         d="m 0,0 0,2.488 -6.202,0 0,-2.482 1.24,0 0,-18.602 -1.86,-1.859 -5.58,0 -1.86,1.863 0,18.598 1.24,0 0,2.482 -6.2,0 0,-2.488 1.86,0 0,-19.834 3.1,-3.102 0.047,0 9.205,0 0.048,0 3.1,3.102 L -1.862,0 0,0 Z m 2.48,4.969 0,-7.449 -1.86,0 0,-18.594 -4.342,-4.34 -11.78,0 -4.34,4.34 0,18.594 -1.86,0 0,7.449 0.152,0 11.008,0 0,-6.823 -1.24,0 0,-15.501 0.62,-0.618 0,-0.002 3.099,0 0,0.002 0.621,0.618 0,15.501 -1.24,0 0,6.823 11.162,0 z"
         style="fill:#ffbe00;fill-opacity:1;fill-rule:nonzero;stroke:none"
         id="path650"
         inkscape:connector-curvature="0" /></g><g
       id="g652"><g
         id="g654"
         clip-path="url(#clipPath656)"><g
           id="g660"><g
             id="g662" /><g
             id="g668"><g
               clip-path="url(#clipPath664)"
               id="g670"
               style="opacity:0.14999402"><g
                 transform="translate(1768.228,205.9941)"
                 id="g672"><path
                   d="m 0,0 0,6.82 -1.86,1.86 -8.06,0 0,-10.539 8.06,0 L 0,0 Z m 3.1,8.061 0,-9.301 -3.1,-3.1 -0.047,0 -9.873,0 0,-7.441 1.86,0 0,-2.481 -6.822,0 0,2.481 1.86,0 0,20.455 -1.86,0 0,2.488 14.882,0 3.1,-3.101 z"
                   style="fill:#00c8b5;fill-opacity:1;fill-rule:nonzero;stroke:none"
                   id="path674"
                   inkscape:connector-curvature="0" /></g></g></g></g></g></g><g
       id="g676"
       transform="translate(1771.3281,204.7539)"><path
         d="m 0,0 0,9.301 -3.1,3.101 -14.882,0 0,-2.488 1.859,0 0,-20.455 -1.859,0 0,-2.48 6.822,0 0,2.48 -1.86,0 0,7.441 9.873,0 0.047,0 L 0,0 Z m 2.48,-1.24 -4.34,-4.34 -8.68,0 0,-2.481 1.86,0 0,-7.439 -11.782,0 0,7.439 1.859,0 0,15.495 -1.859,0 0,7.449 18.602,0 4.34,-4.342 0,-11.781 z"
         style="fill:#00c8b5;fill-opacity:1;fill-rule:nonzero;stroke:none"
         id="path678"
         inkscape:connector-curvature="0" /></g><g
       id="g680"
       transform="translate(1765.748,207.2344)"><path
         d="m 0,0 0,4.34 -0.62,0.621 -4.34,0 0,-5.58 4.34,0 L 0,0 Z m 2.48,5.58 0,-6.82 -1.86,-1.86 -8.06,0 0,10.539 8.06,0 1.86,-1.859 z"
         style="fill:#00c8b5;fill-opacity:1;fill-rule:nonzero;stroke:none"
         id="path682"
         inkscape:connector-curvature="0" /></g></g></svg>