<?xml version="1.0" encoding="UTF-8" standalone="no"?>
<!-- Created with Inkscape (http://www.inkscape.org/) -->

<svg
   xmlns:dc="http://purl.org/dc/elements/1.1/"
   xmlns:cc="http://creativecommons.org/ns#"
   xmlns:rdf="http://www.w3.org/1999/02/22-rdf-syntax-ns#"
   xmlns:svg="http://www.w3.org/2000/svg"
   xmlns="http://www.w3.org/2000/svg"
   xmlns:sodipodi="http://sodipodi.sourceforge.net/DTD/sodipodi-0.dtd"
   xmlns:inkscape="http://www.inkscape.org/namespaces/inkscape"
   id="svg2"
   version="1.1"
   inkscape:version="0.91 r13725"
   xml:space="preserve"
   width="2753.1499"
   height="1256.775"
   viewBox="0 0 2753.1499 1256.775"
   sodipodi:docname="P2PU Brandbook v2-p07.svg"><metadata
     id="metadata8"><rdf:RDF><cc:Work
         rdf:about=""><dc:format>image/svg+xml</dc:format><dc:type
           rdf:resource="http://purl.org/dc/dcmitype/StillImage" /><dc:title></dc:title></cc:Work></rdf:RDF></metadata><defs
     id="defs6"><clipPath
       clipPathUnits="userSpaceOnUse"
       id="clipPath18"><path
         d="m 0,1005.422 2202.52,0 L 2202.52,0 0,0 0,1005.422 Z"
         id="path20"
         inkscape:connector-curvature="0" /></clipPath><clipPath
       clipPathUnits="userSpaceOnUse"
       id="clipPath34"><path
         d="m 1210.4,553.559 76.88,0 0,-101.698 -76.88,0 0,101.698 z"
         id="path36"
         inkscape:connector-curvature="0" /></clipPath><clipPath
       clipPathUnits="userSpaceOnUse"
       id="clipPath50"><path
         d="m 1111.17,553.559 71.93,0 0,-101.698 -71.93,0 0,101.698 z"
         id="path52"
         inkscape:connector-curvature="0" /></clipPath><clipPath
       clipPathUnits="userSpaceOnUse"
       id="clipPath66"><path
         d="m 1014.44,553.559 66.98,0 0,-101.698 -66.98,0 0,101.698 z"
         id="path68"
         inkscape:connector-curvature="0" /></clipPath><clipPath
       clipPathUnits="userSpaceOnUse"
       id="clipPath82"><path
         d="m 915.235,553.559 71.93,0 0,-101.698 -71.93,0 0,101.698 z"
         id="path84"
         inkscape:connector-curvature="0" /></clipPath></defs><sodipodi:namedview
     pagecolor="#ffffff"
     bordercolor="#666666"
     borderopacity="1"
     objecttolerance="10"
     gridtolerance="10"
     guidetolerance="10"
     inkscape:pageopacity="0"
     inkscape:pageshadow="2"
     inkscape:window-width="640"
     inkscape:window-height="480"
     id="namedview4"
     showgrid="false"
     inkscape:zoom="0.19622836"
     inkscape:cx="1287.3931"
     inkscape:cy="628.38751"
     inkscape:window-x="108"
     inkscape:window-y="24"
     inkscape:window-maximized="0"
     inkscape:current-layer="g10" /><g
     id="g10"
     inkscape:groupmode="layer"
     inkscape:label="P2PU Brandbook v2"
     transform="matrix(1.25,0,0,-1.25,0,1256.775)"><path
       d="m 0,0 2202.52,0 0,1005.422 L 0,1005.422 0,0 Z"
       style="fill:#f3f4f8;fill-opacity:1;fill-rule:nonzero;stroke:none"
       id="path12"
       inkscape:connector-curvature="0" /><g
       id="g14"><g
         id="g16"
         clip-path="url(#clipPath18)"><text
           transform="matrix(1,0,0,-0.99999167,56.0947,925.5663)"
           style="font-variant:normal;font-weight:800;font-stretch:normal;font-size:24px;font-family:'Sense ExtraBold';-inkscape-font-specification:Sense-ExtraBold;writing-mode:lr-tb;fill:#4e5566;fill-opacity:1;fill-rule:nonzero;stroke:none"
           id="text22"><tspan
             x="0 12.24 24.48"
             y="0"
             sodipodi:role="line"
             id="tspan24">05.</tspan></text>
<text
           transform="matrix(1,0,0,-0.99999167,92.6707,925.5663)"
           style="font-variant:normal;font-weight:300;font-stretch:normal;font-size:24px;font-family:'Sense Light';-inkscape-font-specification:Sense-Light;writing-mode:lr-tb;fill:#4e5566;fill-opacity:1;fill-rule:nonzero;stroke:none"
           id="text26"><tspan
             x="0 11.904 25.152 30.431999 43.68 51.287998 57.144001 69.984001 80.952003 91.080002 101.472 114.168 121.776 135.024 147.504 160.17599 172.84801 178.70399 191.088 202.968 210.576 220.224 225.504 238.752"
             y="0"
             sodipodi:role="line"
             id="tspan28">Color Background Version</tspan></text>
<g
           id="g30"><g
             id="g32" /><g
             id="g38"><g
               clip-path="url(#clipPath34)"
               id="g40"
               style="opacity:0.14999402"><g
                 transform="translate(1287.2842,553.5591)"
                 id="g42"><path
                   d="m 0,0 0,-9.961 -7.449,0 0,-79.336 -12.401,-12.4 -0.189,0 -36.82,0 -0.19,0 -12.4,12.4 0,79.336 -7.44,0 0,9.961 24.799,0 0,-9.93 -4.959,0 0,-74.396 7.44,-7.451 22.32,0 7.439,7.439 0,74.408 -4.959,0 0,9.93 L 0,0 Z"
                   style="fill:#ffbe00;fill-opacity:1;fill-rule:nonzero;stroke:none"
                   id="path44"
                   inkscape:connector-curvature="0" /></g></g></g></g><g
           id="g46"><g
             id="g48" /><g
             id="g54"><g
               clip-path="url(#clipPath50)"
               id="g56"
               style="opacity:0.14999402"><g
                 transform="translate(1170.7041,508.9087)"
                 id="g58"><path
                   d="m 0,0 0,27.279 -7.439,7.442 -32.241,0 0,-42.16 32.241,0 L 0,0 Z m 12.4,32.24 0,-37.201 -12.4,-12.398 -0.189,0 -39.491,0 0,-29.768 7.442,0 0,-9.92 -27.291,0 0,9.92 7.439,0 0,81.816 -7.439,0 0,9.961 59.529,0 12.4,-12.41 z"
                   style="fill:#00c8b5;fill-opacity:1;fill-rule:nonzero;stroke:none"
                   id="path60"
                   inkscape:connector-curvature="0" /></g></g></g></g><g
           id="g62"><g
             id="g64" /><g
             id="g70"><g
               clip-path="url(#clipPath66)"
               id="g72"
               style="opacity:0.14999402"><g
                 transform="translate(1081.415,461.7817)"
                 id="g74"><path
                   d="m 0,0 0,-9.92 -66.971,0 0,14.891 54.571,54.56 0,14.875 -7.44,7.442 -27.291,0 -7.439,-7.442 0,-9.92 -12.401,0 0,14.881 12.401,12.41 42.17,0 L 0,79.367 0,54.57 -54.57,0 0,0 Z"
                   style="fill:#aad700;fill-opacity:1;fill-rule:nonzero;stroke:none"
                   id="path76"
                   inkscape:connector-curvature="0" /></g></g></g></g><g
           id="g78"><g
             id="g80" /><g
             id="g86"><g
               clip-path="url(#clipPath82)"
               id="g88"
               style="opacity:0.14999402"><g
                 transform="translate(974.7646,508.9087)"
                 id="g90"><path
                   d="m 0,0 0,27.279 -7.439,7.442 -32.25,0 0,-42.16 32.24,0 L 0,0 Z m 12.4,32.24 0,-37.201 -12.41,-12.398 -0.179,0 -39.5,0 0,-29.768 7.439,0 0,-9.92 -27.279,0 0,9.92 7.439,0 0,81.816 -7.439,0 0,9.961 59.519,0 12.41,-12.41 z"
                   style="fill:#ff7400;fill-opacity:1;fill-rule:nonzero;stroke:none"
                   id="path92"
                   inkscape:connector-curvature="0" /></g></g></g></g></g></g><g
       id="g94"
       transform="translate(1287.2842,543.5981)"><path
         d="m 0,0 0,9.961 -24.809,0 0,-9.93 4.959,0 0,-74.408 -7.439,-7.439 -22.32,0 -7.44,7.451 0,74.396 4.959,0 0,9.93 -24.799,0 0,-9.961 7.44,0 0,-79.336 12.4,-12.4 0.19,0 36.82,0 0.189,0 12.401,12.4 L -7.449,0 0,0 Z m 9.92,19.881 0,-29.801 -7.44,0 0,-74.377 -17.369,-17.359 -47.121,0 -17.359,17.359 0,74.377 -7.44,0 0,29.801 0.61,0 44.029,0 0,-27.291 -4.959,0 0,-62.006 2.481,-2.471 0,-0.009 12.398,0 0,0.009 2.48,2.471 0,62.006 -4.959,0 0,27.291 44.649,0 z"
         style="fill:#ffbe00;fill-opacity:1;fill-rule:nonzero;stroke:none"
         id="path96"
         inkscape:connector-curvature="0" /></g><g
       id="g98"
       transform="translate(1183.1045,503.9478)"><path
         d="m 0,0 0,37.201 -12.4,12.41 -59.53,0 0,-9.961 7.44,0 0,-81.816 -7.44,0 0,-9.92 27.291,0 0,9.92 -7.441,0 0,29.768 39.49,0 0.19,0 L 0,0 Z m 9.92,39.682 0,-44.641 -17.359,-17.359 -34.721,0 0,-9.928 7.441,0 0,-29.76 -47.131,0 0,29.76 7.44,0 0,61.976 -7.44,0 0,29.801 74.411,0 17.359,-17.371 0,-2.469 0,-0.009 z"
         style="fill:#00c8b5;fill-opacity:1;fill-rule:nonzero;stroke:none"
         id="path100"
         inkscape:connector-curvature="0" /></g><g
       id="g102"
       transform="translate(1160.7842,513.8677)"><path
         d="m 0,0 0,17.361 -2.479,2.481 -17.361,0 0,-22.321 17.361,0 L 0,0 Z m 9.92,22.32 0,-27.279 -7.44,-7.439 -32.24,0 0,42.16 32.24,0 7.44,-7.442 z"
         style="fill:#00c8b5;fill-opacity:1;fill-rule:nonzero;stroke:none"
         id="path104"
         inkscape:connector-curvature="0" /></g><g
       id="g106"
       transform="translate(1081.415,451.8618)"><path
         d="m 0,0 0,9.92 -54.57,0 54.57,54.57 0,24.797 -12.4,12.41 -42.17,0 -12.401,-12.41 0,-14.881 12.401,0 0,9.92 7.439,7.442 27.291,0 7.44,-7.442 0,-14.875 L -66.971,14.891 -66.971,0 0,0 Z m 9.92,19.84 0,-29.76 -86.811,0 0,29.76 54.571,54.213 0,5.314 -2.481,2.481 -17.369,0 -2.48,-2.481 0,-14.881 -32.241,0 0,29.76 17.362,17.371 52.09,0 17.359,-17.371 0,-34.717 -39.69,-39.689 39.69,0 z"
         style="fill:#aad700;fill-opacity:1;fill-rule:nonzero;stroke:none"
         id="path108"
         inkscape:connector-curvature="0" /></g><g
       id="g110"
       transform="translate(987.165,503.9478)"><path
         d="m 0,0 0,37.201 -12.41,12.41 -59.52,0 0,-9.961 7.44,0 0,-81.816 -7.44,0 0,-9.92 27.28,0 0,9.92 -7.44,0 0,29.768 39.5,0 0.18,0 L 0,0 Z m 9.92,42.16 0,-47.119 -17.359,-17.359 -34.731,0 0,-9.928 7.44,0 0,-29.76 -47.12,0 0,29.76 7.44,0 0,61.976 -7.44,0 0,29.801 74.411,0 L 9.92,42.16 Z"
         style="fill:#ff7400;fill-opacity:1;fill-rule:nonzero;stroke:none"
         id="path112"
         inkscape:connector-curvature="0" /></g><g
       id="g114"
       transform="translate(964.835,513.8677)"><path
         d="m 0,0 0,17.361 -2.471,2.481 -17.369,0 0,-22.321 17.369,0 L 0,0 Z m 9.93,22.32 0,-27.279 -7.45,-7.439 -32.24,0 0,42.16 32.25,0 7.44,-7.442 z"
         style="fill:#ff7400;fill-opacity:1;fill-rule:nonzero;stroke:none"
         id="path116"
         inkscape:connector-curvature="0" /></g></g></svg>