<?xml version="1.0" encoding="UTF-8" standalone="no"?>
<!-- Created with Inkscape (http://www.inkscape.org/) -->

<svg
   xmlns:dc="http://purl.org/dc/elements/1.1/"
   xmlns:cc="http://creativecommons.org/ns#"
   xmlns:rdf="http://www.w3.org/1999/02/22-rdf-syntax-ns#"
   xmlns:svg="http://www.w3.org/2000/svg"
   xmlns="http://www.w3.org/2000/svg"
   xmlns:sodipodi="http://sodipodi.sourceforge.net/DTD/sodipodi-0.dtd"
   xmlns:inkscape="http://www.inkscape.org/namespaces/inkscape"
   id="svg2"
   version="1.1"
   inkscape:version="0.91 r13725"
   xml:space="preserve"
   width="2753.1499"
   height="2504.9624"
   viewBox="0 0 2753.1499 2504.9624"
   sodipodi:docname="P2PU Brandbook v2-p12.svg"><metadata
     id="metadata8"><rdf:RDF><cc:Work
         rdf:about=""><dc:format>image/svg+xml</dc:format><dc:type
           rdf:resource="http://purl.org/dc/dcmitype/StillImage" /><dc:title></dc:title></cc:Work></rdf:RDF></metadata><defs
     id="defs6"><clipPath
       clipPathUnits="userSpaceOnUse"
       id="clipPath18"><path
         d="m 0,2003.97 2202.52,0 L 2202.52,0 0,0 0,2003.97 Z"
         id="path20"
         inkscape:connector-curvature="0" /></clipPath><clipPath
       clipPathUnits="userSpaceOnUse"
       id="clipPath130"><path
         d="m 0,2003.97 2202.52,0 L 2202.52,0 0,0 0,2003.97 Z"
         id="path132"
         inkscape:connector-curvature="0" /></clipPath></defs><sodipodi:namedview
     pagecolor="#ffffff"
     bordercolor="#666666"
     borderopacity="1"
     objecttolerance="10"
     gridtolerance="10"
     guidetolerance="10"
     inkscape:pageopacity="0"
     inkscape:pageshadow="2"
     inkscape:window-width="640"
     inkscape:window-height="480"
     id="namedview4"
     showgrid="false"
     inkscape:zoom="0.13359108"
     inkscape:cx="1245.5782"
     inkscape:cy="1252.4812"
     inkscape:window-x="65"
     inkscape:window-y="24"
     inkscape:window-maximized="0"
     inkscape:current-layer="g10" /><g
     id="g10"
     inkscape:groupmode="layer"
     inkscape:label="P2PU Brandbook v2"
     transform="matrix(1.25,0,0,-1.25,0,2504.9625)"><path
       d="m 0,0 2202.52,0 0,2003.971 L 0,2003.971 0,0 Z"
       style="fill:#4e5566;fill-opacity:1;fill-rule:nonzero;stroke:none"
       id="path12"
       inkscape:connector-curvature="0" /><g
       id="g14"><g
         id="g16"
         clip-path="url(#clipPath18)"><text
           transform="matrix(1,0,0,-0.99998991,1441.0635,1536.4639)"
           style="font-variant:normal;font-weight:normal;font-stretch:normal;font-size:158.51109314px;font-family:Arvo;-inkscape-font-specification:Arvo;writing-mode:lr-tb;fill:#ffffff;fill-opacity:1;fill-rule:nonzero;stroke:none"
           id="text22"><tspan
             x="0 123.32163"
             y="0"
             sodipodi:role="line"
             id="tspan24">Aa</tspan></text>
<text
           transform="matrix(1,0,0,-0.99998991,1655.0535,1536.4639)"
           style="font-variant:normal;font-weight:bold;font-stretch:normal;font-size:158.51109314px;font-family:Arvo;-inkscape-font-specification:Arvo-Bold;writing-mode:lr-tb;fill:#ffffff;fill-opacity:1;fill-rule:nonzero;stroke:none"
           id="text26"><tspan
             x="0 111.2748 216.20914 283.25934"
             y="0"
             sodipodi:role="line"
             id="tspan28">Bb12</tspan></text>
<text
           transform="matrix(1,0,0,-0.99999062,131.457,1774.146)"
           style="font-variant:normal;font-weight:200;font-stretch:normal;font-size:32px;font-family:'Sense ExtraLight';-inkscape-font-specification:Sense-ExtraLight;writing-mode:lr-tb;fill:#ffffff;fill-opacity:1;fill-rule:nonzero;stroke:none"
           id="text30"><tspan
             x="0 15.808 25.312 30.944 56.992001 71.648003 81.152 96.031998 103.84 112.736 127.616 144 158.944 166.688 181.34399 193.856 209.44 217.248 224.672 241.664 251.168 258.97601 275.35999 290.944 305.60001 322.048 328.28799 333.92001 350.30399 365.888"
             y="0"
             sodipodi:role="line"
             id="tspan32">Primary typeface for headlines</tspan></text>
<text
           transform="matrix(1,0,0,-0.99999,131.457,1726.1464)"
           style="font-variant:normal;font-weight:normal;font-stretch:normal;font-size:40px;font-family:Arvo;-inkscape-font-specification:Arvo;writing-mode:lr-tb;fill:#ffffff;fill-opacity:1;fill-rule:nonzero;stroke:none"
           id="text34"><tspan
             x="0 30.120001 58.599998 87.599998"
             y="0"
             sodipodi:role="line"
             id="tspan36">ARVO</tspan></text>
<text
           transform="matrix(1,0,0,-0.99999062,131.457,1610.9474)"
           style="font-variant:normal;font-weight:normal;font-stretch:normal;font-size:32px;font-family:Arvo;-inkscape-font-specification:Arvo;writing-mode:lr-tb;fill:#ffffff;fill-opacity:1;fill-rule:nonzero;stroke:none"
           id="text38"><tspan
             x="0 22.784 42.880001 69.183998 93.407997 113.664 137.75999"
             y="0"
             sodipodi:role="line"
             id="tspan40">REGULAR</tspan><tspan
             x="200 217.504 237.088 254.56 274.36801 292.73599 304.384 323.13599 344.28799 354.56 364 384.09601 394.496 426.52802 447.87201 467.008 486.52802 505.37601 520.38397 535.90399 547.80798 568.896 586.08002 611.71198 628.73602 647.104"
             y="76.800003"
             sodipodi:role="line"
             id="tspan42">abcdefghijklmnopqrstuvwxyz</tspan><tspan
             x="200 224.09599 245.216 268.79999 292.35199 312.448 331.87201 358.17599 386.97601 399.008 409.664 434.14401 454.39999 488.608 513.98401 538.94397 558.81598 583.776 606.56 625.47198 647.87201 672.09601 695.29602 735.29602 758.71997 779.87201"
             y="115.2"
             sodipodi:role="line"
             id="tspan44">ABCDEFGHIJKLMNOPQRSTUVWXYZ</tspan><tspan
             x="200 213.408 230.592 247.936 267.48801 285.28 304.79999 321.63199 341.56799 361.40799 382.17599 401.08801 428.12799 451.07199 487.168 496.64001 512.70398 523.96802 531.104 540 548.19202 556.38397 578.62402 589.28003 605.91998"
             y="153.60001"
             sodipodi:role="line"
             id="tspan46">1234567890$%&amp;@’”(.,;:#!?)</tspan></text>
<text
           transform="matrix(1,0,0,-0.99999062,131.457,1380.5496)"
           style="font-variant:normal;font-weight:bold;font-stretch:normal;font-size:32px;font-family:Arvo;-inkscape-font-specification:Arvo-Bold;writing-mode:lr-tb;fill:#ffffff;fill-opacity:1;fill-rule:nonzero;stroke:none"
           id="text48"><tspan
             x="0 21.664 46.976002 68"
             y="0"
             sodipodi:role="line"
             id="tspan50">BOLD</tspan><tspan
             x="200 220 240.384 258.81601 280.70401 299.23199 311.96799 332.19199 353.85599 366.20801 375.90399 398.56 410.75201 444.448 467.26401 486.72 508.09601 528.92798 546.27197 563.48798 576 598.01599 617.664 647.328 666.62402 686.01599"
             y="76.800003"
             sodipodi:role="line"
             id="tspan52">abcdefghijklmnopqrstuvwxyz</tspan><tspan
             x="200 223.29601 244.96001 269.24799 292.19199 313.76001 333.85599 359.42401 388.95999 401.63199 412.35199 438.20801 459.23199 495.87201 522.40002 547.71198 569.59998 595.13599 619.03998 638.49597 660.83197 685.216 709.12 745.95203 770.59198 794.59198"
             y="115.2"
             sodipodi:role="line"
             id="tspan54">ABCDEFGHIJKLMNOPQRSTUVWXYZ</tspan><tspan
             x="200 212.73599 231.136 248.12801 267.35999 286.20801 304.384 322.97601 341.40799 359.392 379.64801 399.104 427.74399 448.64001 484.064 492.384 507.71201 518.97601 527.23199 535.552 543.96802 552.38397 576.41602 587.29602 605.91998"
             y="153.60001"
             sodipodi:role="line"
             id="tspan56">1234567890$%&amp;@’”(.,;:#!?)</tspan></text>
<text
           transform="matrix(1,0,0,-0.99998991,1309.6069,708.4316)"
           style="font-variant:normal;font-weight:200;font-stretch:normal;font-size:158.51109314px;font-family:'Sense ExtraLight';-inkscape-font-specification:Sense-ExtraLight;writing-mode:lr-tb;fill:#ffffff;fill-opacity:1;fill-rule:nonzero;stroke:none"
           id="text58"><tspan
             x="0 92.253464"
             y="0"
             sodipodi:role="line"
             id="tspan60">Aa</tspan></text>
<text
           transform="matrix(1,0,0,-0.99998991,1476.8361,708.4316)"
           style="font-variant:normal;font-weight:normal;font-stretch:normal;font-size:158.51109314px;font-family:'Sense Regular';-inkscape-font-specification:Sense-Regular;writing-mode:lr-tb;fill:#ffffff;fill-opacity:1;fill-rule:nonzero;stroke:none"
           id="text62"><tspan
             x="0 88.132172"
             y="0"
             sodipodi:role="line"
             id="tspan64">Bb</tspan></text>
<text
           transform="matrix(1,0,0,-0.99998991,1651.3568,708.4316)"
           style="font-variant:normal;font-weight:bold;font-stretch:normal;font-size:158.51109314px;font-family:'Sense Bold';-inkscape-font-specification:Sense-Bold;writing-mode:lr-tb;fill:#ffffff;fill-opacity:1;fill-rule:nonzero;stroke:none"
           id="text66"><tspan
             x="0 83.693863 150.90257 234.1209 317.33923"
             y="0"
             sodipodi:role="line"
             id="tspan68">Cc123</tspan></text>
<text
           transform="matrix(1,0,0,-0.99999062,131.458,943.1616)"
           style="font-variant:normal;font-weight:200;font-stretch:normal;font-size:32px;font-family:'Sense ExtraLight';-inkscape-font-specification:Sense-ExtraLight;writing-mode:lr-tb;fill:#ffffff;fill-opacity:1;fill-rule:nonzero;stroke:none"
           id="text70"><tspan
             x="0 15.2 30.784 43.296001 60.287998 76.671997 93.120003 107.776 117.28 132.16 139.968 148.864 163.744 180.12801 195.07201 202.81599 217.472 229.98399 245.56799 253.37601 260.79999 277.79199 287.29599 295.104 303.328 318.91199 335.392 351.67999 357.92001 372.57599 382.07999 389.888 413.12 428.70401 445.47198 453.28 460.896 475.84 490.72"
             y="0"
             sodipodi:role="line"
             id="tspan72">Secondary typeface for regular web text</tspan></text>
<text
           transform="matrix(1,0,0,-0.99999,131.458,895.162)"
           style="font-variant:normal;font-weight:normal;font-stretch:normal;font-size:40px;font-family:'Sense Regular';-inkscape-font-specification:Sense-Regular;writing-mode:lr-tb;fill:#ffffff;fill-opacity:1;fill-rule:nonzero;stroke:none"
           id="text74"><tspan
             x="0 19.799999 39.48 64.360001 84.160004"
             y="0"
             sodipodi:role="line"
             id="tspan76">SENSE</tspan></text>
<text
           transform="matrix(1,0,0,-0.99999062,131.458,779.963)"
           style="font-variant:normal;font-weight:200;font-stretch:normal;font-size:32px;font-family:'Sense ExtraLight';-inkscape-font-specification:Sense-ExtraLight;writing-mode:lr-tb;fill:#ffffff;fill-opacity:1;fill-rule:nonzero;stroke:none"
           id="text78"><tspan
             x="0 15.072 32.383999 47.936001 63.551998 81.375999 88.863998 102.592 108.608 127.968 147.07201"
             y="0"
             sodipodi:role="line"
             id="tspan80">EXTRA LIGHT</tspan><tspan
             x="200 214.336 230.784 243.936 260.064 274.68799 281.79199 297.952 314.01599 319.328 324.64001 337.92001 343.84 369.56799 385.63199 402.30399 418.36801 434.52802 443.71201 456 464.57599 480.54401 494.112 517.34399 531.90399 546.46399"
             y="76.800003"
             sodipodi:role="line"
             id="tspan82">abcdefghijklmnopqrstuvwxyz</tspan><tspan
             x="200 217.82401 233.952 250.496 269.18399 284.25601 298.97601 318.336 337.44 343.45599 355.90399 371.67999 385.40799 408.12799 427.64801 448.54401 464.03201 485.44 501.056 515.93597 531.48798 550.84802 567.90399 594.04797 611.35999 627.35999"
             y="115.2"
             sodipodi:role="line"
             id="tspan84">ABCDEFGHIJKLMNOPQRSTUVWXYZ</tspan><tspan
             x="200 216 232 248 264 280 296 312 328 344 360 376 404.03201 424.92801 450.84799 458.36801 469.664 477.15201 484.384 491.48801 498.68799 505.888 525.95203 533.15198 547.13599"
             y="153.60001"
             sodipodi:role="line"
             id="tspan86">1234567890$%&amp;@’”(.,;:#!?)</tspan></text>
<text
           transform="matrix(1,0,0,-0.99999062,131.458,549.56516)"
           style="font-variant:normal;font-weight:normal;font-stretch:normal;font-size:32px;font-family:'Sense Regular';-inkscape-font-specification:Sense-Regular;writing-mode:lr-tb;fill:#ffffff;fill-opacity:1;fill-rule:nonzero;stroke:none"
           id="text88"><tspan
             x="0 16.672001 31.775999 50.880001 70.528 84.736 104.096"
             y="0"
             sodipodi:role="line"
             id="tspan90">REGULAR</tspan><tspan
             x="200 214.65601 231.29601 243.968 260.48001 275.74399 283.71201 300.25601 316.70401 323.64801 330.59201 345.98401 352.92801 378.56 395.008 412.12799 428.51199 445.056 455.23199 468.064 477.76001 494.01599 508.992 532.25598 547.67999 563.39203"
             y="76.800003"
             sodipodi:role="line"
             id="tspan92">abcdefghijklmnopqrstuvwxyz</tspan><tspan
             x="200 219.36 236.35201 253.15199 272.32001 288.064 303.23199 322.336 341.888 349.08801 361.85599 379.84 394.048 417.47198 437.37601 458.84799 475.35999 496.832 513.50403 529.34399 545.18402 564.83197 583.29602 609.31201 627.61603 644.79999"
             y="115.2"
             sodipodi:role="line"
             id="tspan94">ABCDEFGHIJKLMNOPQRSTUVWXYZ</tspan><tspan
             x="200 216 232 248 264 280 296 312 328 344 360 376 404.79999 426.46399 452.992 461.31201 474.65601 483.23199 491.42401 499.96799 508.51199 516.672 537.216 545.44 559.87201"
             y="153.60001"
             sodipodi:role="line"
             id="tspan96">1234567890$%&amp;@’”(.,;:#!?)</tspan></text>
<text
           transform="matrix(1,0,0,-0.99999062,131.458,319.16732)"
           style="font-variant:normal;font-weight:500;font-stretch:normal;font-size:32px;font-family:'Sense Medium';-inkscape-font-specification:Sense-Medium;writing-mode:lr-tb;fill:#ffffff;fill-opacity:1;fill-rule:nonzero;stroke:none"
           id="text98"><tspan
             x="0 23.552 39.327999 58.624001 66.143997 85.727997"
             y="0"
             sodipodi:role="line"
             id="tspan100">MEDIUM</tspan><tspan
             x="200 215.03999 231.584 243.84 260.28799 275.64801 284.64001 301.12 317.47198 324.672 331.87201 347.008 354.20801 379.51999 395.87201 412.79999 429.18399 445.664 456.19199 469.34399 479.58401 495.80801 511.29599 534.59198 549.98401 565.98401"
             y="76.800003"
             sodipodi:role="line"
             id="tspan102">abcdefghijklmnopqrstuvwxyz</tspan><tspan
             x="200 220 237.18401 253.952 273.24799 289.02399 304.09601 323.23199 342.62399 350.14401 363.168 380.672 394.91199 418.46399 438.272 459.84 476.57599 498.112 515.13599 531.16803 547.328 566.91199 586.04797 612.64001 630.91199 648.83197"
             y="115.2"
             sodipodi:role="line"
             id="tspan104">ABCDEFGHIJKLMNOPQRSTUVWXYZ</tspan><tspan
             x="200 216 232 248 264 280 296 312 328 344 360 376 405.12 427.104 454.272 462.68799 477.08801 486.01599 494.14401 503.008 511.87201 520 541.08801 549.34399 564.224"
             y="153.60001"
             sodipodi:role="line"
             id="tspan106">1234567890$%&amp;@’”(.,;:#!?)</tspan></text>
<text
           transform="matrix(1,0,0,-0.99999062,937.442,317.43934)"
           style="font-variant:normal;font-weight:bold;font-stretch:normal;font-size:32px;font-family:'Sense Bold';-inkscape-font-specification:Sense-Bold;writing-mode:lr-tb;fill:#ffffff;fill-opacity:1;fill-rule:nonzero;stroke:none"
           id="text108"><tspan
             x="0 17.056 38.688 52.959999"
             y="0"
             sodipodi:role="line"
             id="tspan110">BOLD</tspan><tspan
             x="200 215.392 231.84 243.968 260.35199 275.776 285.76001 302.17599 318.43201 325.85599 333.28 348.896 356.32001 381.31201 397.56799 414.272 430.62399 447.04001 457.92001 471.07199 481.85599 498.048 514.04797 537.37598 552.73602 569.02399"
             y="76.800003"
             sodipodi:role="line"
             id="tspan112">abcdefghijklmnopqrstuvwxyz</tspan><tspan
             x="200 220.64 237.696 254.43201 273.85599 289.664 304.32001 323.168 342.36801 350.17599 363.45599 381.31201 395.58401 419.26401 438.97601 460.608 477.56799 499.168 516.54401 532.12799 548.57599 568.09601 587.90399 615.07202 633.31201 651.96802"
             y="115.2"
             sodipodi:role="line"
             id="tspan114">ABCDEFGHIJKLMNOPQRSTUVWXYZ</tspan><tspan
             x="200 216 232 248 264 280 296 312 328 344 360 376 405.44 427.74399 455.51999 464.03201 479.45599 488.73599 496.79999 505.31201 514.49597 522.56 544.19202 552.448 567.776"
             y="153.60001"
             sodipodi:role="line"
             id="tspan116">1234567890$%&amp;@’”(.,;:#!?)</tspan></text>
</g></g><g
       id="g118"
       transform="translate(131.457,1701.4946)"><path
         d="M 0,0 1919.764,0"
         style="fill:none;stroke:#ffffff;stroke-width:2;stroke-linecap:butt;stroke-linejoin:miter;stroke-miterlimit:10;stroke-dasharray:none;stroke-opacity:1"
         id="path120"
         inkscape:connector-curvature="0" /></g><g
       id="g122"
       transform="translate(131.457,871.1479)"><path
         d="M 0,0 1919.764,0"
         style="fill:none;stroke:#ffffff;stroke-width:2;stroke-linecap:butt;stroke-linejoin:miter;stroke-miterlimit:10;stroke-dasharray:none;stroke-opacity:1"
         id="path124"
         inkscape:connector-curvature="0" /></g><g
       id="g126"><g
         id="g128"
         clip-path="url(#clipPath130)"><text
           transform="matrix(1,0,0,-0.99999167,56.0957,1924.1161)"
           style="font-variant:normal;font-weight:800;font-stretch:normal;font-size:24px;font-family:'Sense ExtraBold';-inkscape-font-specification:Sense-ExtraBold;writing-mode:lr-tb;fill:#ffffff;fill-opacity:1;fill-rule:nonzero;stroke:none"
           id="text134"><tspan
             x="0 12.24 24.48"
             y="0"
             sodipodi:role="line"
             id="tspan136">09.</tspan></text>
<text
           transform="matrix(1,0,0,-0.99999167,92.6717,1924.1161)"
           style="font-variant:normal;font-weight:300;font-stretch:normal;font-size:24px;font-family:'Sense Light';-inkscape-font-specification:Sense-Light;writing-mode:lr-tb;fill:#ffffff;fill-opacity:1;fill-rule:nonzero;stroke:none"
           id="text138"><tspan
             x="0 11.904 25.152 32.759998 45.312 58.560001 66.167999 76.655998 82.800003 94.68 100.536 111.24 123.072 135.62399 147.26401 153.45599 164.424 174.07201 185.952"
             y="0"
             sodipodi:role="line"
             id="tspan140">Corporate Typefaces</tspan></text>
</g></g></g></svg>