<?xml version="1.0" encoding="UTF-8" standalone="no"?>
<!-- Created with Inkscape (http://www.inkscape.org/) -->

<svg
   xmlns:dc="http://purl.org/dc/elements/1.1/"
   xmlns:cc="http://creativecommons.org/ns#"
   xmlns:rdf="http://www.w3.org/1999/02/22-rdf-syntax-ns#"
   xmlns:svg="http://www.w3.org/2000/svg"
   xmlns="http://www.w3.org/2000/svg"
   xmlns:sodipodi="http://sodipodi.sourceforge.net/DTD/sodipodi-0.dtd"
   xmlns:inkscape="http://www.inkscape.org/namespaces/inkscape"
   id="svg2"
   version="1.1"
   inkscape:version="0.91 r13725"
   xml:space="preserve"
   width="2753.1499"
   height="1256.775"
   viewBox="0 0 2753.1499 1256.775"
   sodipodi:docname="P2PU Brandbook v2-p11.svg"><metadata
     id="metadata8"><rdf:RDF><cc:Work
         rdf:about=""><dc:format>image/svg+xml</dc:format><dc:type
           rdf:resource="http://purl.org/dc/dcmitype/StillImage" /><dc:title></dc:title></cc:Work></rdf:RDF></metadata><defs
     id="defs6"><clipPath
       clipPathUnits="userSpaceOnUse"
       id="clipPath38"><path
         d="m 0,1005.421 2202.521,0 L 2202.521,0 0,0 0,1005.421 Z"
         id="path40"
         inkscape:connector-curvature="0" /></clipPath><clipPath
       clipPathUnits="userSpaceOnUse"
       id="clipPath62"><path
         d="m 0,1005.421 2202.521,0 L 2202.521,0 0,0 0,1005.421 Z"
         id="path64"
         inkscape:connector-curvature="0" /></clipPath><clipPath
       clipPathUnits="userSpaceOnUse"
       id="clipPath74"><path
         d="m 487.279,405.502 29.595,0 0,-39.144 -29.595,0 0,39.144 z"
         id="path76"
         inkscape:connector-curvature="0" /></clipPath><clipPath
       clipPathUnits="userSpaceOnUse"
       id="clipPath90"><path
         d="m 449.089,405.502 27.685,0 0,-39.144 -27.685,0 0,39.144 z"
         id="path92"
         inkscape:connector-curvature="0" /></clipPath><clipPath
       clipPathUnits="userSpaceOnUse"
       id="clipPath106"><path
         d="m 411.857,405.502 25.778,0 0,-39.144 -25.778,0 0,39.144 z"
         id="path108"
         inkscape:connector-curvature="0" /></clipPath><clipPath
       clipPathUnits="userSpaceOnUse"
       id="clipPath122"><path
         d="m 373.671,405.502 27.686,0 0,-39.144 -27.686,0 0,39.144 z"
         id="path124"
         inkscape:connector-curvature="0" /></clipPath><clipPath
       clipPathUnits="userSpaceOnUse"
       id="clipPath162"><path
         d="m 814.781,405.502 29.595,0 0,-39.144 -29.595,0 0,39.144 z"
         id="path164"
         inkscape:connector-curvature="0" /></clipPath><clipPath
       clipPathUnits="userSpaceOnUse"
       id="clipPath178"><path
         d="m 776.591,405.502 27.685,0 0,-39.144 -27.685,0 0,39.144 z"
         id="path180"
         inkscape:connector-curvature="0" /></clipPath><clipPath
       clipPathUnits="userSpaceOnUse"
       id="clipPath194"><path
         d="m 739.359,405.502 25.778,0 0,-39.144 -25.778,0 0,39.144 z"
         id="path196"
         inkscape:connector-curvature="0" /></clipPath><clipPath
       clipPathUnits="userSpaceOnUse"
       id="clipPath210"><path
         d="m 701.173,405.502 27.686,0 0,-39.144 -27.686,0 0,39.144 z"
         id="path212"
         inkscape:connector-curvature="0" /></clipPath><clipPath
       clipPathUnits="userSpaceOnUse"
       id="clipPath250"><path
         d="m 1140.32,405.502 29.6,0 0,-39.144 -29.6,0 0,39.144 z"
         id="path252"
         inkscape:connector-curvature="0" /></clipPath><clipPath
       clipPathUnits="userSpaceOnUse"
       id="clipPath266"><path
         d="m 1102.13,405.502 27.69,0 0,-39.144 -27.69,0 0,39.144 z"
         id="path268"
         inkscape:connector-curvature="0" /></clipPath><clipPath
       clipPathUnits="userSpaceOnUse"
       id="clipPath282"><path
         d="m 1064.9,405.502 25.78,0 0,-39.144 -25.78,0 0,39.144 z"
         id="path284"
         inkscape:connector-curvature="0" /></clipPath><clipPath
       clipPathUnits="userSpaceOnUse"
       id="clipPath298"><path
         d="m 1026.71,405.502 27.69,0 0,-39.144 -27.69,0 0,39.144 z"
         id="path300"
         inkscape:connector-curvature="0" /></clipPath><clipPath
       clipPathUnits="userSpaceOnUse"
       id="clipPath338"><path
         d="m 1467.85,405.502 29.6,0 0,-39.144 -29.6,0 0,39.144 z"
         id="path340"
         inkscape:connector-curvature="0" /></clipPath><clipPath
       clipPathUnits="userSpaceOnUse"
       id="clipPath354"><path
         d="m 1429.66,405.502 27.69,0 0,-39.144 -27.69,0 0,39.144 z"
         id="path356"
         inkscape:connector-curvature="0" /></clipPath><clipPath
       clipPathUnits="userSpaceOnUse"
       id="clipPath370"><path
         d="m 1392.43,405.502 25.78,0 0,-39.144 -25.78,0 0,39.144 z"
         id="path372"
         inkscape:connector-curvature="0" /></clipPath><clipPath
       clipPathUnits="userSpaceOnUse"
       id="clipPath386"><path
         d="m 1354.25,405.502 27.68,0 0,-39.144 -27.68,0 0,39.144 z"
         id="path388"
         inkscape:connector-curvature="0" /></clipPath><clipPath
       clipPathUnits="userSpaceOnUse"
       id="clipPath426"><path
         d="m 1796.25,405.502 29.6,0 0,-39.144 -29.6,0 0,39.144 z"
         id="path428"
         inkscape:connector-curvature="0" /></clipPath><clipPath
       clipPathUnits="userSpaceOnUse"
       id="clipPath442"><path
         d="m 1758.06,405.502 27.69,0 0,-39.144 -27.69,0 0,39.144 z"
         id="path444"
         inkscape:connector-curvature="0" /></clipPath><clipPath
       clipPathUnits="userSpaceOnUse"
       id="clipPath458"><path
         d="m 1720.83,405.502 25.78,0 0,-39.144 -25.78,0 0,39.144 z"
         id="path460"
         inkscape:connector-curvature="0" /></clipPath><clipPath
       clipPathUnits="userSpaceOnUse"
       id="clipPath474"><path
         d="m 1682.64,405.502 27.69,0 0,-39.144 -27.69,0 0,39.144 z"
         id="path476"
         inkscape:connector-curvature="0" /></clipPath><clipPath
       clipPathUnits="userSpaceOnUse"
       id="clipPath514"><path
         d="m 487.279,212.098 29.595,0 0,-39.144 -29.595,0 0,39.144 z"
         id="path516"
         inkscape:connector-curvature="0" /></clipPath><clipPath
       clipPathUnits="userSpaceOnUse"
       id="clipPath530"><path
         d="m 449.089,212.098 27.685,0 0,-39.144 -27.685,0 0,39.144 z"
         id="path532"
         inkscape:connector-curvature="0" /></clipPath><clipPath
       clipPathUnits="userSpaceOnUse"
       id="clipPath546"><path
         d="m 411.857,212.098 25.778,0 0,-39.144 -25.778,0 0,39.144 z"
         id="path548"
         inkscape:connector-curvature="0" /></clipPath><clipPath
       clipPathUnits="userSpaceOnUse"
       id="clipPath562"><path
         d="m 373.671,212.098 27.686,0 0,-39.144 -27.686,0 0,39.144 z"
         id="path564"
         inkscape:connector-curvature="0" /></clipPath><clipPath
       clipPathUnits="userSpaceOnUse"
       id="clipPath602"><path
         d="m 1471.01,212.098 29.59,0 0,-39.144 -29.59,0 0,39.144 z"
         id="path604"
         inkscape:connector-curvature="0" /></clipPath><clipPath
       clipPathUnits="userSpaceOnUse"
       id="clipPath618"><path
         d="m 1432.82,212.098 27.68,0 0,-39.144 -27.68,0 0,39.144 z"
         id="path620"
         inkscape:connector-curvature="0" /></clipPath><clipPath
       clipPathUnits="userSpaceOnUse"
       id="clipPath634"><path
         d="m 1395.59,212.098 25.77,0 0,-39.144 -25.77,0 0,39.144 z"
         id="path636"
         inkscape:connector-curvature="0" /></clipPath><clipPath
       clipPathUnits="userSpaceOnUse"
       id="clipPath650"><path
         d="m 1357.4,212.098 27.69,0 0,-39.144 -27.69,0 0,39.144 z"
         id="path652"
         inkscape:connector-curvature="0" /></clipPath><clipPath
       clipPathUnits="userSpaceOnUse"
       id="clipPath690"><path
         d="m 1795.39,212.098 29.59,0 0,-39.144 -29.59,0 0,39.144 z"
         id="path692"
         inkscape:connector-curvature="0" /></clipPath><clipPath
       clipPathUnits="userSpaceOnUse"
       id="clipPath706"><path
         d="m 1757.2,212.098 27.68,0 0,-39.144 -27.68,0 0,39.144 z"
         id="path708"
         inkscape:connector-curvature="0" /></clipPath><clipPath
       clipPathUnits="userSpaceOnUse"
       id="clipPath722"><path
         d="m 1719.96,212.098 25.78,0 0,-39.144 -25.78,0 0,39.144 z"
         id="path724"
         inkscape:connector-curvature="0" /></clipPath><clipPath
       clipPathUnits="userSpaceOnUse"
       id="clipPath738"><path
         d="m 1681.78,212.098 27.68,0 0,-39.144 -27.68,0 0,39.144 z"
         id="path740"
         inkscape:connector-curvature="0" /></clipPath><clipPath
       clipPathUnits="userSpaceOnUse"
       id="clipPath778"><path
         d="m 1144.14,212.098 29.59,0 0,-39.144 -29.59,0 0,39.144 z"
         id="path780"
         inkscape:connector-curvature="0" /></clipPath><clipPath
       clipPathUnits="userSpaceOnUse"
       id="clipPath794"><path
         d="m 1105.95,212.098 27.68,0 0,-39.144 -27.68,0 0,39.144 z"
         id="path796"
         inkscape:connector-curvature="0" /></clipPath><clipPath
       clipPathUnits="userSpaceOnUse"
       id="clipPath810"><path
         d="m 1068.71,212.098 25.78,0 0,-39.144 -25.78,0 0,39.144 z"
         id="path812"
         inkscape:connector-curvature="0" /></clipPath><clipPath
       clipPathUnits="userSpaceOnUse"
       id="clipPath826"><path
         d="m 1030.53,212.098 27.68,0 0,-39.144 -27.68,0 0,39.144 z"
         id="path828"
         inkscape:connector-curvature="0" /></clipPath><clipPath
       clipPathUnits="userSpaceOnUse"
       id="clipPath866"><path
         d="m 810.961,212.098 29.595,0 0,-39.144 -29.595,0 0,39.144 z"
         id="path868"
         inkscape:connector-curvature="0" /></clipPath><clipPath
       clipPathUnits="userSpaceOnUse"
       id="clipPath882"><path
         d="m 772.771,212.098 27.685,0 0,-39.144 -27.685,0 0,39.144 z"
         id="path884"
         inkscape:connector-curvature="0" /></clipPath><clipPath
       clipPathUnits="userSpaceOnUse"
       id="clipPath898"><path
         d="m 735.539,212.098 25.777,0 0,-39.144 -25.777,0 0,39.144 z"
         id="path900"
         inkscape:connector-curvature="0" /></clipPath><clipPath
       clipPathUnits="userSpaceOnUse"
       id="clipPath914"><path
         d="m 697.353,212.098 27.686,0 0,-39.144 -27.686,0 0,39.144 z"
         id="path916"
         inkscape:connector-curvature="0" /></clipPath></defs><sodipodi:namedview
     pagecolor="#ffffff"
     bordercolor="#666666"
     borderopacity="1"
     objecttolerance="10"
     gridtolerance="10"
     guidetolerance="10"
     inkscape:pageopacity="0"
     inkscape:pageshadow="2"
     inkscape:window-width="1855"
     inkscape:window-height="1056"
     id="namedview4"
     showgrid="false"
     inkscape:zoom="1.4357067"
     inkscape:cx="625.0937"
     inkscape:cy="922.95562"
     inkscape:window-x="65"
     inkscape:window-y="24"
     inkscape:window-maximized="1"
     inkscape:current-layer="g10" /><g
     id="g10"
     inkscape:groupmode="layer"
     inkscape:label="P2PU Brandbook v2"
     transform="matrix(1.25,0,0,-1.25,0,1256.775)"><path
       d="m 0,0 2202.521,0 0,1005.42 L 0,1005.42 0,0 Z"
       style="fill:#f3f4f8;fill-opacity:1;fill-rule:nonzero;stroke:none"
       id="path12"
       inkscape:connector-curvature="0" /><path
       d="m 281.652,308.184 327.533,0 0,160.449 -327.533,0 0,-160.449 z"
       style="fill:#ff7400;fill-opacity:1;fill-rule:nonzero;stroke:none"
       id="path14"
       inkscape:connector-curvature="0" /><path
       d="m 609.008,308.184 327.533,0 0,160.449 -327.533,0 0,-160.449 z"
       style="fill:#aad700;fill-opacity:1;fill-rule:nonzero;stroke:none"
       id="path16"
       inkscape:connector-curvature="0" /><path
       d="m 934.549,308.184 327.533,0 0,160.449 -327.533,0 0,-160.449 z"
       style="fill:#00c8b5;fill-opacity:1;fill-rule:nonzero;stroke:none"
       id="path18"
       inkscape:connector-curvature="0" /><path
       d="m 1262.08,308.184 327.535,0 0,160.449 -327.535,0 0,-160.449 z"
       style="fill:#ffbe00;fill-opacity:1;fill-rule:nonzero;stroke:none"
       id="path20"
       inkscape:connector-curvature="0" /><path
       d="m 1589.613,308.184 327.533,0 0,160.449 -327.533,0 0,-160.449 z"
       style="fill:#ff0005;fill-opacity:1;fill-rule:nonzero;stroke:none"
       id="path22"
       inkscape:connector-curvature="0" /><path
       d="m 281.652,112.303 327.533,0 0,160.447 -327.533,0 0,-160.447 z"
       style="fill:#ff00ec;fill-opacity:1;fill-rule:nonzero;stroke:none"
       id="path24"
       inkscape:connector-curvature="0" /><path
       d="m 609.008,112.303 327.533,0 0,160.447 -327.533,0 0,-160.447 z"
       style="fill:#00ff00;fill-opacity:1;fill-rule:nonzero;stroke:none"
       id="path26"
       inkscape:connector-curvature="0" /><path
       d="m 936.938,112.303 327.533,0 0,160.447 -327.533,0 0,-160.447 z"
       style="fill:#00ffff;fill-opacity:1;fill-rule:nonzero;stroke:none"
       id="path28"
       inkscape:connector-curvature="0" /><path
       d="m 1265.234,112.303 327.535,0 0,160.447 -327.535,0 0,-160.447 z"
       style="fill:#615d00;fill-opacity:1;fill-rule:nonzero;stroke:none"
       id="path30"
       inkscape:connector-curvature="0" /><path
       d="m 1593.334,112.303 327.533,0 0,160.447 -327.533,0 0,-160.447 z"
       style="fill:#b7c0a6;fill-opacity:1;fill-rule:nonzero;stroke:none"
       id="path32"
       inkscape:connector-curvature="0" /><g
       id="g34"><g
         id="g36"
         clip-path="url(#clipPath38)"><text
           transform="matrix(1,0,0,-0.99999167,56.0957,925.5663)"
           style="font-variant:normal;font-weight:800;font-stretch:normal;font-size:24px;font-family:'Sense ExtraBold';-inkscape-font-specification:Sense-ExtraBold;writing-mode:lr-tb;fill:#4e5566;fill-opacity:1;fill-rule:nonzero;stroke:none"
           id="text42"><tspan
             x="0 12.24 24.48 30.719999"
             y="0"
             sodipodi:role="line"
             id="tspan44">08.1</tspan></text>
<text
           transform="matrix(1,0,0,-0.99999167,104.9117,925.5663)"
           style="font-variant:normal;font-weight:300;font-stretch:normal;font-size:24px;font-family:'Sense Light';-inkscape-font-specification:Sense-Light;writing-mode:lr-tb;fill:#4e5566;fill-opacity:1;fill-rule:nonzero;stroke:none"
           id="text46"><tspan
             x="0 11.904 25.152 32.759998 40.368 52.248001 62.375999 69.480003 75.335999 90.384003 100.272 111.24 123.936 135.81599 141.672 148.08 153.936 165.84 179.088 184.368 197.616 205.224 211.08 223.92 234.888 245.01601 255.408 268.104 275.71201 288.95999 301.44 314.112"
             y="0"
             sodipodi:role="line"
             id="tspan48">Correct Usage - Color Background</tspan></text>
</g></g><g
       id="g50"
       transform="translate(791.3613,854.9492)"><path
         d="m 0,0 107.791,0 0,-45.674 -21.094,0 33.717,-57.797 35.709,57.797 -24.084,0 0,45.674 107.791,0 0,-45.674 -18.601,0 -74.907,-101.644 0,-58.961 30.561,0 0,-45.506 -112.274,0 0,45.506 27.903,0 0,59.625 L 22.09,-45.674 0,-45.674 0,0 Z"
         style="fill:#4e5566;fill-opacity:1;fill-rule:nonzero;stroke:none"
         id="path52"
         inkscape:connector-curvature="0" /></g><g
       id="g54"
       transform="translate(1048.9277,854.9492)"><path
         d="m 0,0 200.301,0 0,-85.865 -54.145,0 0,35.707 -64.607,0 0,-49.658 49.992,0 0,-48.166 -49.992,0 0,-58.297 64.607,0 0,44.677 54.145,0 0,-90.183 -200.301,0 0,45.506 26.408,0 0,156.121 L 0,-50.158 0,0 Z"
         style="fill:#4e5566;fill-opacity:1;fill-rule:nonzero;stroke:none"
         id="path56"
         inkscape:connector-curvature="0" /></g><g
       id="g58"><g
         id="g60"
         clip-path="url(#clipPath62)"><g
           id="g66"
           transform="translate(1410.543,784.0313)"><path
             d="m 0,0 c -0.555,3.875 -1.91,7.527 -4.068,10.961 -2.161,3.432 -4.928,6.394 -8.305,8.885 -3.379,2.492 -7.199,4.457 -11.459,5.898 -4.264,1.436 -8.721,2.158 -13.371,2.158 -4.209,0 -8.139,-0.443 -11.791,-1.328 -3.654,-0.888 -6.84,-2.242 -9.551,-4.07 -2.715,-1.826 -4.873,-4.18 -6.476,-7.059 -1.608,-2.881 -2.409,-6.31 -2.409,-10.297 0,-4.982 1.078,-8.943 3.239,-11.875 2.158,-2.935 4.925,-5.343 8.304,-7.224 3.375,-1.885 7.114,-3.379 11.211,-4.485 4.094,-1.107 8.08,-2.326 11.957,-3.654 l 45.674,-15.279 c 6.311,-2.217 12.234,-5.26 17.772,-9.135 5.535,-3.877 10.324,-8.582 14.367,-14.117 4.039,-5.539 7.224,-11.904 9.549,-19.1 2.326,-7.199 3.488,-15.281 3.488,-24.25 0,-12.181 -2.242,-23.308 -6.727,-33.383 -4.484,-10.076 -10.769,-18.712 -18.851,-25.908 -8.084,-7.199 -17.772,-12.789 -29.065,-16.775 -11.293,-3.986 -23.806,-5.979 -37.535,-5.979 -9.633,0 -18.742,1.078 -27.322,3.237 -8.582,2.16 -16.416,5.287 -23.5,9.384 -7.088,4.096 -13.287,8.997 -18.602,14.7 -5.314,5.701 -9.467,12.15 -12.457,19.349 l -17.107,0 0,49.992 60.123,0 0,-10.298 c 0,-4.983 0.803,-9.578 2.408,-13.786 1.606,-4.208 4.014,-7.863 7.225,-10.96 3.211,-3.102 7.252,-5.51 12.125,-7.225 4.871,-1.719 10.572,-2.574 17.107,-2.574 9.965,0 17.547,2.295 22.754,6.892 5.203,4.594 7.807,10.989 7.807,19.184 0,4.205 -0.914,7.723 -2.743,10.545 -1.826,2.824 -4.179,5.203 -7.058,7.142 -2.879,1.936 -6.09,3.571 -9.633,4.899 -3.545,1.33 -7.031,2.547 -10.463,3.654 l -38.033,12.291 c -7.199,2.213 -14.147,5.315 -20.844,9.301 -6.701,3.986 -12.623,8.969 -17.771,14.947 -5.149,5.979 -9.246,12.981 -12.291,21.01 -3.047,8.027 -4.567,17.189 -4.567,27.488 0,11.957 2.213,22.614 6.643,31.971 4.428,9.355 10.629,17.244 18.601,23.668 7.973,6.42 17.44,11.293 28.401,14.615 10.963,3.322 22.974,4.983 36.041,4.983 10.297,0 19.818,-1.192 28.566,-3.571 8.746,-2.383 16.58,-5.564 23.502,-9.551 6.918,-3.986 12.789,-8.552 17.606,-13.701 4.816,-5.15 8.496,-10.492 11.045,-16.027 l 16.607,0 0,-50.158 L 0,-14.615 0,0 Z"
             style="fill:#4e5566;fill-opacity:1;fill-rule:nonzero;stroke:none"
             id="path68"
             inkscape:connector-curvature="0" /></g><g
           id="g70"><g
             id="g72" /><g
             id="g78"><g
               clip-path="url(#clipPath74)"
               id="g80"
               style="opacity:0.14999402"><g
                 transform="translate(516.873,405.502)"
                 id="g82"><path
                   d="m 0,0 0,-3.834 -2.867,0 0,-30.535 -4.774,-4.774 -0.072,0 -14.172,0 -0.074,0 -4.771,4.774 0,30.535 -2.864,0 0,3.834 9.545,0 0,-3.82 -1.91,0 0,-28.637 2.863,-2.867 8.592,0 2.863,2.863 0,28.641 -1.908,0 0,3.82 L 0,0 Z"
                   style="fill:#ffffff;fill-opacity:1;fill-rule:nonzero;stroke:none"
                   id="path84"
                   inkscape:connector-curvature="0" /></g></g></g></g><g
           id="g86"><g
             id="g88" /><g
             id="g94"><g
               clip-path="url(#clipPath90)"
               id="g96"
               style="opacity:0.14999402"><g
                 transform="translate(472.002,388.3164)"
                 id="g98"><path
                   d="m 0,0 0,10.5 -2.863,2.865 -12.41,0 0,-16.226 12.41,0 L 0,0 Z m 4.771,12.41 0,-14.32 L 0,-6.682 l -0.072,0 -15.201,0 0,-11.457 2.865,0 0,-3.818 -10.506,0 0,3.818 2.865,0 0,31.491 -2.865,0 0,3.834 22.914,0 4.771,-4.776 z"
                   style="fill:#ffffff;fill-opacity:1;fill-rule:nonzero;stroke:none"
                   id="path100"
                   inkscape:connector-curvature="0" /></g></g></g></g><g
           id="g102"><g
             id="g104" /><g
             id="g110"><g
               clip-path="url(#clipPath106)"
               id="g112"
               style="opacity:0.14999402"><g
                 transform="translate(437.6348,370.1777)"
                 id="g114"><path
                   d="m 0,0 0,-3.818 -25.777,0 0,5.73 21.004,21.002 0,5.725 -2.864,2.865 -10.504,0 -2.865,-2.865 0,-3.819 -4.771,0 0,5.729 4.771,4.775 16.233,0 L 0,30.549 0,21.004 -21.006,0 0,0 Z"
                   style="fill:#ffffff;fill-opacity:1;fill-rule:nonzero;stroke:none"
                   id="path116"
                   inkscape:connector-curvature="0" /></g></g></g></g><g
           id="g118"><g
             id="g120" /><g
             id="g126"><g
               clip-path="url(#clipPath122)"
               id="g128"
               style="opacity:0.14999402"><g
                 transform="translate(396.584,388.3164)"
                 id="g130"><path
                   d="m 0,0 0,10.5 -2.863,2.865 -12.412,0 0,-16.226 12.408,0 L 0,0 Z m 4.773,12.41 0,-14.32 -4.777,-4.772 -0.068,0 -15.203,0 0,-11.457 2.863,0 0,-3.818 -10.502,0 0,3.818 2.865,0 0,31.491 -2.865,0 0,3.834 22.91,0 4.777,-4.776 z"
                   style="fill:#ffffff;fill-opacity:1;fill-rule:nonzero;stroke:none"
                   id="path132"
                   inkscape:connector-curvature="0" /></g></g></g></g><g
           id="g134"
           transform="translate(516.873,401.668)"><path
             d="m 0,0 0,3.834 -9.549,0 0,-3.82 1.908,0 0,-28.641 -2.863,-2.863 -8.592,0 -2.863,2.867 0,28.637 1.91,0 0,3.82 -9.545,0 0,-3.834 2.864,0 0,-30.535 4.771,-4.774 0.074,0 14.172,0 0.072,0 4.774,4.774 L -2.867,0 0,0 Z m 3.818,7.652 0,-11.468 -2.863,0 0,-28.629 -6.685,-6.682 -18.137,0 -6.682,6.682 0,28.629 -2.863,0 0,11.468 0.234,0 16.948,0 0,-10.504 -1.909,0 0,-23.865 0.953,-0.953 0,-0.002 4.774,0 0,0.002 0.955,0.953 0,23.865 -1.908,0 0,10.504 17.183,0 z"
             style="fill:#ffffff;fill-opacity:1;fill-rule:nonzero;stroke:none"
             id="path136"
             inkscape:connector-curvature="0" /></g><g
           id="g138"
           transform="translate(476.7734,386.4063)"><path
             d="m 0,0 0,14.32 -4.771,4.776 -22.915,0 0,-3.834 2.866,0 0,-31.491 -2.866,0 0,-3.818 10.506,0 0,3.818 -2.865,0 0,11.458 15.201,0 0.073,0 L 0,0 Z m 3.82,15.275 0,-17.183 -6.683,-6.682 -13.364,0 0,-3.82 2.866,0 0,-11.455 -18.141,0 0,11.455 2.863,0 0,23.855 -2.863,0 0,11.469 28.639,0 6.683,-6.685 0,-0.95 0,-0.004 z"
             style="fill:#ffffff;fill-opacity:1;fill-rule:nonzero;stroke:none"
             id="path140"
             inkscape:connector-curvature="0" /></g><g
           id="g142"
           transform="translate(468.1836,390.2246)"><path
             d="m 0,0 0,6.684 -0.953,0.955 -6.684,0 0,-8.592 6.684,0 L 0,0 Z m 3.818,8.592 0,-10.5 -2.863,-2.862 -12.41,0 0,16.227 12.41,0 2.863,-2.865 z"
             style="fill:#ffffff;fill-opacity:1;fill-rule:nonzero;stroke:none"
             id="path144"
             inkscape:connector-curvature="0" /></g><g
           id="g146"
           transform="translate(437.6348,366.3594)"><path
             d="m 0,0 0,3.818 -21.006,0 L 0,24.822 l 0,9.545 -4.773,4.776 -16.233,0 -4.771,-4.776 0,-5.728 4.771,0 0,3.818 2.865,2.865 10.504,0 2.864,-2.865 0,-5.725 L -25.777,5.73 -25.777,0 0,0 Z m 3.818,7.637 0,-11.455 -33.414,0 0,11.455 21.004,20.865 0,2.047 -0.955,0.955 -6.685,0 -0.956,-0.955 0,-5.729 -12.408,0 0,11.455 6.684,6.686 20.049,0 6.681,-6.686 0,-13.363 -15.277,-15.275 15.277,0 z"
             style="fill:#ffffff;fill-opacity:1;fill-rule:nonzero;stroke:none"
             id="path148"
             inkscape:connector-curvature="0" /></g><g
           id="g150"
           transform="translate(401.3574,386.4063)"><path
             d="m 0,0 0,14.32 -4.777,4.776 -22.911,0 0,-3.834 2.866,0 0,-31.491 -2.866,0 0,-3.818 10.502,0 0,3.818 -2.863,0 0,11.458 15.203,0 0.069,0 L 0,0 Z m 3.818,16.229 0,-18.137 -6.681,-6.682 -13.369,0 0,-3.82 2.865,0 0,-11.455 -18.137,0 0,11.455 2.863,0 0,23.855 -2.863,0 0,11.469 28.641,0 6.681,-6.685 z"
             style="fill:#ffffff;fill-opacity:1;fill-rule:nonzero;stroke:none"
             id="path152"
             inkscape:connector-curvature="0" /></g><g
           id="g154"
           transform="translate(392.7617,390.2246)"><path
             d="m 0,0 0,6.684 -0.949,0.955 -6.688,0 0,-8.592 6.688,0 L 0,0 Z m 3.822,8.592 0,-10.5 -2.867,-2.862 -12.408,0 0,16.227 12.412,0 2.863,-2.865 z"
             style="fill:#ffffff;fill-opacity:1;fill-rule:nonzero;stroke:none"
             id="path156"
             inkscape:connector-curvature="0" /></g><g
           id="g158"><g
             id="g160" /><g
             id="g166"><g
               clip-path="url(#clipPath162)"
               id="g168"
               style="opacity:0.14999402"><g
                 transform="translate(844.375,405.502)"
                 id="g170"><path
                   d="m 0,0 0,-3.834 -2.867,0 0,-30.535 -4.774,-4.774 -0.072,0 -14.172,0 -0.074,0 -4.771,4.774 0,30.535 -2.864,0 0,3.834 9.545,0 0,-3.82 -1.91,0 0,-28.637 2.863,-2.867 8.592,0 2.863,2.863 0,28.641 -1.908,0 0,3.82 L 0,0 Z"
                   style="fill:#202b30;fill-opacity:1;fill-rule:nonzero;stroke:none"
                   id="path172"
                   inkscape:connector-curvature="0" /></g></g></g></g><g
           id="g174"><g
             id="g176" /><g
             id="g182"><g
               clip-path="url(#clipPath178)"
               id="g184"
               style="opacity:0.14999402"><g
                 transform="translate(799.5039,388.3164)"
                 id="g186"><path
                   d="m 0,0 0,10.5 -2.863,2.865 -12.41,0 0,-16.226 12.41,0 L 0,0 Z m 4.771,12.41 0,-14.32 L 0,-6.682 l -0.072,0 -15.201,0 0,-11.457 2.865,0 0,-3.818 -10.506,0 0,3.818 2.865,0 0,31.491 -2.865,0 0,3.834 22.914,0 4.771,-4.776 z"
                   style="fill:#202b30;fill-opacity:1;fill-rule:nonzero;stroke:none"
                   id="path188"
                   inkscape:connector-curvature="0" /></g></g></g></g><g
           id="g190"><g
             id="g192" /><g
             id="g198"><g
               clip-path="url(#clipPath194)"
               id="g200"
               style="opacity:0.14999402"><g
                 transform="translate(765.1367,370.1777)"
                 id="g202"><path
                   d="m 0,0 0,-3.818 -25.777,0 0,5.73 21.004,21.002 0,5.725 -2.864,2.865 -10.504,0 -2.865,-2.865 0,-3.819 -4.771,0 0,5.729 4.771,4.775 16.233,0 L 0,30.549 0,21.004 -21.006,0 0,0 Z"
                   style="fill:#202b30;fill-opacity:1;fill-rule:nonzero;stroke:none"
                   id="path204"
                   inkscape:connector-curvature="0" /></g></g></g></g><g
           id="g206"><g
             id="g208" /><g
             id="g214"><g
               clip-path="url(#clipPath210)"
               id="g216"
               style="opacity:0.14999402"><g
                 transform="translate(724.0859,388.3164)"
                 id="g218"><path
                   d="m 0,0 0,10.5 -2.863,2.865 -12.412,0 0,-16.226 12.408,0 L 0,0 Z m 4.773,12.41 0,-14.32 -4.777,-4.772 -0.068,0 -15.203,0 0,-11.457 2.863,0 0,-3.818 -10.502,0 0,3.818 2.865,0 0,31.491 -2.865,0 0,3.834 22.91,0 4.777,-4.776 z"
                   style="fill:#202b30;fill-opacity:1;fill-rule:nonzero;stroke:none"
                   id="path220"
                   inkscape:connector-curvature="0" /></g></g></g></g><g
           id="g222"
           transform="translate(844.375,401.668)"><path
             d="m 0,0 0,3.834 -9.549,0 0,-3.82 1.908,0 0,-28.641 -2.863,-2.863 -8.592,0 -2.863,2.867 0,28.637 1.91,0 0,3.82 -9.545,0 0,-3.834 2.864,0 0,-30.535 4.771,-4.774 0.074,0 14.172,0 0.072,0 4.774,4.774 L -2.867,0 0,0 Z m 3.818,7.652 0,-11.468 -2.863,0 0,-28.629 -6.685,-6.682 -18.137,0 -6.682,6.682 0,28.629 -2.863,0 0,11.468 0.234,0 16.948,0 0,-10.504 -1.909,0 0,-23.865 0.953,-0.953 0,-0.002 4.774,0 0,0.002 0.955,0.953 0,23.865 -1.908,0 0,10.504 17.183,0 z"
             style="fill:#202b30;fill-opacity:1;fill-rule:nonzero;stroke:none"
             id="path224"
             inkscape:connector-curvature="0" /></g><g
           id="g226"
           transform="translate(804.2754,386.4063)"><path
             d="m 0,0 0,14.32 -4.771,4.776 -22.915,0 0,-3.834 2.866,0 0,-31.491 -2.866,0 0,-3.818 10.506,0 0,3.818 -2.865,0 0,11.458 15.201,0 0.073,0 L 0,0 Z m 3.82,15.275 0,-17.183 -6.683,-6.682 -13.364,0 0,-3.82 2.866,0 0,-11.455 -18.141,0 0,11.455 2.863,0 0,23.855 -2.863,0 0,11.469 28.639,0 6.683,-6.685 0,-0.95 0,-0.004 z"
             style="fill:#202b30;fill-opacity:1;fill-rule:nonzero;stroke:none"
             id="path228"
             inkscape:connector-curvature="0" /></g><g
           id="g230"
           transform="translate(795.6855,390.2246)"><path
             d="m 0,0 0,6.684 -0.953,0.955 -6.684,0 0,-8.592 6.684,0 L 0,0 Z m 3.818,8.592 0,-10.5 -2.863,-2.862 -12.41,0 0,16.227 12.41,0 2.863,-2.865 z"
             style="fill:#202b30;fill-opacity:1;fill-rule:nonzero;stroke:none"
             id="path232"
             inkscape:connector-curvature="0" /></g><g
           id="g234"
           transform="translate(765.1367,366.3594)"><path
             d="m 0,0 0,3.818 -21.006,0 L 0,24.822 l 0,9.545 -4.773,4.776 -16.233,0 -4.771,-4.776 0,-5.728 4.771,0 0,3.818 2.865,2.865 10.504,0 2.864,-2.865 0,-5.725 L -25.777,5.73 -25.777,0 0,0 Z m 3.818,7.637 0,-11.455 -33.414,0 0,11.455 21.004,20.865 0,2.047 -0.955,0.955 -6.685,0 -0.956,-0.955 0,-5.729 -12.408,0 0,11.455 6.684,6.686 20.049,0 6.681,-6.686 0,-13.363 -15.277,-15.275 15.277,0 z"
             style="fill:#202b30;fill-opacity:1;fill-rule:nonzero;stroke:none"
             id="path236"
             inkscape:connector-curvature="0" /></g><g
           id="g238"
           transform="translate(728.8594,386.4063)"><path
             d="m 0,0 0,14.32 -4.777,4.776 -22.911,0 0,-3.834 2.866,0 0,-31.491 -2.866,0 0,-3.818 10.502,0 0,3.818 -2.863,0 0,11.458 15.203,0 0.069,0 L 0,0 Z m 3.818,16.229 0,-18.137 -6.681,-6.682 -13.369,0 0,-3.82 2.865,0 0,-11.455 -18.137,0 0,11.455 2.863,0 0,23.855 -2.863,0 0,11.469 28.641,0 6.681,-6.685 z"
             style="fill:#202b30;fill-opacity:1;fill-rule:nonzero;stroke:none"
             id="path240"
             inkscape:connector-curvature="0" /></g><g
           id="g242"
           transform="translate(720.2637,390.2246)"><path
             d="m 0,0 0,6.684 -0.949,0.955 -6.688,0 0,-8.592 6.688,0 L 0,0 Z m 3.822,8.592 0,-10.5 -2.867,-2.862 -12.408,0 0,16.227 12.412,0 2.863,-2.865 z"
             style="fill:#202b30;fill-opacity:1;fill-rule:nonzero;stroke:none"
             id="path244"
             inkscape:connector-curvature="0" /></g><g
           id="g246"><g
             id="g248" /><g
             id="g254"><g
               clip-path="url(#clipPath250)"
               id="g256"
               style="opacity:0.14999402"><g
                 transform="translate(1169.916,405.502)"
                 id="g258"><path
                   d="m 0,0 0,-3.834 -2.867,0 0,-30.535 -4.774,-4.774 -0.074,0 -14.172,0 -0.072,0 -4.771,4.774 0,30.535 -2.866,0 0,3.834 9.545,0 0,-3.82 -1.908,0 0,-28.637 2.863,-2.867 8.592,0 2.863,2.863 0,28.641 -1.908,0 0,3.82 L 0,0 Z"
                   style="fill:#202b30;fill-opacity:1;fill-rule:nonzero;stroke:none"
                   id="path260"
                   inkscape:connector-curvature="0" /></g></g></g></g><g
           id="g262"><g
             id="g264" /><g
             id="g270"><g
               clip-path="url(#clipPath266)"
               id="g272"
               style="opacity:0.14999402"><g
                 transform="translate(1125.043,388.3164)"
                 id="g274"><path
                   d="m 0,0 0,10.5 -2.863,2.865 -12.41,0 0,-16.226 12.41,0 L 0,0 Z m 4.773,12.41 0,-14.32 L 0,-6.682 l -0.072,0 -15.201,0 0,-11.457 2.865,0 0,-3.818 -10.504,0 0,3.818 2.863,0 0,31.491 -2.863,0 0,3.834 22.912,0 4.773,-4.776 z"
                   style="fill:#202b30;fill-opacity:1;fill-rule:nonzero;stroke:none"
                   id="path276"
                   inkscape:connector-curvature="0" /></g></g></g></g><g
           id="g278"><g
             id="g280" /><g
             id="g286"><g
               clip-path="url(#clipPath282)"
               id="g288"
               style="opacity:0.14999402"><g
                 transform="translate(1090.6758,370.1777)"
                 id="g290"><path
                   d="m 0,0 0,-3.818 -25.777,0 0,5.73 21.004,21.002 0,5.725 -2.864,2.865 -10.504,0 -2.863,-2.865 0,-3.819 -4.773,0 0,5.729 4.773,4.775 16.231,0 L 0,30.549 0,21.004 -21.004,0 0,0 Z"
                   style="fill:#202b30;fill-opacity:1;fill-rule:nonzero;stroke:none"
                   id="path292"
                   inkscape:connector-curvature="0" /></g></g></g></g><g
           id="g294"><g
             id="g296" /><g
             id="g302"><g
               clip-path="url(#clipPath298)"
               id="g304"
               style="opacity:0.14999402"><g
                 transform="translate(1049.627,388.3164)"
                 id="g306"><path
                   d="m 0,0 0,10.5 -2.863,2.865 -12.414,0 0,-16.226 12.408,0 L 0,0 Z m 4.771,12.41 0,-14.32 -4.775,-4.772 -0.07,0 -15.203,0 0,-11.457 2.863,0 0,-3.818 -10.5,0 0,3.818 2.863,0 0,31.491 -2.863,0 0,3.834 22.91,0 4.775,-4.776 z"
                   style="fill:#202b30;fill-opacity:1;fill-rule:nonzero;stroke:none"
                   id="path308"
                   inkscape:connector-curvature="0" /></g></g></g></g><g
           id="g310"
           transform="translate(1169.916,401.668)"><path
             d="m 0,0 0,3.834 -9.549,0 0,-3.82 1.908,0 0,-28.641 -2.863,-2.863 -8.592,0 -2.863,2.867 0,28.637 1.908,0 0,3.82 -9.545,0 0,-3.834 2.866,0 0,-30.535 4.771,-4.774 0.072,0 14.172,0 0.074,0 4.774,4.774 L -2.867,0 0,0 Z m 3.818,7.652 0,-11.468 -2.863,0 0,-28.629 -6.685,-6.682 -18.137,0 -6.684,6.682 0,28.629 -2.863,0 0,11.468 0.236,0 16.946,0 0,-10.504 -1.909,0 0,-23.865 0.955,-0.953 0,-0.002 4.772,0 0,0.002 0.955,0.953 0,23.865 -1.908,0 0,10.504 17.185,0 z"
             style="fill:#202b30;fill-opacity:1;fill-rule:nonzero;stroke:none"
             id="path312"
             inkscape:connector-curvature="0" /></g><g
           id="g314"
           transform="translate(1129.8164,386.4063)"><path
             d="m 0,0 0,14.32 -4.773,4.776 -22.913,0 0,-3.834 2.864,0 0,-31.491 -2.864,0 0,-3.818 10.504,0 0,3.818 -2.865,0 0,11.458 15.201,0 0.073,0 L 0,0 Z m 3.818,15.275 0,-17.183 -6.681,-6.682 -13.364,0 0,-3.82 2.864,0 0,-11.455 -18.141,0 0,11.455 2.863,0 0,23.855 -2.863,0 0,11.469 28.641,0 6.681,-6.685 0,-0.95 0,-0.004 z"
             style="fill:#202b30;fill-opacity:1;fill-rule:nonzero;stroke:none"
             id="path316"
             inkscape:connector-curvature="0" /></g><g
           id="g318"
           transform="translate(1121.2246,390.2246)"><path
             d="m 0,0 0,6.684 -0.953,0.955 -6.682,0 0,-8.592 6.682,0 L 0,0 Z m 3.818,8.592 0,-10.5 -2.863,-2.862 -12.41,0 0,16.227 12.41,0 2.863,-2.865 z"
             style="fill:#202b30;fill-opacity:1;fill-rule:nonzero;stroke:none"
             id="path320"
             inkscape:connector-curvature="0" /></g><g
           id="g322"
           transform="translate(1090.6758,366.3594)"><path
             d="m 0,0 0,3.818 -21.004,0 L 0,24.822 l 0,9.545 -4.773,4.776 -16.231,0 -4.773,-4.776 0,-5.728 4.773,0 0,3.818 2.863,2.865 10.504,0 2.864,-2.865 0,-5.725 L -25.777,5.73 -25.777,0 0,0 Z m 3.818,7.637 0,-11.455 -33.414,0 0,11.455 21.004,20.865 0,2.047 -0.953,0.955 -6.687,0 -0.954,-0.955 0,-5.729 -12.41,0 0,11.455 6.684,6.686 20.049,0 6.681,-6.686 0,-13.363 -15.277,-15.275 15.277,0 z"
             style="fill:#202b30;fill-opacity:1;fill-rule:nonzero;stroke:none"
             id="path324"
             inkscape:connector-curvature="0" /></g><g
           id="g326"
           transform="translate(1054.3984,386.4063)"><path
             d="m 0,0 0,14.32 -4.775,4.776 -22.911,0 0,-3.834 2.864,0 0,-31.491 -2.864,0 0,-3.818 10.5,0 0,3.818 -2.863,0 0,11.458 15.203,0 0.071,0 L 0,0 Z m 3.818,16.229 0,-18.137 -6.681,-6.682 -13.367,0 0,-3.82 2.863,0 0,-11.455 -18.137,0 0,11.455 2.863,0 0,23.855 -2.863,0 0,11.469 28.641,0 6.681,-6.685 z"
             style="fill:#202b30;fill-opacity:1;fill-rule:nonzero;stroke:none"
             id="path328"
             inkscape:connector-curvature="0" /></g><g
           id="g330"
           transform="translate(1045.8047,390.2246)"><path
             d="m 0,0 0,6.684 -0.951,0.955 -6.686,0 0,-8.592 6.686,0 L 0,0 Z m 3.822,8.592 0,-10.5 -2.869,-2.862 -12.408,0 0,16.227 12.414,0 2.863,-2.865 z"
             style="fill:#202b30;fill-opacity:1;fill-rule:nonzero;stroke:none"
             id="path332"
             inkscape:connector-curvature="0" /></g><g
           id="g334"><g
             id="g336" /><g
             id="g342"><g
               clip-path="url(#clipPath338)"
               id="g344"
               style="opacity:0.14999402"><g
                 transform="translate(1497.4492,405.502)"
                 id="g346"><path
                   d="m 0,0 0,-3.834 -2.867,0 0,-30.535 -4.774,-4.774 -0.074,0 -14.172,0 -0.072,0 -4.771,4.774 0,30.535 -2.866,0 0,3.834 9.545,0 0,-3.82 -1.908,0 0,-28.637 2.863,-2.867 8.592,0 2.863,2.863 0,28.641 -1.908,0 0,3.82 L 0,0 Z"
                   style="fill:#202b30;fill-opacity:1;fill-rule:nonzero;stroke:none"
                   id="path348"
                   inkscape:connector-curvature="0" /></g></g></g></g><g
           id="g350"><g
             id="g352" /><g
             id="g358"><g
               clip-path="url(#clipPath354)"
               id="g360"
               style="opacity:0.14999402"><g
                 transform="translate(1452.5762,388.3164)"
                 id="g362"><path
                   d="m 0,0 0,10.5 -2.863,2.865 -12.41,0 0,-16.226 12.41,0 L 0,0 Z m 4.773,12.41 0,-14.32 L 0,-6.682 l -0.072,0 -15.201,0 0,-11.457 2.865,0 0,-3.818 -10.504,0 0,3.818 2.863,0 0,31.491 -2.863,0 0,3.834 22.912,0 4.773,-4.776 z"
                   style="fill:#202b30;fill-opacity:1;fill-rule:nonzero;stroke:none"
                   id="path364"
                   inkscape:connector-curvature="0" /></g></g></g></g><g
           id="g366"><g
             id="g368" /><g
             id="g374"><g
               clip-path="url(#clipPath370)"
               id="g376"
               style="opacity:0.14999402"><g
                 transform="translate(1418.209,370.1777)"
                 id="g378"><path
                   d="m 0,0 0,-3.818 -25.777,0 0,5.73 21.004,21.002 0,5.725 -2.864,2.865 -10.504,0 -2.863,-2.865 0,-3.819 -4.773,0 0,5.729 4.773,4.775 16.231,0 L 0,30.549 0,21.004 -21.004,0 0,0 Z"
                   style="fill:#202b30;fill-opacity:1;fill-rule:nonzero;stroke:none"
                   id="path380"
                   inkscape:connector-curvature="0" /></g></g></g></g><g
           id="g382"><g
             id="g384" /><g
             id="g390"><g
               clip-path="url(#clipPath386)"
               id="g392"
               style="opacity:0.14999402"><g
                 transform="translate(1377.1602,388.3164)"
                 id="g394"><path
                   d="m 0,0 0,10.5 -2.863,2.865 -12.414,0 0,-16.226 12.408,0 L 0,0 Z m 4.771,12.41 0,-14.32 -4.775,-4.772 -0.07,0 -15.203,0 0,-11.457 2.863,0 0,-3.818 -10.5,0 0,3.818 2.863,0 0,31.491 -2.863,0 0,3.834 22.91,0 4.775,-4.776 z"
                   style="fill:#202b30;fill-opacity:1;fill-rule:nonzero;stroke:none"
                   id="path396"
                   inkscape:connector-curvature="0" /></g></g></g></g><g
           id="g398"
           transform="translate(1497.4492,401.668)"><path
             d="m 0,0 0,3.834 -9.549,0 0,-3.82 1.908,0 0,-28.641 -2.863,-2.863 -8.592,0 -2.863,2.867 0,28.637 1.908,0 0,3.82 -9.545,0 0,-3.834 2.866,0 0,-30.535 4.771,-4.774 0.072,0 14.172,0 0.074,0 4.774,4.774 L -2.867,0 0,0 Z m 3.818,7.652 0,-11.468 -2.863,0 0,-28.629 -6.685,-6.682 -18.137,0 -6.684,6.682 0,28.629 -2.863,0 0,11.468 0.236,0 16.946,0 0,-10.504 -1.909,0 0,-23.865 0.955,-0.953 0,-0.002 4.772,0 0,0.002 0.955,0.953 0,23.865 -1.908,0 0,10.504 17.185,0 z"
             style="fill:#202b30;fill-opacity:1;fill-rule:nonzero;stroke:none"
             id="path400"
             inkscape:connector-curvature="0" /></g><g
           id="g402"
           transform="translate(1457.3496,386.4063)"><path
             d="m 0,0 0,14.32 -4.773,4.776 -22.913,0 0,-3.834 2.864,0 0,-31.491 -2.864,0 0,-3.818 10.504,0 0,3.818 -2.865,0 0,11.458 15.201,0 0.073,0 L 0,0 Z m 3.818,15.275 0,-17.183 -6.681,-6.682 -13.364,0 0,-3.82 2.864,0 0,-11.455 -18.141,0 0,11.455 2.863,0 0,23.855 -2.863,0 0,11.469 28.641,0 6.681,-6.685 0,-0.95 0,-0.004 z"
             style="fill:#202b30;fill-opacity:1;fill-rule:nonzero;stroke:none"
             id="path404"
             inkscape:connector-curvature="0" /></g><g
           id="g406"
           transform="translate(1448.7578,390.2246)"><path
             d="m 0,0 0,6.684 -0.953,0.955 -6.682,0 0,-8.592 6.682,0 L 0,0 Z m 3.818,8.592 0,-10.5 -2.863,-2.862 -12.41,0 0,16.227 12.41,0 2.863,-2.865 z"
             style="fill:#202b30;fill-opacity:1;fill-rule:nonzero;stroke:none"
             id="path408"
             inkscape:connector-curvature="0" /></g><g
           id="g410"
           transform="translate(1418.209,366.3594)"><path
             d="m 0,0 0,3.818 -21.004,0 L 0,24.822 l 0,9.545 -4.773,4.776 -16.231,0 -4.773,-4.776 0,-5.728 4.773,0 0,3.818 2.863,2.865 10.504,0 2.864,-2.865 0,-5.725 L -25.777,5.73 -25.777,0 0,0 Z m 3.818,7.637 0,-11.455 -33.414,0 0,11.455 21.004,20.865 0,2.047 -0.953,0.955 -6.687,0 -0.954,-0.955 0,-5.729 -12.41,0 0,11.455 6.684,6.686 20.049,0 6.681,-6.686 0,-13.363 -15.277,-15.275 15.277,0 z"
             style="fill:#202b30;fill-opacity:1;fill-rule:nonzero;stroke:none"
             id="path412"
             inkscape:connector-curvature="0" /></g><g
           id="g414"
           transform="translate(1381.9316,386.4063)"><path
             d="m 0,0 0,14.32 -4.775,4.776 -22.911,0 0,-3.834 2.864,0 0,-31.491 -2.864,0 0,-3.818 10.5,0 0,3.818 -2.863,0 0,11.458 15.203,0 0.071,0 L 0,0 Z m 3.818,16.229 0,-18.137 -6.681,-6.682 -13.367,0 0,-3.82 2.863,0 0,-11.455 -18.137,0 0,11.455 2.863,0 0,23.855 -2.863,0 0,11.469 28.641,0 6.681,-6.685 z"
             style="fill:#202b30;fill-opacity:1;fill-rule:nonzero;stroke:none"
             id="path416"
             inkscape:connector-curvature="0" /></g><g
           id="g418"
           transform="translate(1373.3379,390.2246)"><path
             d="m 0,0 0,6.684 -0.951,0.955 -6.686,0 0,-8.592 6.686,0 L 0,0 Z m 3.822,8.592 0,-10.5 -2.869,-2.862 -12.408,0 0,16.227 12.414,0 2.863,-2.865 z"
             style="fill:#202b30;fill-opacity:1;fill-rule:nonzero;stroke:none"
             id="path420"
             inkscape:connector-curvature="0" /></g><g
           id="g422"><g
             id="g424" /><g
             id="g430"><g
               clip-path="url(#clipPath426)"
               id="g432"
               style="opacity:0.14999402"><g
                 transform="translate(1825.8477,405.502)"
                 id="g434"><path
                   d="m 0,0 0,-3.834 -2.867,0 0,-30.535 -4.774,-4.774 -0.074,0 -14.172,0 -0.072,0 -4.771,4.774 0,30.535 -2.866,0 0,3.834 9.545,0 0,-3.82 -1.908,0 0,-28.637 2.863,-2.867 8.592,0 2.863,2.863 0,28.641 -1.908,0 0,3.82 L 0,0 Z"
                   style="fill:#ffffff;fill-opacity:1;fill-rule:nonzero;stroke:none"
                   id="path436"
                   inkscape:connector-curvature="0" /></g></g></g></g><g
           id="g438"><g
             id="g440" /><g
             id="g446"><g
               clip-path="url(#clipPath442)"
               id="g448"
               style="opacity:0.14999402"><g
                 transform="translate(1780.9746,388.3164)"
                 id="g450"><path
                   d="m 0,0 0,10.5 -2.863,2.865 -12.41,0 0,-16.226 12.41,0 L 0,0 Z m 4.773,12.41 0,-14.32 L 0,-6.682 l -0.072,0 -15.201,0 0,-11.457 2.865,0 0,-3.818 -10.504,0 0,3.818 2.863,0 0,31.491 -2.863,0 0,3.834 22.912,0 4.773,-4.776 z"
                   style="fill:#ffffff;fill-opacity:1;fill-rule:nonzero;stroke:none"
                   id="path452"
                   inkscape:connector-curvature="0" /></g></g></g></g><g
           id="g454"><g
             id="g456" /><g
             id="g462"><g
               clip-path="url(#clipPath458)"
               id="g464"
               style="opacity:0.14999402"><g
                 transform="translate(1746.6074,370.1777)"
                 id="g466"><path
                   d="m 0,0 0,-3.818 -25.777,0 0,5.73 21.004,21.002 0,5.725 -2.864,2.865 -10.504,0 -2.863,-2.865 0,-3.819 -4.773,0 0,5.729 4.773,4.775 16.231,0 L 0,30.549 0,21.004 -21.004,0 0,0 Z"
                   style="fill:#ffffff;fill-opacity:1;fill-rule:nonzero;stroke:none"
                   id="path468"
                   inkscape:connector-curvature="0" /></g></g></g></g><g
           id="g470"><g
             id="g472" /><g
             id="g478"><g
               clip-path="url(#clipPath474)"
               id="g480"
               style="opacity:0.14999402"><g
                 transform="translate(1705.5586,388.3164)"
                 id="g482"><path
                   d="m 0,0 0,10.5 -2.863,2.865 -12.414,0 0,-16.226 12.408,0 L 0,0 Z m 4.771,12.41 0,-14.32 -4.775,-4.772 -0.07,0 -15.203,0 0,-11.457 2.863,0 0,-3.818 -10.5,0 0,3.818 2.863,0 0,31.491 -2.863,0 0,3.834 22.91,0 4.775,-4.776 z"
                   style="fill:#ffffff;fill-opacity:1;fill-rule:nonzero;stroke:none"
                   id="path484"
                   inkscape:connector-curvature="0" /></g></g></g></g><g
           id="g486"
           transform="translate(1825.8477,401.668)"><path
             d="m 0,0 0,3.834 -9.549,0 0,-3.82 1.908,0 0,-28.641 -2.863,-2.863 -8.592,0 -2.863,2.867 0,28.637 1.908,0 0,3.82 -9.545,0 0,-3.834 2.866,0 0,-30.535 4.771,-4.774 0.072,0 14.172,0 0.074,0 4.774,4.774 L -2.867,0 0,0 Z m 3.818,7.652 0,-11.468 -2.863,0 0,-28.629 -6.685,-6.682 -18.137,0 -6.684,6.682 0,28.629 -2.863,0 0,11.468 0.236,0 16.946,0 0,-10.504 -1.909,0 0,-23.865 0.955,-0.953 0,-0.002 4.772,0 0,0.002 0.955,0.953 0,23.865 -1.908,0 0,10.504 17.185,0 z"
             style="fill:#ffffff;fill-opacity:1;fill-rule:nonzero;stroke:none"
             id="path488"
             inkscape:connector-curvature="0" /></g><g
           id="g490"
           transform="translate(1785.748,386.4063)"><path
             d="m 0,0 0,14.32 -4.773,4.776 -22.913,0 0,-3.834 2.864,0 0,-31.491 -2.864,0 0,-3.818 10.504,0 0,3.818 -2.865,0 0,11.458 15.201,0 0.073,0 L 0,0 Z m 3.818,15.275 0,-17.183 -6.681,-6.682 -13.364,0 0,-3.82 2.864,0 0,-11.455 -18.141,0 0,11.455 2.863,0 0,23.855 -2.863,0 0,11.469 28.641,0 6.681,-6.685 0,-0.95 0,-0.004 z"
             style="fill:#ffffff;fill-opacity:1;fill-rule:nonzero;stroke:none"
             id="path492"
             inkscape:connector-curvature="0" /></g><g
           id="g494"
           transform="translate(1777.1563,390.2246)"><path
             d="m 0,0 0,6.684 -0.953,0.955 -6.682,0 0,-8.592 6.682,0 L 0,0 Z m 3.818,8.592 0,-10.5 -2.863,-2.862 -12.41,0 0,16.227 12.41,0 2.863,-2.865 z"
             style="fill:#ffffff;fill-opacity:1;fill-rule:nonzero;stroke:none"
             id="path496"
             inkscape:connector-curvature="0" /></g><g
           id="g498"
           transform="translate(1746.6074,366.3594)"><path
             d="m 0,0 0,3.818 -21.004,0 L 0,24.822 l 0,9.545 -4.773,4.776 -16.231,0 -4.773,-4.776 0,-5.728 4.773,0 0,3.818 2.863,2.865 10.504,0 2.864,-2.865 0,-5.725 L -25.777,5.73 -25.777,0 0,0 Z m 3.818,7.637 0,-11.455 -33.414,0 0,11.455 21.004,20.865 0,2.047 -0.953,0.955 -6.687,0 -0.954,-0.955 0,-5.729 -12.41,0 0,11.455 6.684,6.686 20.049,0 6.681,-6.686 0,-13.363 -15.277,-15.275 15.277,0 z"
             style="fill:#ffffff;fill-opacity:1;fill-rule:nonzero;stroke:none"
             id="path500"
             inkscape:connector-curvature="0" /></g><g
           id="g502"
           transform="translate(1710.3301,386.4063)"><path
             d="m 0,0 0,14.32 -4.775,4.776 -22.911,0 0,-3.834 2.864,0 0,-31.491 -2.864,0 0,-3.818 10.5,0 0,3.818 -2.863,0 0,11.458 15.203,0 0.071,0 L 0,0 Z m 3.818,16.229 0,-18.137 -6.681,-6.682 -13.367,0 0,-3.82 2.863,0 0,-11.455 -18.137,0 0,11.455 2.863,0 0,23.855 -2.863,0 0,11.469 28.641,0 6.681,-6.685 z"
             style="fill:#ffffff;fill-opacity:1;fill-rule:nonzero;stroke:none"
             id="path504"
             inkscape:connector-curvature="0" /></g><g
           id="g506"
           transform="translate(1701.7363,390.2246)"><path
             d="m 0,0 0,6.684 -0.951,0.955 -6.686,0 0,-8.592 6.686,0 L 0,0 Z m 3.822,8.592 0,-10.5 -2.869,-2.862 -12.408,0 0,16.227 12.414,0 2.863,-2.865 z"
             style="fill:#ffffff;fill-opacity:1;fill-rule:nonzero;stroke:none"
             id="path508"
             inkscape:connector-curvature="0" /></g><g
           id="g510"><g
             id="g512" /><g
             id="g518"><g
               clip-path="url(#clipPath514)"
               id="g520"
               style="opacity:0.14999402"><g
                 transform="translate(516.873,212.0977)"
                 id="g522"><path
                   d="m 0,0 0,-3.834 -2.867,0 0,-30.535 -4.774,-4.774 -0.072,0 -14.172,0 -0.074,0 -4.771,4.774 0,30.535 -2.864,0 0,3.834 9.545,0 0,-3.82 -1.91,0 0,-28.637 2.863,-2.867 8.592,0 2.863,2.863 0,28.641 -1.908,0 0,3.82 L 0,0 Z"
                   style="fill:#ffffff;fill-opacity:1;fill-rule:nonzero;stroke:none"
                   id="path524"
                   inkscape:connector-curvature="0" /></g></g></g></g><g
           id="g526"><g
             id="g528" /><g
             id="g534"><g
               clip-path="url(#clipPath530)"
               id="g536"
               style="opacity:0.14999402"><g
                 transform="translate(472.002,194.9121)"
                 id="g538"><path
                   d="m 0,0 0,10.5 -2.863,2.865 -12.41,0 0,-16.226 12.41,0 L 0,0 Z m 4.771,12.41 0,-14.32 L 0,-6.682 l -0.072,0 -15.201,0 0,-11.457 2.865,0 0,-3.818 -10.506,0 0,3.818 2.865,0 0,31.491 -2.865,0 0,3.834 22.914,0 4.771,-4.776 z"
                   style="fill:#ffffff;fill-opacity:1;fill-rule:nonzero;stroke:none"
                   id="path540"
                   inkscape:connector-curvature="0" /></g></g></g></g><g
           id="g542"><g
             id="g544" /><g
             id="g550"><g
               clip-path="url(#clipPath546)"
               id="g552"
               style="opacity:0.14999402"><g
                 transform="translate(437.6348,176.7734)"
                 id="g554"><path
                   d="m 0,0 0,-3.818 -25.777,0 0,5.73 21.004,21.002 0,5.725 -2.864,2.865 -10.504,0 -2.865,-2.865 0,-3.819 -4.771,0 0,5.729 4.771,4.775 16.233,0 L 0,30.549 0,21.004 -21.006,0 0,0 Z"
                   style="fill:#ffffff;fill-opacity:1;fill-rule:nonzero;stroke:none"
                   id="path556"
                   inkscape:connector-curvature="0" /></g></g></g></g><g
           id="g558"><g
             id="g560" /><g
             id="g566"><g
               clip-path="url(#clipPath562)"
               id="g568"
               style="opacity:0.14999402"><g
                 transform="translate(396.584,194.9121)"
                 id="g570"><path
                   d="m 0,0 0,10.5 -2.863,2.865 -12.412,0 0,-16.226 12.408,0 L 0,0 Z m 4.773,12.41 0,-14.32 -4.777,-4.772 -0.068,0 -15.203,0 0,-11.457 2.863,0 0,-3.818 -10.502,0 0,3.818 2.865,0 0,31.491 -2.865,0 0,3.834 22.91,0 4.777,-4.776 z"
                   style="fill:#ffffff;fill-opacity:1;fill-rule:nonzero;stroke:none"
                   id="path572"
                   inkscape:connector-curvature="0" /></g></g></g></g><g
           id="g574"
           transform="translate(516.873,208.2637)"><path
             d="m 0,0 0,3.834 -9.549,0 0,-3.82 1.908,0 0,-28.641 -2.863,-2.863 -8.592,0 -2.863,2.867 0,28.637 1.91,0 0,3.82 -9.545,0 0,-3.834 2.864,0 0,-30.535 4.771,-4.774 0.074,0 14.172,0 0.072,0 4.774,4.774 L -2.867,0 0,0 Z m 3.818,7.652 0,-11.468 -2.863,0 0,-28.629 -6.685,-6.682 -18.137,0 -6.682,6.682 0,28.629 -2.863,0 0,11.468 0.234,0 16.948,0 0,-10.504 -1.909,0 0,-23.867 0.953,-0.951 0,-0.002 4.774,0 0,0.002 0.955,0.951 0,23.867 -1.908,0 0,10.504 17.183,0 z"
             style="fill:#ffffff;fill-opacity:1;fill-rule:nonzero;stroke:none"
             id="path576"
             inkscape:connector-curvature="0" /></g><g
           id="g578"
           transform="translate(476.7734,193.002)"><path
             d="m 0,0 0,14.32 -4.771,4.776 -22.915,0 0,-3.834 2.866,0 0,-31.491 -2.866,0 0,-3.818 10.506,0 0,3.818 -2.865,0 0,11.458 15.201,0 0.073,0 L 0,0 Z m 3.82,15.275 0,-17.183 -6.683,-6.682 -13.364,0 0,-3.82 2.866,0 0,-11.455 -18.141,0 0,11.455 2.863,0 0,23.855 -2.863,0 0,11.469 28.639,0 6.683,-6.685 0,-0.95 0,-0.004 z"
             style="fill:#ffffff;fill-opacity:1;fill-rule:nonzero;stroke:none"
             id="path580"
             inkscape:connector-curvature="0" /></g><g
           id="g582"
           transform="translate(468.1836,196.8203)"><path
             d="m 0,0 0,6.682 -0.953,0.957 -6.684,0 0,-8.592 6.684,0 L 0,0 Z m 3.818,8.592 0,-10.5 -2.863,-2.862 -12.41,0 0,16.227 12.41,0 2.863,-2.865 z"
             style="fill:#ffffff;fill-opacity:1;fill-rule:nonzero;stroke:none"
             id="path584"
             inkscape:connector-curvature="0" /></g><g
           id="g586"
           transform="translate(437.6348,172.9551)"><path
             d="m 0,0 0,3.818 -21.006,0 L 0,24.822 l 0,9.545 -4.773,4.776 -16.233,0 -4.771,-4.776 0,-5.728 4.771,0 0,3.818 2.865,2.865 10.504,0 2.864,-2.865 0,-5.725 L -25.777,5.73 -25.777,0 0,0 Z m 3.818,7.637 0,-11.455 -33.414,0 0,11.455 21.004,20.865 0,2.045 -0.955,0.957 -6.685,0 -0.956,-0.957 0,-5.727 -12.408,0 0,11.455 6.684,6.686 20.049,0 6.681,-6.686 0,-13.363 -15.277,-15.275 15.277,0 z"
             style="fill:#ffffff;fill-opacity:1;fill-rule:nonzero;stroke:none"
             id="path588"
             inkscape:connector-curvature="0" /></g><g
           id="g590"
           transform="translate(401.3574,193.002)"><path
             d="m 0,0 0,14.32 -4.777,4.776 -22.911,0 0,-3.834 2.866,0 0,-31.491 -2.866,0 0,-3.818 10.502,0 0,3.818 -2.863,0 0,11.458 15.203,0 0.069,0 L 0,0 Z m 3.818,16.229 0,-18.137 -6.681,-6.682 -13.369,0 0,-3.82 2.865,0 0,-11.455 -18.137,0 0,11.455 2.863,0 0,23.855 -2.863,0 0,11.469 28.641,0 6.681,-6.685 z"
             style="fill:#ffffff;fill-opacity:1;fill-rule:nonzero;stroke:none"
             id="path592"
             inkscape:connector-curvature="0" /></g><g
           id="g594"
           transform="translate(392.7617,196.8203)"><path
             d="m 0,0 0,6.682 -0.949,0.957 -6.688,0 0,-8.592 6.688,0 L 0,0 Z m 3.822,8.592 0,-10.5 -2.867,-2.862 -12.408,0 0,16.227 12.412,0 2.863,-2.865 z"
             style="fill:#ffffff;fill-opacity:1;fill-rule:nonzero;stroke:none"
             id="path596"
             inkscape:connector-curvature="0" /></g><g
           id="g598"><g
             id="g600" /><g
             id="g606"><g
               clip-path="url(#clipPath602)"
               id="g608"
               style="opacity:0.14999402"><g
                 transform="translate(1500.6016,212.0977)"
                 id="g610"><path
                   d="m 0,0 0,-3.834 -2.867,0 0,-30.535 -4.774,-4.774 -0.072,0 -14.172,0 -0.074,0 -4.771,4.774 0,30.535 -2.864,0 0,3.834 9.545,0 0,-3.82 -1.91,0 0,-28.637 2.863,-2.867 8.592,0 2.863,2.863 0,28.641 -1.908,0 0,3.82 L 0,0 Z"
                   style="fill:#ffffff;fill-opacity:1;fill-rule:nonzero;stroke:none"
                   id="path612"
                   inkscape:connector-curvature="0" /></g></g></g></g><g
           id="g614"><g
             id="g616" /><g
             id="g622"><g
               clip-path="url(#clipPath618)"
               id="g624"
               style="opacity:0.14999402"><g
                 transform="translate(1455.7305,194.9121)"
                 id="g626"><path
                   d="m 0,0 0,10.5 -2.863,2.865 -12.41,0 0,-16.226 12.41,0 L 0,0 Z m 4.771,12.41 0,-14.32 L 0,-6.682 l -0.072,0 -15.201,0 0,-11.457 2.865,0 0,-3.818 -10.506,0 0,3.818 2.865,0 0,31.491 -2.865,0 0,3.834 22.914,0 4.771,-4.776 z"
                   style="fill:#ffffff;fill-opacity:1;fill-rule:nonzero;stroke:none"
                   id="path628"
                   inkscape:connector-curvature="0" /></g></g></g></g><g
           id="g630"><g
             id="g632" /><g
             id="g638"><g
               clip-path="url(#clipPath634)"
               id="g640"
               style="opacity:0.14999402"><g
                 transform="translate(1421.3633,176.7734)"
                 id="g642"><path
                   d="m 0,0 0,-3.818 -25.777,0 0,5.73 21.004,21.002 0,5.725 -2.864,2.865 -10.504,0 -2.865,-2.865 0,-3.819 -4.771,0 0,5.729 4.771,4.775 16.233,0 L 0,30.549 0,21.004 -21.006,0 0,0 Z"
                   style="fill:#ffffff;fill-opacity:1;fill-rule:nonzero;stroke:none"
                   id="path644"
                   inkscape:connector-curvature="0" /></g></g></g></g><g
           id="g646"><g
             id="g648" /><g
             id="g654"><g
               clip-path="url(#clipPath650)"
               id="g656"
               style="opacity:0.14999402"><g
                 transform="translate(1380.3125,194.9121)"
                 id="g658"><path
                   d="m 0,0 0,10.5 -2.863,2.865 -12.412,0 0,-16.226 12.408,0 L 0,0 Z m 4.773,12.41 0,-14.32 -4.777,-4.772 -0.068,0 -15.203,0 0,-11.457 2.863,0 0,-3.818 -10.502,0 0,3.818 2.865,0 0,31.491 -2.865,0 0,3.834 22.91,0 4.777,-4.776 z"
                   style="fill:#ffffff;fill-opacity:1;fill-rule:nonzero;stroke:none"
                   id="path660"
                   inkscape:connector-curvature="0" /></g></g></g></g><g
           id="g662"
           transform="translate(1500.6016,208.2637)"><path
             d="m 0,0 0,3.834 -9.549,0 0,-3.82 1.908,0 0,-28.641 -2.863,-2.863 -8.592,0 -2.863,2.867 0,28.637 1.91,0 0,3.82 -9.545,0 0,-3.834 2.864,0 0,-30.535 4.771,-4.774 0.074,0 14.172,0 0.072,0 4.774,4.774 L -2.867,0 0,0 Z m 3.818,7.652 0,-11.468 -2.863,0 0,-28.629 -6.685,-6.682 -18.137,0 -6.682,6.682 0,28.629 -2.863,0 0,11.468 0.234,0 16.948,0 0,-10.504 -1.909,0 0,-23.867 0.953,-0.951 0,-0.002 4.774,0 0,0.002 0.955,0.951 0,23.867 -1.908,0 0,10.504 17.183,0 z"
             style="fill:#ffffff;fill-opacity:1;fill-rule:nonzero;stroke:none"
             id="path664"
             inkscape:connector-curvature="0" /></g><g
           id="g666"
           transform="translate(1460.502,193.002)"><path
             d="m 0,0 0,14.32 -4.771,4.776 -22.915,0 0,-3.834 2.866,0 0,-31.491 -2.866,0 0,-3.818 10.506,0 0,3.818 -2.865,0 0,11.458 15.201,0 0.073,0 L 0,0 Z m 3.82,15.275 0,-17.183 -6.683,-6.682 -13.364,0 0,-3.82 2.866,0 0,-11.455 -18.141,0 0,11.455 2.863,0 0,23.855 -2.863,0 0,11.469 28.639,0 6.683,-6.685 0,-0.95 0,-0.004 z"
             style="fill:#ffffff;fill-opacity:1;fill-rule:nonzero;stroke:none"
             id="path668"
             inkscape:connector-curvature="0" /></g><g
           id="g670"
           transform="translate(1451.9121,196.8203)"><path
             d="m 0,0 0,6.682 -0.953,0.957 -6.684,0 0,-8.592 6.684,0 L 0,0 Z m 3.818,8.592 0,-10.5 -2.863,-2.862 -12.41,0 0,16.227 12.41,0 2.863,-2.865 z"
             style="fill:#ffffff;fill-opacity:1;fill-rule:nonzero;stroke:none"
             id="path672"
             inkscape:connector-curvature="0" /></g><g
           id="g674"
           transform="translate(1421.3633,172.9551)"><path
             d="m 0,0 0,3.818 -21.006,0 L 0,24.822 l 0,9.545 -4.773,4.776 -16.233,0 -4.771,-4.776 0,-5.728 4.771,0 0,3.818 2.865,2.865 10.504,0 2.864,-2.865 0,-5.725 L -25.777,5.73 -25.777,0 0,0 Z m 3.818,7.637 0,-11.455 -33.414,0 0,11.455 21.004,20.865 0,2.045 -0.955,0.957 -6.685,0 -0.956,-0.957 0,-5.727 -12.408,0 0,11.455 6.684,6.686 20.049,0 6.681,-6.686 0,-13.363 -15.277,-15.275 15.277,0 z"
             style="fill:#ffffff;fill-opacity:1;fill-rule:nonzero;stroke:none"
             id="path676"
             inkscape:connector-curvature="0" /></g><g
           id="g678"
           transform="translate(1385.0859,193.002)"><path
             d="m 0,0 0,14.32 -4.777,4.776 -22.911,0 0,-3.834 2.866,0 0,-31.491 -2.866,0 0,-3.818 10.502,0 0,3.818 -2.863,0 0,11.458 15.203,0 0.069,0 L 0,0 Z m 3.818,16.229 0,-18.137 -6.681,-6.682 -13.369,0 0,-3.82 2.865,0 0,-11.455 -18.137,0 0,11.455 2.863,0 0,23.855 -2.863,0 0,11.469 28.641,0 6.681,-6.685 z"
             style="fill:#ffffff;fill-opacity:1;fill-rule:nonzero;stroke:none"
             id="path680"
             inkscape:connector-curvature="0" /></g><g
           id="g682"
           transform="translate(1376.4902,196.8203)"><path
             d="m 0,0 0,6.682 -0.949,0.957 -6.688,0 0,-8.592 6.688,0 L 0,0 Z m 3.822,8.592 0,-10.5 -2.867,-2.862 -12.408,0 0,16.227 12.412,0 2.863,-2.865 z"
             style="fill:#ffffff;fill-opacity:1;fill-rule:nonzero;stroke:none"
             id="path684"
             inkscape:connector-curvature="0" /></g><g
           id="g686"><g
             id="g688" /><g
             id="g694"><g
               clip-path="url(#clipPath690)"
               id="g696"
               style="opacity:0.14999402"><g
                 transform="translate(1824.9805,212.0977)"
                 id="g698"><path
                   d="m 0,0 0,-3.834 -2.867,0 0,-30.535 -4.774,-4.774 -0.072,0 -14.172,0 -0.074,0 -4.771,4.774 0,30.535 -2.864,0 0,3.834 9.545,0 0,-3.82 -1.91,0 0,-28.637 2.863,-2.867 8.592,0 2.863,2.863 0,28.641 -1.908,0 0,3.82 L 0,0 Z"
                   style="fill:#202b30;fill-opacity:1;fill-rule:nonzero;stroke:none"
                   id="path700"
                   inkscape:connector-curvature="0" /></g></g></g></g><g
           id="g702"><g
             id="g704" /><g
             id="g710"><g
               clip-path="url(#clipPath706)"
               id="g712"
               style="opacity:0.14999402"><g
                 transform="translate(1780.1094,194.9121)"
                 id="g714"><path
                   d="m 0,0 0,10.5 -2.863,2.865 -12.41,0 0,-16.226 12.41,0 L 0,0 Z m 4.771,12.41 0,-14.32 L 0,-6.682 l -0.072,0 -15.201,0 0,-11.457 2.865,0 0,-3.818 -10.506,0 0,3.818 2.865,0 0,31.491 -2.865,0 0,3.834 22.914,0 4.771,-4.776 z"
                   style="fill:#202b30;fill-opacity:1;fill-rule:nonzero;stroke:none"
                   id="path716"
                   inkscape:connector-curvature="0" /></g></g></g></g><g
           id="g718"><g
             id="g720" /><g
             id="g726"><g
               clip-path="url(#clipPath722)"
               id="g728"
               style="opacity:0.14999402"><g
                 transform="translate(1745.7422,176.7734)"
                 id="g730"><path
                   d="m 0,0 0,-3.818 -25.777,0 0,5.73 21.004,21.002 0,5.725 -2.864,2.865 -10.504,0 -2.865,-2.865 0,-3.819 -4.771,0 0,5.729 4.771,4.775 16.233,0 L 0,30.549 0,21.004 -21.006,0 0,0 Z"
                   style="fill:#202b30;fill-opacity:1;fill-rule:nonzero;stroke:none"
                   id="path732"
                   inkscape:connector-curvature="0" /></g></g></g></g><g
           id="g734"><g
             id="g736" /><g
             id="g742"><g
               clip-path="url(#clipPath738)"
               id="g744"
               style="opacity:0.14999402"><g
                 transform="translate(1704.6914,194.9121)"
                 id="g746"><path
                   d="m 0,0 0,10.5 -2.863,2.865 -12.412,0 0,-16.226 12.408,0 L 0,0 Z m 4.773,12.41 0,-14.32 -4.777,-4.772 -0.068,0 -15.203,0 0,-11.457 2.863,0 0,-3.818 -10.502,0 0,3.818 2.865,0 0,31.491 -2.865,0 0,3.834 22.91,0 4.777,-4.776 z"
                   style="fill:#202b30;fill-opacity:1;fill-rule:nonzero;stroke:none"
                   id="path748"
                   inkscape:connector-curvature="0" /></g></g></g></g><g
           id="g750"
           transform="translate(1824.9805,208.2637)"><path
             d="m 0,0 0,3.834 -9.549,0 0,-3.82 1.908,0 0,-28.641 -2.863,-2.863 -8.592,0 -2.863,2.867 0,28.637 1.91,0 0,3.82 -9.545,0 0,-3.834 2.864,0 0,-30.535 4.771,-4.774 0.074,0 14.172,0 0.072,0 4.774,4.774 L -2.867,0 0,0 Z m 3.818,7.652 0,-11.468 -2.863,0 0,-28.629 -6.685,-6.682 -18.137,0 -6.682,6.682 0,28.629 -2.863,0 0,11.468 0.234,0 16.948,0 0,-10.504 -1.909,0 0,-23.867 0.953,-0.951 0,-0.002 4.774,0 0,0.002 0.955,0.951 0,23.867 -1.908,0 0,10.504 17.183,0 z"
             style="fill:#202b30;fill-opacity:1;fill-rule:nonzero;stroke:none"
             id="path752"
             inkscape:connector-curvature="0" /></g><g
           id="g754"
           transform="translate(1784.8809,193.002)"><path
             d="m 0,0 0,14.32 -4.771,4.776 -22.915,0 0,-3.834 2.866,0 0,-31.491 -2.866,0 0,-3.818 10.506,0 0,3.818 -2.865,0 0,11.458 15.201,0 0.073,0 L 0,0 Z m 3.82,15.275 0,-17.183 -6.683,-6.682 -13.364,0 0,-3.82 2.866,0 0,-11.455 -18.141,0 0,11.455 2.863,0 0,23.855 -2.863,0 0,11.469 28.639,0 6.683,-6.685 0,-0.95 0,-0.004 z"
             style="fill:#202b30;fill-opacity:1;fill-rule:nonzero;stroke:none"
             id="path756"
             inkscape:connector-curvature="0" /></g><g
           id="g758"
           transform="translate(1776.291,196.8203)"><path
             d="m 0,0 0,6.682 -0.953,0.957 -6.684,0 0,-8.592 6.684,0 L 0,0 Z m 3.818,8.592 0,-10.5 -2.863,-2.862 -12.41,0 0,16.227 12.41,0 2.863,-2.865 z"
             style="fill:#202b30;fill-opacity:1;fill-rule:nonzero;stroke:none"
             id="path760"
             inkscape:connector-curvature="0" /></g><g
           id="g762"
           transform="translate(1745.7422,172.9551)"><path
             d="m 0,0 0,3.818 -21.006,0 L 0,24.822 l 0,9.545 -4.773,4.776 -16.233,0 -4.771,-4.776 0,-5.728 4.771,0 0,3.818 2.865,2.865 10.504,0 2.864,-2.865 0,-5.725 L -25.777,5.73 -25.777,0 0,0 Z m 3.818,7.637 0,-11.455 -33.414,0 0,11.455 21.004,20.865 0,2.045 -0.955,0.957 -6.685,0 -0.956,-0.957 0,-5.727 -12.408,0 0,11.455 6.684,6.686 20.049,0 6.681,-6.686 0,-13.363 -15.277,-15.275 15.277,0 z"
             style="fill:#202b30;fill-opacity:1;fill-rule:nonzero;stroke:none"
             id="path764"
             inkscape:connector-curvature="0" /></g><g
           id="g766"
           transform="translate(1709.4648,193.002)"><path
             d="m 0,0 0,14.32 -4.777,4.776 -22.911,0 0,-3.834 2.866,0 0,-31.491 -2.866,0 0,-3.818 10.502,0 0,3.818 -2.863,0 0,11.458 15.203,0 0.069,0 L 0,0 Z m 3.818,16.229 0,-18.137 -6.681,-6.682 -13.369,0 0,-3.82 2.865,0 0,-11.455 -18.137,0 0,11.455 2.863,0 0,23.855 -2.863,0 0,11.469 28.641,0 6.681,-6.685 z"
             style="fill:#202b30;fill-opacity:1;fill-rule:nonzero;stroke:none"
             id="path768"
             inkscape:connector-curvature="0" /></g><g
           id="g770"
           transform="translate(1700.8691,196.8203)"><path
             d="m 0,0 0,6.682 -0.949,0.957 -6.688,0 0,-8.592 6.688,0 L 0,0 Z m 3.822,8.592 0,-10.5 -2.867,-2.862 -12.408,0 0,16.227 12.412,0 2.863,-2.865 z"
             style="fill:#202b30;fill-opacity:1;fill-rule:nonzero;stroke:none"
             id="path772"
             inkscape:connector-curvature="0" /></g><g
           id="g774"><g
             id="g776" /><g
             id="g782"><g
               clip-path="url(#clipPath778)"
               id="g784"
               style="opacity:0.14999402"><g
                 transform="translate(1173.7305,212.0977)"
                 id="g786"><path
                   d="m 0,0 0,-3.834 -2.867,0 0,-30.535 -4.774,-4.774 -0.072,0 -14.172,0 -0.074,0 -4.771,4.774 0,30.535 -2.864,0 0,3.834 9.545,0 0,-3.82 -1.91,0 0,-28.637 2.863,-2.867 8.592,0 2.863,2.863 0,28.641 -1.908,0 0,3.82 L 0,0 Z"
                   style="fill:#202b30;fill-opacity:1;fill-rule:nonzero;stroke:none"
                   id="path788"
                   inkscape:connector-curvature="0" /></g></g></g></g><g
           id="g790"><g
             id="g792" /><g
             id="g798"><g
               clip-path="url(#clipPath794)"
               id="g800"
               style="opacity:0.14999402"><g
                 transform="translate(1128.8594,194.9121)"
                 id="g802"><path
                   d="m 0,0 0,10.5 -2.863,2.865 -12.41,0 0,-16.226 12.41,0 L 0,0 Z m 4.771,12.41 0,-14.32 L 0,-6.682 l -0.072,0 -15.201,0 0,-11.457 2.865,0 0,-3.818 -10.506,0 0,3.818 2.865,0 0,31.491 -2.865,0 0,3.834 22.914,0 4.771,-4.776 z"
                   style="fill:#202b30;fill-opacity:1;fill-rule:nonzero;stroke:none"
                   id="path804"
                   inkscape:connector-curvature="0" /></g></g></g></g><g
           id="g806"><g
             id="g808" /><g
             id="g814"><g
               clip-path="url(#clipPath810)"
               id="g816"
               style="opacity:0.14999402"><g
                 transform="translate(1094.4922,176.7734)"
                 id="g818"><path
                   d="m 0,0 0,-3.818 -25.777,0 0,5.73 21.004,21.002 0,5.725 -2.864,2.865 -10.504,0 -2.865,-2.865 0,-3.819 -4.771,0 0,5.729 4.771,4.775 16.233,0 L 0,30.549 0,21.004 -21.006,0 0,0 Z"
                   style="fill:#202b30;fill-opacity:1;fill-rule:nonzero;stroke:none"
                   id="path820"
                   inkscape:connector-curvature="0" /></g></g></g></g><g
           id="g822"><g
             id="g824" /><g
             id="g830"><g
               clip-path="url(#clipPath826)"
               id="g832"
               style="opacity:0.14999402"><g
                 transform="translate(1053.4414,194.9121)"
                 id="g834"><path
                   d="m 0,0 0,10.5 -2.863,2.865 -12.412,0 0,-16.226 12.408,0 L 0,0 Z m 4.773,12.41 0,-14.32 -4.777,-4.772 -0.068,0 -15.203,0 0,-11.457 2.863,0 0,-3.818 -10.502,0 0,3.818 2.865,0 0,31.491 -2.865,0 0,3.834 22.91,0 4.777,-4.776 z"
                   style="fill:#202b30;fill-opacity:1;fill-rule:nonzero;stroke:none"
                   id="path836"
                   inkscape:connector-curvature="0" /></g></g></g></g><g
           id="g838"
           transform="translate(1173.7305,208.2637)"><path
             d="m 0,0 0,3.834 -9.549,0 0,-3.82 1.908,0 0,-28.641 -2.863,-2.863 -8.592,0 -2.863,2.867 0,28.637 1.91,0 0,3.82 -9.545,0 0,-3.834 2.864,0 0,-30.535 4.771,-4.774 0.074,0 14.172,0 0.072,0 4.774,4.774 L -2.867,0 0,0 Z m 3.818,7.652 0,-11.468 -2.863,0 0,-28.629 -6.685,-6.682 -18.137,0 -6.682,6.682 0,28.629 -2.863,0 0,11.468 0.234,0 16.948,0 0,-10.504 -1.909,0 0,-23.867 0.953,-0.951 0,-0.002 4.774,0 0,0.002 0.955,0.951 0,23.867 -1.908,0 0,10.504 17.183,0 z"
             style="fill:#202b30;fill-opacity:1;fill-rule:nonzero;stroke:none"
             id="path840"
             inkscape:connector-curvature="0" /></g><g
           id="g842"
           transform="translate(1133.6309,193.002)"><path
             d="m 0,0 0,14.32 -4.771,4.776 -22.915,0 0,-3.834 2.866,0 0,-31.491 -2.866,0 0,-3.818 10.506,0 0,3.818 -2.865,0 0,11.458 15.201,0 0.073,0 L 0,0 Z m 3.82,15.275 0,-17.183 -6.683,-6.682 -13.364,0 0,-3.82 2.866,0 0,-11.455 -18.141,0 0,11.455 2.863,0 0,23.855 -2.863,0 0,11.469 28.639,0 6.683,-6.685 0,-0.95 0,-0.004 z"
             style="fill:#202b30;fill-opacity:1;fill-rule:nonzero;stroke:none"
             id="path844"
             inkscape:connector-curvature="0" /></g><g
           id="g846"
           transform="translate(1125.041,196.8203)"><path
             d="m 0,0 0,6.682 -0.953,0.957 -6.684,0 0,-8.592 6.684,0 L 0,0 Z m 3.818,8.592 0,-10.5 -2.863,-2.862 -12.41,0 0,16.227 12.41,0 2.863,-2.865 z"
             style="fill:#202b30;fill-opacity:1;fill-rule:nonzero;stroke:none"
             id="path848"
             inkscape:connector-curvature="0" /></g><g
           id="g850"
           transform="translate(1094.4922,172.9551)"><path
             d="m 0,0 0,3.818 -21.006,0 L 0,24.822 l 0,9.545 -4.773,4.776 -16.233,0 -4.771,-4.776 0,-5.728 4.771,0 0,3.818 2.865,2.865 10.504,0 2.864,-2.865 0,-5.725 L -25.777,5.73 -25.777,0 0,0 Z m 3.818,7.637 0,-11.455 -33.414,0 0,11.455 21.004,20.865 0,2.045 -0.955,0.957 -6.685,0 -0.956,-0.957 0,-5.727 -12.408,0 0,11.455 6.684,6.686 20.049,0 6.681,-6.686 0,-13.363 -15.277,-15.275 15.277,0 z"
             style="fill:#202b30;fill-opacity:1;fill-rule:nonzero;stroke:none"
             id="path852"
             inkscape:connector-curvature="0" /></g><g
           id="g854"
           transform="translate(1058.2148,193.002)"><path
             d="m 0,0 0,14.32 -4.777,4.776 -22.911,0 0,-3.834 2.866,0 0,-31.491 -2.866,0 0,-3.818 10.502,0 0,3.818 -2.863,0 0,11.458 15.203,0 0.069,0 L 0,0 Z m 3.818,16.229 0,-18.137 -6.681,-6.682 -13.369,0 0,-3.82 2.865,0 0,-11.455 -18.137,0 0,11.455 2.863,0 0,23.855 -2.863,0 0,11.469 28.641,0 6.681,-6.685 z"
             style="fill:#202b30;fill-opacity:1;fill-rule:nonzero;stroke:none"
             id="path856"
             inkscape:connector-curvature="0" /></g><g
           id="g858"
           transform="translate(1049.6191,196.8203)"><path
             d="m 0,0 0,6.682 -0.949,0.957 -6.688,0 0,-8.592 6.688,0 L 0,0 Z m 3.822,8.592 0,-10.5 -2.867,-2.862 -12.408,0 0,16.227 12.412,0 2.863,-2.865 z"
             style="fill:#202b30;fill-opacity:1;fill-rule:nonzero;stroke:none"
             id="path860"
             inkscape:connector-curvature="0" /></g><g
           id="g862"><g
             id="g864" /><g
             id="g870"><g
               clip-path="url(#clipPath866)"
               id="g872"
               style="opacity:0.14999402"><g
                 transform="translate(840.5547,212.0977)"
                 id="g874"><path
                   d="m 0,0 0,-3.834 -2.867,0 0,-30.535 -4.774,-4.774 -0.072,0 -14.172,0 -0.074,0 -4.771,4.774 0,30.535 -2.864,0 0,3.834 9.545,0 0,-3.82 -1.91,0 0,-28.637 2.863,-2.867 8.592,0 2.863,2.863 0,28.641 -1.908,0 0,3.82 L 0,0 Z"
                   style="fill:#202b30;fill-opacity:1;fill-rule:nonzero;stroke:none"
                   id="path876"
                   inkscape:connector-curvature="0" /></g></g></g></g><g
           id="g878"><g
             id="g880" /><g
             id="g886"><g
               clip-path="url(#clipPath882)"
               id="g888"
               style="opacity:0.14999402"><g
                 transform="translate(795.6836,194.9121)"
                 id="g890"><path
                   d="m 0,0 0,10.5 -2.863,2.865 -12.41,0 0,-16.226 12.41,0 L 0,0 Z m 4.771,12.41 0,-14.32 L 0,-6.682 l -0.072,0 -15.201,0 0,-11.457 2.865,0 0,-3.818 -10.506,0 0,3.818 2.865,0 0,31.491 -2.865,0 0,3.834 22.914,0 4.771,-4.776 z"
                   style="fill:#202b30;fill-opacity:1;fill-rule:nonzero;stroke:none"
                   id="path892"
                   inkscape:connector-curvature="0" /></g></g></g></g><g
           id="g894"><g
             id="g896" /><g
             id="g902"><g
               clip-path="url(#clipPath898)"
               id="g904"
               style="opacity:0.14999402"><g
                 transform="translate(761.3164,176.7734)"
                 id="g906"><path
                   d="m 0,0 0,-3.818 -25.777,0 0,5.73 21.004,21.002 0,5.725 -2.864,2.865 -10.504,0 -2.865,-2.865 0,-3.819 -4.771,0 0,5.729 4.771,4.775 16.233,0 L 0,30.549 0,21.004 -21.006,0 0,0 Z"
                   style="fill:#202b30;fill-opacity:1;fill-rule:nonzero;stroke:none"
                   id="path908"
                   inkscape:connector-curvature="0" /></g></g></g></g><g
           id="g910"><g
             id="g912" /><g
             id="g918"><g
               clip-path="url(#clipPath914)"
               id="g920"
               style="opacity:0.14999402"><g
                 transform="translate(720.2656,194.9121)"
                 id="g922"><path
                   d="m 0,0 0,10.5 -2.863,2.865 -12.412,0 0,-16.226 12.408,0 L 0,0 Z m 4.773,12.41 0,-14.32 -4.777,-4.772 -0.068,0 -15.203,0 0,-11.457 2.863,0 0,-3.818 -10.502,0 0,3.818 2.865,0 0,31.491 -2.865,0 0,3.834 22.91,0 4.777,-4.776 z"
                   style="fill:#202b30;fill-opacity:1;fill-rule:nonzero;stroke:none"
                   id="path924"
                   inkscape:connector-curvature="0" /></g></g></g></g><g
           id="g926"
           transform="translate(840.5547,208.2637)"><path
             d="m 0,0 0,3.834 -9.549,0 0,-3.82 1.908,0 0,-28.641 -2.863,-2.863 -8.592,0 -2.863,2.867 0,28.637 1.91,0 0,3.82 -9.545,0 0,-3.834 2.864,0 0,-30.535 4.771,-4.774 0.074,0 14.172,0 0.072,0 4.774,4.774 L -2.867,0 0,0 Z m 3.818,7.652 0,-11.468 -2.863,0 0,-28.629 -6.685,-6.682 -18.137,0 -6.682,6.682 0,28.629 -2.863,0 0,11.468 0.234,0 16.948,0 0,-10.504 -1.909,0 0,-23.867 0.953,-0.951 0,-0.002 4.774,0 0,0.002 0.955,0.951 0,23.867 -1.908,0 0,10.504 17.183,0 z"
             style="fill:#202b30;fill-opacity:1;fill-rule:nonzero;stroke:none"
             id="path928"
             inkscape:connector-curvature="0" /></g><g
           id="g930"
           transform="translate(800.4551,193.002)"><path
             d="m 0,0 0,14.32 -4.771,4.776 -22.915,0 0,-3.834 2.866,0 0,-31.491 -2.866,0 0,-3.818 10.506,0 0,3.818 -2.865,0 0,11.458 15.201,0 0.073,0 L 0,0 Z m 3.82,15.275 0,-17.183 -6.683,-6.682 -13.364,0 0,-3.82 2.866,0 0,-11.455 -18.141,0 0,11.455 2.863,0 0,23.855 -2.863,0 0,11.469 28.639,0 6.683,-6.685 0,-0.95 0,-0.004 z"
             style="fill:#202b30;fill-opacity:1;fill-rule:nonzero;stroke:none"
             id="path932"
             inkscape:connector-curvature="0" /></g><g
           id="g934"
           transform="translate(791.8652,196.8203)"><path
             d="m 0,0 0,6.682 -0.953,0.957 -6.684,0 0,-8.592 6.684,0 L 0,0 Z m 3.818,8.592 0,-10.5 -2.863,-2.862 -12.41,0 0,16.227 12.41,0 2.863,-2.865 z"
             style="fill:#202b30;fill-opacity:1;fill-rule:nonzero;stroke:none"
             id="path936"
             inkscape:connector-curvature="0" /></g><g
           id="g938"
           transform="translate(761.3164,172.9551)"><path
             d="m 0,0 0,3.818 -21.006,0 L 0,24.822 l 0,9.545 -4.773,4.776 -16.233,0 -4.771,-4.776 0,-5.728 4.771,0 0,3.818 2.865,2.865 10.504,0 2.864,-2.865 0,-5.725 L -25.777,5.73 -25.777,0 0,0 Z m 3.818,7.637 0,-11.455 -33.414,0 0,11.455 21.004,20.865 0,2.045 -0.955,0.957 -6.685,0 -0.956,-0.957 0,-5.727 -12.408,0 0,11.455 6.684,6.686 20.049,0 6.681,-6.686 0,-13.363 -15.277,-15.275 15.277,0 z"
             style="fill:#202b30;fill-opacity:1;fill-rule:nonzero;stroke:none"
             id="path940"
             inkscape:connector-curvature="0" /></g><g
           id="g942"
           transform="translate(725.0391,193.002)"><path
             d="m 0,0 0,14.32 -4.777,4.776 -22.911,0 0,-3.834 2.866,0 0,-31.491 -2.866,0 0,-3.818 10.502,0 0,3.818 -2.863,0 0,11.458 15.203,0 0.069,0 L 0,0 Z m 3.818,16.229 0,-18.137 -6.681,-6.682 -13.369,0 0,-3.82 2.865,0 0,-11.455 -18.137,0 0,11.455 2.863,0 0,23.855 -2.863,0 0,11.469 28.641,0 6.681,-6.685 z"
             style="fill:#202b30;fill-opacity:1;fill-rule:nonzero;stroke:none"
             id="path944"
             inkscape:connector-curvature="0" /></g><g
           id="g946"
           transform="translate(716.4434,196.8203)"><path
             d="m 0,0 0,6.682 -0.949,0.957 -6.688,0 0,-8.592 6.688,0 L 0,0 Z m 3.822,8.592 0,-10.5 -2.867,-2.862 -12.408,0 0,16.227 12.412,0 2.863,-2.865 z"
             style="fill:#202b30;fill-opacity:1;fill-rule:nonzero;stroke:none"
             id="path948"
             inkscape:connector-curvature="0" /></g></g></g></g></svg>