<?xml version="1.0" encoding="UTF-8" standalone="no"?>
<!-- Created with Inkscape (http://www.inkscape.org/) -->

<svg
   xmlns:dc="http://purl.org/dc/elements/1.1/"
   xmlns:cc="http://creativecommons.org/ns#"
   xmlns:rdf="http://www.w3.org/1999/02/22-rdf-syntax-ns#"
   xmlns:svg="http://www.w3.org/2000/svg"
   xmlns="http://www.w3.org/2000/svg"
   xmlns:sodipodi="http://sodipodi.sourceforge.net/DTD/sodipodi-0.dtd"
   xmlns:inkscape="http://www.inkscape.org/namespaces/inkscape"
   id="svg2"
   version="1.1"
   inkscape:version="0.91 r13725"
   xml:space="preserve"
   width="2753.1499"
   height="1256.775"
   viewBox="0 0 2753.1499 1256.775"
   sodipodi:docname="P2PU Brandbook v2-p03.svg"><metadata
     id="metadata8"><rdf:RDF><cc:Work
         rdf:about=""><dc:format>image/svg+xml</dc:format><dc:type
           rdf:resource="http://purl.org/dc/dcmitype/StillImage" /><dc:title></dc:title></cc:Work></rdf:RDF></metadata><defs
     id="defs6"><clipPath
       clipPathUnits="userSpaceOnUse"
       id="clipPath16"><path
         d="m 0,1005.422 2202.52,0 L 2202.52,0 0,0 0,1005.422 Z"
         id="path18"
         inkscape:connector-curvature="0" /></clipPath><clipPath
       clipPathUnits="userSpaceOnUse"
       id="clipPath24"><path
         d="m 2210.669,1416.64 -2202.519,0 0,1005.068 2202.519,0 0,-1005.068 z"
         id="path26"
         inkscape:connector-curvature="0" /></clipPath><clipPath
       clipPathUnits="userSpaceOnUse"
       id="clipPath32"><path
         d="m 1722.78,1457.58 432.14,0 0,-557.641 -432.14,0 0,557.641 z"
         id="path34"
         inkscape:connector-curvature="0" /></clipPath><clipPath
       clipPathUnits="userSpaceOnUse"
       id="clipPath48"><path
         d="m 1165.14,1457.58 404.26,0 0,-557.641 -404.26,0 0,557.641 z"
         id="path50"
         inkscape:connector-curvature="0" /></clipPath><clipPath
       clipPathUnits="userSpaceOnUse"
       id="clipPath64"><path
         d="m 621.487,1457.58 376.388,0 0,-557.641 -376.388,0 0,557.641 z"
         id="path66"
         inkscape:connector-curvature="0" /></clipPath><clipPath
       clipPathUnits="userSpaceOnUse"
       id="clipPath80"><path
         d="m 63.9023,1457.58 404.2627,0 0,-557.641 -404.2627,0 0,557.641 z"
         id="path82"
         inkscape:connector-curvature="0" /></clipPath><clipPath
       clipPathUnits="userSpaceOnUse"
       id="clipPath104"><path
         d="m 791.662,552.076 76.889,0 0,-101.696 -76.889,0 0,101.696 z"
         id="path106"
         inkscape:connector-curvature="0" /></clipPath><clipPath
       clipPathUnits="userSpaceOnUse"
       id="clipPath120"><path
         d="m 692.441,552.076 71.93,0 0,-101.696 -71.93,0 0,101.696 z"
         id="path122"
         inkscape:connector-curvature="0" /></clipPath><clipPath
       clipPathUnits="userSpaceOnUse"
       id="clipPath136"><path
         d="m 595.711,552.076 66.971,0 0,-101.696 -66.971,0 0,101.696 z"
         id="path138"
         inkscape:connector-curvature="0" /></clipPath><clipPath
       clipPathUnits="userSpaceOnUse"
       id="clipPath152"><path
         d="m 496.502,552.076 71.93,0 0,-101.696 -71.93,0 0,101.696 z"
         id="path154"
         inkscape:connector-curvature="0" /></clipPath><clipPath
       clipPathUnits="userSpaceOnUse"
       id="clipPath196"><path
         d="m 0,1005.422 2202.52,0 L 2202.52,0 0,0 0,1005.422 Z"
         id="path198"
         inkscape:connector-curvature="0" /></clipPath><clipPath
       clipPathUnits="userSpaceOnUse"
       id="clipPath204"><path
         d="m 1528.31,624.005 71.93,0 0,-101.695 -71.93,0 0,101.695 z"
         id="path206"
         inkscape:connector-curvature="0" /></clipPath><clipPath
       clipPathUnits="userSpaceOnUse"
       id="clipPath228"><path
         d="m 0,1005.422 2202.52,0 L 2202.52,0 0,0 0,1005.422 Z"
         id="path230"
         inkscape:connector-curvature="0" /></clipPath><clipPath
       clipPathUnits="userSpaceOnUse"
       id="clipPath236"><path
         d="m 1630,624.009 66.98,0 0,-101.699 -66.98,0 0,101.699 z"
         id="path238"
         inkscape:connector-curvature="0" /></clipPath><clipPath
       clipPathUnits="userSpaceOnUse"
       id="clipPath256"><path
         d="m 0,1005.422 2202.52,0 L 2202.52,0 0,0 0,1005.422 Z"
         id="path258"
         inkscape:connector-curvature="0" /></clipPath><clipPath
       clipPathUnits="userSpaceOnUse"
       id="clipPath264"><path
         d="m 1630,492.548 76.89,0 0,-101.695 -76.89,0 0,101.695 z"
         id="path266"
         inkscape:connector-curvature="0" /></clipPath><clipPath
       clipPathUnits="userSpaceOnUse"
       id="clipPath284"><path
         d="m 0,1005.422 2202.52,0 L 2202.52,0 0,0 0,1005.422 Z"
         id="path286"
         inkscape:connector-curvature="0" /></clipPath><clipPath
       clipPathUnits="userSpaceOnUse"
       id="clipPath292"><path
         d="m 1528.31,492.548 71.93,0 0,-101.695 -71.93,0 0,101.695 z"
         id="path294"
         inkscape:connector-curvature="0" /></clipPath></defs><sodipodi:namedview
     pagecolor="#ffffff"
     bordercolor="#666666"
     borderopacity="1"
     objecttolerance="10"
     gridtolerance="10"
     guidetolerance="10"
     inkscape:pageopacity="0"
     inkscape:pageshadow="2"
     inkscape:window-width="640"
     inkscape:window-height="480"
     id="namedview4"
     showgrid="false"
     inkscape:zoom="0.19622836"
     inkscape:cx="1287.3931"
     inkscape:cy="628.38751"
     inkscape:window-x="65"
     inkscape:window-y="24"
     inkscape:window-maximized="0"
     inkscape:current-layer="g10" /><g
     id="g10"
     inkscape:groupmode="layer"
     inkscape:label="P2PU Brandbook v2"
     transform="matrix(1.25,0,0,-1.25,0,1256.775)"><g
       id="g12"><g
         id="g14"
         clip-path="url(#clipPath16)"><g
           id="g20"><g
             id="g22"
             clip-path="url(#clipPath24)"><g
               id="g28"><g
                 id="g30" /><g
                 id="g36"><g
                   clip-path="url(#clipPath32)"
                   id="g38"
                   style="opacity:0.14999402"><g
                     transform="translate(2154.917,1457.5796)"
                     id="g40"><path
                       d="m 0,0 0,-55.978 -41.872,0 0,-431.974 -69.688,-69.688 -1.07,0 -206.934,0 -1.071,0 -69.693,69.688 0,431.974 -41.812,0 0,55.978 139.382,0 0,-55.807 -27.877,0 0,-404.208 41.817,-41.873 125.441,0 41.817,41.812 0,404.269 -27.877,0 0,55.807 L 0,0 Z"
                       style="fill:#ffbe00;fill-opacity:1;fill-rule:nonzero;stroke:none"
                       id="path42"
                       inkscape:connector-curvature="0" /></g></g></g></g><g
               id="g44"><g
                 id="g46" /><g
                 id="g52"><g
                   clip-path="url(#clipPath48)"
                   id="g54"
                   style="opacity:0.14999402"><g
                     transform="translate(1499.707,1206.6333)"
                     id="g56"><path
                       d="m 0,0 0,153.322 -41.812,41.817 -181.198,0 0,-236.951 181.198,0 L 0,0 Z m 69.693,181.198 0,-209.074 L 0,-97.564 l -1.064,0 -221.946,0 0,-153.377 41.817,0 0,-55.753 -153.377,0 0,55.753 41.812,0 0,445.91 -41.812,0 0,55.977 334.57,0 69.693,-69.748 z"
                       style="fill:#00c8b5;fill-opacity:1;fill-rule:nonzero;stroke:none"
                       id="path58"
                       inkscape:connector-curvature="0" /></g></g></g></g><g
               id="g60"><g
                 id="g62" /><g
                 id="g68"><g
                   clip-path="url(#clipPath64)"
                   id="g70"
                   style="opacity:0.14999402"><g
                     transform="translate(997.8745,955.6919)"
                     id="g72"><path
                       d="m 0,0 0,-55.752 -376.387,0 0,83.684 306.699,306.644 0,69.688 -41.817,41.817 -153.377,0 -41.812,-41.817 0,-55.753 -69.693,0 0,83.629 69.693,69.748 237.006,0 L 0,432.14 0,306.694 -306.694,0 0,0 Z"
                       style="fill:#aad700;fill-opacity:1;fill-rule:nonzero;stroke:none"
                       id="path74"
                       inkscape:connector-curvature="0" /></g></g></g></g><g
               id="g76"><g
                 id="g78" /><g
                 id="g84"><g
                   clip-path="url(#clipPath80)"
                   id="g86"
                   style="opacity:0.14999402"><g
                     transform="translate(398.4766,1206.6333)"
                     id="g88"><path
                       d="m 0,0 0,153.322 -41.817,41.817 -181.252,0 0,-236.951 181.198,0 L 0,0 Z m 69.688,181.198 0,-209.074 -69.743,-69.688 -1.015,0 -221.999,0 0,-153.377 41.817,0 0,-55.753 -153.322,0 0,55.753 41.816,0 0,445.91 -41.816,0 0,55.977 334.519,0 69.743,-69.748 z"
                       style="fill:#ff7400;fill-opacity:1;fill-rule:nonzero;stroke:none"
                       id="path90"
                       inkscape:connector-curvature="0" /></g></g></g></g></g></g><text
           transform="matrix(1,0,0,-0.99999167,56.0947,925.5673)"
           style="font-variant:normal;font-weight:800;font-stretch:normal;font-size:24px;font-family:'Sense ExtraBold';-inkscape-font-specification:Sense-ExtraBold;writing-mode:lr-tb;fill:#4e5566;fill-opacity:1;fill-rule:nonzero;stroke:none"
           id="text92"><tspan
             x="0 12.24 24.48"
             y="0"
             sodipodi:role="line"
             id="tspan94">01.</tspan></text>
<text
           transform="matrix(1,0,0,-0.99999167,92.6707,925.5673)"
           style="font-variant:normal;font-weight:300;font-stretch:normal;font-size:24px;font-family:'Sense Light';-inkscape-font-specification:Sense-Light;writing-mode:lr-tb;fill:#4e5566;fill-opacity:1;fill-rule:nonzero;stroke:none"
           id="text96"><tspan
             x="0 9.9359999 23.184 35.880001 48.888 55.992001 67.823997 80.375999"
             y="0"
             sodipodi:role="line"
             id="tspan98">Logotype</tspan></text>
<g
           id="g100"><g
             id="g102" /><g
             id="g108"><g
               clip-path="url(#clipPath104)"
               id="g110"
               style="opacity:0.14999402"><g
                 transform="translate(868.5508,552.0762)"
                 id="g112"><path
                   d="m 0,0 0,-9.96 -7.449,0 0,-79.335 -12.401,-12.401 -0.189,0 -36.82,0 -0.19,0 -12.4,12.401 0,79.335 -7.44,0 0,9.96 24.799,0 0,-9.93 -4.959,0 0,-74.395 7.44,-7.451 22.32,0 7.439,7.44 0,74.406 -4.959,0 0,9.93 L 0,0 Z"
                   style="fill:#ffbe00;fill-opacity:1;fill-rule:nonzero;stroke:none"
                   id="path114"
                   inkscape:connector-curvature="0" /></g></g></g></g><g
           id="g116"><g
             id="g118" /><g
             id="g124"><g
               clip-path="url(#clipPath120)"
               id="g126"
               style="opacity:0.14999402"><g
                 transform="translate(751.9707,507.4258)"
                 id="g128"><path
                   d="m 0,0 0,27.28 -7.439,7.441 -32.241,0 0,-42.16 32.241,0 L 0,0 Z m 12.4,32.24 0,-37.2 -12.4,-12.399 -0.189,0 -39.491,0 0,-29.766 7.442,0 0,-9.92 -27.291,0 0,9.92 7.439,0 0,81.815 -7.439,0 0,9.96 59.529,0 12.4,-12.41 z"
                   style="fill:#00c8b5;fill-opacity:1;fill-rule:nonzero;stroke:none"
                   id="path130"
                   inkscape:connector-curvature="0" /></g></g></g></g><g
           id="g132"><g
             id="g134" /><g
             id="g140"><g
               clip-path="url(#clipPath136)"
               id="g142"
               style="opacity:0.14999402"><g
                 transform="translate(662.6816,460.3003)"
                 id="g144"><path
                   d="m 0,0 0,-9.92 -66.971,0 0,14.891 54.571,54.56 0,14.875 -7.44,7.44 -27.291,0 -7.439,-7.44 0,-9.92 -12.401,0 0,14.88 12.401,12.41 42.17,0 L 0,79.366 0,54.57 -54.57,0 0,0 Z"
                   style="fill:#aad700;fill-opacity:1;fill-rule:nonzero;stroke:none"
                   id="path146"
                   inkscape:connector-curvature="0" /></g></g></g></g><g
           id="g148"><g
             id="g150" /><g
             id="g156"><g
               clip-path="url(#clipPath152)"
               id="g158"
               style="opacity:0.14999402"><g
                 transform="translate(556.0313,507.4258)"
                 id="g160"><path
                   d="m 0,0 0,27.28 -7.439,7.441 -32.25,0 0,-42.16 32.24,0 L 0,0 Z m 12.4,32.24 0,-37.2 -12.41,-12.399 -0.179,0 -39.5,0 0,-29.766 7.439,0 0,-9.92 -27.279,0 0,9.92 7.439,0 0,81.815 -7.439,0 0,9.96 59.519,0 12.41,-12.41 z"
                   style="fill:#ff7400;fill-opacity:1;fill-rule:nonzero;stroke:none"
                   id="path162"
                   inkscape:connector-curvature="0" /></g></g></g></g></g></g><g
       id="g164"
       transform="translate(868.5508,542.1162)"><path
         d="m 0,0 0,9.96 -24.809,0 0,-9.93 4.959,0 0,-74.406 -7.439,-7.44 -22.32,0 -7.44,7.451 0,74.395 4.959,0 0,9.93 -24.799,0 0,-9.96 7.44,0 0,-79.335 12.4,-12.401 0.19,0 36.82,0 0.189,0 12.401,12.401 L -7.449,0 0,0 Z m 9.92,19.88 0,-29.8 -7.44,0 0,-74.376 -17.369,-17.36 -47.121,0 -17.359,17.36 0,74.376 -7.44,0 0,29.8 0.61,0 44.029,0 0,-27.29 -4.959,0 0,-62.006 2.481,-2.47 0,-0.01 12.398,0 0,0.01 2.48,2.47 0,62.006 -4.959,0 0,27.29 44.649,0 z"
         style="fill:#ffbe00;fill-opacity:1;fill-rule:nonzero;stroke:none"
         id="path166"
         inkscape:connector-curvature="0" /></g><g
       id="g168"
       transform="translate(764.3711,502.4658)"><path
         d="m 0,0 0,37.2 -12.4,12.41 -59.53,0 0,-9.96 7.44,0 0,-81.816 -7.44,0 0,-9.919 27.291,0 0,9.919 -7.441,0 0,29.767 39.49,0 0.19,0 L 0,0 Z m 9.92,-4.96 -17.359,-17.359 -34.721,0 0,-9.927 7.441,0 0,-29.759 -47.131,0 0,29.759 7.44,0 0,61.976 -7.44,0 0,29.8 74.411,0 17.359,-17.37 0,-47.12 z"
         style="fill:#00c8b5;fill-opacity:1;fill-rule:nonzero;stroke:none"
         id="path170"
         inkscape:connector-curvature="0" /></g><g
       id="g172"
       transform="translate(742.0508,512.3857)"><path
         d="m 0,0 0,17.36 -2.479,2.481 -17.361,0 0,-22.32 17.361,0 L 0,0 Z m 9.92,22.32 0,-27.28 -7.44,-7.439 -32.24,0 0,42.16 32.24,0 7.44,-7.441 z"
         style="fill:#00c8b5;fill-opacity:1;fill-rule:nonzero;stroke:none"
         id="path174"
         inkscape:connector-curvature="0" /></g><g
       id="g176"
       transform="translate(662.6816,450.3804)"><path
         d="m 0,0 0,9.92 -54.57,0 54.57,54.57 0,24.796 -12.4,12.41 -42.17,0 -12.401,-12.41 0,-14.88 12.401,0 0,9.92 7.439,7.44 27.291,0 7.44,-7.44 0,-14.875 L -66.971,14.891 -66.971,0 0,0 Z m 9.92,19.84 0,-29.76 -86.811,0 0,29.76 54.571,54.212 0,5.314 -2.481,2.48 -17.369,0 -2.48,-2.48 0,-14.88 -32.241,0 0,29.76 17.362,17.37 52.09,0 17.359,-17.37 0,-34.717 -39.69,-39.689 39.69,0 z"
         style="fill:#aad700;fill-opacity:1;fill-rule:nonzero;stroke:none"
         id="path178"
         inkscape:connector-curvature="0" /></g><g
       id="g180"
       transform="translate(568.4316,502.4658)"><path
         d="m 0,0 0,37.2 -12.41,12.41 -59.52,0 0,-9.96 7.44,0 0,-81.816 -7.44,0 0,-9.919 27.28,0 0,9.919 -7.44,0 0,29.767 39.5,0 0.18,0 L 0,0 Z m 9.92,42.16 0,-47.12 -17.359,-17.359 -34.731,0 0,-9.927 7.44,0 0,-29.759 -47.12,0 0,29.759 7.44,0 0,61.976 -7.44,0 0,29.8 74.411,0 L 9.92,42.16 Z"
         style="fill:#ff7400;fill-opacity:1;fill-rule:nonzero;stroke:none"
         id="path182"
         inkscape:connector-curvature="0" /></g><g
       id="g184"
       transform="translate(546.1016,512.3857)"><path
         d="m 0,0 0,17.36 -2.471,2.481 -17.369,0 0,-22.32 17.369,0 L 0,0 Z m 9.93,22.32 0,-27.28 -7.45,-7.439 -32.24,0 0,42.16 32.25,0 7.44,-7.441 z"
         style="fill:#ff7400;fill-opacity:1;fill-rule:nonzero;stroke:none"
         id="path186"
         inkscape:connector-curvature="0" /></g><g
       id="g188"
       transform="translate(1518.3917,512.3898)"><path
         d="M 0,0 47.127,0 0,0 Z"
         style="fill:#ff7400;fill-opacity:1;fill-rule:nonzero;stroke:none"
         id="path190"
         inkscape:connector-curvature="0" /></g><g
       id="g192"><g
         id="g194"
         clip-path="url(#clipPath196)"><g
           id="g200"><g
             id="g202" /><g
             id="g208"><g
               clip-path="url(#clipPath204)"
               id="g210"
               style="opacity:0.14999402"><g
                 transform="translate(1587.8408,579.3545)"
                 id="g212"><path
                   d="m 0,0 0,27.281 -7.439,7.44 -32.25,0 0,-42.16 32.24,0 L 0,0 Z m 12.4,32.24 0,-37.199 -12.41,-12.4 -0.179,0 -39.5,0 0,-29.766 7.439,0 0,-9.92 -27.279,0 0,9.92 7.439,0 0,81.816 -7.439,0 0,9.959 59.519,0 12.41,-12.41 z"
                   style="fill:#ff7400;fill-opacity:1;fill-rule:nonzero;stroke:none"
                   id="path214"
                   inkscape:connector-curvature="0" /></g></g></g></g></g></g><g
       id="g216"
       transform="translate(1600.2412,574.3955)"><path
         d="m 0,0 0,37.199 -12.41,12.41 -59.52,0 0,-9.959 7.44,0 0,-81.816 -7.44,0 0,-9.92 27.28,0 0,9.92 -7.44,0 0,29.766 39.5,0 0.18,0 L 0,0 Z m 9.92,42.16 0,-47.121 -17.359,-17.359 -34.731,0 0,-9.926 7.44,0 0,-29.76 -47.12,0 0,29.76 7.44,0 0,61.976 -7.44,0 0,29.799 74.411,0 L 9.92,42.16 Z"
         style="fill:#ff7400;fill-opacity:1;fill-rule:nonzero;stroke:none"
         id="path218"
         inkscape:connector-curvature="0" /></g><g
       id="g220"
       transform="translate(1577.9111,584.3154)"><path
         d="m 0,0 0,17.359 -2.471,2.481 -17.369,0 0,-22.32 17.369,0 L 0,0 Z m 9.93,22.32 0,-27.281 -7.45,-7.439 -32.24,0 0,42.16 32.25,0 7.44,-7.44 z"
         style="fill:#ff7400;fill-opacity:1;fill-rule:nonzero;stroke:none"
         id="path222"
         inkscape:connector-curvature="0" /></g><g
       id="g224"><g
         id="g226"
         clip-path="url(#clipPath228)"><g
           id="g232"><g
             id="g234" /><g
             id="g240"><g
               clip-path="url(#clipPath236)"
               id="g242"
               style="opacity:0.14999402"><g
                 transform="translate(1696.9751,532.2295)"
                 id="g244"><path
                   d="m 0,0 0,-9.92 -66.971,0 0,14.89 54.571,54.56 0,14.88 -7.44,7.44 -27.291,0 -7.439,-7.44 0,-9.919 -12.401,0 0,14.878 12.401,12.41 42.17,0 L 0,79.369 0,54.569 -54.57,0 0,0 Z"
                   style="fill:#aad700;fill-opacity:1;fill-rule:nonzero;stroke:none"
                   id="path246"
                   inkscape:connector-curvature="0" /></g></g></g></g></g></g><g
       id="g248"
       transform="translate(1696.9751,522.3096)"><path
         d="m 0,0 0,9.92 -54.57,0 54.57,54.569 0,24.8 -12.4,12.41 -42.17,0 -12.401,-12.41 0,-14.878 12.401,0 0,9.919 7.439,7.44 27.291,0 7.44,-7.44 0,-14.88 L -66.971,14.89 -66.971,0 0,0 Z m 9.92,19.84 0,-29.76 -86.811,0 0,29.76 54.571,54.57 0,4.959 -2.481,2.481 -17.369,0 -2.48,-2.481 0,-14.878 -32.241,0 0,29.759 17.362,17.369 52.09,0 17.359,-17.369 0,-34.721 -39.69,-39.689 39.69,0 z"
         style="fill:#aad700;fill-opacity:1;fill-rule:nonzero;stroke:none"
         id="path250"
         inkscape:connector-curvature="0" /></g><g
       id="g252"><g
         id="g254"
         clip-path="url(#clipPath256)"><g
           id="g260"><g
             id="g262" /><g
             id="g268"><g
               clip-path="url(#clipPath264)"
               id="g270"
               style="opacity:0.14999402"><g
                 transform="translate(1706.8931,492.5479)"
                 id="g272"><path
                   d="m 0,0 0,-9.958 -7.449,0 0,-79.336 -12.401,-12.401 -0.189,0 -36.82,0 -0.19,0 -12.4,12.401 0,79.336 -7.44,0 0,9.958 24.799,0 0,-9.929 -4.959,0 0,-74.395 7.44,-7.451 22.32,0 7.439,7.44 0,74.406 -4.959,0 0,9.929 L 0,0 Z"
                   style="fill:#ffbe00;fill-opacity:1;fill-rule:nonzero;stroke:none"
                   id="path274"
                   inkscape:connector-curvature="0" /></g></g></g></g></g></g><g
       id="g276"
       transform="translate(1706.8931,482.5894)"><path
         d="m 0,0 0,9.958 -24.809,0 0,-9.929 4.959,0 0,-74.406 -7.439,-7.439 -22.32,0 -7.44,7.451 0,74.394 4.959,0 0,9.929 -24.799,0 0,-9.958 7.44,0 0,-79.336 12.4,-12.4 0.19,0 36.82,0 0.189,0 12.401,12.4 L -7.449,0 0,0 Z m 9.92,19.878 0,-29.798 -7.44,0 0,-74.377 -17.369,-17.359 -47.121,0 -17.359,17.359 0,74.377 -7.44,0 0,29.798 0.61,0 44.029,0 0,-27.288 -4.959,0 0,-62.006 2.481,-2.471 0,-0.009 12.398,0 0,0.009 2.48,2.471 0,62.006 -4.959,0 0,27.288 44.649,0 z"
         style="fill:#ffbe00;fill-opacity:1;fill-rule:nonzero;stroke:none"
         id="path278"
         inkscape:connector-curvature="0" /></g><g
       id="g280"><g
         id="g282"
         clip-path="url(#clipPath284)"><g
           id="g288"><g
             id="g290" /><g
             id="g296"><g
               clip-path="url(#clipPath292)"
               id="g298"
               style="opacity:0.14999402"><g
                 transform="translate(1587.8433,447.8979)"
                 id="g300"><path
                   d="m 0,0 0,27.281 -7.439,7.44 -32.241,0 0,-42.16 32.241,0 L 0,0 Z m 12.4,32.24 0,-37.199 -12.4,-12.4 -0.189,0 -39.491,0 0,-29.766 7.442,0 0,-9.92 -27.291,0 0,9.92 7.439,0 0,81.816 -7.439,0 0,9.959 59.529,0 12.4,-12.41 z"
                   style="fill:#00c8b5;fill-opacity:1;fill-rule:nonzero;stroke:none"
                   id="path302"
                   inkscape:connector-curvature="0" /></g></g></g></g></g></g><g
       id="g304"
       transform="translate(1600.2437,442.939)"><path
         d="m 0,0 0,37.199 -12.4,12.41 -59.53,0 0,-9.959 7.44,0 0,-81.816 -7.44,0 0,-9.92 27.291,0 0,9.92 -7.441,0 0,29.766 39.49,0 0.19,0 L 0,0 Z m 9.92,-4.961 -17.359,-17.359 -34.721,0 0,-9.926 7.441,0 0,-29.76 -47.131,0 0,29.76 7.44,0 0,61.976 -7.44,0 0,29.799 74.411,0 17.359,-17.369 0,-47.121 z"
         style="fill:#00c8b5;fill-opacity:1;fill-rule:nonzero;stroke:none"
         id="path306"
         inkscape:connector-curvature="0" /></g><g
       id="g308"
       transform="translate(1577.9233,452.8589)"><path
         d="m 0,0 0,17.359 -2.479,2.481 -17.361,0 0,-22.32 17.361,0 L 0,0 Z m 9.92,22.32 0,-27.281 -7.44,-7.439 -32.24,0 0,42.16 32.24,0 7.44,-7.44 z"
         style="fill:#00c8b5;fill-opacity:1;fill-rule:nonzero;stroke:none"
         id="path310"
         inkscape:connector-curvature="0" /></g></g></svg>