<?xml version="1.0" encoding="UTF-8" standalone="no"?>
<!-- Created with Inkscape (http://www.inkscape.org/) -->

<svg
   xmlns:dc="http://purl.org/dc/elements/1.1/"
   xmlns:cc="http://creativecommons.org/ns#"
   xmlns:rdf="http://www.w3.org/1999/02/22-rdf-syntax-ns#"
   xmlns:svg="http://www.w3.org/2000/svg"
   xmlns="http://www.w3.org/2000/svg"
   xmlns:sodipodi="http://sodipodi.sourceforge.net/DTD/sodipodi-0.dtd"
   xmlns:inkscape="http://www.inkscape.org/namespaces/inkscape"
   id="svg2"
   version="1.1"
   inkscape:version="0.91 r13725"
   xml:space="preserve"
   width="2753.1499"
   height="2504.9624"
   viewBox="0 0 2753.1499 2504.9624"
   sodipodi:docname="P2PU Brandbook v2-p13.svg"><metadata
     id="metadata8"><rdf:RDF><cc:Work
         rdf:about=""><dc:format>image/svg+xml</dc:format><dc:type
           rdf:resource="http://purl.org/dc/dcmitype/StillImage" /><dc:title></dc:title></cc:Work></rdf:RDF></metadata><defs
     id="defs6"><clipPath
       clipPathUnits="userSpaceOnUse"
       id="clipPath18"><path
         d="m 0,2003.971 2202.519,0 L 2202.519,0 0,0 0,2003.971 Z"
         id="path20"
         inkscape:connector-curvature="0" /></clipPath><clipPath
       clipPathUnits="userSpaceOnUse"
       id="clipPath26"><path
         d="m 1295.42,1684.17 151.46,0 0,-200.33 -151.46,0 0,200.33 z"
         id="path28"
         inkscape:connector-curvature="0" /></clipPath><clipPath
       clipPathUnits="userSpaceOnUse"
       id="clipPath42"><path
         d="m 1099.98,1684.17 141.69,0 0,-200.33 -141.69,0 0,200.33 z"
         id="path44"
         inkscape:connector-curvature="0" /></clipPath><clipPath
       clipPathUnits="userSpaceOnUse"
       id="clipPath58"><path
         d="m 909.448,1684.17 131.922,0 0,-200.33 -131.922,0 0,200.33 z"
         id="path60"
         inkscape:connector-curvature="0" /></clipPath><clipPath
       clipPathUnits="userSpaceOnUse"
       id="clipPath74"><path
         d="m 714.03,1684.17 141.685,0 0,-200.33 -141.685,0 0,200.33 z"
         id="path76"
         inkscape:connector-curvature="0" /></clipPath><clipPath
       clipPathUnits="userSpaceOnUse"
       id="clipPath114"><path
         d="m 0,2003.971 2202.519,0 L 2202.519,0 0,0 0,2003.971 Z"
         id="path116"
         inkscape:connector-curvature="0" /></clipPath><clipPath
       clipPathUnits="userSpaceOnUse"
       id="clipPath152"><path
         d="m 0,2003.971 2202.519,0 L 2202.519,0 0,0 0,2003.971 Z"
         id="path154"
         inkscape:connector-curvature="0" /></clipPath><clipPath
       clipPathUnits="userSpaceOnUse"
       id="clipPath180"><path
         d="m 0,2003.971 2202.519,0 L 2202.519,0 0,0 0,2003.971 Z"
         id="path182"
         inkscape:connector-curvature="0" /></clipPath><clipPath
       clipPathUnits="userSpaceOnUse"
       id="clipPath196"><path
         d="m 268.489,973.316 37.662,0 0,-49.812 -37.662,0 0,49.812 z"
         id="path198"
         inkscape:connector-curvature="0" /></clipPath><clipPath
       clipPathUnits="userSpaceOnUse"
       id="clipPath212"><path
         d="m 219.891,973.316 35.231,0 0,-49.812 -35.231,0 0,49.812 z"
         id="path214"
         inkscape:connector-curvature="0" /></clipPath><clipPath
       clipPathUnits="userSpaceOnUse"
       id="clipPath228"><path
         d="m 172.51,973.316 32.803,0 0,-49.812 -32.803,0 0,49.812 z"
         id="path230"
         inkscape:connector-curvature="0" /></clipPath><clipPath
       clipPathUnits="userSpaceOnUse"
       id="clipPath244"><path
         d="m 123.916,973.316 35.232,0 0,-49.812 -35.232,0 0,49.812 z"
         id="path246"
         inkscape:connector-curvature="0" /></clipPath><clipPath
       clipPathUnits="userSpaceOnUse"
       id="clipPath284"><path
         d="m 0,2003.971 2202.519,0 L 2202.519,0 0,0 0,2003.971 Z"
         id="path286"
         inkscape:connector-curvature="0" /></clipPath><clipPath
       clipPathUnits="userSpaceOnUse"
       id="clipPath374"><path
         d="m 960.495,973.316 37.662,0 0,-49.812 -37.662,0 0,49.812 z"
         id="path376"
         inkscape:connector-curvature="0" /></clipPath><clipPath
       clipPathUnits="userSpaceOnUse"
       id="clipPath390"><path
         d="m 911.896,973.316 35.232,0 0,-49.812 -35.232,0 0,49.812 z"
         id="path392"
         inkscape:connector-curvature="0" /></clipPath><clipPath
       clipPathUnits="userSpaceOnUse"
       id="clipPath406"><path
         d="m 864.516,973.316 32.803,0 0,-49.812 -32.803,0 0,49.812 z"
         id="path408"
         inkscape:connector-curvature="0" /></clipPath><clipPath
       clipPathUnits="userSpaceOnUse"
       id="clipPath422"><path
         d="m 815.922,973.316 35.232,0 0,-49.812 -35.232,0 0,49.812 z"
         id="path424"
         inkscape:connector-curvature="0" /></clipPath><clipPath
       clipPathUnits="userSpaceOnUse"
       id="clipPath462"><path
         d="m 0,2003.971 2202.519,0 L 2202.519,0 0,0 0,2003.971 Z"
         id="path464"
         inkscape:connector-curvature="0" /></clipPath><clipPath
       clipPathUnits="userSpaceOnUse"
       id="clipPath470"><path
         d="m 1662.44,973.316 37.66,0 0,-49.812 -37.66,0 0,49.812 z"
         id="path472"
         inkscape:connector-curvature="0" /></clipPath><clipPath
       clipPathUnits="userSpaceOnUse"
       id="clipPath486"><path
         d="m 1613.84,973.316 35.23,0 0,-49.812 -35.23,0 0,49.812 z"
         id="path488"
         inkscape:connector-curvature="0" /></clipPath><clipPath
       clipPathUnits="userSpaceOnUse"
       id="clipPath502"><path
         d="m 1566.46,973.316 32.8,0 0,-49.812 -32.8,0 0,49.812 z"
         id="path504"
         inkscape:connector-curvature="0" /></clipPath><clipPath
       clipPathUnits="userSpaceOnUse"
       id="clipPath518"><path
         d="m 1517.86,973.316 35.23,0 0,-49.812 -35.23,0 0,49.812 z"
         id="path520"
         inkscape:connector-curvature="0" /></clipPath><clipPath
       clipPathUnits="userSpaceOnUse"
       id="clipPath558"><path
         d="m 0,2003.971 2202.519,0 L 2202.519,0 0,0 0,2003.971 Z"
         id="path560"
         inkscape:connector-curvature="0" /></clipPath><clipPath
       clipPathUnits="userSpaceOnUse"
       id="clipPath566"><path
         d="m 1662.42,536.781 37.66,0 0,-49.812 -37.66,0 0,49.812 z"
         id="path568"
         inkscape:connector-curvature="0" /></clipPath><clipPath
       clipPathUnits="userSpaceOnUse"
       id="clipPath582"><path
         d="m 1613.82,536.781 35.24,0 0,-49.812 -35.24,0 0,49.812 z"
         id="path584"
         inkscape:connector-curvature="0" /></clipPath><clipPath
       clipPathUnits="userSpaceOnUse"
       id="clipPath598"><path
         d="m 1566.44,536.781 32.81,0 0,-49.812 -32.81,0 0,49.812 z"
         id="path600"
         inkscape:connector-curvature="0" /></clipPath><clipPath
       clipPathUnits="userSpaceOnUse"
       id="clipPath614"><path
         d="m 1517.85,536.781 35.23,0 0,-49.812 -35.23,0 0,49.812 z"
         id="path616"
         inkscape:connector-curvature="0" /></clipPath><clipPath
       clipPathUnits="userSpaceOnUse"
       id="clipPath654"><path
         d="m 0,2003.971 2202.519,0 L 2202.519,0 0,0 0,2003.971 Z"
         id="path656"
         inkscape:connector-curvature="0" /></clipPath><clipPath
       clipPathUnits="userSpaceOnUse"
       id="clipPath662"><path
         d="m 960.495,536.781 37.662,0 0,-49.812 -37.662,0 0,49.812 z"
         id="path664"
         inkscape:connector-curvature="0" /></clipPath><clipPath
       clipPathUnits="userSpaceOnUse"
       id="clipPath678"><path
         d="m 911.896,536.781 35.232,0 0,-49.812 -35.232,0 0,49.812 z"
         id="path680"
         inkscape:connector-curvature="0" /></clipPath><clipPath
       clipPathUnits="userSpaceOnUse"
       id="clipPath694"><path
         d="m 864.516,536.781 32.803,0 0,-49.812 -32.803,0 0,49.812 z"
         id="path696"
         inkscape:connector-curvature="0" /></clipPath><clipPath
       clipPathUnits="userSpaceOnUse"
       id="clipPath710"><path
         d="m 815.922,536.781 35.232,0 0,-49.812 -35.232,0 0,49.812 z"
         id="path712"
         inkscape:connector-curvature="0" /></clipPath><clipPath
       clipPathUnits="userSpaceOnUse"
       id="clipPath750"><path
         d="m 0,2003.971 2202.519,0 L 2202.519,0 0,0 0,2003.971 Z"
         id="path752"
         inkscape:connector-curvature="0" /></clipPath><clipPath
       clipPathUnits="userSpaceOnUse"
       id="clipPath758"><path
         d="m 268.501,536.781 37.662,0 0,-49.812 -37.662,0 0,49.812 z"
         id="path760"
         inkscape:connector-curvature="0" /></clipPath><clipPath
       clipPathUnits="userSpaceOnUse"
       id="clipPath774"><path
         d="m 219.902,536.781 35.232,0 0,-49.812 -35.232,0 0,49.812 z"
         id="path776"
         inkscape:connector-curvature="0" /></clipPath><clipPath
       clipPathUnits="userSpaceOnUse"
       id="clipPath790"><path
         d="m 172.521,536.781 32.804,0 0,-49.812 -32.804,0 0,49.812 z"
         id="path792"
         inkscape:connector-curvature="0" /></clipPath><clipPath
       clipPathUnits="userSpaceOnUse"
       id="clipPath806"><path
         d="m 123.928,536.781 35.232,0 0,-49.812 -35.232,0 0,49.812 z"
         id="path808"
         inkscape:connector-curvature="0" /></clipPath></defs><sodipodi:namedview
     pagecolor="#ffffff"
     bordercolor="#666666"
     borderopacity="1"
     objecttolerance="10"
     gridtolerance="10"
     guidetolerance="10"
     inkscape:pageopacity="0"
     inkscape:pageshadow="2"
     inkscape:window-width="640"
     inkscape:window-height="480"
     id="namedview4"
     showgrid="false"
     inkscape:zoom="0.13359108"
     inkscape:cx="1245.5782"
     inkscape:cy="1252.4812"
     inkscape:window-x="65"
     inkscape:window-y="24"
     inkscape:window-maximized="0"
     inkscape:current-layer="g10" /><g
     id="g10"
     inkscape:groupmode="layer"
     inkscape:label="P2PU Brandbook v2"
     transform="matrix(1.25,0,0,-1.25,0,2504.9625)"><path
       d="m 0,0 2202.519,0 0,2003.971 L 0,2003.971 0,0 Z"
       style="fill:#4e5566;fill-opacity:1;fill-rule:nonzero;stroke:none"
       id="path12"
       inkscape:connector-curvature="0" /><g
       id="g14"><g
         id="g16"
         clip-path="url(#clipPath18)"><g
           id="g22"><g
             id="g24" /><g
             id="g30"><g
               clip-path="url(#clipPath26)"
               id="g32"
               style="opacity:0.14999402"><g
                 transform="translate(1446.877,1684.165)"
                 id="g34"><path
                   d="m 0,0 0,-19.621 -14.672,0 0,-156.273 -24.426,-24.426 -0.373,0 -72.529,0 -0.373,0 -24.426,24.426 0,156.273 -14.654,0 0,19.621 48.849,0 0,-19.56 -9.769,0 0,-146.544 14.654,-14.675 43.967,0 14.654,14.653 0,146.566 -9.769,0 0,19.56 L 0,0 Z"
                   style="fill:#ffbe00;fill-opacity:1;fill-rule:nonzero;stroke:none"
                   id="path36"
                   inkscape:connector-curvature="0" /></g></g></g></g><g
           id="g38"><g
             id="g40" /><g
             id="g46"><g
               clip-path="url(#clipPath42)"
               id="g48"
               style="opacity:0.14999402"><g
                 transform="translate(1217.2422,1596.2139)"
                 id="g50"><path
                   d="m 0,0 0,53.733 -14.652,14.659 -63.506,0 0,-83.045 63.506,0 L 0,0 Z m 24.426,63.506 0,-73.277 L 0,-34.193 l -0.373,0 -77.785,0 0,-58.635 14.656,0 0,-19.541 -53.756,0 0,19.541 14.653,0 0,161.158 -14.653,0 0,19.621 117.258,0 24.426,-24.445 z"
                   style="fill:#00c8b5;fill-opacity:1;fill-rule:nonzero;stroke:none"
                   id="path52"
                   inkscape:connector-curvature="0" /></g></g></g></g><g
           id="g54"><g
             id="g56" /><g
             id="g62"><g
               clip-path="url(#clipPath58)"
               id="g64"
               style="opacity:0.14999402"><g
                 transform="translate(1041.3652,1503.3857)"
                 id="g66"><path
                   d="m 0,0 0,-19.541 -131.918,0 0,29.331 107.492,107.472 0,29.3 -14.654,14.658 -53.758,0 -14.652,-14.658 0,-19.54 -24.428,0 0,29.312 24.428,24.445 83.064,0 L 0,156.334 0,107.491 -107.49,0 0,0 Z"
                   style="fill:#aad700;fill-opacity:1;fill-rule:nonzero;stroke:none"
                   id="path68"
                   inkscape:connector-curvature="0" /></g></g></g></g><g
           id="g70"><g
             id="g72" /><g
             id="g78"><g
               clip-path="url(#clipPath74)"
               id="g80"
               style="opacity:0.14999402"><g
                 transform="translate(831.2891,1596.2139)"
                 id="g82"><path
                   d="m 0,0 0,53.733 -14.654,14.659 -63.524,0 0,-83.045 63.504,0 L 0,0 Z m 24.426,63.506 0,-73.277 -24.446,-24.422 -0.355,0 -77.803,0 0,-58.635 14.655,0 0,-19.541 -53.737,0 0,19.541 14.655,0 0,161.158 -14.655,0 0,19.621 117.24,0 24.446,-24.445 z"
                   style="fill:#ff7400;fill-opacity:1;fill-rule:nonzero;stroke:none"
                   id="path84"
                   inkscape:connector-curvature="0" /></g></g></g></g></g></g><g
       id="g86"
       transform="translate(1446.877,1664.5439)"><path
         d="m 0,0 0,19.621 -48.867,0 0,-19.559 9.769,0 0,-146.567 -14.654,-14.653 -43.967,0 -14.654,14.676 0,146.544 9.769,0 0,19.559 -48.849,0 0,-19.621 14.654,0 0,-156.272 24.426,-24.427 0.373,0 72.529,0 0.373,0 24.426,24.427 L -14.672,0 0,0 Z m 19.541,39.16 0,-58.699 -14.654,0 0,-146.506 -34.213,-34.193 -92.819,0 -34.193,34.193 0,146.506 -14.652,0 0,58.699 1.199,0 86.727,0 0,-53.757 -9.768,0 0,-122.135 4.885,-4.868 0,-0.017 24.424,0 0,0.017 4.884,4.868 0,122.135 -9.767,0 0,53.757 87.947,0 z"
         style="fill:#ffbe00;fill-opacity:1;fill-rule:nonzero;stroke:none"
         id="path88"
         inkscape:connector-curvature="0" /></g><g
       id="g90"
       transform="translate(1241.668,1586.4424)"><path
         d="m 0,0 0,73.277 -24.426,24.446 -117.258,0 0,-19.621 14.653,0 0,-161.159 -14.653,0 0,-19.541 53.756,0 0,19.541 -14.656,0 0,58.635 77.785,0 0.373,0 L 0,0 Z m 19.539,78.163 0,-87.932 -34.193,-34.193 -68.391,0 0,-19.554 14.658,0 0,-58.621 -92.836,0 0,58.621 14.653,0 0,122.079 -14.653,0 0,58.699 146.569,0 34.193,-34.217 0,-4.863 0,-0.019 z"
         style="fill:#00c8b5;fill-opacity:1;fill-rule:nonzero;stroke:none"
         id="path92"
         inkscape:connector-curvature="0" /></g><g
       id="g94"
       transform="translate(1197.7031,1605.9824)"><path
         d="m 0,0 0,34.196 -4.883,4.888 -34.197,0 0,-43.966 34.197,0 L 0,0 Z m 19.539,43.965 0,-53.734 -14.652,-14.653 -63.506,0 0,83.045 63.506,0 14.652,-14.658 z"
         style="fill:#00c8b5;fill-opacity:1;fill-rule:nonzero;stroke:none"
         id="path96"
         inkscape:connector-curvature="0" /></g><g
       id="g98"
       transform="translate(1041.3652,1483.8447)"><path
         d="m 0,0 0,19.541 -107.49,0 L 0,127.032 l 0,48.843 -24.426,24.445 -83.064,0 -24.428,-24.445 0,-29.312 24.428,0 0,19.54 14.652,14.658 53.758,0 14.654,-14.658 0,-29.3 L -131.918,29.331 -131.918,0 0,0 Z m 19.539,39.082 0,-58.621 -170.996,0 0,58.621 107.49,106.784 0,10.468 -4.885,4.888 -34.214,0 -4.885,-4.888 0,-29.31 -63.506,0 0,58.619 34.197,34.216 102.604,0 34.195,-34.216 0,-68.385 -78.18,-78.176 78.18,0 z"
         style="fill:#aad700;fill-opacity:1;fill-rule:nonzero;stroke:none"
         id="path100"
         inkscape:connector-curvature="0" /></g><g
       id="g102"
       transform="translate(855.7148,1586.4424)"><path
         d="m 0,0 0,73.277 -24.445,24.446 -117.241,0 0,-19.621 14.655,0 0,-161.159 -14.655,0 0,-19.541 53.737,0 0,19.541 -14.655,0 0,58.635 77.803,0 0.356,0 L 0,0 Z m 19.539,83.045 0,-92.814 -34.191,-34.193 -68.412,0 0,-19.554 14.652,0 0,-58.621 -92.813,0 0,58.621 14.655,0 0,122.079 -14.655,0 0,58.699 146.573,0 34.191,-34.217 z"
         style="fill:#ff7400;fill-opacity:1;fill-rule:nonzero;stroke:none"
         id="path104"
         inkscape:connector-curvature="0" /></g><g
       id="g106"
       transform="translate(811.7305,1605.9824)"><path
         d="m 0,0 0,34.196 -4.867,4.888 -34.213,0 0,-43.966 34.213,0 L 0,0 Z m 19.559,43.965 0,-53.734 -14.674,-14.653 -63.504,0 0,83.045 63.523,0 14.655,-14.658 z"
         style="fill:#ff7400;fill-opacity:1;fill-rule:nonzero;stroke:none"
         id="path108"
         inkscape:connector-curvature="0" /></g><g
       id="g110"><g
         id="g112"
         clip-path="url(#clipPath114)"><text
           transform="matrix(1,0,0,-0.99998889,114.0952,791.7078)"
           style="font-variant:normal;font-weight:normal;font-stretch:normal;font-size:27px;font-family:'Sense Regular';-inkscape-font-specification:Sense-Regular;writing-mode:lr-tb;fill:#ffffff;fill-opacity:1;fill-rule:nonzero;stroke:none"
           id="text118"><tspan
             x="0 10.908 25.353001 32.859001 46.007999 67.635002 73.574997 79.433998 93.258003 104.085 117.801 139.42799 145.368 159.3 173.745 179.604 194.049 202.63499 208.548 219.375 225.23399 233.41499 239.328 251.694 273.32101 286.20001 292.491 299.70001 305.64001 316.332 330.77701 344.655 355.48199 368.63101 379.86301 386.96399 399.84299 408.02399 421.73999 430.32599 436.26599 448.63199 462.564 468.423 482.24701 488.10599 498.93301 510.16501 516.02399 529.90198 543.86102 549.80103 562.95001 568.80902 574.66803 580.95898 587.87097"
             y="0"
             sodipodi:role="line"
             id="tspan120">Lorem ipsum dolor sit amet, consectetur adipiscing elit. </tspan><tspan
             x="0 18.117001 31.833 37.692001 48.519001 62.478001 76.194 89.343002 94.445999 107.325 115.506 120.609 132.97501 146.12399 151.983 157.842 166.02299 171.12601 184.27499 198.153 204.01199 225.63901 232.55099 237.65401 250.506 263.655 269.51401 275.37299 288.522 302.13 309.23099 322.38 333.207 347.16599 360.88199 374.03101 379.134 386.23499 399.384 421.01099 434.83499 448.55099 459.37799 466.58701 471.69 485.56799 491.427 502.254 508.11301 513.216 527.09399 540.24298 551.47498 556.578 568.94397 574.80298 580.66199"
             y="37.988998"
             sodipodi:role="line"
             id="tspan122">Quisque et velit enim. Pellentesque tempus, nisi nec ali-</tspan><tspan
             x="0 13.959 27.674999 40.554001 48.735001 64.367996 70.226997 82.593002 93.824997 99.683998 113.562 119.421 131.787 138.996 154.629 165.726 178.092 191.916 197.77499 210.924 224.802 240.435 262.06201 267.92099 283.55399 292.14001 306.01801 320.46301 334.341 345.573 359.289 370.116 385.74899 391.608 405.32401 416.151 423.25201 436.34698 443.556 459.189 472.905 478.76401 484.62299 496.98901 518.61603 529.30798 543.75299 552.33899 566.16302 579.31201 587.89801"
             y="75.977997"
             sodipodi:role="line"
             id="tspan124">quet lacinia, sapien mi rhoncus justo, ullamcorper </tspan><tspan
             x="0 7.1009998 20.25 41.876999 55.701 69.417 80.244003 86.561996 98.928001 112.536 119.637 132.786 139.104 146.205 159.354 165.213 171.07201 184.78799 195.61501 201.933 215.86501 228.231 242.05499 247.914 261.95401 275.67001 286.49701 292.815 305.96399 319.84201 325.70099 347.328"
             y="113.967"
             sodipodi:role="line"
             id="tspan126">tempus ante tellus dapibus enim.</tspan></text>
</g></g><path
       d="m 694.496,1384.935 -19.844,0 0,19.844 19.844,0 0,-19.844 z"
       style="fill:#ddff00;fill-opacity:1;fill-rule:nonzero;stroke:none"
       id="path128"
       inkscape:connector-curvature="0" /><path
       d="m 694.49,1384.937 -19.844,0 0,-19.844 19.844,0 0,19.844 z m -0.006,-19.839 -19.834,0 0,19.834 19.834,0 0,-19.834 z"
       style="fill:#ebeaf5;fill-opacity:1;fill-rule:nonzero;stroke:none"
       id="path130"
       inkscape:connector-curvature="0" /><path
       d="m 694.49,1365.093 -19.844,0 0,-19.844 19.844,0 0,19.844 z m -0.006,-19.839 -19.834,0 0,19.834 19.834,0 0,-19.834 z"
       style="fill:#ebeaf5;fill-opacity:1;fill-rule:nonzero;stroke:none"
       id="path132"
       inkscape:connector-curvature="0" /><path
       d="m 694.49,1345.249 -19.844,0 0,-19.844 19.844,0 0,19.844 z m -0.006,-19.839 -19.834,0 0,19.834 19.834,0 0,-19.834 z"
       style="fill:#ebeaf5;fill-opacity:1;fill-rule:nonzero;stroke:none"
       id="path134"
       inkscape:connector-curvature="0" /><path
       d="m 694.49,1325.411 -19.844,0 0,-19.844 19.844,0 0,19.844 z m -0.006,-19.839 -19.834,0 0,19.834 19.834,0 0,-19.834 z"
       style="fill:#ebeaf5;fill-opacity:1;fill-rule:nonzero;stroke:none"
       id="path136"
       inkscape:connector-curvature="0" /><path
       d="m 694.49,1305.567 -19.844,0 0,-19.844 19.844,0 0,19.844 z m -0.006,-19.838 -19.834,0 0,19.834 19.834,0 0,-19.834 z"
       style="fill:#ebeaf5;fill-opacity:1;fill-rule:nonzero;stroke:none"
       id="path138"
       inkscape:connector-curvature="0" /><path
       d="m 694.49,1285.724 -19.844,0 0,-19.844 19.844,0 0,19.844 z m -0.006,-19.839 -19.834,0 0,19.834 19.834,0 0,-19.834 z"
       style="fill:#ebeaf5;fill-opacity:1;fill-rule:nonzero;stroke:none"
       id="path140"
       inkscape:connector-curvature="0" /><path
       d="m 694.49,1424.62 -19.844,0 0,-19.844 19.844,0 0,19.844 z m -0.004,-19.839 -19.834,0 0,19.834 19.834,0 0,-19.834 z"
       style="fill:#ebeaf5;fill-opacity:1;fill-rule:nonzero;stroke:none"
       id="path142"
       inkscape:connector-curvature="0" /><path
       d="m 694.49,1444.462 -19.844,0 0,-19.844 19.844,0 0,19.844 z m -0.004,-19.839 -19.834,0 0,19.834 19.834,0 0,-19.834 z"
       style="fill:#ebeaf5;fill-opacity:1;fill-rule:nonzero;stroke:none"
       id="path144"
       inkscape:connector-curvature="0" /><path
       d="m 694.49,1464.306 -19.844,0 0,-19.844 19.844,0 0,19.844 z m -0.004,-19.839 -19.834,0 0,19.834 19.834,0 0,-19.834 z"
       style="fill:#ebeaf5;fill-opacity:1;fill-rule:nonzero;stroke:none"
       id="path146"
       inkscape:connector-curvature="0" /><g
       id="g148"><g
         id="g150"
         clip-path="url(#clipPath152)"><text
           transform="matrix(1,0,0,-0.99998996,644.8838,1417.0753)"
           style="font-variant:normal;font-weight:300;font-stretch:normal;font-size:19.91340065px;font-family:'Helvetica Light';-inkscape-font-specification:Helvetica-Light;writing-mode:lr-tb;fill:#ffffff;fill-opacity:1;fill-rule:nonzero;stroke:none"
           id="text156"><tspan
             x="0 11.071851"
             y="0"
             sodipodi:role="line"
             id="tspan158">4x</tspan><tspan
             x="0 11.071851"
             y="96.520248"
             sodipodi:role="line"
             id="tspan160">6x</tspan></text>
</g></g><g
       id="g162"
       transform="translate(620.0801,1458.7754)"><path
         d="M 0,0 0,-137.754"
         style="fill:none;stroke:#192327;stroke-width:0.5;stroke-linecap:butt;stroke-linejoin:miter;stroke-miterlimit:10;stroke-dasharray:none;stroke-opacity:1"
         id="path164"
         inkscape:connector-curvature="0" /></g><g
       id="g166"
       transform="translate(619.2324,1457.7793)"><path
         d="M 0,0 0.848,0.848 1.695,0 1.695,0.72 0.848,1.567 0,0.72 0,0 Z"
         style="fill:#192327;fill-opacity:1;fill-rule:nonzero;stroke:none"
         id="path168"
         inkscape:connector-curvature="0" /></g><g
       id="g170"
       transform="translate(619.2324,1322.0176)"><path
         d="M 0,0 0.848,-0.848 1.695,0 1.695,-0.72 0.848,-1.567 0,-0.72 0,0 Z"
         style="fill:#192327;fill-opacity:1;fill-rule:nonzero;stroke:none"
         id="path172"
         inkscape:connector-curvature="0" /></g><path
       d="m 714.051,1683.86 -19.561,0 0,19.844 19.561,0 0,-19.844 z"
       style="fill:#ddff00;fill-opacity:1;fill-rule:nonzero;stroke:none"
       id="path174"
       inkscape:connector-curvature="0" /><g
       id="g176"><g
         id="g178"
         clip-path="url(#clipPath180)"><text
           transform="matrix(1,0,0,-0.99998996,699.4531,1688.8586)"
           style="font-variant:normal;font-weight:300;font-stretch:normal;font-size:19.91340065px;font-family:'Helvetica Light';-inkscape-font-specification:Helvetica-Light;writing-mode:lr-tb;fill:#000000;fill-opacity:1;fill-rule:nonzero;stroke:none"
           id="text184"><tspan
             x="0"
             y="0"
             id="tspan186">x</tspan></text>
<text
           transform="matrix(1,0,0,-0.99999007,683.2588,1265.983)"
           style="font-variant:normal;font-weight:normal;font-stretch:normal;font-size:161.05050659px;font-family:Arvo;-inkscape-font-specification:Arvo;writing-mode:lr-tb;fill:#f5f5f5;fill-opacity:1;fill-rule:nonzero;stroke:none"
           id="text188"><tspan
             x="0 144.94545 237.38844 325.48306 425.17331 477.51474 529.21191 636.63263 729.07562"
             y="0"
             sodipodi:role="line"
             id="tspan190">Headline.</tspan></text>
<g
           id="g192"><g
             id="g194" /><g
             id="g200"><g
               clip-path="url(#clipPath196)"
               id="g202"
               style="opacity:0.14999402"><g
                 transform="translate(306.1504,973.3164)"
                 id="g204"><path
                   d="m 0,0 0,-4.879 -3.648,0 0,-38.86 -6.075,-6.074 -0.091,0 -18.036,0 -0.091,0 -6.075,6.074 0,38.86 -3.646,0 0,4.879 12.148,0 0,-4.864 -2.427,0 0,-36.441 3.642,-3.649 10.932,0 3.644,3.644 0,36.446 -2.429,0 0,4.864 L 0,0 Z"
                   style="fill:#ffffff;fill-opacity:1;fill-rule:nonzero;stroke:none"
                   id="path206"
                   inkscape:connector-curvature="0" /></g></g></g></g><g
           id="g208"><g
             id="g210" /><g
             id="g216"><g
               clip-path="url(#clipPath212)"
               id="g218"
               style="opacity:0.14999402"><g
                 transform="translate(249.0488,951.4453)"
                 id="g220"><path
                   d="m 0,0 0,13.361 -3.645,3.646 -15.791,0 0,-20.651 15.791,0 L 0,0 Z M 6.072,15.793 6.072,-2.43 0,-8.502 l -0.094,0 -19.342,0 0,-14.581 3.645,0 0,-4.858 -13.367,0 0,4.858 3.644,0 0,40.075 -3.644,0 0,4.879 29.158,0 6.072,-6.078 z"
                   style="fill:#ffffff;fill-opacity:1;fill-rule:nonzero;stroke:none"
                   id="path222"
                   inkscape:connector-curvature="0" /></g></g></g></g><g
           id="g224"><g
             id="g226" /><g
             id="g232"><g
               clip-path="url(#clipPath228)"
               id="g234"
               style="opacity:0.14999402"><g
                 transform="translate(205.3125,928.3623)"
                 id="g236"><path
                   d="m 0,0 0,-4.858 -32.803,0 0,7.292 26.729,26.725 0,7.285 -3.643,3.646 -13.367,0 -3.643,-3.646 0,-4.858 -6.076,0 0,7.29 6.076,6.078 20.653,0 L 0,38.876 0,26.729 -26.727,0 0,0 Z"
                   style="fill:#ffffff;fill-opacity:1;fill-rule:nonzero;stroke:none"
                   id="path238"
                   inkscape:connector-curvature="0" /></g></g></g></g><g
           id="g240"><g
             id="g242" /><g
             id="g248"><g
               clip-path="url(#clipPath244)"
               id="g250"
               style="opacity:0.14999402"><g
                 transform="translate(153.0742,951.4453)"
                 id="g252"><path
                   d="m 0,0 0,13.361 -3.645,3.646 -15.794,0 0,-20.651 15.791,0 L 0,0 Z m 6.074,15.793 0,-18.223 -6.078,-6.072 -0.09,0 -19.345,0 0,-14.581 3.644,0 0,-4.858 -13.363,0 0,4.858 3.642,0 0,40.075 -3.642,0 0,4.879 29.154,0 6.078,-6.078 z"
                   style="fill:#ffffff;fill-opacity:1;fill-rule:nonzero;stroke:none"
                   id="path254"
                   inkscape:connector-curvature="0" /></g></g></g></g></g></g><g
       id="g256"
       transform="translate(306.1504,968.4375)"><path
         d="m 0,0 0,4.879 -12.152,0 0,-4.864 2.429,0 0,-36.446 -3.644,-3.644 -10.932,0 -3.642,3.649 0,36.441 2.427,0 0,4.864 -12.148,0 0,-4.879 3.646,0 0,-38.86 6.075,-6.074 0.091,0 18.036,0 0.091,0 6.075,6.074 0,38.86 L 0,0 Z m 4.859,9.737 0,-14.595 -3.642,0 0,-36.433 -8.508,-8.502 -23.082,0 -8.502,8.502 0,36.433 -3.645,0 0,14.595 0.299,0 21.565,0 0,-13.368 -2.428,0 0,-30.37 1.215,-1.211 0,-0.004 6.074,0 0,0.004 1.215,1.211 0,30.37 -2.43,0 0,13.368 21.869,0 z"
         style="fill:#ffffff;fill-opacity:1;fill-rule:nonzero;stroke:none"
         id="path258"
         inkscape:connector-curvature="0" /></g><g
       id="g260"
       transform="translate(255.1211,949.0156)"><path
         d="m 0,0 0,18.223 -6.072,6.078 -29.158,0 0,-4.879 3.644,0 0,-40.075 -3.644,0 0,-4.859 13.367,0 0,4.859 -3.645,0 0,14.581 19.342,0 0.094,0 L 0,0 Z m 4.859,19.437 0,-21.867 -8.502,-8.502 -17.007,0 0,-4.862 3.644,0 0,-14.577 -23.084,0 0,14.577 3.645,0 0,30.357 -3.645,0 0,14.596 36.447,0 8.502,-8.508 0,-1.21 0,-0.004 z"
         style="fill:#ffffff;fill-opacity:1;fill-rule:nonzero;stroke:none"
         id="path262"
         inkscape:connector-curvature="0" /></g><g
       id="g264"
       transform="translate(244.1895,953.875)"><path
         d="m 0,0 0,8.504 -1.215,1.215 -8.504,0 0,-10.933 8.504,0 L 0,0 Z m 4.859,10.932 0,-13.362 -3.644,-3.643 -15.791,0 0,20.65 15.791,0 3.644,-3.645 z"
         style="fill:#ffffff;fill-opacity:1;fill-rule:nonzero;stroke:none"
         id="path266"
         inkscape:connector-curvature="0" /></g><g
       id="g268"
       transform="translate(205.3125,923.5039)"><path
         d="m 0,0 0,4.858 -26.727,0 26.727,26.73 0,12.146 -6.074,6.079 -20.653,0 -6.076,-6.079 0,-7.29 6.076,0 0,4.859 3.643,3.645 13.367,0 3.643,-3.645 0,-7.285 L -32.803,7.292 -32.803,0 0,0 Z m 4.859,9.718 0,-14.577 -42.521,0 0,14.577 26.73,26.553 0,2.604 -1.214,1.215 -8.508,0 -1.215,-1.215 0,-7.288 -15.793,0 0,14.576 8.506,8.508 25.513,0 8.502,-8.508 0,-17.006 -19.439,-19.439 19.439,0 z"
         style="fill:#ffffff;fill-opacity:1;fill-rule:nonzero;stroke:none"
         id="path270"
         inkscape:connector-curvature="0" /></g><g
       id="g272"
       transform="translate(159.1484,949.0156)"><path
         d="m 0,0 0,18.223 -6.078,6.078 -29.154,0 0,-4.879 3.642,0 0,-40.075 -3.642,0 0,-4.859 13.363,0 0,4.859 -3.645,0 0,14.581 19.346,0 0.09,0 L 0,0 Z m 4.859,20.651 0,-23.081 -8.504,-8.502 -17.011,0 0,-4.862 3.644,0 0,-14.577 -23.08,0 0,14.577 3.645,0 0,30.357 -3.645,0 0,14.596 36.447,0 8.504,-8.508 z"
         style="fill:#ffffff;fill-opacity:1;fill-rule:nonzero;stroke:none"
         id="path274"
         inkscape:connector-curvature="0" /></g><g
       id="g276"
       transform="translate(148.2109,953.875)"><path
         d="m 0,0 0,8.504 -1.209,1.215 -8.51,0 0,-10.933 8.51,0 L 0,0 Z m 4.863,10.932 0,-13.362 -3.648,-3.643 -15.791,0 0,20.65 15.795,0 3.644,-3.645 z"
         style="fill:#ffffff;fill-opacity:1;fill-rule:nonzero;stroke:none"
         id="path278"
         inkscape:connector-curvature="0" /></g><g
       id="g280"><g
         id="g282"
         clip-path="url(#clipPath284)"><text
           transform="matrix(1,0,0,-0.99999007,116.25,869.1487)"
           style="font-variant:normal;font-weight:normal;font-stretch:normal;font-size:40.26259995px;font-family:Arvo;-inkscape-font-specification:Arvo;writing-mode:lr-tb;fill:#ffffff;fill-opacity:1;fill-rule:nonzero;stroke:none"
           id="text288"><tspan
             x="0 29.673536 53.750572 94.053436 134.35629 160.88934 187.74451 200.66879 215.64648 234.52965"
             y="0"
             sodipodi:role="line"
             id="tspan290">Community.</tspan></text>
<text
           transform="matrix(1,0,0,-0.99998889,806.1025,791.7078)"
           style="font-variant:normal;font-weight:normal;font-stretch:normal;font-size:27px;font-family:'Sense Regular';-inkscape-font-specification:Sense-Regular;writing-mode:lr-tb;fill:#ffffff;fill-opacity:1;fill-rule:nonzero;stroke:none"
           id="text292"><tspan
             x="0 10.908 25.353001 32.859001 46.007999 67.635002 73.574997 79.433998 93.258003 104.085 117.801 139.42799 145.368 159.3 173.745 179.604 194.049 202.63499 208.548 219.375 225.23399 233.41499 239.328 251.694 273.32101 286.20001 292.491 299.70001 305.64001 316.332 330.77701 344.655 355.48199 368.63101 379.86301 386.96399 399.84299 408.02399 421.73999 430.32599 436.26599 448.63199 462.564 468.423 482.24701 488.10599 498.93301 510.16501 516.02399 529.90198 543.86102 549.80103 562.95001 568.80902 574.66803 580.95898 587.87097"
             y="0"
             sodipodi:role="line"
             id="tspan294">Lorem ipsum dolor sit amet, consectetur adipiscing elit. </tspan><tspan
             x="0 18.117001 31.833 37.692001 48.519001 62.478001 76.194 89.343002 94.445999 107.325 115.506 120.609 132.97501 146.12399 151.983 157.842 166.02299 171.12601 184.27499 198.153 204.01199 225.63901 232.55099 237.65401 250.506 263.655 269.51401 275.37299 288.522 302.13 309.23099 322.38 333.207 347.16599 360.88199 374.03101 379.134 386.23499 399.384 421.01099 434.83499 448.55099 459.37799 466.58701 471.69 485.56799 491.427 502.254 508.11301 513.216 527.09399 540.24298 551.47498 556.578 568.94397 574.80298 580.66199"
             y="37.988998"
             sodipodi:role="line"
             id="tspan296">Quisque et velit enim. Pellentesque tempus, nisi nec ali-</tspan><tspan
             x="0 13.959 27.674999 40.554001 48.735001 64.367996 70.226997 82.593002 93.824997 99.683998 113.562 119.421 131.787 138.996 154.629 165.726 178.092 191.916 197.77499 210.924 224.802 240.435 262.06201 267.92099 283.55399 292.14001 306.01801 320.46301 334.341 345.573 359.289 370.116 385.74899 391.608 405.32401 416.151 423.25201 436.34698 443.556 459.189 472.905 478.76401 484.62299 496.98901 518.61603 529.30798 543.75299 552.33899 566.16302 579.31201 587.89801"
             y="75.977997"
             sodipodi:role="line"
             id="tspan298">quet lacinia, sapien mi rhoncus justo, ullamcorper </tspan><tspan
             x="0 7.1009998 20.25 41.876999 55.701 69.417 80.244003 86.561996 98.928001 112.536 119.637 132.786 139.104 146.205 159.354 165.213 171.07201 184.78799 195.61501 201.933 215.86501 228.231 242.05499 247.914 261.95401 275.67001 286.49701 292.815 305.96399 319.84201 325.70099 347.328 354.23999"
             y="113.967"
             sodipodi:role="line"
             id="tspan300">tempus ante tellus dapibus enim. </tspan></text>
<text
           transform="matrix(1,0,0,-0.99999007,808.2573,869.1487)"
           style="font-variant:normal;font-weight:normal;font-stretch:normal;font-size:40.26259995px;font-family:Arvo;-inkscape-font-specification:Arvo;writing-mode:lr-tb;fill:#ffffff;fill-opacity:1;fill-rule:nonzero;stroke:none"
           id="text302"><tspan
             x="0 36.23634 59.347073 72.432419 96.992607"
             y="0"
             sodipodi:role="line"
             id="tspan304">Help.</tspan></text>
<text
           transform="matrix(1,0,0,-0.99998889,1508.0303,791.7078)"
           style="font-variant:normal;font-weight:normal;font-stretch:normal;font-size:27px;font-family:'Sense Regular';-inkscape-font-specification:Sense-Regular;writing-mode:lr-tb;fill:#ffffff;fill-opacity:1;fill-rule:nonzero;stroke:none"
           id="text306"><tspan
             x="0 10.908 25.353001 32.859001 46.007999 67.635002 73.574997 79.433998 93.258003 104.085 117.801 139.42799 145.368 159.3 173.745 179.604 194.049 202.63499 208.548 219.375 225.23399 233.41499 239.328 251.694 273.32101 286.20001 292.491 299.70001 305.64001 316.332 330.77701 344.655 355.48199 368.63101 379.86301 386.96399 399.84299 408.02399 421.73999 430.32599 436.26599 448.63199 462.564 468.423 482.24701 488.10599 498.93301 510.16501 516.02399 529.90198 543.86102 549.80103 562.95001 568.80902 574.66803 580.95898 587.87097"
             y="0"
             sodipodi:role="line"
             id="tspan308">Lorem ipsum dolor sit amet, consectetur adipiscing elit. </tspan><tspan
             x="0 18.117001 31.833 37.692001 48.519001 62.478001 76.194 89.343002 94.445999 107.325 115.506 120.609 132.97501 146.12399 151.983 157.842 166.02299 171.12601 184.27499 198.153 204.01199 225.63901 232.55099 237.65401 250.506 263.655 269.51401 275.37299 288.522 302.13 309.23099 322.38 333.207 347.16599 360.88199 374.03101 379.134 386.23499 399.384 421.01099 434.83499 448.55099 459.37799 466.58701 471.69 485.56799 491.427 502.254 508.11301 513.216 527.09399 540.24298 551.47498 556.578 568.94397 574.80298 580.66199"
             y="37.988998"
             sodipodi:role="line"
             id="tspan310">Quisque et velit enim. Pellentesque tempus, nisi nec ali-</tspan><tspan
             x="0 13.959 27.674999 40.554001 48.735001 64.367996 70.226997 82.593002 93.824997 99.683998 113.562 119.421 131.787 138.996 154.629 165.726 178.092 191.916 197.77499 210.924 224.802 240.435 262.06201 267.92099 283.55399 292.14001 306.01801 320.46301 334.341 345.573 359.289 370.116 385.74899 391.608 405.32401 416.151 423.25201 436.34698 443.556 459.189 472.905 478.76401 484.62299 496.98901 518.61603 529.30798 543.75299 552.33899 566.16302 579.31201 587.89801"
             y="75.977997"
             sodipodi:role="line"
             id="tspan312">quet lacinia, sapien mi rhoncus justo, ullamcorper </tspan><tspan
             x="0 7.1009998 20.25 41.876999 55.701 69.417 80.244003 86.561996 98.928001 112.536 119.637 132.786 139.104 146.205 159.354 165.213 171.07201 184.78799 195.61501 201.933 215.86501 228.231 242.05499 247.914 261.95401 275.67001 286.49701 292.815 305.96399 319.84201 325.70099 347.328"
             y="113.967"
             sodipodi:role="line"
             id="tspan314">tempus ante tellus dapibus enim.</tspan></text>
<text
           transform="matrix(1,0,0,-0.99999007,1510.1851,869.1487)"
           style="font-variant:normal;font-weight:normal;font-stretch:normal;font-size:40.26259995px;font-family:Arvo;-inkscape-font-specification:Arvo;writing-mode:lr-tb;fill:#ffffff;fill-opacity:1;fill-rule:nonzero;stroke:none"
           id="text316"><tspan
             x="0 43.040718 66.151451 89.262184 104.23987 130.77292 155.33311 174.86047"
             y="0"
             sodipodi:role="line"
             id="tspan318">Meetups.</tspan></text>
<text
           transform="matrix(1,0,0,-0.99998889,114.0952,355.1726)"
           style="font-variant:normal;font-weight:normal;font-stretch:normal;font-size:27px;font-family:'Sense Regular';-inkscape-font-specification:Sense-Regular;writing-mode:lr-tb;fill:#ffffff;fill-opacity:1;fill-rule:nonzero;stroke:none"
           id="text320"><tspan
             x="0 10.908 25.353001 32.859001 46.007999 67.635002 73.574997 79.433998 93.258003 104.085 117.801 139.42799 145.368 159.3 173.745 179.604 194.049 202.63499 208.548 219.375 225.23399 233.41499 239.328 251.694 273.32101 286.20001 292.491 299.70001 305.64001 316.332 330.77701 344.655 355.48199 368.63101 379.86301 386.96399 399.84299 408.02399 421.73999 430.32599 436.26599 448.63199 462.564 468.423 482.24701 488.10599 498.93301 510.16501 516.02399 529.90198 543.86102 549.80103 562.95001 568.80902 574.66803 580.95898 587.87097"
             y="0"
             sodipodi:role="line"
             id="tspan322">Lorem ipsum dolor sit amet, consectetur adipiscing elit. </tspan><tspan
             x="0 18.117001 31.833 37.692001 48.519001 62.478001 76.194 89.343002 94.445999 107.325 115.506 120.609 132.97501 146.12399 151.983 157.842 166.02299 171.12601 184.27499 198.153 204.01199 225.63901 232.55099 237.65401 250.506 263.655 269.51401 275.37299 288.522 302.13 309.23099 322.38 333.207 347.16599 360.88199 374.03101 379.134 386.23499 399.384 421.01099 434.83499 448.55099 459.37799 466.58701 471.69 485.56799 491.427 502.254 508.11301 513.216 527.09399 540.24298 551.47498 556.578 568.94397 574.80298 580.66199"
             y="37.988998"
             sodipodi:role="line"
             id="tspan324">Quisque et velit enim. Pellentesque tempus, nisi nec ali-</tspan><tspan
             x="0 13.959 27.674999 40.554001 48.735001 64.367996 70.226997 82.593002 93.824997 99.683998 113.562 119.421 131.787 138.996 154.629 165.726 178.092 191.916 197.77499 210.924 224.802 240.435 262.06201 267.92099 283.55399 292.14001 306.01801 320.46301 334.341 345.573 359.289 370.116 385.74899 391.608 405.32401 416.151 423.25201 436.34698 443.556 459.189 472.905 478.76401 484.62299 496.98901 518.61603 529.30798 543.75299 552.33899 566.16302 579.31201 587.89801"
             y="75.977997"
             sodipodi:role="line"
             id="tspan326">quet lacinia, sapien mi rhoncus justo, ullamcorper </tspan><tspan
             x="0 7.1009998 20.25 41.876999 55.701 69.417 80.244003 86.561996 98.928001 112.536 119.637 132.786 139.104 146.205 159.354 165.213 171.07201 184.78799 195.61501 201.933 215.86501 228.231 242.05499 247.914 261.95401 275.67001 286.49701 292.815 305.96399 319.84201 325.70099 347.328"
             y="113.967"
             sodipodi:role="line"
             id="tspan328">tempus ante tellus dapibus enim.</tspan></text>
<text
           transform="matrix(1,0,0,-0.99999007,116.25,432.6136)"
           style="font-variant:normal;font-weight:normal;font-stretch:normal;font-size:40.26259995px;font-family:Arvo;-inkscape-font-specification:Arvo;writing-mode:lr-tb;fill:#ffffff;fill-opacity:1;fill-rule:nonzero;stroke:none"
           id="text330"><tspan
             x="0 25.486225 55.803963 82.377281"
             y="0"
             sodipodi:role="line"
             id="tspan332">LAB.</tspan></text>
<text
           transform="matrix(1,0,0,-0.99998889,806.1025,355.1726)"
           style="font-variant:normal;font-weight:normal;font-stretch:normal;font-size:27px;font-family:'Sense Regular';-inkscape-font-specification:Sense-Regular;writing-mode:lr-tb;fill:#ffffff;fill-opacity:1;fill-rule:nonzero;stroke:none"
           id="text334"><tspan
             x="0 10.908 25.353001 32.859001 46.007999 67.635002 73.574997 79.433998 93.258003 104.085 117.801 139.42799 145.368 159.3 173.745 179.604 194.049 202.63499 208.548 219.375 225.23399 233.41499 239.328 251.694 273.32101 286.20001 292.491 299.70001 305.64001 316.332 330.77701 344.655 355.48199 368.63101 379.86301 386.96399 399.84299 408.02399 421.73999 430.32599 436.26599 448.63199 462.564 468.423 482.24701 488.10599 498.93301 510.16501 516.02399 529.90198 543.86102 549.80103 562.95001 568.80902 574.66803 580.95898 587.87097"
             y="0"
             sodipodi:role="line"
             id="tspan336">Lorem ipsum dolor sit amet, consectetur adipiscing elit. </tspan><tspan
             x="0 18.117001 31.833 37.692001 48.519001 62.478001 76.194 89.343002 94.445999 107.325 115.506 120.609 132.97501 146.12399 151.983 157.842 166.02299 171.12601 184.27499 198.153 204.01199 225.63901 232.55099 237.65401 250.506 263.655 269.51401 275.37299 288.522 302.13 309.23099 322.38 333.207 347.16599 360.88199 374.03101 379.134 386.23499 399.384 421.01099 434.83499 448.55099 459.37799 466.58701 471.69 485.56799 491.427 502.254 508.11301 513.216 527.09399 540.24298 551.47498 556.578 568.94397 574.80298 580.66199"
             y="37.988998"
             sodipodi:role="line"
             id="tspan338">Quisque et velit enim. Pellentesque tempus, nisi nec ali-</tspan><tspan
             x="0 13.959 27.674999 40.554001 48.735001 64.367996 70.226997 82.593002 93.824997 99.683998 113.562 119.421 131.787 138.996 154.629 165.726 178.092 191.916 197.77499 210.924 224.802 240.435 262.06201 267.92099 283.55399 292.14001 306.01801 320.46301 334.341 345.573 359.289 370.116 385.74899 391.608 405.32401 416.151 423.25201 436.34698 443.556 459.189 472.905 478.76401 484.62299 496.98901 518.61603 529.30798 543.75299 552.33899 566.16302 579.31201 587.89801"
             y="75.977997"
             sodipodi:role="line"
             id="tspan340">quet lacinia, sapien mi rhoncus justo, ullamcorper </tspan><tspan
             x="0 7.1009998 20.25 41.876999 55.701 69.417 80.244003 86.561996 98.928001 112.536 119.637 132.786 139.104 146.205 159.354 165.213 171.07201 184.78799 195.61501 201.933 215.86501 228.231 242.05499 247.914 261.95401 275.67001 286.49701 292.815 305.96399 319.84201 325.70099 347.328 354.23999"
             y="113.967"
             sodipodi:role="line"
             id="tspan342">tempus ante tellus dapibus enim. </tspan></text>
<text
           transform="matrix(1,0,0,-0.99999007,808.2573,432.6136)"
           style="font-variant:normal;font-weight:normal;font-stretch:normal;font-size:40.26259995px;font-family:Arvo;-inkscape-font-specification:Arvo;writing-mode:lr-tb;fill:#ffffff;fill-opacity:1;fill-rule:nonzero;stroke:none"
           id="text344"><tspan
             x="0 26.573317 39.658661 63.735695 87.329582"
             y="0"
             sodipodi:role="line"
             id="tspan346">Blog.</tspan></text>
<text
           transform="matrix(1,0,0,-0.99998889,1508.0303,355.1726)"
           style="font-variant:normal;font-weight:normal;font-stretch:normal;font-size:27px;font-family:'Sense Regular';-inkscape-font-specification:Sense-Regular;writing-mode:lr-tb;fill:#ffffff;fill-opacity:1;fill-rule:nonzero;stroke:none"
           id="text348"><tspan
             x="0 10.908 25.353001 32.859001 46.007999 67.635002 73.574997 79.433998 93.258003 104.085 117.801 139.42799 145.368 159.3 173.745 179.604 194.049 202.63499 208.548 219.375 225.23399 233.41499 239.328 251.694 273.32101 286.20001 292.491 299.70001 305.64001 316.332 330.77701 344.655 355.48199 368.63101 379.86301 386.96399 399.84299 408.02399 421.73999 430.32599 436.26599 448.63199 462.564 468.423 482.24701 488.10599 498.93301 510.16501 516.02399 529.90198 543.86102 549.80103 562.95001 568.80902 574.66803 580.95898 587.87097"
             y="0"
             sodipodi:role="line"
             id="tspan350">Lorem ipsum dolor sit amet, consectetur adipiscing elit. </tspan><tspan
             x="0 18.117001 31.833 37.692001 48.519001 62.478001 76.194 89.343002 94.445999 107.325 115.506 120.609 132.97501 146.12399 151.983 157.842 166.02299 171.12601 184.27499 198.153 204.01199 225.63901 232.55099 237.65401 250.506 263.655 269.51401 275.37299 288.522 302.13 309.23099 322.38 333.207 347.16599 360.88199 374.03101 379.134 386.23499 399.384 421.01099 434.83499 448.55099 459.37799 466.58701 471.69 485.56799 491.427 502.254 508.11301 513.216 527.09399 540.24298 551.47498 556.578 568.94397 574.80298 580.66199"
             y="37.988998"
             sodipodi:role="line"
             id="tspan352">Quisque et velit enim. Pellentesque tempus, nisi nec ali-</tspan><tspan
             x="0 13.959 27.674999 40.554001 48.735001 64.367996 70.226997 82.593002 93.824997 99.683998 113.562 119.421 131.787 138.996 154.629 165.726 178.092 191.916 197.77499 210.924 224.802 240.435 262.06201 267.92099 283.55399 292.14001 306.01801 320.46301 334.341 345.573 359.289 370.116 385.74899 391.608 405.32401 416.151 423.25201 436.34698 443.556 459.189 472.905 478.76401 484.62299 496.98901 518.61603 529.30798 543.75299 552.33899 566.16302 579.31201 587.89801"
             y="75.977997"
             sodipodi:role="line"
             id="tspan354">quet lacinia, sapien mi rhoncus justo, ullamcorper </tspan><tspan
             x="0 7.1009998 20.25 41.876999 55.701 69.417 80.244003 86.561996 98.928001 112.536 119.637 132.786 139.104 146.205 159.354 165.213 171.07201 184.78799 195.61501 201.933 215.86501 228.231 242.05499 247.914 261.95401 275.67001 286.49701 292.815 305.96399 319.84201 325.70099 347.328"
             y="113.967"
             sodipodi:role="line"
             id="tspan356">tempus ante tellus dapibus enim.</tspan></text>
<text
           transform="matrix(1,0,0,-0.99999007,1510.1851,432.6136)"
           style="font-variant:normal;font-weight:normal;font-stretch:normal;font-size:40.26259995px;font-family:Arvo;-inkscape-font-specification:Arvo;writing-mode:lr-tb;fill:#ffffff;fill-opacity:1;fill-rule:nonzero;stroke:none"
           id="text358"><tspan
             x="0 13.407446 37.484482 62.125191 81.65255"
             y="0"
             sodipodi:role="line"
             id="tspan360">Jobs.</tspan></text>
<text
           transform="matrix(1,0,0,-0.99999167,56.0957,1924.1161)"
           style="font-variant:normal;font-weight:800;font-stretch:normal;font-size:24px;font-family:'Sense ExtraBold';-inkscape-font-specification:Sense-ExtraBold;writing-mode:lr-tb;fill:#ffffff;fill-opacity:1;fill-rule:nonzero;stroke:none"
           id="text362"><tspan
             x="0 12.24 24.48"
             y="0"
             sodipodi:role="line"
             id="tspan364">10.</tspan></text>
<text
           transform="matrix(1,0,0,-0.99999167,92.6717,1924.1161)"
           style="font-variant:normal;font-weight:300;font-stretch:normal;font-size:24px;font-family:'Sense Light';-inkscape-font-specification:Sense-Light;writing-mode:lr-tb;fill:#ffffff;fill-opacity:1;fill-rule:nonzero;stroke:none"
           id="text366"><tspan
             x="0 15.048 26.927999 37.896 50.568001 55.848 61.127998 73.800003 85.68 91.536003 103.512 116.184 129.192 146.64 156.76801 167.73599 177.384"
             y="0"
             sodipodi:role="line"
             id="tspan368">Headline Showcase</tspan></text>
<g
           id="g370"><g
             id="g372" /><g
             id="g378"><g
               clip-path="url(#clipPath374)"
               id="g380"
               style="opacity:0.14999402"><g
                 transform="translate(998.1563,973.3164)"
                 id="g382"><path
                   d="m 0,0 0,-4.879 -3.648,0 0,-38.86 -6.075,-6.074 -0.091,0 -18.036,0 -0.091,0 -6.075,6.074 0,38.86 -3.646,0 0,4.879 12.148,0 0,-4.864 -2.427,0 0,-36.441 3.642,-3.649 10.932,0 3.644,3.644 0,36.446 -2.429,0 0,4.864 L 0,0 Z"
                   style="fill:#ffffff;fill-opacity:1;fill-rule:nonzero;stroke:none"
                   id="path384"
                   inkscape:connector-curvature="0" /></g></g></g></g><g
           id="g386"><g
             id="g388" /><g
             id="g394"><g
               clip-path="url(#clipPath390)"
               id="g396"
               style="opacity:0.14999402"><g
                 transform="translate(941.0547,951.4453)"
                 id="g398"><path
                   d="m 0,0 0,13.361 -3.645,3.646 -15.791,0 0,-20.651 15.791,0 L 0,0 Z M 6.072,15.793 6.072,-2.43 0,-8.502 l -0.094,0 -19.342,0 0,-14.581 3.645,0 0,-4.858 -13.367,0 0,4.858 3.644,0 0,40.075 -3.644,0 0,4.879 29.158,0 6.072,-6.078 z"
                   style="fill:#ffffff;fill-opacity:1;fill-rule:nonzero;stroke:none"
                   id="path400"
                   inkscape:connector-curvature="0" /></g></g></g></g><g
           id="g402"><g
             id="g404" /><g
             id="g410"><g
               clip-path="url(#clipPath406)"
               id="g412"
               style="opacity:0.14999402"><g
                 transform="translate(897.3184,928.3623)"
                 id="g414"><path
                   d="m 0,0 0,-4.858 -32.803,0 0,7.292 26.729,26.725 0,7.285 -3.643,3.646 -13.367,0 -3.643,-3.646 0,-4.858 -6.076,0 0,7.29 6.076,6.078 20.653,0 L 0,38.876 0,26.729 -26.727,0 0,0 Z"
                   style="fill:#ffffff;fill-opacity:1;fill-rule:nonzero;stroke:none"
                   id="path416"
                   inkscape:connector-curvature="0" /></g></g></g></g><g
           id="g418"><g
             id="g420" /><g
             id="g426"><g
               clip-path="url(#clipPath422)"
               id="g428"
               style="opacity:0.14999402"><g
                 transform="translate(845.0801,951.4453)"
                 id="g430"><path
                   d="m 0,0 0,13.361 -3.645,3.646 -15.794,0 0,-20.651 15.791,0 L 0,0 Z m 6.074,15.793 0,-18.223 -6.078,-6.072 -0.09,0 -19.345,0 0,-14.581 3.644,0 0,-4.858 -13.363,0 0,4.858 3.642,0 0,40.075 -3.642,0 0,4.879 29.154,0 6.078,-6.078 z"
                   style="fill:#ffffff;fill-opacity:1;fill-rule:nonzero;stroke:none"
                   id="path432"
                   inkscape:connector-curvature="0" /></g></g></g></g></g></g><g
       id="g434"
       transform="translate(998.1563,968.4375)"><path
         d="m 0,0 0,4.879 -12.152,0 0,-4.864 2.429,0 0,-36.446 -3.644,-3.644 -10.932,0 -3.642,3.649 0,36.441 2.427,0 0,4.864 -12.148,0 0,-4.879 3.646,0 0,-38.86 6.075,-6.074 0.091,0 18.036,0 0.091,0 6.075,6.074 0,38.86 L 0,0 Z m 4.859,9.737 0,-14.595 -3.642,0 0,-36.433 -8.508,-8.502 -23.082,0 -8.502,8.502 0,36.433 -3.645,0 0,14.595 0.299,0 21.565,0 0,-13.368 -2.428,0 0,-30.37 1.215,-1.211 0,-0.004 6.074,0 0,0.004 1.215,1.211 0,30.37 -2.43,0 0,13.368 21.869,0 z"
         style="fill:#ffffff;fill-opacity:1;fill-rule:nonzero;stroke:none"
         id="path436"
         inkscape:connector-curvature="0" /></g><g
       id="g438"
       transform="translate(947.127,949.0156)"><path
         d="m 0,0 0,18.223 -6.072,6.078 -29.158,0 0,-4.879 3.644,0 0,-40.075 -3.644,0 0,-4.859 13.367,0 0,4.859 -3.645,0 0,14.581 19.342,0 0.094,0 L 0,0 Z m 4.859,19.437 0,-21.867 -8.502,-8.502 -17.007,0 0,-4.862 3.644,0 0,-14.577 -23.084,0 0,14.577 3.645,0 0,30.357 -3.645,0 0,14.596 36.447,0 8.502,-8.508 0,-1.21 0,-0.004 z"
         style="fill:#ffffff;fill-opacity:1;fill-rule:nonzero;stroke:none"
         id="path440"
         inkscape:connector-curvature="0" /></g><g
       id="g442"
       transform="translate(936.1953,953.875)"><path
         d="m 0,0 0,8.504 -1.215,1.215 -8.504,0 0,-10.933 8.504,0 L 0,0 Z m 4.859,10.932 0,-13.362 -3.644,-3.643 -15.791,0 0,20.65 15.791,0 3.644,-3.645 z"
         style="fill:#ffffff;fill-opacity:1;fill-rule:nonzero;stroke:none"
         id="path444"
         inkscape:connector-curvature="0" /></g><g
       id="g446"
       transform="translate(897.3184,923.5039)"><path
         d="m 0,0 0,4.858 -26.727,0 26.727,26.73 0,12.146 -6.074,6.079 -20.653,0 -6.076,-6.079 0,-7.29 6.076,0 0,4.859 3.643,3.645 13.367,0 3.643,-3.645 0,-7.285 L -32.803,7.292 -32.803,0 0,0 Z m 4.859,9.718 0,-14.577 -42.521,0 0,14.577 26.73,26.553 0,2.604 -1.214,1.215 -8.508,0 -1.215,-1.215 0,-7.288 -15.793,0 0,14.576 8.506,8.508 25.513,0 8.502,-8.508 0,-17.006 -19.439,-19.439 19.439,0 z"
         style="fill:#ffffff;fill-opacity:1;fill-rule:nonzero;stroke:none"
         id="path448"
         inkscape:connector-curvature="0" /></g><g
       id="g450"
       transform="translate(851.1543,949.0156)"><path
         d="m 0,0 0,18.223 -6.078,6.078 -29.154,0 0,-4.879 3.642,0 0,-40.075 -3.642,0 0,-4.859 13.363,0 0,4.859 -3.645,0 0,14.581 19.346,0 0.09,0 L 0,0 Z m 4.859,20.651 0,-23.081 -8.504,-8.502 -17.011,0 0,-4.862 3.644,0 0,-14.577 -23.08,0 0,14.577 3.645,0 0,30.357 -3.645,0 0,14.596 36.447,0 8.504,-8.508 z"
         style="fill:#ffffff;fill-opacity:1;fill-rule:nonzero;stroke:none"
         id="path452"
         inkscape:connector-curvature="0" /></g><g
       id="g454"
       transform="translate(840.2168,953.875)"><path
         d="m 0,0 0,8.504 -1.209,1.215 -8.51,0 0,-10.933 8.51,0 L 0,0 Z m 4.863,10.932 0,-13.362 -3.648,-3.643 -15.791,0 0,20.65 15.795,0 3.644,-3.645 z"
         style="fill:#ffffff;fill-opacity:1;fill-rule:nonzero;stroke:none"
         id="path456"
         inkscape:connector-curvature="0" /></g><g
       id="g458"><g
         id="g460"
         clip-path="url(#clipPath462)"><g
           id="g466"><g
             id="g468" /><g
             id="g474"><g
               clip-path="url(#clipPath470)"
               id="g476"
               style="opacity:0.14999402"><g
                 transform="translate(1700.0977,973.3164)"
                 id="g478"><path
                   d="m 0,0 0,-4.879 -3.648,0 0,-38.86 -6.075,-6.074 -0.093,0 -18.036,0 -0.091,0 -6.075,6.074 0,38.86 -3.644,0 0,4.879 12.146,0 0,-4.864 -2.427,0 0,-36.441 3.642,-3.649 10.932,0 3.646,3.644 0,36.446 -2.429,0 0,4.864 L 0,0 Z"
                   style="fill:#ffffff;fill-opacity:1;fill-rule:nonzero;stroke:none"
                   id="path480"
                   inkscape:connector-curvature="0" /></g></g></g></g><g
           id="g482"><g
             id="g484" /><g
             id="g490"><g
               clip-path="url(#clipPath486)"
               id="g492"
               style="opacity:0.14999402"><g
                 transform="translate(1642.9961,951.4453)"
                 id="g494"><path
                   d="m 0,0 0,13.361 -3.645,3.646 -15.793,0 0,-20.651 15.793,0 L 0,0 Z M 6.072,15.793 6.072,-2.43 0,-8.502 l -0.094,0 -19.344,0 0,-14.581 3.645,0 0,-4.858 -13.367,0 0,4.858 3.644,0 0,40.075 -3.644,0 0,4.879 29.16,0 6.072,-6.078 z"
                   style="fill:#ffffff;fill-opacity:1;fill-rule:nonzero;stroke:none"
                   id="path496"
                   inkscape:connector-curvature="0" /></g></g></g></g><g
           id="g498"><g
             id="g500" /><g
             id="g506"><g
               clip-path="url(#clipPath502)"
               id="g508"
               style="opacity:0.14999402"><g
                 transform="translate(1599.2598,928.3623)"
                 id="g510"><path
                   d="m 0,0 0,-4.858 -32.805,0 0,7.292 26.731,26.725 0,7.285 -3.645,3.646 -13.367,0 -3.643,-3.646 0,-4.858 -6.076,0 0,7.29 6.076,6.078 20.655,0 L 0,38.876 0,26.729 -26.729,0 0,0 Z"
                   style="fill:#ffffff;fill-opacity:1;fill-rule:nonzero;stroke:none"
                   id="path512"
                   inkscape:connector-curvature="0" /></g></g></g></g><g
           id="g514"><g
             id="g516" /><g
             id="g522"><g
               clip-path="url(#clipPath518)"
               id="g524"
               style="opacity:0.14999402"><g
                 transform="translate(1547.0215,951.4453)"
                 id="g526"><path
                   d="m 0,0 0,13.361 -3.646,3.646 -15.795,0 0,-20.651 15.791,0 L 0,0 Z m 6.072,15.793 0,-18.223 -6.078,-6.072 -0.088,0 -19.347,0 0,-14.581 3.644,0 0,-4.858 -13.363,0 0,4.858 3.644,0 0,40.075 -3.644,0 0,4.879 29.154,0 6.078,-6.078 z"
                   style="fill:#ffffff;fill-opacity:1;fill-rule:nonzero;stroke:none"
                   id="path528"
                   inkscape:connector-curvature="0" /></g></g></g></g></g></g><g
       id="g530"
       transform="translate(1700.0977,968.4375)"><path
         d="m 0,0 0,4.879 -12.152,0 0,-4.864 2.429,0 0,-36.446 -3.646,-3.644 -10.932,0 -3.642,3.649 0,36.441 2.427,0 0,4.864 -12.146,0 0,-4.879 3.644,0 0,-38.86 6.075,-6.074 0.091,0 18.036,0 0.093,0 6.075,6.074 0,38.86 L 0,0 Z m 4.857,9.737 0,-14.595 -3.642,0 0,-36.433 -8.508,-8.502 -23.08,0 -8.504,8.502 0,36.433 -3.644,0 0,14.595 0.298,0 21.567,0 0,-13.368 -2.43,0 0,-30.37 1.217,-1.211 0,-0.004 6.072,0 0,0.004 1.215,1.211 0,30.37 -2.43,0 0,13.368 21.869,0 z"
         style="fill:#ffffff;fill-opacity:1;fill-rule:nonzero;stroke:none"
         id="path532"
         inkscape:connector-curvature="0" /></g><g
       id="g534"
       transform="translate(1649.0684,949.0156)"><path
         d="m 0,0 0,18.223 -6.072,6.078 -29.16,0 0,-4.879 3.644,0 0,-40.075 -3.644,0 0,-4.859 13.367,0 0,4.859 -3.645,0 0,14.581 19.344,0 0.094,0 L 0,0 Z m 4.859,19.437 0,-21.867 -8.502,-8.502 -17.007,0 0,-4.862 3.644,0 0,-14.577 -23.086,0 0,14.577 3.645,0 0,30.357 -3.645,0 0,14.596 36.449,0 8.502,-8.508 0,-1.21 0,-0.004 z"
         style="fill:#ffffff;fill-opacity:1;fill-rule:nonzero;stroke:none"
         id="path536"
         inkscape:connector-curvature="0" /></g><g
       id="g538"
       transform="translate(1638.1367,953.875)"><path
         d="m 0,0 0,8.504 -1.215,1.215 -8.504,0 0,-10.933 8.504,0 L 0,0 Z m 4.859,10.932 0,-13.362 -3.644,-3.643 -15.793,0 0,20.65 15.793,0 3.644,-3.645 z"
         style="fill:#ffffff;fill-opacity:1;fill-rule:nonzero;stroke:none"
         id="path540"
         inkscape:connector-curvature="0" /></g><g
       id="g542"
       transform="translate(1599.2598,923.5039)"><path
         d="m 0,0 0,4.858 -26.729,0 26.729,26.73 0,12.146 -6.074,6.079 -20.655,0 -6.076,-6.079 0,-7.29 6.076,0 0,4.859 3.643,3.645 13.367,0 3.645,-3.645 0,-7.285 L -32.805,7.292 -32.805,0 0,0 Z m 4.859,9.718 0,-14.577 -42.523,0 0,14.577 26.73,26.553 0,2.604 -1.214,1.215 -8.508,0 -1.213,-1.215 0,-7.288 -15.795,0 0,14.576 8.506,8.508 25.513,0 8.504,-8.508 0,-17.006 -19.441,-19.439 19.441,0 z"
         style="fill:#ffffff;fill-opacity:1;fill-rule:nonzero;stroke:none"
         id="path544"
         inkscape:connector-curvature="0" /></g><g
       id="g546"
       transform="translate(1553.0938,949.0156)"><path
         d="m 0,0 0,18.223 -6.078,6.078 -29.154,0 0,-4.879 3.644,0 0,-40.075 -3.644,0 0,-4.859 13.363,0 0,4.859 -3.645,0 0,14.581 19.348,0 0.088,0 L 0,0 Z m 4.859,20.651 0,-23.081 -8.502,-8.502 -17.011,0 0,-4.862 3.642,0 0,-14.577 -23.078,0 0,14.577 3.643,0 0,30.357 -3.643,0 0,14.596 36.447,0 8.502,-8.508 z"
         style="fill:#ffffff;fill-opacity:1;fill-rule:nonzero;stroke:none"
         id="path548"
         inkscape:connector-curvature="0" /></g><g
       id="g550"
       transform="translate(1542.1563,953.875)"><path
         d="m 0,0 0,8.504 -1.209,1.215 -8.508,0 0,-10.933 8.508,0 L 0,0 Z m 4.865,10.932 0,-13.362 -3.65,-3.643 -15.791,0 0,20.65 15.795,0 3.646,-3.645 z"
         style="fill:#ffffff;fill-opacity:1;fill-rule:nonzero;stroke:none"
         id="path552"
         inkscape:connector-curvature="0" /></g><g
       id="g554"><g
         id="g556"
         clip-path="url(#clipPath558)"><g
           id="g562"><g
             id="g564" /><g
             id="g570"><g
               clip-path="url(#clipPath566)"
               id="g572"
               style="opacity:0.14999402"><g
                 transform="translate(1700.084,536.7813)"
                 id="g574"><path
                   d="m 0,0 0,-4.879 -3.648,0 0,-38.859 -6.075,-6.075 -0.091,0 -18.036,0 -0.091,0 -6.075,6.075 0,38.859 -3.646,0 0,4.879 12.148,0 0,-4.863 -2.427,0 0,-36.442 3.642,-3.648 10.932,0 3.644,3.644 0,36.446 -2.429,0 0,4.863 L 0,0 Z"
                   style="fill:#ffffff;fill-opacity:1;fill-rule:nonzero;stroke:none"
                   id="path576"
                   inkscape:connector-curvature="0" /></g></g></g></g><g
           id="g578"><g
             id="g580" /><g
             id="g586"><g
               clip-path="url(#clipPath582)"
               id="g588"
               style="opacity:0.14999402"><g
                 transform="translate(1642.9824,514.9102)"
                 id="g590"><path
                   d="m 0,0 0,13.361 -3.645,3.647 -15.791,0 0,-20.651 15.791,0 L 0,0 Z M 6.072,15.793 6.072,-2.43 0,-8.502 l -0.094,0 -19.342,0 0,-14.58 3.645,0 0,-4.859 -13.367,0 0,4.859 3.644,0 0,40.074 -3.644,0 0,4.879 29.158,0 6.072,-6.078 z"
                   style="fill:#ffffff;fill-opacity:1;fill-rule:nonzero;stroke:none"
                   id="path592"
                   inkscape:connector-curvature="0" /></g></g></g></g><g
           id="g594"><g
             id="g596" /><g
             id="g602"><g
               clip-path="url(#clipPath598)"
               id="g604"
               style="opacity:0.14999402"><g
                 transform="translate(1599.2461,491.8281)"
                 id="g606"><path
                   d="m 0,0 0,-4.859 -32.803,0 0,7.293 26.729,26.724 0,7.285 -3.643,3.647 -13.367,0 -3.643,-3.647 0,-4.857 -6.076,0 0,7.289 6.076,6.078 20.653,0 L 0,38.875 0,26.729 -26.727,0 0,0 Z"
                   style="fill:#ffffff;fill-opacity:1;fill-rule:nonzero;stroke:none"
                   id="path608"
                   inkscape:connector-curvature="0" /></g></g></g></g><g
           id="g610"><g
             id="g612" /><g
             id="g618"><g
               clip-path="url(#clipPath614)"
               id="g620"
               style="opacity:0.14999402"><g
                 transform="translate(1547.0078,514.9102)"
                 id="g622"><path
                   d="m 0,0 0,13.361 -3.645,3.647 -15.794,0 0,-20.651 15.791,0 L 0,0 Z m 6.074,15.793 0,-18.223 -6.078,-6.072 -0.09,0 -19.345,0 0,-14.58 3.644,0 0,-4.859 -13.363,0 0,4.859 3.642,0 0,40.074 -3.642,0 0,4.879 29.154,0 6.078,-6.078 z"
                   style="fill:#ffffff;fill-opacity:1;fill-rule:nonzero;stroke:none"
                   id="path624"
                   inkscape:connector-curvature="0" /></g></g></g></g></g></g><g
       id="g626"
       transform="translate(1700.084,531.9023)"><path
         d="m 0,0 0,4.879 -12.152,0 0,-4.863 2.429,0 0,-36.446 -3.644,-3.644 -10.932,0 -3.642,3.648 0,36.442 2.427,0 0,4.863 -12.148,0 0,-4.879 3.646,0 0,-38.859 6.075,-6.075 0.091,0 18.036,0 0.091,0 6.075,6.075 L -3.648,0 0,0 Z m 4.859,9.738 0,-14.595 -3.642,0 0,-36.434 -8.508,-8.502 -23.082,0 -8.502,8.502 0,36.434 -3.645,0 0,14.595 0.299,0 21.565,0 0,-13.369 -2.428,0 0,-30.369 1.215,-1.211 0,-0.004 6.074,0 0,0.004 1.215,1.211 0,30.369 -2.43,0 0,13.369 21.869,0 z"
         style="fill:#ffffff;fill-opacity:1;fill-rule:nonzero;stroke:none"
         id="path628"
         inkscape:connector-curvature="0" /></g><g
       id="g630"
       transform="translate(1649.0547,512.4805)"><path
         d="m 0,0 0,18.223 -6.072,6.078 -29.158,0 0,-4.879 3.644,0 0,-40.074 -3.644,0 0,-4.86 13.367,0 0,4.86 -3.645,0 0,14.58 19.342,0 0.094,0 L 0,0 Z m 4.859,19.438 0,-21.868 -8.502,-8.502 -17.007,0 0,-4.861 3.644,0 0,-14.578 -23.084,0 0,14.578 3.645,0 0,30.357 -3.645,0 0,14.596 36.447,0 8.502,-8.508 0,-1.211 0,-0.003 z"
         style="fill:#ffffff;fill-opacity:1;fill-rule:nonzero;stroke:none"
         id="path632"
         inkscape:connector-curvature="0" /></g><g
       id="g634"
       transform="translate(1638.123,517.3398)"><path
         d="m 0,0 0,8.504 -1.215,1.215 -8.504,0 0,-10.932 8.504,0 L 0,0 Z m 4.859,10.932 0,-13.362 -3.644,-3.642 -15.791,0 0,20.65 15.791,0 3.644,-3.646 z"
         style="fill:#ffffff;fill-opacity:1;fill-rule:nonzero;stroke:none"
         id="path636"
         inkscape:connector-curvature="0" /></g><g
       id="g638"
       transform="translate(1599.2461,486.9688)"><path
         d="m 0,0 0,4.859 -26.727,0 L 0,31.588 l 0,12.146 -6.074,6.079 -20.653,0 -6.076,-6.079 0,-7.289 6.076,0 0,4.858 3.643,3.646 13.367,0 3.643,-3.646 0,-7.285 L -32.803,7.293 -32.803,0 0,0 Z m 4.859,9.719 0,-14.578 -42.521,0 0,14.578 26.73,26.552 0,2.604 -1.214,1.215 -8.508,0 -1.215,-1.215 0,-7.287 -15.793,0 0,14.576 8.506,8.508 25.513,0 8.502,-8.508 0,-17.006 -19.439,-19.439 19.439,0 z"
         style="fill:#ffffff;fill-opacity:1;fill-rule:nonzero;stroke:none"
         id="path640"
         inkscape:connector-curvature="0" /></g><g
       id="g642"
       transform="translate(1553.082,512.4805)"><path
         d="m 0,0 0,18.223 -6.078,6.078 -29.154,0 0,-4.879 3.642,0 0,-40.074 -3.642,0 0,-4.86 13.363,0 0,4.86 -3.645,0 0,14.58 19.346,0 0.09,0 L 0,0 Z m 4.859,20.652 0,-23.082 -8.504,-8.502 -17.011,0 0,-4.861 3.644,0 0,-14.578 -23.08,0 0,14.578 3.645,0 0,30.357 -3.645,0 0,14.596 36.447,0 8.504,-8.508 z"
         style="fill:#ffffff;fill-opacity:1;fill-rule:nonzero;stroke:none"
         id="path644"
         inkscape:connector-curvature="0" /></g><g
       id="g646"
       transform="translate(1542.1445,517.3398)"><path
         d="m 0,0 0,8.504 -1.209,1.215 -8.51,0 0,-10.932 8.51,0 L 0,0 Z m 4.863,10.932 0,-13.362 -3.648,-3.642 -15.791,0 0,20.65 15.795,0 3.644,-3.646 z"
         style="fill:#ffffff;fill-opacity:1;fill-rule:nonzero;stroke:none"
         id="path648"
         inkscape:connector-curvature="0" /></g><g
       id="g650"><g
         id="g652"
         clip-path="url(#clipPath654)"><g
           id="g658"><g
             id="g660" /><g
             id="g666"><g
               clip-path="url(#clipPath662)"
               id="g668"
               style="opacity:0.14999402"><g
                 transform="translate(998.1563,536.7813)"
                 id="g670"><path
                   d="m 0,0 0,-4.879 -3.648,0 0,-38.859 -6.075,-6.075 -0.091,0 -18.036,0 -0.091,0 -6.075,6.075 0,38.859 -3.646,0 0,4.879 12.148,0 0,-4.863 -2.427,0 0,-36.442 3.642,-3.648 10.932,0 3.644,3.644 0,36.446 -2.429,0 0,4.863 L 0,0 Z"
                   style="fill:#ffffff;fill-opacity:1;fill-rule:nonzero;stroke:none"
                   id="path672"
                   inkscape:connector-curvature="0" /></g></g></g></g><g
           id="g674"><g
             id="g676" /><g
             id="g682"><g
               clip-path="url(#clipPath678)"
               id="g684"
               style="opacity:0.14999402"><g
                 transform="translate(941.0547,514.9102)"
                 id="g686"><path
                   d="m 0,0 0,13.361 -3.645,3.647 -15.791,0 0,-20.651 15.791,0 L 0,0 Z M 6.072,15.793 6.072,-2.43 0,-8.502 l -0.094,0 -19.342,0 0,-14.58 3.645,0 0,-4.859 -13.367,0 0,4.859 3.644,0 0,40.074 -3.644,0 0,4.879 29.158,0 6.072,-6.078 z"
                   style="fill:#ffffff;fill-opacity:1;fill-rule:nonzero;stroke:none"
                   id="path688"
                   inkscape:connector-curvature="0" /></g></g></g></g><g
           id="g690"><g
             id="g692" /><g
             id="g698"><g
               clip-path="url(#clipPath694)"
               id="g700"
               style="opacity:0.14999402"><g
                 transform="translate(897.3184,491.8281)"
                 id="g702"><path
                   d="m 0,0 0,-4.859 -32.803,0 0,7.293 26.729,26.724 0,7.285 -3.643,3.647 -13.367,0 -3.643,-3.647 0,-4.857 -6.076,0 0,7.289 6.076,6.078 20.653,0 L 0,38.875 0,26.729 -26.727,0 0,0 Z"
                   style="fill:#ffffff;fill-opacity:1;fill-rule:nonzero;stroke:none"
                   id="path704"
                   inkscape:connector-curvature="0" /></g></g></g></g><g
           id="g706"><g
             id="g708" /><g
             id="g714"><g
               clip-path="url(#clipPath710)"
               id="g716"
               style="opacity:0.14999402"><g
                 transform="translate(845.0801,514.9102)"
                 id="g718"><path
                   d="m 0,0 0,13.361 -3.645,3.647 -15.794,0 0,-20.651 15.791,0 L 0,0 Z m 6.074,15.793 0,-18.223 -6.078,-6.072 -0.09,0 -19.345,0 0,-14.58 3.644,0 0,-4.859 -13.363,0 0,4.859 3.642,0 0,40.074 -3.642,0 0,4.879 29.154,0 6.078,-6.078 z"
                   style="fill:#ffffff;fill-opacity:1;fill-rule:nonzero;stroke:none"
                   id="path720"
                   inkscape:connector-curvature="0" /></g></g></g></g></g></g><g
       id="g722"
       transform="translate(998.1563,531.9023)"><path
         d="m 0,0 0,4.879 -12.152,0 0,-4.863 2.429,0 0,-36.446 -3.644,-3.644 -10.932,0 -3.642,3.648 0,36.442 2.427,0 0,4.863 -12.148,0 0,-4.879 3.646,0 0,-38.859 6.075,-6.075 0.091,0 18.036,0 0.091,0 6.075,6.075 L -3.648,0 0,0 Z m 4.859,9.738 0,-14.595 -3.642,0 0,-36.434 -8.508,-8.502 -23.082,0 -8.502,8.502 0,36.434 -3.645,0 0,14.595 0.299,0 21.565,0 0,-13.369 -2.428,0 0,-30.369 1.215,-1.211 0,-0.004 6.074,0 0,0.004 1.215,1.211 0,30.369 -2.43,0 0,13.369 21.869,0 z"
         style="fill:#ffffff;fill-opacity:1;fill-rule:nonzero;stroke:none"
         id="path724"
         inkscape:connector-curvature="0" /></g><g
       id="g726"
       transform="translate(947.127,512.4805)"><path
         d="m 0,0 0,18.223 -6.072,6.078 -29.158,0 0,-4.879 3.644,0 0,-40.074 -3.644,0 0,-4.86 13.367,0 0,4.86 -3.645,0 0,14.58 19.342,0 0.094,0 L 0,0 Z m 4.859,19.438 0,-21.868 -8.502,-8.502 -17.007,0 0,-4.861 3.644,0 0,-14.578 -23.084,0 0,14.578 3.645,0 0,30.357 -3.645,0 0,14.596 36.447,0 8.502,-8.508 0,-1.211 0,-0.003 z"
         style="fill:#ffffff;fill-opacity:1;fill-rule:nonzero;stroke:none"
         id="path728"
         inkscape:connector-curvature="0" /></g><g
       id="g730"
       transform="translate(936.1953,517.3398)"><path
         d="m 0,0 0,8.504 -1.215,1.215 -8.504,0 0,-10.932 8.504,0 L 0,0 Z m 4.859,10.932 0,-13.362 -3.644,-3.642 -15.791,0 0,20.65 15.791,0 3.644,-3.646 z"
         style="fill:#ffffff;fill-opacity:1;fill-rule:nonzero;stroke:none"
         id="path732"
         inkscape:connector-curvature="0" /></g><g
       id="g734"
       transform="translate(897.3184,486.9688)"><path
         d="m 0,0 0,4.859 -26.727,0 L 0,31.588 l 0,12.146 -6.074,6.079 -20.653,0 -6.076,-6.079 0,-7.289 6.076,0 0,4.858 3.643,3.646 13.367,0 3.643,-3.646 0,-7.285 L -32.803,7.293 -32.803,0 0,0 Z m 4.859,9.719 0,-14.578 -42.521,0 0,14.578 26.73,26.552 0,2.604 -1.214,1.215 -8.508,0 -1.215,-1.215 0,-7.287 -15.793,0 0,14.576 8.506,8.508 25.513,0 8.502,-8.508 0,-17.006 -19.439,-19.439 19.439,0 z"
         style="fill:#ffffff;fill-opacity:1;fill-rule:nonzero;stroke:none"
         id="path736"
         inkscape:connector-curvature="0" /></g><g
       id="g738"
       transform="translate(851.1543,512.4805)"><path
         d="m 0,0 0,18.223 -6.078,6.078 -29.154,0 0,-4.879 3.642,0 0,-40.074 -3.642,0 0,-4.86 13.363,0 0,4.86 -3.645,0 0,14.58 19.346,0 0.09,0 L 0,0 Z m 4.859,20.652 0,-23.082 -8.504,-8.502 -17.011,0 0,-4.861 3.644,0 0,-14.578 -23.08,0 0,14.578 3.645,0 0,30.357 -3.645,0 0,14.596 36.447,0 8.504,-8.508 z"
         style="fill:#ffffff;fill-opacity:1;fill-rule:nonzero;stroke:none"
         id="path740"
         inkscape:connector-curvature="0" /></g><g
       id="g742"
       transform="translate(840.2168,517.3398)"><path
         d="m 0,0 0,8.504 -1.209,1.215 -8.51,0 0,-10.932 8.51,0 L 0,0 Z m 4.863,10.932 0,-13.362 -3.648,-3.642 -15.791,0 0,20.65 15.795,0 3.644,-3.646 z"
         style="fill:#ffffff;fill-opacity:1;fill-rule:nonzero;stroke:none"
         id="path744"
         inkscape:connector-curvature="0" /></g><g
       id="g746"><g
         id="g748"
         clip-path="url(#clipPath750)"><g
           id="g754"><g
             id="g756" /><g
             id="g762"><g
               clip-path="url(#clipPath758)"
               id="g764"
               style="opacity:0.14999402"><g
                 transform="translate(306.1621,536.7813)"
                 id="g766"><path
                   d="m 0,0 0,-4.879 -3.648,0 0,-38.859 -6.075,-6.075 -0.091,0 -18.036,0 -0.091,0 -6.075,6.075 0,38.859 -3.646,0 0,4.879 12.148,0 0,-4.863 -2.427,0 0,-36.442 3.642,-3.648 10.932,0 3.644,3.644 0,36.446 -2.429,0 0,4.863 L 0,0 Z"
                   style="fill:#ffffff;fill-opacity:1;fill-rule:nonzero;stroke:none"
                   id="path768"
                   inkscape:connector-curvature="0" /></g></g></g></g><g
           id="g770"><g
             id="g772" /><g
             id="g778"><g
               clip-path="url(#clipPath774)"
               id="g780"
               style="opacity:0.14999402"><g
                 transform="translate(249.0605,514.9102)"
                 id="g782"><path
                   d="m 0,0 0,13.361 -3.645,3.647 -15.791,0 0,-20.651 15.791,0 L 0,0 Z M 6.072,15.793 6.072,-2.43 0,-8.502 l -0.094,0 -19.342,0 0,-14.58 3.645,0 0,-4.859 -13.367,0 0,4.859 3.644,0 0,40.074 -3.644,0 0,4.879 29.158,0 6.072,-6.078 z"
                   style="fill:#ffffff;fill-opacity:1;fill-rule:nonzero;stroke:none"
                   id="path784"
                   inkscape:connector-curvature="0" /></g></g></g></g><g
           id="g786"><g
             id="g788" /><g
             id="g794"><g
               clip-path="url(#clipPath790)"
               id="g796"
               style="opacity:0.14999402"><g
                 transform="translate(205.3242,491.8281)"
                 id="g798"><path
                   d="m 0,0 0,-4.859 -32.803,0 0,7.293 26.729,26.724 0,7.285 -3.643,3.647 -13.367,0 -3.643,-3.647 0,-4.857 -6.076,0 0,7.289 6.076,6.078 20.653,0 L 0,38.875 0,26.729 -26.727,0 0,0 Z"
                   style="fill:#ffffff;fill-opacity:1;fill-rule:nonzero;stroke:none"
                   id="path800"
                   inkscape:connector-curvature="0" /></g></g></g></g><g
           id="g802"><g
             id="g804" /><g
             id="g810"><g
               clip-path="url(#clipPath806)"
               id="g812"
               style="opacity:0.14999402"><g
                 transform="translate(153.0859,514.9102)"
                 id="g814"><path
                   d="m 0,0 0,13.361 -3.645,3.647 -15.794,0 0,-20.651 15.791,0 L 0,0 Z m 6.074,15.793 0,-18.223 -6.078,-6.072 -0.09,0 -19.345,0 0,-14.58 3.644,0 0,-4.859 -13.363,0 0,4.859 3.642,0 0,40.074 -3.642,0 0,4.879 29.154,0 6.078,-6.078 z"
                   style="fill:#ffffff;fill-opacity:1;fill-rule:nonzero;stroke:none"
                   id="path816"
                   inkscape:connector-curvature="0" /></g></g></g></g></g></g><g
       id="g818"
       transform="translate(306.1621,531.9023)"><path
         d="m 0,0 0,4.879 -12.152,0 0,-4.863 2.429,0 0,-36.446 -3.644,-3.644 -10.932,0 -3.642,3.648 0,36.442 2.427,0 0,4.863 -12.148,0 0,-4.879 3.646,0 0,-38.859 6.075,-6.075 0.091,0 18.036,0 0.091,0 6.075,6.075 L -3.648,0 0,0 Z m 4.859,9.738 0,-14.595 -3.642,0 0,-36.434 -8.508,-8.502 -23.082,0 -8.502,8.502 0,36.434 -3.645,0 0,14.595 0.299,0 21.565,0 0,-13.369 -2.428,0 0,-30.369 1.215,-1.211 0,-0.004 6.074,0 0,0.004 1.215,1.211 0,30.369 -2.43,0 0,13.369 21.869,0 z"
         style="fill:#ffffff;fill-opacity:1;fill-rule:nonzero;stroke:none"
         id="path820"
         inkscape:connector-curvature="0" /></g><g
       id="g822"
       transform="translate(255.1328,512.4805)"><path
         d="m 0,0 0,18.223 -6.072,6.078 -29.158,0 0,-4.879 3.644,0 0,-40.074 -3.644,0 0,-4.86 13.367,0 0,4.86 -3.645,0 0,14.58 19.342,0 0.094,0 L 0,0 Z m 4.859,19.438 0,-21.868 -8.502,-8.502 -17.007,0 0,-4.861 3.644,0 0,-14.578 -23.084,0 0,14.578 3.645,0 0,30.357 -3.645,0 0,14.596 36.447,0 8.502,-8.508 0,-1.211 0,-0.003 z"
         style="fill:#ffffff;fill-opacity:1;fill-rule:nonzero;stroke:none"
         id="path824"
         inkscape:connector-curvature="0" /></g><g
       id="g826"
       transform="translate(244.2012,517.3398)"><path
         d="m 0,0 0,8.504 -1.215,1.215 -8.504,0 0,-10.932 8.504,0 L 0,0 Z m 4.859,10.932 0,-13.362 -3.644,-3.642 -15.791,0 0,20.65 15.791,0 3.644,-3.646 z"
         style="fill:#ffffff;fill-opacity:1;fill-rule:nonzero;stroke:none"
         id="path828"
         inkscape:connector-curvature="0" /></g><g
       id="g830"
       transform="translate(205.3242,486.9688)"><path
         d="m 0,0 0,4.859 -26.727,0 L 0,31.588 l 0,12.146 -6.074,6.079 -20.653,0 -6.076,-6.079 0,-7.289 6.076,0 0,4.858 3.643,3.646 13.367,0 3.643,-3.646 0,-7.285 L -32.803,7.293 -32.803,0 0,0 Z m 4.859,9.719 0,-14.578 -42.521,0 0,14.578 26.73,26.552 0,2.604 -1.214,1.215 -8.508,0 -1.215,-1.215 0,-7.287 -15.793,0 0,14.576 8.506,8.508 25.513,0 8.502,-8.508 0,-17.006 -19.439,-19.439 19.439,0 z"
         style="fill:#ffffff;fill-opacity:1;fill-rule:nonzero;stroke:none"
         id="path832"
         inkscape:connector-curvature="0" /></g><g
       id="g834"
       transform="translate(159.1602,512.4805)"><path
         d="m 0,0 0,18.223 -6.078,6.078 -29.154,0 0,-4.879 3.642,0 0,-40.074 -3.642,0 0,-4.86 13.363,0 0,4.86 -3.645,0 0,14.58 19.346,0 0.09,0 L 0,0 Z m 4.859,20.652 0,-23.082 -8.504,-8.502 -17.011,0 0,-4.861 3.644,0 0,-14.578 -23.08,0 0,14.578 3.645,0 0,30.357 -3.645,0 0,14.596 36.447,0 8.504,-8.508 z"
         style="fill:#ffffff;fill-opacity:1;fill-rule:nonzero;stroke:none"
         id="path836"
         inkscape:connector-curvature="0" /></g><g
       id="g838"
       transform="translate(148.2227,517.3398)"><path
         d="m 0,0 0,8.504 -1.209,1.215 -8.51,0 0,-10.932 8.51,0 L 0,0 Z m 4.863,10.932 0,-13.362 -3.648,-3.642 -15.791,0 0,20.65 15.795,0 3.644,-3.646 z"
         style="fill:#ffffff;fill-opacity:1;fill-rule:nonzero;stroke:none"
         id="path840"
         inkscape:connector-curvature="0" /></g></g></svg>