<?xml version="1.0" encoding="UTF-8" standalone="no"?>
<!-- Created with Inkscape (http://www.inkscape.org/) -->

<svg
   xmlns:dc="http://purl.org/dc/elements/1.1/"
   xmlns:cc="http://creativecommons.org/ns#"
   xmlns:rdf="http://www.w3.org/1999/02/22-rdf-syntax-ns#"
   xmlns:svg="http://www.w3.org/2000/svg"
   xmlns="http://www.w3.org/2000/svg"
   xmlns:sodipodi="http://sodipodi.sourceforge.net/DTD/sodipodi-0.dtd"
   xmlns:inkscape="http://www.inkscape.org/namespaces/inkscape"
   id="svg2"
   version="1.1"
   inkscape:version="0.91 r13725"
   xml:space="preserve"
   width="2753.1499"
   height="1256.775"
   viewBox="0 0 2753.1499 1256.775"
   sodipodi:docname="P2PU Brandbook v2-p02.svg"><metadata
     id="metadata8"><rdf:RDF><cc:Work
         rdf:about=""><dc:format>image/svg+xml</dc:format><dc:type
           rdf:resource="http://purl.org/dc/dcmitype/StillImage" /><dc:title></dc:title></cc:Work></rdf:RDF></metadata><defs
     id="defs6"><clipPath
       clipPathUnits="userSpaceOnUse"
       id="clipPath16"><path
         d="m 0,1005.422 2202.52,0 L 2202.52,0 0,0 0,1005.422 Z"
         id="path18"
         inkscape:connector-curvature="0" /></clipPath><clipPath
       clipPathUnits="userSpaceOnUse"
       id="clipPath24"><path
         d="m 2202.52,1200.352 -2202.52,0 0,1005.068 2202.52,10e-4 0,-1005.069 z"
         id="path26"
         inkscape:connector-curvature="0" /></clipPath><clipPath
       clipPathUnits="userSpaceOnUse"
       id="clipPath32"><path
         d="m 1714.63,1241.29 432.14,0 0,-557.638 -432.14,0 0,557.638 z"
         id="path34"
         inkscape:connector-curvature="0" /></clipPath><clipPath
       clipPathUnits="userSpaceOnUse"
       id="clipPath48"><path
         d="m 1156.99,1241.29 404.26,0 0,-557.638 -404.26,0 0,557.638 z"
         id="path50"
         inkscape:connector-curvature="0" /></clipPath><clipPath
       clipPathUnits="userSpaceOnUse"
       id="clipPath64"><path
         d="m 613.337,1241.29 376.388,0 0,-557.638 -376.388,0 0,557.638 z"
         id="path66"
         inkscape:connector-curvature="0" /></clipPath><clipPath
       clipPathUnits="userSpaceOnUse"
       id="clipPath80"><path
         d="m 55.7524,1241.29 404.2626,0 0,-557.638 -404.2626,0 0,557.638 z"
         id="path82"
         inkscape:connector-curvature="0" /></clipPath><clipPath
       clipPathUnits="userSpaceOnUse"
       id="clipPath100"><path
         d="m 0,1005.422 2202.52,0 L 2202.52,0 0,0 0,1005.422 Z"
         id="path102"
         inkscape:connector-curvature="0" /></clipPath><clipPath
       clipPathUnits="userSpaceOnUse"
       id="clipPath208"><path
         d="m 0.001,0.352 2202.519,0 0,1005.069 -2202.519,0 0,-1005.069 z"
         id="path210"
         inkscape:connector-curvature="0" /></clipPath><clipPath
       clipPathUnits="userSpaceOnUse"
       id="clipPath216"><path
         d="m 1714.63,41.292 432.14,0 0,-557.64 -432.14,0 0,557.64 z"
         id="path218"
         inkscape:connector-curvature="0" /></clipPath><clipPath
       clipPathUnits="userSpaceOnUse"
       id="clipPath232"><path
         d="m 1156.99,41.292 404.26,0 0,-557.64 -404.26,0 0,557.64 z"
         id="path234"
         inkscape:connector-curvature="0" /></clipPath><clipPath
       clipPathUnits="userSpaceOnUse"
       id="clipPath248"><path
         d="m 613.337,41.292 376.388,0 0,-557.64 -376.388,0 0,557.64 z"
         id="path250"
         inkscape:connector-curvature="0" /></clipPath><clipPath
       clipPathUnits="userSpaceOnUse"
       id="clipPath264"><path
         d="m 55.7524,41.292 404.2626,0 0,-557.64 -404.2626,0 0,557.64 z"
         id="path266"
         inkscape:connector-curvature="0" /></clipPath></defs><sodipodi:namedview
     pagecolor="#ffffff"
     bordercolor="#666666"
     borderopacity="1"
     objecttolerance="10"
     gridtolerance="10"
     guidetolerance="10"
     inkscape:pageopacity="0"
     inkscape:pageshadow="2"
     inkscape:window-width="640"
     inkscape:window-height="480"
     id="namedview4"
     showgrid="false"
     inkscape:zoom="0.19622836"
     inkscape:cx="1287.3931"
     inkscape:cy="628.38751"
     inkscape:window-x="65"
     inkscape:window-y="24"
     inkscape:window-maximized="0"
     inkscape:current-layer="g10" /><g
     id="g10"
     inkscape:groupmode="layer"
     inkscape:label="P2PU Brandbook v2"
     transform="matrix(1.25,0,0,-1.25,0,1256.775)"><g
       id="g12"><g
         id="g14"
         clip-path="url(#clipPath16)"><g
           id="g20"><g
             id="g22"
             clip-path="url(#clipPath24)"><g
               id="g28"><g
                 id="g30" /><g
                 id="g36"><g
                   clip-path="url(#clipPath32)"
                   id="g38"
                   style="opacity:0.14999402"><g
                     transform="translate(2146.7671,1241.2915)"
                     id="g40"><path
                       d="m 0,0 0,-55.978 -41.872,0 0,-431.973 -69.688,-69.689 -1.07,0 -206.934,0 -1.071,0 -69.693,69.689 0,431.973 -41.812,0 0,55.978 139.382,0 0,-55.807 -27.877,0 0,-404.208 41.817,-41.872 125.441,0 41.817,41.811 0,404.269 -27.877,0 0,55.807 L 0,0 Z"
                       style="fill:#ffbe00;fill-opacity:1;fill-rule:nonzero;stroke:none"
                       id="path42"
                       inkscape:connector-curvature="0" /></g></g></g></g><g
               id="g44"><g
                 id="g46" /><g
                 id="g52"><g
                   clip-path="url(#clipPath48)"
                   id="g54"
                   style="opacity:0.14999402"><g
                     transform="translate(1491.5571,990.3457)"
                     id="g56"><path
                       d="m 0,0 0,153.322 -41.812,41.817 -181.198,0 0,-236.951 181.198,0 L 0,0 Z m 69.693,181.198 0,-209.074 L 0,-97.564 l -1.064,0 -221.946,0 0,-153.377 41.817,0 0,-55.753 -153.377,0 0,55.753 41.812,0 0,445.909 -41.812,0 0,55.978 334.57,0 69.693,-69.748 z"
                       style="fill:#00c8b5;fill-opacity:1;fill-rule:nonzero;stroke:none"
                       id="path58"
                       inkscape:connector-curvature="0" /></g></g></g></g><g
               id="g60"><g
                 id="g62" /><g
                 id="g68"><g
                   clip-path="url(#clipPath64)"
                   id="g70"
                   style="opacity:0.14999402"><g
                     transform="translate(989.7246,739.4043)"
                     id="g72"><path
                       d="m 0,0 0,-55.752 -376.387,0 0,83.684 306.699,306.644 0,69.688 -41.817,41.817 -153.377,0 -41.812,-41.817 0,-55.753 -69.693,0 0,83.629 69.693,69.747 237.006,0 L 0,432.14 0,306.694 -306.694,0 0,0 Z"
                       style="fill:#aad700;fill-opacity:1;fill-rule:nonzero;stroke:none"
                       id="path74"
                       inkscape:connector-curvature="0" /></g></g></g></g><g
               id="g76"><g
                 id="g78" /><g
                 id="g84"><g
                   clip-path="url(#clipPath80)"
                   id="g86"
                   style="opacity:0.14999402"><g
                     transform="translate(390.3267,990.3457)"
                     id="g88"><path
                       d="m 0,0 0,153.322 -41.817,41.817 -181.252,0 0,-236.951 181.198,0 L 0,0 Z m 69.688,181.198 0,-209.074 -69.743,-69.688 -1.015,0 -221.999,0 0,-153.377 41.817,0 0,-55.753 -153.322,0 0,55.753 41.816,0 0,445.909 -41.816,0 0,55.978 334.519,0 69.743,-69.748 z"
                       style="fill:#ff7400;fill-opacity:1;fill-rule:nonzero;stroke:none"
                       id="path90"
                       inkscape:connector-curvature="0" /></g></g></g></g></g></g></g></g><g
       id="g92"
       transform="translate(2202.5195,0.3521)"><path
         d="m 0,0 -2202.519,0 0,1005.068 L 0,1005.069 0,0 Z"
         style="fill:#4e5566;fill-opacity:1;fill-rule:nonzero;stroke:none"
         id="path94"
         inkscape:connector-curvature="0" /></g><g
       id="g96"><g
         id="g98"
         clip-path="url(#clipPath100)"><text
           transform="matrix(1,0,0,-0.99999062,102.5112,658.8576)"
           style="font-variant:normal;font-weight:bold;font-stretch:normal;font-size:32px;font-family:Arvo;-inkscape-font-specification:Arvo-Bold;writing-mode:lr-tb;fill:#f5f5f5;fill-opacity:1;fill-rule:nonzero;stroke:none"
           id="text104"><tspan
             x="0 20.32 40.639999 61.344002 73.856003"
             y="0"
             sodipodi:role="line"
             id="tspan106">Table</tspan></text>
<text
           transform="matrix(1,0,0,-0.99999062,202.5432,658.8576)"
           style="font-variant:normal;font-weight:normal;font-stretch:normal;font-size:32px;font-family:Arvo;-inkscape-font-specification:Arvo;writing-mode:lr-tb;fill:#f5f5f5;fill-opacity:1;fill-rule:nonzero;stroke:none"
           id="text108"><tspan
             x="0 19.455999 31.424"
             y="0"
             sodipodi:role="line"
             id="tspan110">of </tspan></text>
<text
           transform="matrix(1,0,0,-0.99999062,241.2952,658.8576)"
           style="font-variant:normal;font-weight:bold;font-stretch:normal;font-size:32px;font-family:Arvo;-inkscape-font-specification:Arvo-Bold;writing-mode:lr-tb;fill:#f5f5f5;fill-opacity:1;fill-rule:nonzero;stroke:none"
           id="text112"><tspan
             x="0 24.608 44.383999 67.519997 80.351997 99.199997 122.336 135.168 152.70399"
             y="0"
             sodipodi:role="line"
             id="tspan114">Contents.</tspan></text>
<text
           transform="matrix(1,0,0,-0.99999167,102.5112,584.4584)"
           style="font-variant:normal;font-weight:800;font-stretch:normal;font-size:24px;font-family:'Sense ExtraBold';-inkscape-font-specification:Sense-ExtraBold;writing-mode:lr-tb;fill:#f5f5f5;fill-opacity:1;fill-rule:nonzero;stroke:none"
           id="text116"><tspan
             x="0 12.24 24.48"
             y="0"
             sodipodi:role="line"
             id="tspan118">01.</tspan></text>
<text
           transform="matrix(1,0,0,-0.99999167,139.0872,584.4584)"
           style="font-variant:normal;font-weight:300;font-stretch:normal;font-size:24px;font-family:'Sense Light';-inkscape-font-specification:Sense-Light;writing-mode:lr-tb;fill:#f5f5f5;fill-opacity:1;fill-rule:nonzero;stroke:none"
           id="text120"><tspan
             x="0 9.9359999 23.184 35.880001 48.888 55.992001 67.823997 80.375999"
             y="0"
             sodipodi:role="line"
             id="tspan122">Logotype</tspan></text>
<text
           transform="matrix(1,0,0,-0.99999167,102.5112,548.4587)"
           style="font-variant:normal;font-weight:800;font-stretch:normal;font-size:24px;font-family:'Sense ExtraBold';-inkscape-font-specification:Sense-ExtraBold;writing-mode:lr-tb;fill:#f5f5f5;fill-opacity:1;fill-rule:nonzero;stroke:none"
           id="text124"><tspan
             x="0 12.24 24.48"
             y="0"
             sodipodi:role="line"
             id="tspan126">02.</tspan></text>
<text
           transform="matrix(1,0,0,-0.99999167,139.0872,548.4587)"
           style="font-variant:normal;font-weight:300;font-stretch:normal;font-size:24px;font-family:'Sense Light';-inkscape-font-specification:Sense-Light;writing-mode:lr-tb;fill:#f5f5f5;fill-opacity:1;fill-rule:nonzero;stroke:none"
           id="text128"><tspan
             x="0 11.904 25.152 37.824001 47.472 54.576 62.183998 74.664001 84.792 91.896004 97.176003 110.424"
             y="0"
             sodipodi:role="line"
             id="tspan130">Construction</tspan></text>
<text
           transform="matrix(1,0,0,-0.99999167,102.5112,512.459)"
           style="font-variant:normal;font-weight:800;font-stretch:normal;font-size:24px;font-family:'Sense ExtraBold';-inkscape-font-specification:Sense-ExtraBold;writing-mode:lr-tb;fill:#f5f5f5;fill-opacity:1;fill-rule:nonzero;stroke:none"
           id="text132"><tspan
             x="0 12.24 24.48"
             y="0"
             sodipodi:role="line"
             id="tspan134">03.</tspan></text>
<text
           transform="matrix(1,0,0,-0.99999167,139.0872,512.459)"
           style="font-variant:normal;font-weight:300;font-stretch:normal;font-size:24px;font-family:'Sense Light';-inkscape-font-specification:Sense-Light;writing-mode:lr-tb;fill:#f5f5f5;fill-opacity:1;fill-rule:nonzero;stroke:none"
           id="text136"><tspan
             x="0 17.712 22.992001 35.664001 40.944 60.647999 73.127998 92.832001 98.688004 111.552 116.832 128.71201 139.67999 147.28799 153.144 165.12 177.672 188.64 198.28799"
             y="0"
             sodipodi:role="line"
             id="tspan138">Minimum Clear Space</tspan></text>
<text
           transform="matrix(1,0,0,-0.99999167,102.5112,476.4593)"
           style="font-variant:normal;font-weight:800;font-stretch:normal;font-size:24px;font-family:'Sense ExtraBold';-inkscape-font-specification:Sense-ExtraBold;writing-mode:lr-tb;fill:#f5f5f5;fill-opacity:1;fill-rule:nonzero;stroke:none"
           id="text140"><tspan
             x="0 12.24 24.48"
             y="0"
             sodipodi:role="line"
             id="tspan142">04.</tspan></text>
<text
           transform="matrix(1,0,0,-0.99999167,139.0872,476.4593)"
           style="font-variant:normal;font-weight:300;font-stretch:normal;font-size:24px;font-family:'Sense Light';-inkscape-font-specification:Sense-Light;writing-mode:lr-tb;fill:#f5f5f5;fill-opacity:1;fill-rule:nonzero;stroke:none"
           id="text144"><tspan
             x="0 11.976 17.256001 26.591999 38.472 44.327999 56.304001 68.975998 81.984001 99.431999 109.56 120.528 130.17599"
             y="0"
             sodipodi:role="line"
             id="tspan146">Size Showcase</tspan></text>
<text
           transform="matrix(1,0,0,-0.99999167,102.5112,440.4596)"
           style="font-variant:normal;font-weight:800;font-stretch:normal;font-size:24px;font-family:'Sense ExtraBold';-inkscape-font-specification:Sense-ExtraBold;writing-mode:lr-tb;fill:#f5f5f5;fill-opacity:1;fill-rule:nonzero;stroke:none"
           id="text148"><tspan
             x="0 12.24 24.48"
             y="0"
             sodipodi:role="line"
             id="tspan150">05.</tspan></text>
<text
           transform="matrix(1,0,0,-0.99999167,139.0872,440.4596)"
           style="font-variant:normal;font-weight:300;font-stretch:normal;font-size:24px;font-family:'Sense Light';-inkscape-font-specification:Sense-Light;writing-mode:lr-tb;fill:#f5f5f5;fill-opacity:1;fill-rule:nonzero;stroke:none"
           id="text152"><tspan
             x="0 11.904 25.152 30.431999 43.68 51.287998 57.144001 69.984001 80.952003 91.080002 101.472 114.168 121.776 135.024 147.504 160.17599 172.84801 178.70399 191.088 202.968 210.576 220.224 225.504 238.752"
             y="0"
             sodipodi:role="line"
             id="tspan154">Color Background Version</tspan></text>
<text
           transform="matrix(1,0,0,-0.99999167,102.5112,404.4599)"
           style="font-variant:normal;font-weight:800;font-stretch:normal;font-size:24px;font-family:'Sense ExtraBold';-inkscape-font-specification:Sense-ExtraBold;writing-mode:lr-tb;fill:#f5f5f5;fill-opacity:1;fill-rule:nonzero;stroke:none"
           id="text156"><tspan
             x="0 12.24 24.48"
             y="0"
             sodipodi:role="line"
             id="tspan158">06.</tspan></text>
<text
           transform="matrix(1,0,0,-0.99999167,139.0872,404.4599)"
           style="font-variant:normal;font-weight:300;font-stretch:normal;font-size:24px;font-family:'Sense Light';-inkscape-font-specification:Sense-Light;writing-mode:lr-tb;fill:#f5f5f5;fill-opacity:1;fill-rule:nonzero;stroke:none"
           id="text160"><tspan
             x="0 9.9359999 23.184 35.880001 49.127998 54.984001 66.888 80.136002 85.416 98.664001 106.272 112.128 124.104 134.23199 146.90401 158.784 178.48801"
             y="0"
             sodipodi:role="line"
             id="tspan162">Logo Color Scheme</tspan></text>
<text
           transform="matrix(1,0,0,-0.99999167,102.5112,368.4602)"
           style="font-variant:normal;font-weight:800;font-stretch:normal;font-size:24px;font-family:'Sense ExtraBold';-inkscape-font-specification:Sense-ExtraBold;writing-mode:lr-tb;fill:#f5f5f5;fill-opacity:1;fill-rule:nonzero;stroke:none"
           id="text164"><tspan
             x="0 12.24 24.48"
             y="0"
             sodipodi:role="line"
             id="tspan166">07.</tspan></text>
<text
           transform="matrix(1,0,0,-0.99999167,139.0872,368.4602)"
           style="font-variant:normal;font-weight:300;font-stretch:normal;font-size:24px;font-family:'Sense Light';-inkscape-font-specification:Sense-Light;writing-mode:lr-tb;fill:#f5f5f5;fill-opacity:1;fill-rule:nonzero;stroke:none"
           id="text168"><tspan
             x="0 12.84 23.808001 33.936001 44.327999 57.023998 64.632004 77.879997 90.360001 103.032 115.704 121.56 133.464 146.71201 151.992 165.24001 172.84801 178.70399 190.67999 200.808 213.48 225.36 245.064"
             y="0"
             sodipodi:role="line"
             id="tspan170">Background Color Scheme</tspan></text>
<text
           transform="matrix(1,0,0,-0.99999167,102.5112,332.4605)"
           style="font-variant:normal;font-weight:800;font-stretch:normal;font-size:24px;font-family:'Sense ExtraBold';-inkscape-font-specification:Sense-ExtraBold;writing-mode:lr-tb;fill:#f5f5f5;fill-opacity:1;fill-rule:nonzero;stroke:none"
           id="text172"><tspan
             x="0 12.24 24.48"
             y="0"
             sodipodi:role="line"
             id="tspan174">08.</tspan></text>
<text
           transform="matrix(1,0,0,-0.99999167,139.0872,332.4605)"
           style="font-variant:normal;font-weight:300;font-stretch:normal;font-size:24px;font-family:'Sense Light';-inkscape-font-specification:Sense-Light;writing-mode:lr-tb;fill:#f5f5f5;fill-opacity:1;fill-rule:nonzero;stroke:none"
           id="text176"><tspan
             x="0 5.4239998 18.096001 27.743999 40.992001 48.599998 56.208 68.087997 78.216003 85.32 91.176003 106.224 116.112 127.08 139.776"
             y="0"
             sodipodi:role="line"
             id="tspan178">Incorrect Usage</tspan></text>
<text
           transform="matrix(1,0,0,-0.99999167,102.5112,296.4608)"
           style="font-variant:normal;font-weight:800;font-stretch:normal;font-size:24px;font-family:'Sense ExtraBold';-inkscape-font-specification:Sense-ExtraBold;writing-mode:lr-tb;fill:#f5f5f5;fill-opacity:1;fill-rule:nonzero;stroke:none"
           id="text180"><tspan
             x="0 12.24 24.48 30.719999 42.959999"
             y="0"
             sodipodi:role="line"
             id="tspan182">08.1 </tspan></text>
<text
           transform="matrix(1,0,0,-0.99999167,151.3272,296.4608)"
           style="font-variant:normal;font-weight:300;font-stretch:normal;font-size:24px;font-family:'Sense Light';-inkscape-font-specification:Sense-Light;writing-mode:lr-tb;fill:#f5f5f5;fill-opacity:1;fill-rule:nonzero;stroke:none"
           id="text184"><tspan
             x="0 11.904 25.152 32.759998 40.368 52.248001 62.375999 69.480003 75.335999 90.384003 100.272 111.24 123.936 135.81599 141.672 148.08 153.936 165.84 179.088 184.368 197.616 205.224 211.08 223.92 234.888 245.01601 255.408 268.104 275.71201 288.95999 301.44 314.112"
             y="0"
             sodipodi:role="line"
             id="tspan186">Correct Usage - Color Background</tspan></text>
<text
           transform="matrix(1,0,0,-0.99999167,102.5112,260.4611)"
           style="font-variant:normal;font-weight:800;font-stretch:normal;font-size:24px;font-family:'Sense ExtraBold';-inkscape-font-specification:Sense-ExtraBold;writing-mode:lr-tb;fill:#f5f5f5;fill-opacity:1;fill-rule:nonzero;stroke:none"
           id="text188"><tspan
             x="0 12.24 24.48"
             y="0"
             sodipodi:role="line"
             id="tspan190">09.</tspan></text>
<text
           transform="matrix(1,0,0,-0.99999167,139.0872,260.4611)"
           style="font-variant:normal;font-weight:300;font-stretch:normal;font-size:24px;font-family:'Sense Light';-inkscape-font-specification:Sense-Light;writing-mode:lr-tb;fill:#f5f5f5;fill-opacity:1;fill-rule:nonzero;stroke:none"
           id="text192"><tspan
             x="0 11.904 25.152 32.759998 45.312 58.560001 66.167999 76.655998 82.800003 94.68 100.536 111.24 123.072 135.62399 147.26401 153.45599 164.424 174.07201 185.952"
             y="0"
             sodipodi:role="line"
             id="tspan194">Corporate Typefaces</tspan></text>
<text
           transform="matrix(1,0,0,-0.99999167,102.5112,224.4614)"
           style="font-variant:normal;font-weight:800;font-stretch:normal;font-size:24px;font-family:'Sense ExtraBold';-inkscape-font-specification:Sense-ExtraBold;writing-mode:lr-tb;fill:#f5f5f5;fill-opacity:1;fill-rule:nonzero;stroke:none"
           id="text196"><tspan
             x="0 12.24 24.48"
             y="0"
             sodipodi:role="line"
             id="tspan198">10.</tspan></text>
<text
           transform="matrix(1,0,0,-0.99999167,139.0872,224.4614)"
           style="font-variant:normal;font-weight:300;font-stretch:normal;font-size:24px;font-family:'Sense Light';-inkscape-font-specification:Sense-Light;writing-mode:lr-tb;fill:#f5f5f5;fill-opacity:1;fill-rule:nonzero;stroke:none"
           id="text200"><tspan
             x="0 15.048 26.927999 37.896 50.568001 55.848 61.127998 73.800003 85.68 91.536003 103.512 116.184 129.192 146.64 156.76801 167.73599 177.384"
             y="0"
             sodipodi:role="line"
             id="tspan202">Headline Showcase</tspan></text>
</g></g><g
       id="g204"><g
         id="g206"
         clip-path="url(#clipPath208)"><g
           id="g212"><g
             id="g214" /><g
             id="g220"><g
               clip-path="url(#clipPath216)"
               id="g222"
               style="opacity:0.14999402"><g
                 transform="translate(2146.7671,41.292)"
                 id="g224"><path
                   d="m 0,0 0,-55.978 -41.872,0 0,-431.974 -69.688,-69.688 -1.07,0 -206.934,0 -1.071,0 -69.693,69.688 0,431.974 -41.812,0 0,55.978 139.382,0 0,-55.807 -27.877,0 0,-404.208 41.817,-41.873 125.441,0 41.817,41.812 0,404.269 -27.877,0 0,55.807 L 0,0 Z"
                   style="fill:#ffbe00;fill-opacity:1;fill-rule:nonzero;stroke:none"
                   id="path226"
                   inkscape:connector-curvature="0" /></g></g></g></g><g
           id="g228"><g
             id="g230" /><g
             id="g236"><g
               clip-path="url(#clipPath232)"
               id="g238"
               style="opacity:0.14999402"><g
                 transform="translate(1491.5571,-209.6543)"
                 id="g240"><path
                   d="m 0,0 0,153.322 -41.812,41.817 -181.198,0 0,-236.951 181.198,0 L 0,0 Z m 69.693,181.198 0,-209.074 L 0,-97.564 l -1.064,0 -221.946,0 0,-153.377 41.817,0 0,-55.753 -153.377,0 0,55.753 41.812,0 0,445.91 -41.812,0 0,55.977 334.57,0 69.693,-69.748 z"
                   style="fill:#00c8b5;fill-opacity:1;fill-rule:nonzero;stroke:none"
                   id="path242"
                   inkscape:connector-curvature="0" /></g></g></g></g><g
           id="g244"><g
             id="g246" /><g
             id="g252"><g
               clip-path="url(#clipPath248)"
               id="g254"
               style="opacity:0.14999402"><g
                 transform="translate(989.7246,-460.5957)"
                 id="g256"><path
                   d="m 0,0 0,-55.752 -376.387,0 0,83.684 306.699,306.644 0,69.688 -41.817,41.817 -153.377,0 -41.812,-41.817 0,-55.753 -69.693,0 0,83.629 69.693,69.748 237.006,0 L 0,432.14 0,306.694 -306.694,0 0,0 Z"
                   style="fill:#aad700;fill-opacity:1;fill-rule:nonzero;stroke:none"
                   id="path258"
                   inkscape:connector-curvature="0" /></g></g></g></g><g
           id="g260"><g
             id="g262" /><g
             id="g268"><g
               clip-path="url(#clipPath264)"
               id="g270"
               style="opacity:0.14999402"><g
                 transform="translate(390.3267,-209.6543)"
                 id="g272"><path
                   d="m 0,0 0,153.322 -41.817,41.817 -181.252,0 0,-236.951 181.198,0 L 0,0 Z m 69.688,181.198 0,-209.074 -69.743,-69.688 -1.015,0 -221.999,0 0,-153.377 41.817,0 0,-55.753 -153.322,0 0,55.753 41.816,0 0,445.91 -41.816,0 0,55.977 334.519,0 69.743,-69.748 z"
                   style="fill:#ff7400;fill-opacity:1;fill-rule:nonzero;stroke:none"
                   id="path274"
                   inkscape:connector-curvature="0" /></g></g></g></g></g></g><g
       id="g276"
       transform="translate(1951.5789,97.0452)"><path
         d="m 0,0 0,-96.693 55.751,0 0,40.94 139.437,0 0,-40.94 55.753,0 0,96.693 L 0,0 Z m -289.279,0 -3.424,0 0,-96.693 55.752,0 0,40.94 139.381,0 0,-40.94 55.752,0 0,96.693 -247.461,0 z"
         style="fill:#ffbe00;fill-opacity:1;fill-rule:nonzero;stroke:none"
         id="path278"
         inkscape:connector-curvature="0" /></g><g
       id="g280"
       transform="translate(1101.2346,97.0452)"><path
         d="m 0,0 0,-96.693 55.752,0 0,40.94 334.571,0 40.908,-40.94 83.606,0 L 418.198,0 0,0 Z"
         style="fill:#00c8b5;fill-opacity:1;fill-rule:nonzero;stroke:none"
         id="path282"
         inkscape:connector-curvature="0" /></g><g
       id="g284"
       transform="translate(655.1541,97.0452)"><path
         d="m 0,0 -96.638,-96.693 83.607,0 40.908,40.94 237.006,0 40.904,-40.94 83.605,0 L 292.758,0 0,0 Z"
         style="fill:#aad700;fill-opacity:1;fill-rule:nonzero;stroke:none"
         id="path286"
         inkscape:connector-curvature="0" /></g><g
       id="g288"
       transform="translate(9e-4,97.0452)"><path
         d="m 0,0 0,-96.693 55.751,0 0,40.94 334.52,0 40.937,-40.94 83.628,0 L 418.203,0 0,0 Z"
         style="fill:#ff7400;fill-opacity:1;fill-rule:nonzero;stroke:none"
         id="path290"
         inkscape:connector-curvature="0" /></g></g></svg>